<svg width="16" height="16" viewBox="0 0 16 16" fill="none" xmlns="http://www.w3.org/2000/svg">
<path d="M7.54996 0.499979C6.19058 0.671854 4.99371 1.52185 4.40621 2.73435C3.56871 4.45623 4.07183 6.53748 5.60308 7.6906C5.79996 7.83748 5.83746 7.8781 5.79058 7.89373C5.57496 7.96873 5.09371 8.18748 4.85933 8.31873C3.28433 9.2031 2.14058 10.6812 1.70621 12.4C1.52496 13.1125 1.44996 13.9844 1.54058 14.3344C1.69058 14.9062 2.14371 15.3531 2.69371 15.4656C2.80933 15.4906 3.68746 15.5 5.52183 15.4937C8.15308 15.4844 8.18433 15.4844 8.26871 15.4187C8.43433 15.2969 8.48433 15.1969 8.48433 15C8.48433 14.8031 8.43433 14.7031 8.26871 14.5812C8.18433 14.5156 8.14996 14.5156 5.49996 14.5C2.84996 14.4844 2.81558 14.4844 2.73121 14.4187C2.50621 14.2531 2.46558 14.0656 2.52808 13.4781C2.62496 12.5687 2.91246 11.75 3.39996 11C3.90621 10.2187 4.63433 9.56248 5.46871 9.12811C6.27808 8.70935 6.91246 8.54998 7.98433 8.49998C8.41871 8.4781 8.66558 8.44998 8.90621 8.39373C10.4625 8.03748 11.6 6.85623 11.9562 5.23435C12.0312 4.8906 12.0312 4.08123 11.9562 3.73435C11.7781 2.9156 11.4125 2.22498 10.8593 1.66873C10.2843 1.0906 9.58121 0.712479 8.77183 0.546854C8.47496 0.487479 7.84371 0.462479 7.54996 0.499979ZM8.72183 1.5906C9.26871 1.73123 9.71246 1.98748 10.1125 2.38748C10.5187 2.7906 10.7656 3.2281 10.9125 3.7906C11.0125 4.16873 11.0125 4.84998 10.9125 5.21873C10.7562 5.79685 10.5281 6.18748 10.1093 6.60935C9.55621 7.16248 8.93746 7.4406 8.16871 7.4906C6.90308 7.56873 5.69058 6.79998 5.22183 5.62185C5.05621 5.20623 5.01871 4.99998 5.01871 4.49998C5.01871 4.02185 5.07183 3.73123 5.22496 3.35935C5.42183 2.89373 5.84058 2.35935 6.23121 2.08123C6.59058 1.82498 7.04371 1.6281 7.48433 1.54373C7.78433 1.48435 8.40933 1.50935 8.72183 1.5906Z" fill="#FF6701" stroke="#FF6701" stroke-width="0.2"/>
<path d="M11.5469 9.04375C11.4313 9.09687 11.3281 9.20625 11.2844 9.32188C11.2625 9.37812 11.25 9.75312 11.25 10.3281V11.2469L10.2844 11.2562C9.3625 11.2656 9.3125 11.2687 9.23125 11.3312C9.06563 11.4531 9.01562 11.5531 9.01562 11.75C9.01562 11.9469 9.06563 12.0469 9.23125 12.1688C9.3125 12.2313 9.3625 12.2344 10.2812 12.2437L11.2469 12.2531L11.2563 13.2188C11.2656 14.1375 11.2687 14.1875 11.3312 14.2687C11.4531 14.4344 11.5531 14.4844 11.75 14.4844C11.9469 14.4844 12.0469 14.4344 12.1688 14.2687C12.2313 14.1875 12.2344 14.1375 12.2438 13.2188L12.2531 12.2531L13.2188 12.2437C14.1375 12.2344 14.1875 12.2313 14.2688 12.1688C14.4344 12.0469 14.4844 11.9469 14.4844 11.75C14.4844 11.5531 14.4344 11.4531 14.2688 11.3312C14.1875 11.2687 14.1375 11.2656 13.2188 11.2562L12.2531 11.2469L12.2438 10.2812C12.2344 9.3625 12.2313 9.3125 12.1688 9.23125C12.1344 9.18437 12.0688 9.11562 12.025 9.08437C11.9188 9.00625 11.6719 8.98438 11.5469 9.04375Z" fill="#FF6701" stroke="#FF6701" stroke-width="0.2"/>
</svg>
