<svg width="26" height="26" viewBox="0 0 26 26" fill="none" xmlns="http://www.w3.org/2000/svg">
<g clip-path="url(#clip0_400_1358)">
<path d="M15.0652 3.30808V5.44577H4.37682V19.7522L6.26118 18.2719H21.4783V10.79H23.6159V19.3407C23.6159 19.6242 23.5033 19.896 23.3029 20.0965C23.1024 20.2969 22.8306 20.4095 22.5471 20.4095H7.00082L2.23914 24.1505V4.37692C2.23914 4.09345 2.35175 3.82159 2.55219 3.62114C2.75264 3.42069 3.0245 3.30808 3.30798 3.30808H15.0652ZM20.4094 3.30808V0.101562H22.5471V3.30808H25.7536V5.44577H22.5471V8.65229H20.4094V5.44577H17.2029V3.30808H20.4094Z" fill="#FF6701"/>
</g>
<defs>
<clipPath id="clip0_400_1358">
<rect width="25.6522" height="25.6522" fill="white" transform="translate(0.101456 0.101562)"/>
</clipPath>
</defs>
</svg>
