<svg width="34" height="34" viewBox="0 0 34 34" fill="none" xmlns="http://www.w3.org/2000/svg">
<g id="Icon">
<path id="Vector" d="M18.4167 18.4166V25.4999C18.4167 26.2823 17.7824 26.9166 17 26.9166C16.2176 26.9166 15.5834 26.2823 15.5834 25.4999V18.4166H8.50004C7.71764 18.4166 7.08337 17.7823 7.08337 16.9999C7.08337 16.2175 7.71764 15.5833 8.50004 15.5833H15.5834V8.49992C15.5834 7.71752 16.2176 7.08325 17 7.08325C17.7824 7.08325 18.4167 7.71752 18.4167 8.49992V15.5833H25.5C26.2824 15.5833 26.9167 16.2175 26.9167 16.9999C26.9167 17.7823 26.2824 18.4166 25.5 18.4166H18.4167Z" fill="#FF6701"/>
</g>
</svg>
