<svg width="56" height="56" viewBox="0 0 56 56" fill="none" xmlns="http://www.w3.org/2000/svg">
<rect width="56" height="56" rx="28" fill="#FF6701"/>
<rect x="14" y="14" width="28" height="28" rx="14" fill="#FF6701" stroke="#FFEADC" stroke-width="2" stroke-linecap="round" stroke-dasharray="7 7"/>
<path d="M29.2084 29.2084V32.7501C29.2084 33.1413 28.8913 33.4584 28.5001 33.4584C28.1089 33.4584 27.7917 33.1413 27.7917 32.7501V29.2084H24.2501C23.8589 29.2084 23.5417 28.8913 23.5417 28.5001C23.5417 28.1089 23.8589 27.7917 24.2501 27.7917H27.7917V24.2501C27.7917 23.8589 28.1089 23.5417 28.5001 23.5417C28.8913 23.5417 29.2084 23.8589 29.2084 24.2501V27.7917H32.7501C33.1413 27.7917 33.4584 28.1089 33.4584 28.5001C33.4584 28.8913 33.1413 29.2084 32.7501 29.2084H29.2084Z" fill="#FFEADC"/>
</svg>
