<svg width="48" height="48" viewBox="0 0 48 48" fill="none" xmlns="http://www.w3.org/2000/svg">
<rect width="48" height="48" rx="24" fill="#FF6701"/>
<path d="M26.8761 25.8205C28.4674 25.8206 29.9972 26.435 31.1466 27.5356C32.2959 28.6361 32.976 30.1379 33.0451 31.7277L33.0513 31.9957V33.2308C33.0515 33.8539 32.8161 34.4542 32.3924 34.9111C31.9686 35.368 31.3879 35.6479 30.7664 35.6947L30.5812 35.7009H13.2906C12.6674 35.7011 12.0672 35.4657 11.6102 35.042C11.1533 34.6182 10.8734 34.0374 10.8267 33.416L10.8205 33.2308V31.9957C10.8206 30.4044 11.435 28.8746 12.5355 27.7252C13.6361 26.5759 15.1379 25.8958 16.7277 25.8267L16.9957 25.8205H26.8761ZM21.9359 11C23.5736 11 25.1443 11.6506 26.3024 12.8087C27.4605 13.9668 28.1111 15.5374 28.1111 17.1752C28.1111 18.813 27.4605 20.3837 26.3024 21.5417C25.1443 22.6998 23.5736 23.3504 21.9359 23.3504C20.2981 23.3504 18.7274 22.6998 17.5693 21.5417C16.4113 20.3837 15.7607 18.813 15.7607 17.1752C15.7607 15.5374 16.4113 13.9668 17.5693 12.8087C18.7274 11.6506 20.2981 11 21.9359 11Z" fill="white"/>
<rect x="26.5" y="21.5" width="11" height="11" rx="5.5" fill="white"/>
<path d="M32.2857 27.2857V28.7143C32.2857 28.8721 32.1578 29 32 29C31.8422 29 31.7143 28.8721 31.7143 28.7143V27.2857H30.2857C30.1279 27.2857 30 27.1578 30 27C30 26.8422 30.1279 26.7143 30.2857 26.7143H31.7143V25.2857C31.7143 25.1279 31.8422 25 32 25C32.1578 25 32.2857 25.1279 32.2857 25.2857V26.7143H33.7143C33.8721 26.7143 34 26.8422 34 27C34 27.1578 33.8721 27.2857 33.7143 27.2857H32.2857Z" fill="#FF6701" stroke="#FF6701" stroke-width="0.5"/>
<rect x="26.5" y="21.5" width="11" height="11" rx="5.5" stroke="#FF6701"/>
</svg>
