<svg width="28" height="28" viewBox="0 0 28 28" fill="none" xmlns="http://www.w3.org/2000/svg">
<g id="mingcute:arrow-up-fill" clip-path="url(#clip0_29_2358)">
<g id="Group">
<path id="Union" fill-rule="evenodd" clip-rule="evenodd" d="M5.09558 14.6674C5.00556 14.5774 4.93772 14.4736 4.89208 14.3628C4.84831 14.2568 4.82347 14.1409 4.82178 14.0195L4.82169 14.0062L4.82172 14.0016C4.81968 13.7596 4.91096 13.517 5.09558 13.3324C5.12662 13.3014 5.15931 13.2729 5.19335 13.2472L11.3817 7.05881C11.7469 6.69361 12.339 6.69361 12.7042 7.05881C13.0694 7.424 13.0694 8.01609 12.7042 8.38128L8.01443 13.0711L22.2432 13.0711C22.7596 13.0711 23.1783 13.4897 23.1783 14.0062C23.1783 14.5227 22.7596 14.9413 22.2432 14.9413L8.02699 14.9413L12.7042 19.6185C13.0694 19.9837 13.0694 20.5758 12.7042 20.941C12.339 21.3062 11.7469 21.3062 11.3817 20.941L5.19335 14.7526C5.15931 14.7269 5.12662 14.6985 5.09558 14.6674Z" fill="#303030"/>
</g>
</g>
<defs>
<clipPath id="clip0_29_2358">
<rect width="28" height="28" fill="white" transform="matrix(0 -1 1 0 0 28)"/>
</clipPath>
</defs>
</svg>
