<svg width="20" height="19" viewBox="0 0 20 19" fill="none" xmlns="http://www.w3.org/2000/svg">
<g id="Layer_1" clip-path="url(#clip0_29_2426)">
<path id="Vector" d="M0 12.4059C0.0670027 12.1123 0.117719 11.8136 0.204264 11.5261C0.419232 10.8123 0.820317 10.2107 1.34564 9.68581C3.7506 7.28364 6.15463 4.87961 8.55774 2.47372C9.46088 1.56965 10.5269 0.960107 11.786 0.72932C13.461 0.42269 15.0212 0.73909 16.4259 1.71668C17.5491 2.49791 18.3276 3.54902 18.737 4.8551C19.1944 6.3166 19.1093 7.75716 18.4993 9.16422C18.1824 9.89473 17.7176 10.5233 17.1573 11.0836C14.7629 13.4798 12.3682 15.8755 9.97317 18.2705C9.75867 18.4855 9.52509 18.6377 9.20682 18.6158C8.85971 18.5925 8.60938 18.4218 8.46793 18.11C8.39907 17.9703 8.37127 17.8138 8.38774 17.6589C8.40421 17.504 8.46429 17.3569 8.56099 17.2348C8.62549 17.1519 8.69627 17.0741 8.7727 17.0021C11.1535 14.6198 13.5353 12.2383 15.9183 9.85751C16.5515 9.22564 17.0015 8.49279 17.1783 7.61152C17.4575 6.21563 17.1499 4.95933 16.2254 3.87054C15.4744 2.98647 14.5038 2.48442 13.3522 2.38159C11.9953 2.26107 10.813 2.69101 9.84475 3.6565C7.40256 6.09093 4.96425 8.52955 2.52982 10.9724C1.12462 12.385 1.66948 14.7036 3.54882 15.308C4.46452 15.6025 5.30671 15.4155 6.04886 14.7994C6.12005 14.7403 6.18612 14.6743 6.25173 14.6087C8.45413 12.4062 10.6565 10.2038 12.8589 8.00144C13.1237 7.73715 13.261 7.44076 13.1525 7.0648C13.1138 6.934 13.0446 6.81428 12.9506 6.71549C12.8565 6.6167 12.7403 6.54167 12.6116 6.4966C12.4829 6.45152 12.3453 6.43768 12.2101 6.45622C12.075 6.47476 11.9462 6.52514 11.8344 6.60322C11.7499 6.66606 11.671 6.73595 11.5984 6.81214C10.1833 8.2254 8.76898 9.63913 7.35541 11.0533C6.97945 11.4283 6.51369 11.4721 6.13866 11.1752C5.95937 11.0337 5.8435 10.8269 5.81646 10.6002C5.78942 10.3734 5.85342 10.1451 5.99442 9.96546C6.03782 9.9124 6.08444 9.86205 6.13401 9.8147C7.56991 8.37848 9.00628 6.94289 10.4431 5.50792C11.3151 4.63967 12.5835 4.45216 13.596 5.02913C15.1212 5.89783 15.4106 7.89582 14.1543 9.16282C11.9265 11.4176 9.67724 13.6515 7.43265 15.8901C6.58627 16.7346 5.55704 17.1762 4.36727 17.1803C2.53307 17.1892 0.947809 16.092 0.302443 14.4174C0.174952 14.0871 0.123768 13.7269 0.0358273 13.3807C0.0262336 13.352 0.0142495 13.3242 0 13.2974V12.4059Z" fill="#303030"/>
</g>
<defs>
<clipPath id="clip0_29_2426">
<rect width="19.0264" height="18" fill="white" transform="translate(0 0.618164)"/>
</clipPath>
</defs>
</svg>
