<svg width="32" height="32" viewBox="0 0 32 32" fill="none" xmlns="http://www.w3.org/2000/svg">
<g clip-path="url(#clip0_417_799)">
<path fill-rule="evenodd" clip-rule="evenodd" d="M6.31076 17.0063C6.20942 16.9044 6.13286 16.7871 6.08109 16.662C6.0261 16.5291 5.99908 16.3873 6.00002 16.2457C5.99818 15.9698 6.10252 15.6933 6.31302 15.4828C6.3485 15.4474 6.38585 15.4149 6.42476 15.3855L13.4972 8.31302C13.9146 7.89566 14.5912 7.89566 15.0086 8.31302C15.426 8.73038 15.426 9.40706 15.0086 9.82442L9.64885 15.1842L25.9103 15.1842C26.5005 15.1842 26.979 15.6627 26.979 16.2529C26.979 16.8431 26.5005 17.3216 25.9103 17.3216L9.6632 17.3216L15.0086 22.667C15.426 23.0844 15.426 23.761 15.0086 24.1784C14.5912 24.5958 13.9146 24.5958 13.4972 24.1784L6.42476 17.106C6.38668 17.0772 6.35009 17.0455 6.31529 17.0109L6.31076 17.0063Z" fill="#303030"/>
</g>
<defs>
<clipPath id="clip0_417_799">
<rect width="32" height="32" fill="white" transform="matrix(0 -1 1 0 0 32)"/>
</clipPath>
</defs>
</svg>
