<svg width="226" height="199" viewBox="0 0 226 199" fill="none" xmlns="http://www.w3.org/2000/svg">
<path d="M196.465 134.18L210.555 114.412C210.558 114.408 210.562 114.405 210.566 114.403C210.57 114.401 210.575 114.4 210.58 114.4C210.584 114.4 210.589 114.401 210.593 114.403C210.597 114.405 210.601 114.408 210.604 114.412L225.706 133.041V133.084L196.465 134.229C196.461 134.226 196.458 134.222 196.456 134.218C196.454 134.214 196.452 134.209 196.452 134.205C196.452 134.2 196.454 134.195 196.456 134.191C196.458 134.187 196.461 134.183 196.465 134.18Z" fill="#FFC288"/>
<path d="M153.882 118.902L210.64 114.375C210.64 114.375 210.683 114.375 210.671 114.418L182.679 155.167H182.63L153.864 118.951C153.864 118.951 153.858 118.908 153.882 118.902Z" fill="#FEA82F"/>
<path d="M97.3249 142.313L182.24 154.46C182.345 154.476 182.444 154.517 182.53 154.58C182.615 154.643 182.684 154.725 182.73 154.821C182.776 154.916 182.799 155.021 182.795 155.127C182.791 155.233 182.762 155.337 182.709 155.429L171.933 174.344C171.854 174.481 171.729 174.584 171.579 174.635C171.43 174.685 171.268 174.679 171.122 174.618L96.9838 143.55C94.6445 142.672 94.1693 142.088 94.1693 142.088C94.279 141.966 96.8559 142.246 97.3249 142.313Z" fill="#FEA82F"/>
<path d="M40.658 88.8991L93.8526 141.984C93.8554 141.99 93.8601 141.996 93.866 142C93.872 142.004 93.879 142.006 93.8861 142.006C93.8932 142.006 93.9001 142.004 93.9061 142C93.912 141.996 93.9167 141.99 93.9196 141.984L120.115 76.8432C120.119 76.8359 120.12 76.8276 120.119 76.8194C120.119 76.8112 120.115 76.8033 120.11 76.7969C120.105 76.7904 120.098 76.7856 120.09 76.783C120.082 76.7804 120.074 76.7802 120.066 76.7823L40.6824 88.826C40.6744 88.827 40.6668 88.8302 40.6606 88.8353C40.6543 88.8404 40.6497 88.8472 40.6471 88.8548C40.6446 88.8625 40.6442 88.8707 40.6462 88.8786C40.6481 88.8864 40.6522 88.8935 40.658 88.8991Z" fill="#FEA82F"/>
<path d="M18.0754 60.9008L120.005 76.7397V76.7945L40.6702 88.8321L18.0693 60.9556C18.0643 60.9526 18.0604 60.9482 18.0578 60.943C18.0553 60.9378 18.0542 60.932 18.0549 60.9262C18.0555 60.9205 18.0578 60.915 18.0614 60.9105C18.065 60.906 18.0699 60.9026 18.0754 60.9008Z" fill="#FF8600"/>
<path d="M0.0128516 61.315L12.2332 51.7263L120.17 76.4534L120.809 76.5996L0.0250355 61.3698C0.0191329 61.3687 0.0136772 61.3659 0.00935248 61.3618C0.00502775 61.3576 0.00202657 61.3523 0.000725336 61.3464C-0.000575896 61.3406 -0.000119245 61.3345 0.002038 61.3289C0.00419524 61.3233 0.00795704 61.3184 0.0128516 61.315Z" fill="#FFC288"/>
<path d="M182.733 154.826C182.74 154.826 182.746 154.824 182.751 154.82C182.757 154.817 182.761 154.812 182.764 154.807C182.767 154.801 182.769 154.795 182.769 154.789C182.769 154.783 182.767 154.776 182.764 154.771L135.412 95.3931L120.456 76.6483H120.401L93.8526 141.966C93.8526 141.966 93.9744 142.033 93.9988 142.039L182.733 154.826Z" fill="#FF9825"/>
<path d="M173.705 63.8005L135.326 95.2347C135.326 95.2347 135.326 95.2347 135.326 95.2712L154.004 118.743L177.927 116.782C177.927 116.782 177.927 116.782 177.927 116.751L173.736 63.8187C173.733 63.8129 173.729 63.808 173.723 63.8047C173.718 63.8014 173.712 63.7999 173.705 63.8005Z" fill="#FF6701"/>
<path d="M97.995 49.649L173.711 63.5507V63.5994L135.284 95.0398H135.247L120.413 76.6422L107.291 73.4074L97.9646 49.649C97.9646 49.649 97.9768 49.649 97.995 49.649Z" fill="#FF8600"/>
<path d="M97.9463 0.0608551V49.5941L173.638 63.4898V63.441L97.9951 0.0364874C97.9905 0.0330934 97.9852 0.0310266 97.9795 0.0305186C97.9739 0.0300106 97.9682 0.0310815 97.9632 0.0336112C97.9581 0.036141 97.9539 0.0400297 97.9509 0.0448415C97.9479 0.0496534 97.9463 0.0551984 97.9463 0.0608551Z" fill="#FEA82F"/>
<path d="M81.3824 0.462924L97.9159 -6.10352e-05L97.9463 0.0303985V13.2376C97.9463 13.2376 97.9463 13.2742 97.8976 13.2376L81.3703 0.517751L81.3824 0.462924Z" fill="#FF8600"/>
<path d="M107.042 148.399L89.8136 183.324V183.36L171.256 174.777C171.287 174.777 171.786 174.777 171.421 174.521L107.31 147.857C107.066 148.374 107.048 148.381 107.042 148.399Z" fill="#FEA82F"/>
<path d="M82.284 198.218L107.261 148.058C107.274 148.031 107.279 148.001 107.275 147.972C107.27 147.942 107.256 147.915 107.235 147.894C107.214 147.873 107.187 147.859 107.158 147.855C107.128 147.85 107.098 147.855 107.072 147.869L25.6171 188.788C25.5913 188.801 25.5702 188.822 25.5568 188.848C25.5435 188.874 25.5384 188.903 25.5425 188.932C25.5465 188.961 25.5593 188.988 25.5793 189.009C25.5992 189.03 25.6252 189.044 25.6537 189.05L82.1378 198.291C82.1668 198.297 82.1969 198.293 82.2233 198.28C82.2498 198.267 82.2711 198.245 82.284 198.218Z" fill="#FFC288"/>
</svg>
