<svg width="24" height="24" viewBox="0 0 24 24" fill="none" xmlns="http://www.w3.org/2000/svg">
<path d="M5.14114 4.24816L6.06733 3.59976C6.93418 2.99286 8.11828 3.1701 8.83319 4.01382L10.2568 5.6948C10.8772 6.42654 10.9872 7.48042 10.5289 8.29956L9.25544 10.5787C9.6868 11.5714 10.3461 12.4754 11.2343 13.2903C12.0836 14.0819 13.0831 14.6951 14.1736 15.0935L16.1211 13.6917C16.859 13.1616 17.8539 13.1987 18.5898 13.7835L20.3039 15.1458C21.1606 15.826 21.4248 17.0488 20.9238 18.0068L20.3866 19.0338C19.852 20.0557 18.8307 20.6845 17.7035 20.6833C15.0438 20.6813 12.1168 19.1297 8.92143 16.029C5.72142 12.9234 4.01593 9.97284 3.80424 7.18173C3.7153 6.00713 4.22456 4.89044 5.14305 4.24757L5.14114 4.24816Z" fill="#303030"/>
</svg>
