<svg width="24" height="24" viewBox="0 0 24 24" fill="none" xmlns="http://www.w3.org/2000/svg">
<g id="call-_1_" clip-path="url(#clip0_590_558)">
<g id="Group">
<path id="Vector" d="M1.47637 0.0656433C0.731062 0.243769 0.17325 0.857832 0.0373123 1.63596C-0.0330002 2.04846 0.0466873 3.73596 0.187312 4.77189C0.768562 9.04689 2.41387 12.7781 5.20762 16.1485C5.70919 16.7531 7.24669 18.2906 7.85137 18.7922C11.2217 21.586 14.9529 23.2313 19.2279 23.8125C20.2732 23.9531 21.9514 24.0328 22.3686 23.9625C23.1607 23.8266 23.7842 23.236 23.9482 22.4625C23.9811 22.2985 23.9998 21.4266 23.9998 19.861C23.9998 17.3485 23.9904 17.2219 23.7607 16.7766C23.6342 16.5235 23.3248 16.1906 23.0857 16.0547C22.7295 15.8438 22.4998 15.7922 21.7264 15.75C20.2592 15.6656 19.3029 15.511 18.1873 15.1781C17.1795 14.8828 16.6029 14.925 16.0592 15.3422C15.0701 16.0969 13.2139 17.4844 13.1857 17.4844C13.1248 17.4844 12.2154 16.9547 11.6717 16.6031C9.64669 15.286 8.09981 13.6313 6.84356 11.4188C6.55762 10.9219 6.50606 10.8047 6.55294 10.7344C6.58106 10.6875 7.07325 10.0313 7.64512 9.27658C8.217 8.51721 8.73731 7.81408 8.79356 7.71096C8.8545 7.60314 8.93887 7.38752 8.98106 7.22346C9.07481 6.84377 9.04669 6.60002 8.81231 5.76564C8.48887 4.61252 8.3295 3.59533 8.27325 2.34377C8.24044 1.62189 8.17012 1.27033 7.98731 0.956268C7.72481 0.510956 7.2045 0.140644 6.70294 0.0468941C6.33262 -0.0234184 1.77637 -0.00935555 1.47637 0.0656433ZM6.62325 1.42033C6.87637 1.58439 6.90919 1.68752 6.94669 2.52189C7.00294 3.82502 7.16231 4.82346 7.49981 6.02814C7.70137 6.73596 7.72012 6.88596 7.63106 7.04533C7.60294 7.10158 7.03575 7.86564 6.37481 8.74221C5.71387 9.62346 5.14669 10.3875 5.11387 10.4391C4.9545 10.7438 5.08575 11.0906 5.86856 12.4031C7.49512 15.1266 9.44981 16.9688 12.4686 18.6328C12.9982 18.9235 13.3357 19.0031 13.5514 18.8906C13.6123 18.8578 14.3998 18.2672 15.3045 17.5828L16.9451 16.336H17.1795C17.3107 16.336 17.6342 16.4063 17.9061 16.486C18.9982 16.8188 20.1186 17.0016 21.3982 17.0578C22.3123 17.0953 22.4014 17.1235 22.5795 17.3813C22.6592 17.4985 22.6639 17.6719 22.6779 19.711C22.6873 20.925 22.6779 22.0031 22.6639 22.1156C22.6311 22.3406 22.3967 22.6125 22.2139 22.65C22.017 22.6828 20.3623 22.6031 19.7014 22.5235C17.3482 22.2469 15.2154 21.6281 13.092 20.6016C6.65606 17.4891 2.30606 11.3813 1.47637 4.29846C1.39669 3.63752 1.317 1.98283 1.34981 1.78596C1.37794 1.65002 1.64981 1.37346 1.79044 1.34533C1.85137 1.33127 2.93419 1.32658 4.19512 1.33127C6.30919 1.33596 6.50606 1.34064 6.62325 1.42033Z" fill="#707070"/>
</g>
</g>
<defs>
<clipPath id="clip0_590_558">
<rect width="24" height="24" fill="white"/>
</clipPath>
</defs>
</svg>
