<svg width="24" height="24" viewBox="0 0 24 24" fill="none" xmlns="http://www.w3.org/2000/svg">
<g id="call" clip-path="url(#clip0_305_295)">
<g id="Group">
<path id="Vector" d="M1.47638 0.0653992C0.73107 0.243525 0.173257 0.857588 0.0373199 1.63571C-0.0329926 2.04821 0.0466949 3.73571 0.18732 4.77165C0.76857 9.04665 2.41388 12.7779 5.20763 16.1482C5.7092 16.7529 7.2467 18.2904 7.85138 18.792C11.2217 21.5857 14.9529 23.231 19.2279 23.8123C20.2733 23.9529 21.9514 24.0326 22.3686 23.9623C23.1608 23.8263 23.7842 23.2357 23.9483 22.4623C23.9811 22.2982 23.9998 21.4263 23.9998 19.8607C23.9998 17.3482 23.9904 17.2217 23.7608 16.7763C23.6342 16.5232 23.3248 16.1904 23.0858 16.0545C22.7295 15.8435 22.4998 15.792 21.7264 15.7498C20.2686 15.6654 19.3358 15.5154 18.1639 15.1779C17.5686 15.0045 17.4748 14.9904 17.0811 15.0092C16.7061 15.0232 16.617 15.0466 16.3451 15.1873C16.1717 15.2763 15.4029 15.8295 14.6295 16.4201C13.8561 17.006 13.2045 17.4842 13.1858 17.4842C13.1248 17.4842 12.2201 16.9545 11.6717 16.6029C9.6467 15.2857 8.09982 13.631 6.84357 11.4185C6.55763 10.9216 6.50607 10.8045 6.55295 10.7341C6.58107 10.6873 7.07326 10.031 7.64513 9.27634C8.21701 8.51696 8.73732 7.81384 8.79357 7.71071C8.85451 7.6029 8.93888 7.38728 8.98107 7.22321C9.07482 6.84352 9.0467 6.59978 8.81232 5.7654C8.48888 4.61227 8.32951 3.59509 8.27326 2.34352C8.24045 1.62165 8.17013 1.27009 7.98732 0.956024C7.72482 0.510712 7.20451 0.1404 6.70295 0.0466499C6.33263 -0.0236626 1.77638 -0.00959969 1.47638 0.0653992Z" fill="#FF6701"/>
</g>
</g>
<defs>
<clipPath id="clip0_305_295">
<rect width="24" height="24" fill="white"/>
</clipPath>
</defs>
</svg>
