<svg width="21" height="19" viewBox="0 0 21 19" fill="none" xmlns="http://www.w3.org/2000/svg">
<g id="Layer_1" clip-path="url(#clip0_29_2422)">
<path id="Vector" d="M10.3788 18.6185H2.5904C1.09897 18.6185 0.000640869 17.5202 0.000640869 16.023C0.000640869 12.6702 0.000640869 9.31734 0.000640869 5.96452C0.000640869 4.49968 1.10591 3.39152 2.56785 3.39037C3.48352 3.39037 4.39919 3.39037 5.31543 3.39326C5.45301 3.39326 5.5166 3.35684 5.55649 3.21983C5.63857 2.9308 5.7432 2.64581 5.84263 2.36082C6.22127 1.27694 7.14214 0.623715 8.2925 0.622559C9.69143 0.622559 11.0904 0.622559 12.4893 0.622559C13.6258 0.622559 14.549 1.27925 14.9247 2.35099C15.027 2.64292 15.1299 2.93485 15.2172 3.23082C15.2548 3.35915 15.3149 3.39557 15.4444 3.39499C16.3601 3.38921 17.2763 3.39094 18.192 3.3921C19.669 3.3921 20.7684 4.49622 20.7684 5.97782C20.7684 9.33063 20.7684 12.6834 20.7684 16.0363C20.7684 17.515 19.6655 18.6191 18.1885 18.6197L10.3788 18.6185ZM10.3788 17.2358H18.1058C18.9151 17.2358 19.3869 16.7664 19.3869 15.964C19.3869 12.654 19.3869 9.34393 19.3869 6.03389C19.3869 5.2454 18.9111 4.77311 18.1186 4.77196H14.8733C14.427 4.77196 14.2166 4.62166 14.0738 4.19388C13.9235 3.74414 13.7784 3.29267 13.6264 2.84351C13.4408 2.29319 13.0367 2.00241 12.4546 2.00126C11.0776 2.00126 9.7003 2.00126 8.32256 2.00126C7.72946 2.00126 7.33059 2.29319 7.14041 2.85796C6.98722 3.31464 6.83923 3.77305 6.68315 4.22857C6.55019 4.61877 6.33631 4.76965 5.92588 4.77022H2.68058C1.847 4.77022 1.38512 5.23268 1.38454 6.06915V15.9126C1.38454 16.7797 1.83949 17.234 2.70255 17.234L10.3788 17.2358Z" fill="#303030"/>
<path id="Vector_2" d="M5.19283 10.6501C5.19207 9.2763 5.73688 7.95842 6.70749 6.98617C7.67811 6.01393 8.99508 5.46692 10.3689 5.46538C11.0547 5.46231 11.7342 5.59532 12.3682 5.85672C13.0022 6.11812 13.578 6.50271 14.0623 6.98821C14.5467 7.47371 14.9298 8.05048 15.1897 8.68511C15.4496 9.31974 15.5809 9.99962 15.5762 10.6854C15.5762 13.537 13.2454 15.8493 10.3776 15.8487C9.69546 15.8489 9.02002 15.7145 8.38997 15.4532C7.75992 15.1918 7.18766 14.8087 6.70598 14.3257C6.22431 13.8428 5.8427 13.2695 5.58304 12.6388C5.32338 12.008 5.19078 11.3322 5.19283 10.6501ZM14.1923 10.6386C14.168 8.52281 12.4424 6.82328 10.3394 6.85045C9.33017 6.86613 8.36812 7.28044 7.66327 8.00294C6.95843 8.72544 6.56803 9.69744 6.57731 10.7068C6.59986 12.7838 8.33523 14.4816 10.4186 14.4642C12.502 14.4469 14.216 12.7046 14.1923 10.6409V10.6386Z" fill="#303030"/>
<path id="Vector_3" d="M17.3184 7.5401C17.1365 7.54429 16.9604 7.47606 16.8288 7.35042C16.6972 7.22478 16.6209 7.05202 16.6167 6.87012C16.6126 6.77824 16.6272 6.68649 16.6595 6.60038C16.6918 6.51428 16.7412 6.43559 16.8047 6.36907C16.8682 6.30254 16.9445 6.24954 17.029 6.21326C17.1135 6.17698 17.2045 6.15816 17.2965 6.15794C17.3886 6.15559 17.4803 6.17187 17.566 6.20579C17.6517 6.23972 17.7297 6.29058 17.7952 6.35535C17.8608 6.42012 17.9126 6.49746 17.9476 6.58273C17.9826 6.668 18 6.75946 17.9988 6.85162C17.9994 6.9415 17.9822 7.03061 17.9483 7.11385C17.9144 7.1971 17.8644 7.27285 17.8012 7.33678C17.738 7.40071 17.6629 7.45157 17.5801 7.48646C17.4972 7.52135 17.4083 7.53957 17.3184 7.5401Z" fill="#303030"/>
</g>
<defs>
<clipPath id="clip0_29_2422">
<rect width="20.769" height="18" fill="white" transform="translate(0 0.618164)"/>
</clipPath>
</defs>
</svg>
