<svg width="15" height="15" viewBox="0 0 15 15" fill="none" xmlns="http://www.w3.org/2000/svg">
<g id="carbon:qr-code">
<path id="Vector" d="M11.2661 13.0198V12.1428H12.1431V13.0198H11.2661ZM8.63508 11.2658V10.3888H9.51209V11.2658H8.63508ZM8.63508 13.8969H10.3891V13.0198H9.51209V12.1428H8.63508V13.8969ZM12.1431 12.1428V10.3888H13.0202V12.1428H12.1431ZM13.0202 12.1428H13.8972V13.8969H12.1431V13.0198H13.0202V12.1428ZM12.1431 9.51178V8.63477H13.8972V10.3888H13.0202V9.51178H12.1431ZM11.2661 9.51178H10.3891V11.2658H9.51209V12.1428H11.2661V9.51178ZM8.63508 9.51178V8.63477H10.3891V9.51178H8.63508ZM3.37298 10.3888H5.12701V12.1428H3.37298V10.3888Z" fill="white"/>
<path id="Vector_2" d="M6.88104 13.8972H1.61894V8.63514H6.88104V13.8972ZM2.49596 13.0202H6.00402V9.51216H2.49596V13.0202ZM10.3891 3.37305H12.1431V5.12708H10.3891V3.37305Z" fill="white"/>
<path id="Vector_3" d="M13.8972 6.88124H8.63508V1.61914H13.8972V6.88124ZM9.51209 6.00422H13.0202V2.49616H9.51209V6.00422ZM3.37298 3.37317H5.12701V5.12721H3.37298V3.37317Z" fill="white"/>
<path id="Vector_4" d="M6.88104 6.88124H1.61894V1.61914H6.88104V6.88124ZM2.49596 6.00422H6.00402V2.49616H2.49596V6.00422Z" fill="white"/>
</g>
</svg>
