<svg width="21" height="21" viewBox="0 0 21 21" fill="none" xmlns="http://www.w3.org/2000/svg">
<path d="M14.9018 10.9642L8.3393 17.5267C8.27832 17.5876 8.20594 17.636 8.12627 17.669C8.04661 17.702 7.96123 17.719 7.875 17.719C7.78877 17.719 7.70339 17.702 7.62372 17.669C7.54406 17.636 7.47167 17.5876 7.4107 17.5267C7.34973 17.4657 7.30136 17.3933 7.26837 17.3137C7.23537 17.234 7.21838 17.1486 7.21838 17.0624C7.21838 16.9761 7.23537 16.8908 7.26837 16.8111C7.30136 16.7314 7.34973 16.6591 7.4107 16.5981L13.5097 10.4999L7.4107 4.40167C7.28756 4.27853 7.21838 4.11152 7.21838 3.93738C7.21838 3.76323 7.28756 3.59622 7.4107 3.47308C7.53384 3.34994 7.70085 3.28076 7.875 3.28076C8.04914 3.28076 8.21616 3.34994 8.3393 3.47308L14.9018 10.0356C14.9628 10.0965 15.0112 10.1689 15.0442 10.2486C15.0773 10.3282 15.0943 10.4136 15.0943 10.4999C15.0943 10.5861 15.0773 10.6715 15.0442 10.7512C15.0112 10.8308 14.9628 10.9032 14.9018 10.9642Z" fill="#707070"/>
</svg>
