<svg width="24" height="24" viewBox="0 0 24 24" fill="none" xmlns="http://www.w3.org/2000/svg">
<g id="discussion-_1_" clip-path="url(#clip0_305_61)">
<g id="Group">
<path id="Vector" d="M7.28915 0.0658302C6.76884 0.229893 6.39853 0.55333 6.16884 1.03146L6.02353 1.33614V4.00802V6.67989L6.17822 6.99396C6.3704 7.38302 6.73603 7.73458 7.11572 7.87989C7.36884 7.98302 7.4579 7.98771 8.76572 8.00646L10.1485 8.02521L10.8048 8.89708C11.1657 9.37989 11.5313 9.82052 11.6204 9.87677C11.822 10.0127 12.1501 10.0221 12.361 9.89552C12.4407 9.84396 12.8579 9.40333 13.2892 8.91583L14.0673 8.02521L15.3423 8.00646C16.5376 7.98771 16.636 7.98302 16.8845 7.87989C17.2642 7.73458 17.6298 7.38302 17.822 6.99396L17.9767 6.67989V4.00802V1.33614L17.8313 1.03146C17.6438 0.637706 17.3626 0.356455 16.9782 0.173643L16.6642 0.0236425L12.0704 0.0142679C8.45165 0.00958061 7.43915 0.0189552 7.28915 0.0658302Z" fill="#FF6701"/>
<path id="Vector_2" d="M1.41103 1.03591C0.900092 1.13435 0.417279 1.51404 0.178217 2.00623L0.0235291 2.32029V4.99216V7.66404L0.154779 7.94997C0.440717 8.56872 1.01728 8.94841 1.72978 8.9906L2.1329 9.01404L2.74228 9.82966C3.44072 10.7672 3.61415 10.9453 3.87665 10.9922C4.24228 11.0531 4.36884 10.9547 5.25478 9.95154L6.06572 9.03279L5.94853 8.95779C5.88759 8.9156 5.70009 8.75622 5.53603 8.60154C5.01572 8.11404 4.65009 7.43435 4.54697 6.76872C4.48603 6.38904 4.50478 1.25622 4.56572 1.08747L4.60322 0.984349L3.11259 0.989038C2.28759 0.993725 1.52353 1.01248 1.41103 1.03591Z" fill="#FF6701"/>
<path id="Vector_3" d="M19.4392 1.15779C19.4579 1.25622 19.4767 2.56873 19.4767 4.0781C19.4767 7.16247 19.4907 7.02185 19.111 7.75779C18.9704 8.02966 18.8157 8.23591 18.5392 8.51247C18.3329 8.71872 18.1126 8.92029 18.0517 8.95779L17.9345 9.03279L18.7454 9.95154C19.6313 10.9547 19.7579 11.0531 20.1188 10.9922C20.386 10.9453 20.5454 10.7812 21.2345 9.84841L21.8532 9.01404L22.2657 8.9906C22.5751 8.97185 22.7438 8.93435 22.9501 8.8406C23.311 8.67654 23.6767 8.31091 23.8454 7.94997L23.9767 7.66404V4.99216V2.32029L23.822 2.00623C23.6345 1.61716 23.2642 1.2656 22.8845 1.1156C22.6267 1.01248 22.5563 1.00779 21.0095 0.993725L19.4017 0.979662L19.4392 1.15779Z" fill="#FF6701"/>
<path id="Vector_4" d="M11.5548 11.5359C9.85791 11.7937 8.71884 13.4344 9.07041 15.1172C9.30009 16.2094 10.2188 17.1562 11.297 17.4094C11.4657 17.4516 11.7798 17.4844 12.0001 17.4844C12.8392 17.4844 13.4907 17.2125 14.0907 16.6172C14.8454 15.8719 15.136 14.9156 14.9251 13.8844C14.6157 12.3516 13.1017 11.2969 11.5548 11.5359Z" fill="#FF6701"/>
<path id="Vector_5" d="M3.58134 13.0545C3.19697 13.1389 2.93915 13.2748 2.63915 13.5561C2.21728 13.9592 2.01572 14.4233 2.01572 14.9998C2.01572 15.5811 2.21728 16.0405 2.64853 16.4483C3.43603 17.1936 4.62665 17.1748 5.40478 16.4014C6.19228 15.6139 6.19228 14.3858 5.40478 13.5983C5.10009 13.2983 4.75322 13.1108 4.34072 13.0358C4.00322 12.9748 3.94697 12.9748 3.58134 13.0545Z" fill="#FF6701"/>
<path id="Vector_6" d="M19.5938 13.0498C19.2001 13.1342 18.8954 13.303 18.5954 13.5983C17.8079 14.3811 17.8079 15.6139 18.5954 16.4014C19.3735 17.1748 20.5642 17.1936 21.3517 16.4483C21.7829 16.0405 21.9845 15.5811 21.9845 14.9998C21.9845 14.4233 21.7829 13.9592 21.361 13.5561C21.0563 13.2701 20.8032 13.1389 20.3954 13.0498C20.0298 12.9748 19.936 12.9748 19.5938 13.0498Z" fill="#FF6701"/>
<path id="Vector_7" d="M2.07197 18.0937C1.57509 18.225 1.19541 18.4453 0.815718 18.8203C0.229781 19.4016 -0.0233444 20.0906 0.00946807 21.0187C0.0235306 21.5625 0.0750931 21.675 0.375093 21.8766L0.529781 21.9844H2.77041H5.01572V21.6328C5.01572 20.6016 5.47509 19.5516 6.26728 18.7641L6.65166 18.3797L6.39384 18.2578C5.91103 18.0281 5.63916 18 3.96103 18.0047C2.59228 18.0047 2.37666 18.0141 2.07197 18.0937Z" fill="#FF6701"/>
<path id="Vector_8" d="M18.1595 18.0703C18.0001 18.1031 17.7517 18.1875 17.611 18.2578L17.3485 18.3797L17.7329 18.7641C18.5251 19.5516 18.9845 20.6016 18.9845 21.6328V21.9844H21.2298H23.4704L23.6251 21.8812C23.9251 21.675 23.9767 21.5625 23.9907 21.0187C24.0235 20.0953 23.7704 19.4109 23.1845 18.8203C22.8001 18.4359 22.4298 18.225 21.9095 18.0937C21.5813 18.0094 21.3938 18 19.997 18.0047C18.8907 18.0047 18.361 18.0234 18.1595 18.0703Z" fill="#FF6701"/>
<path id="Vector_9" d="M8.84072 19.0312C8.49853 19.0922 8.16572 19.2094 7.87509 19.3734C7.50478 19.5797 7.03603 20.0719 6.83447 20.4609C6.55322 21.0047 6.51572 21.2297 6.51572 22.4156C6.51572 23.4328 6.5204 23.475 6.62353 23.625C6.67978 23.7094 6.78759 23.8266 6.8579 23.8781C6.98915 23.9766 6.98915 23.9766 12.0001 23.9766C17.011 23.9766 17.011 23.9766 17.1423 23.8781C17.2126 23.8266 17.3204 23.7094 17.3813 23.625C17.4798 23.475 17.4845 23.4328 17.4845 22.4156C17.4845 21.2297 17.447 21.0047 17.1657 20.4609C16.9407 20.0297 16.4345 19.5187 16.0267 19.3172C15.3845 19.0031 15.5251 19.0125 12.1407 19.0031C10.4532 18.9984 8.96728 19.0125 8.84072 19.0312Z" fill="#FF6701"/>
</g>
</g>
<defs>
<clipPath id="clip0_305_61">
<rect width="24" height="24" fill="white"/>
</clipPath>
</defs>
</svg>
