<svg width="90" height="90" viewBox="0 0 90 90" fill="none" xmlns="http://www.w3.org/2000/svg">
<path d="M11.7335 45.0159C11.7335 26.7156 26.5698 11.855 44.8735 11.855C63.1772 11.855 78.0135 26.7156 78.0135 45.0159C78.0135 63.3496 63.1772 78.2103 44.8735 78.2103C26.5698 78.2103 11.7335 63.3496 11.7335 45.0159Z" fill="white"/>
<path fill-rule="evenodd" clip-rule="evenodd" d="M44.8735 78.8581C26.2031 78.8581 11 63.6635 11 44.929C11 26.228 26.2031 11 44.8735 11C63.5439 11 78.747 26.228 78.747 44.929C78.747 63.6635 63.5439 78.8581 44.8735 78.8581ZM44.8735 12.5028C27.0032 12.5028 12.467 27.0629 12.467 44.929C12.467 62.8286 27.0032 77.3887 44.8735 77.3887C62.7438 77.3887 77.28 62.8286 77.28 44.929C77.28 27.0629 62.7438 12.5028 44.8735 12.5028Z" fill="black" stroke="white"/>
<path d="M39.8164 61.026C39.4689 61.1234 39.0465 61.0207 38.7918 60.7267C36.5104 58.2608 26.181 46.2829 30.0039 36.2896C34.045 25.7351 45.0759 31.3729 46.2297 37.616C46.2626 37.8375 46.443 38.0369 46.6649 38.1093C46.8971 38.15 47.1604 38.0954 47.2963 37.8939C49.8313 34.9625 55.1931 34.0077 58.9435 37.0233C63.4246 40.5936 64.4778 54.9887 39.8164 61.026Z" fill="#FF6701"/>
<path d="M48.147 34.5724C51.8934 31.7717 58.4047 32.024 61.9669 36.5375" stroke="black" stroke-width="0.5" stroke-linecap="round"/>
</svg>
