<svg width="24" height="24" viewBox="0 0 24 24" fill="none" xmlns="http://www.w3.org/2000/svg">
<g id="discussion" clip-path="url(#clip0_590_534)">
<g id="Group">
<path id="Vector" d="M7.28915 0.0655861C6.76884 0.229649 6.39853 0.553086 6.16884 1.03121L6.02353 1.3359V4.00777V6.67965L6.17822 6.99371C6.3704 7.38277 6.73603 7.73434 7.11572 7.87965C7.36884 7.98277 7.4579 7.98746 8.76572 8.00621L10.1485 8.02496L10.8048 8.89684C11.1657 9.37965 11.5313 9.82027 11.6204 9.87652C11.822 10.0125 12.1501 10.0218 12.361 9.89527C12.4407 9.84371 12.8579 9.40309 13.2892 8.91559L14.0673 8.02496L15.3423 8.00621C16.5376 7.98746 16.636 7.98277 16.8845 7.87965C17.2642 7.73434 17.6298 7.38277 17.822 6.99371L17.9767 6.67965V4.00777V1.3359L17.8313 1.03121C17.6438 0.637462 17.3626 0.356211 16.9782 0.173399L16.6642 0.0233984L12.0704 0.0140238C8.45165 0.00933647 7.43915 0.0187111 7.28915 0.0655861ZM16.4157 1.57965C16.4954 1.64996 16.5001 1.7859 16.5001 4.01246V6.37027L16.397 6.44059C16.3079 6.50621 16.0876 6.51559 14.9157 6.51559C13.7954 6.51559 13.5188 6.52965 13.4063 6.5859C13.336 6.6234 13.0032 6.9609 12.6751 7.3359C12.347 7.7109 12.061 8.0109 12.0376 8.00621C12.0142 7.99684 11.7798 7.70621 11.5173 7.35934C11.2548 7.01246 10.9688 6.67965 10.8798 6.6234C10.7204 6.51559 10.7017 6.51559 9.21572 6.51559C7.92665 6.51559 7.69228 6.50621 7.60322 6.44059L7.50009 6.37027V4.02184C7.50009 1.8984 7.50947 1.66402 7.57978 1.58434C7.65009 1.50465 7.85165 1.49996 11.9907 1.49996C15.961 1.49996 16.336 1.50465 16.4157 1.57965Z" fill="#707070"/>
<path id="Vector_2" d="M1.40634 1.03589C0.881342 1.13902 0.389154 1.53746 0.150092 2.05308L0.0235291 2.32027V4.99214V7.66402L0.168842 7.96871C0.445404 8.54527 0.979779 8.92496 1.61259 8.98589L1.92197 9.01402L2.67197 9.86714C3.53447 10.8562 3.6329 10.95 3.88603 10.9921C4.23759 11.0484 4.43447 10.9125 4.91259 10.275C5.46572 9.54839 5.53134 9.43589 5.53134 9.22496C5.53134 8.72808 5.14697 8.38589 4.65947 8.46089C4.44853 8.48902 4.24697 8.64371 4.05009 8.92496L3.95634 9.05621L3.32822 8.34371C2.92978 7.88902 2.64384 7.60308 2.5454 7.56558C2.46103 7.52808 2.23134 7.49996 2.02509 7.49996C1.72509 7.49996 1.64072 7.48121 1.57978 7.41558C1.50947 7.33589 1.50009 7.10152 1.50009 4.97808V2.62964L1.60322 2.55933C1.68759 2.49839 1.86572 2.48433 2.56884 2.48433C3.26728 2.48433 3.45947 2.47027 3.59072 2.40933C3.82509 2.29683 3.95165 2.09058 3.97509 1.78589C3.99853 1.45777 3.87197 1.24683 3.56259 1.08746C3.3704 0.989019 3.30009 0.984332 2.48447 0.989019C2.00634 0.993707 1.52353 1.01246 1.40634 1.03589Z" fill="#707070"/>
<path id="Vector_3" d="M20.4376 1.08746C20.1282 1.24683 20.0017 1.45777 20.0251 1.78589C20.0485 2.09058 20.1751 2.29683 20.4095 2.40933C20.5407 2.47027 20.7329 2.48433 21.4407 2.48433C22.2517 2.48433 22.3173 2.48902 22.4063 2.57808C22.4954 2.66714 22.5001 2.73277 22.5001 5.00621C22.5001 7.73433 22.5517 7.49996 21.9657 7.49996C21.7688 7.49996 21.5392 7.52808 21.4548 7.56558C21.3563 7.60308 21.0704 7.88902 20.672 8.34371L20.0438 9.05621L19.9501 8.92496C19.772 8.67183 19.6126 8.54058 19.4204 8.48433C18.9282 8.33433 18.4688 8.69527 18.4688 9.22027C18.4688 9.43589 18.5345 9.54371 19.0876 10.275C19.5657 10.9125 19.7626 11.0484 20.1142 10.9921C20.3673 10.95 20.4657 10.8562 21.3282 9.86714L22.0782 9.01402L22.3876 8.98589C23.0204 8.92496 23.5548 8.54527 23.8313 7.96871L23.9767 7.66402V4.99214V2.32027L23.822 2.00621C23.6298 1.61714 23.2595 1.26558 22.8845 1.12027C22.6454 1.02652 22.5188 1.01246 21.6329 0.998394C20.6767 0.979645 20.6438 0.979645 20.4376 1.08746Z" fill="#707070"/>
<path id="Vector_4" d="M11.5548 11.5359C11.1892 11.5922 11.0063 11.6531 10.6407 11.8406C9.42665 12.4734 8.79384 13.7906 9.0704 15.1172C9.30009 16.2094 10.2188 17.1563 11.297 17.4094C11.4657 17.4516 11.7798 17.4844 12.0001 17.4844C12.8392 17.4844 13.4907 17.2125 14.0907 16.6172C14.7282 15.9844 15.0376 15.1969 14.986 14.3438C14.9157 13.2375 14.3063 12.3141 13.3267 11.8172C12.8063 11.5547 12.1267 11.4469 11.5548 11.5359ZM12.5298 13.1063C12.8298 13.2047 13.2235 13.5703 13.3642 13.8844C13.5282 14.2594 13.5235 14.7891 13.3454 15.15C13.2048 15.4406 12.9563 15.6891 12.647 15.8531C12.4782 15.9422 12.3751 15.9609 12.0001 15.9609C11.6251 15.9609 11.522 15.9422 11.3532 15.8531C11.0438 15.6891 10.7954 15.4406 10.6548 15.15C10.4767 14.7938 10.4673 14.2547 10.6313 13.8984C10.9688 13.1625 11.7329 12.8438 12.5298 13.1063Z" fill="#707070"/>
<path id="Vector_5" d="M3.58134 13.0548C3.19697 13.1391 2.93915 13.2751 2.63915 13.5563C2.21728 13.9595 2.01572 14.4235 2.01572 15.0001C2.01572 15.5813 2.21728 16.0407 2.64853 16.4485C3.43603 17.1938 4.62665 17.1751 5.40478 16.4016C6.19228 15.6141 6.19228 14.386 5.40478 13.5985C5.10009 13.2985 4.75322 13.111 4.34072 13.036C4.00322 12.9751 3.94697 12.9751 3.58134 13.0548ZM4.1954 14.5501C4.35947 14.6204 4.50009 14.8266 4.50009 15.0001C4.50009 15.3141 4.16259 15.5673 3.86259 15.4688C3.42197 15.3235 3.38915 14.7376 3.81572 14.5501C3.99853 14.4704 4.00322 14.4704 4.1954 14.5501Z" fill="#707070"/>
<path id="Vector_6" d="M19.5938 13.0501C19.2001 13.1345 18.8954 13.3032 18.5954 13.5985C17.8079 14.3813 17.8079 15.6141 18.5954 16.4016C19.3735 17.1751 20.5642 17.1938 21.3517 16.4485C21.7829 16.0407 21.9845 15.5813 21.9845 15.0001C21.9845 14.4235 21.7829 13.9595 21.361 13.5563C21.0563 13.2704 20.8032 13.1391 20.3954 13.0501C20.0298 12.9751 19.936 12.9751 19.5938 13.0501ZM20.1751 14.5501C20.611 14.7329 20.5829 15.3188 20.1376 15.4688C19.8376 15.5673 19.5001 15.3141 19.5001 15.0001C19.5001 14.8313 19.6407 14.6204 19.7954 14.5548C19.9829 14.4704 19.9876 14.4704 20.1751 14.5501Z" fill="#707070"/>
<path id="Vector_7" d="M2.07197 18.0938C1.06415 18.361 0.295403 19.1579 0.0704033 20.1798C-0.0420967 20.6813 -0.0139717 21.4595 0.121966 21.6423C0.464153 22.1017 1.03603 22.1017 1.37822 21.6423C1.4579 21.5345 1.47665 21.4173 1.50009 20.9626C1.5329 20.3438 1.60322 20.147 1.87509 19.8751C2.22197 19.5282 2.23134 19.5282 3.9704 19.5001C5.44697 19.4767 5.53134 19.472 5.65322 19.3782C5.90165 19.1954 5.97665 19.0454 5.97665 18.7501C5.97665 18.4548 5.90165 18.3048 5.65322 18.122C5.53134 18.0282 5.46103 18.0235 3.9704 18.0142C2.56415 18.0048 2.38134 18.0142 2.07197 18.0938Z" fill="#707070"/>
<path id="Vector_8" d="M18.4454 18.0657C18.0048 18.2579 17.8642 18.8532 18.1688 19.2188C18.3892 19.4767 18.3798 19.4767 20.0392 19.5001C21.7642 19.5282 21.7782 19.5282 22.1251 19.8751C22.397 20.147 22.4673 20.3438 22.5001 20.9626C22.5235 21.4173 22.5423 21.5345 22.622 21.6423C22.9642 22.1017 23.536 22.1017 23.8782 21.6423C24.0142 21.4595 24.0423 20.6813 23.9298 20.1798C23.761 19.4157 23.2173 18.6845 22.561 18.3376C21.9892 18.0329 21.7267 18.0001 20.0673 18.0001C18.9423 18.0048 18.5532 18.0188 18.4454 18.0657Z" fill="#707070"/>
<path id="Vector_9" d="M8.84072 19.0313C8.49853 19.0923 8.16572 19.2094 7.87509 19.3735C7.50478 19.5798 7.03603 20.0719 6.83447 20.461C6.55322 21.0048 6.51572 21.2298 6.51572 22.4157C6.51572 23.4329 6.5204 23.4751 6.62353 23.6251C6.77353 23.8501 6.94697 23.9626 7.18134 23.986C7.45322 24.0188 7.73447 23.8782 7.87978 23.6391C7.98759 23.4704 7.99228 23.4094 8.01572 22.4063C8.03915 21.3516 8.03915 21.3516 8.1704 21.1266C8.32978 20.8594 8.60165 20.6485 8.9204 20.5548C9.27197 20.4516 14.7282 20.4516 15.0798 20.5548C15.3985 20.6485 15.6704 20.8594 15.8298 21.1266C15.961 21.3516 15.961 21.3516 15.9845 22.4063C16.0079 23.4094 16.0126 23.4704 16.1204 23.6391C16.2657 23.8782 16.547 24.0188 16.8188 23.986C17.0532 23.9626 17.2267 23.8501 17.3813 23.6251C17.4798 23.4751 17.4845 23.4329 17.4845 22.4157C17.4845 21.2298 17.447 21.0048 17.1657 20.461C16.9407 20.0298 16.4345 19.5188 16.0267 19.3173C15.3845 19.0032 15.5251 19.0126 12.1407 19.0032C10.4532 18.9985 8.96728 19.0126 8.84072 19.0313Z" fill="#707070"/>
</g>
</g>
<defs>
<clipPath id="clip0_590_534">
<rect width="24" height="24" fill="white"/>
</clipPath>
</defs>
</svg>
