<svg width="185" height="140" viewBox="0 0 185 140" fill="none" xmlns="http://www.w3.org/2000/svg">
<g clip-path="url(#clip0_1153_1713)">
<path d="M26.8656 46.6513C30.1996 41.5863 34.883 37.5541 40.3873 35.0099L102.894 6.11786C136.75 -9.5312 175.888 13.0945 179.222 50.2431C182.386 85.4931 151.306 114.181 116.422 108.211L48.5475 96.5944C25.4242 92.6371 13.9674 66.2467 26.8656 46.6513Z" fill="#FFEADC"/>
<g clip-path="url(#clip1_1153_1713)">
<path d="M44.3048 29.2796C42.1279 29.9049 40.0436 31.1323 38.3993 32.7765C36.6393 34.5366 35.5509 36.4587 34.9256 38.9367C34.4856 40.6736 34.4624 41.6231 34.4624 71.8912C34.4624 101.812 34.4856 103.109 34.9024 103.873C35.5045 105.054 36.8477 105.772 38.2141 105.656C39.2099 105.564 40.1131 104.985 49.4459 98.315C55.0271 94.3318 60.1683 90.7885 60.8631 90.4643L62.1368 89.8622L85.5269 89.7464C111.464 89.6074 109.565 89.7232 112.854 88.079C114.799 87.0832 117.486 84.3273 118.481 82.243C119.94 79.2324 119.917 79.8809 119.917 54.5455C119.917 28.8396 120.033 30.507 118.319 29.3722L117.532 28.8396L81.6131 28.8627C48.3112 28.8627 45.6016 28.9091 44.3048 29.2796ZM101.321 48.2001C103.544 49.8443 103.567 52.7391 101.344 54.0823C100.603 54.5223 100.117 54.5455 79.4825 54.5455H58.3851L57.5977 54.0129C56.1851 53.0634 55.6061 51.118 56.324 49.7285C56.764 48.8717 57.6672 48.0843 58.4546 47.8295C58.8251 47.7137 68.4822 47.6443 79.8993 47.6674C100.58 47.7137 100.673 47.7137 101.321 48.2001ZM101.321 64.411C103.544 66.0553 103.567 68.9501 101.344 70.2933C100.603 70.7333 100.117 70.7564 79.4825 70.7564H58.3851L57.5977 70.2238C56.1851 69.2743 55.6061 67.329 56.324 65.9395C56.764 65.0826 57.6672 64.2952 58.4546 64.0405C58.8251 63.9247 68.4822 63.8552 79.8993 63.8784C100.58 63.9247 100.673 63.9247 101.321 64.411Z" fill="#FF6701"/>
<path d="M126.865 66.773C126.865 75.7122 126.795 78.2828 126.517 79.9039C125.267 87.083 120.056 93.1273 113.039 95.559C109.82 96.6706 109.125 96.6938 87.6806 96.6938H67.5327L67.6253 101.256C67.718 105.193 67.8106 106.073 68.2275 107.393C68.9222 109.431 70.7749 112.187 72.3728 113.484C73.9013 114.734 76.4719 116.008 78.1856 116.355C79.0193 116.541 86.3837 116.61 101.506 116.61C124.734 116.61 125.035 116.633 127.119 117.675C127.698 117.953 132.446 121.242 137.657 124.97C142.867 128.699 147.453 131.918 147.823 132.173C149.421 133.145 151.76 132.45 152.64 130.737C153.011 129.972 153.034 128.097 152.988 98.1991L152.918 66.4719L152.293 64.7582C150.834 60.7981 147.661 57.6486 143.794 56.3517C142.358 55.8654 141.756 55.819 134.577 55.7496L126.865 55.6801V66.773Z" fill="#FF6701"/>
</g>
</g>
<defs>
<clipPath id="clip0_1153_1713">
<rect width="185" height="140" fill="white"/>
</clipPath>
<clipPath id="clip1_1153_1713">
<rect width="118.571" height="118.571" fill="white" transform="translate(34.4624 21.4287)"/>
</clipPath>
</defs>
</svg>
