<svg width="24" height="24" viewBox="0 0 24 24" fill="none" xmlns="http://www.w3.org/2000/svg">
<g id="chat-_3_" clip-path="url(#clip0_264_366)">
<g id="Group">
<path id="Vector" d="M9.02344 2.18437C5.94375 2.50781 3.33281 4.05469 1.65937 6.54375C1.26562 7.12969 0.7125 8.26406 0.492187 8.925C-0.464062 11.8359 0.0046875 15.0656 1.75781 17.6062L2.04844 18.0281L1.11562 19.3406C0.0984375 20.7656 0 20.925 0 21.1406C0 21.375 0.164062 21.6422 0.375 21.75C0.557812 21.8438 0.642187 21.8438 5.43281 21.8438C10.5281 21.8438 10.8375 21.8344 11.8359 21.6328C13.3359 21.3281 14.9437 20.5547 16.1203 19.575C18.1125 17.9109 19.3734 15.5344 19.6359 12.9422C19.9266 10.1437 18.9234 7.26562 16.9453 5.20781C15.4453 3.64219 13.5984 2.6625 11.4609 2.29219C10.9172 2.19844 9.49219 2.1375 9.02344 2.18437ZM10.6406 8.57812C10.8516 8.68594 11.0156 8.95312 11.0156 9.1875C11.0156 9.42187 10.8516 9.68906 10.6406 9.79687C10.4625 9.88594 10.3687 9.89062 7.96406 9.89062H5.475L5.2875 9.7875C4.81406 9.52031 4.80937 8.87812 5.27812 8.59687L5.46094 8.48437H7.95937C10.3687 8.48437 10.4625 8.48906 10.6406 8.57812ZM14.3906 11.3906C14.6016 11.4984 14.7656 11.7656 14.7656 12C14.7656 12.2344 14.6016 12.5016 14.3906 12.6094C14.2125 12.7031 14.1234 12.7031 9.83906 12.7031H5.475L5.2875 12.6C4.81406 12.3328 4.80937 11.6906 5.27812 11.4094L5.46094 11.2969H9.83437C14.1234 11.2969 14.2125 11.2969 14.3906 11.3906ZM14.3906 14.2031C14.6016 14.3109 14.7656 14.5781 14.7656 14.8125C14.7656 15.0469 14.6016 15.3141 14.3906 15.4219C14.2125 15.5156 14.1234 15.5156 9.83906 15.5156H5.475L5.2875 15.4125C4.81406 15.1453 4.80937 14.5031 5.27812 14.2219L5.46094 14.1094H9.83437C14.1234 14.1094 14.2125 14.1094 14.3906 14.2031Z" fill="#FF6701"/>
<path id="Vector_2" d="M20.9672 10.3313C21.225 12.1969 21.0609 13.9453 20.475 15.6516C19.6875 17.9484 18.1922 19.8984 16.1391 21.3141L15.7875 21.5578L16.0359 21.6281C16.7063 21.825 17.1 21.8438 20.3344 21.8438C23.3578 21.8438 23.4469 21.8391 23.625 21.75C23.9484 21.5859 24.0891 21.1641 23.925 20.8547C23.8875 20.775 23.6156 20.3813 23.325 19.9734L22.7953 19.2328L22.9781 18.9563C23.3813 18.3516 23.7047 17.5453 23.8875 16.6875C24.0047 16.1344 24.0094 14.9016 23.8922 14.3484C23.625 13.0969 23.0859 12.0469 22.2797 11.1984C21.9 10.7953 21.3281 10.3172 21.0844 10.1906L20.9391 10.1156L20.9672 10.3313Z" fill="#FF6701"/>
</g>
</g>
<defs>
<clipPath id="clip0_264_366">
<rect width="24" height="24" fill="white"/>
</clipPath>
</defs>
</svg>
