<svg width="90" height="90" viewBox="0 0 90 90" fill="none" xmlns="http://www.w3.org/2000/svg">
<g clip-path="url(#clip0_1053_2631)">
<path d="M34.9828 58.0095L45.8679 80.1053C46.6745 81.7246 48.117 82.6134 49.1154 82.0966L50.7417 81.2558C51.7401 80.739 51.9047 78.9981 51.0981 77.3788L40.217 55.2981L34.9828 58.0095Z" fill="black"/>
<path fill-rule="evenodd" clip-rule="evenodd" d="M48.9254 82.5499C48.592 82.6361 48.2159 82.6201 47.8427 82.4901C46.9594 82.2007 46.0944 81.3568 45.5501 80.252L34.669 58.1712C34.5765 58.0011 34.6507 57.7878 34.8209 57.6953L40.055 54.9839C40.1382 54.9301 40.233 54.9218 40.3245 54.9628C40.412 54.9887 40.4923 55.0489 40.5309 55.1359L51.416 77.2318C52.319 79.0364 52.0875 80.9563 50.9189 81.5657L49.2775 82.4104C49.1641 82.4721 49.0467 82.5186 48.9254 82.5499ZM35.4588 58.1612L46.1819 79.9431C46.6488 80.8738 47.3494 81.5824 48.0576 81.8199C48.286 81.8902 48.6396 81.9444 48.9535 81.7824L50.5797 80.9416C51.3929 80.5212 51.4905 78.9594 50.7843 77.5406L40.0651 55.7739L35.4588 58.1612Z" fill="black"/>
<path d="M42.621 81.0572C41.6629 80.9166 40.9725 80.0599 41.0293 79.0909C41.2038 76.1991 41.1709 73.5064 39.7943 72.3094C38.5898 71.2782 37.4499 70.2464 37.2782 68.7057L36.9863 66.3873C36.9416 66.0268 36.5025 64.7655 37.5314 64.7422C38.306 64.7361 38.7738 65.2945 39.9231 67.9898C40.4998 69.345 41.2291 69.852 42.3179 70.1853C42.2366 69.996 42.1588 69.7574 42.1034 69.4805C41.8393 68.271 42.2203 66.9918 43.0484 66.0661C44.091 64.907 45.9082 63.2405 47.5117 64.3142C48.6304 65.0764 49.5321 67.1887 48.5687 69.7183C48.3493 70.3088 46.9087 72.994 46.9087 72.994C46.6629 73.6075 47.181 79.0538 47.181 79.0538C47.39 81.9274 45.035 81.3876 42.621 81.0572Z" fill="white"/>
<path d="M41.1744 57.2507L51.0982 77.379C51.9048 78.9983 51.7401 80.7392 50.7417 81.256L49.1155 82.0968C48.1171 82.6136 46.6745 81.7248 45.8679 80.1055L35.6661 59.402L41.1744 57.2507Z" fill="black"/>
<path fill-rule="evenodd" clip-rule="evenodd" d="M48.9254 82.5502C48.5919 82.6363 48.2159 82.6203 47.8427 82.4903C46.9593 82.201 46.0944 81.357 45.5501 80.2522L35.3522 59.5639C35.2984 59.4807 35.3013 59.3668 35.3271 59.2792C35.3682 59.1877 35.4474 59.1187 35.5344 59.0801L41.0578 56.9248C41.2167 56.8514 41.4148 56.9296 41.4883 57.0885L51.416 77.232C52.319 79.0367 52.0875 80.9566 50.9189 81.5659L49.2775 82.4107C49.1641 82.4723 49.0467 82.5188 48.9254 82.5502ZM36.1538 59.5993L46.1818 79.9434C46.6488 80.8741 47.3493 81.5826 48.0576 81.8201C48.286 81.8905 48.6396 81.9447 48.9535 81.7827L50.5797 80.9419C51.3928 80.5215 51.4905 78.9596 50.7843 77.5409L40.9995 57.7001L36.1538 59.5993Z" fill="black"/>
<path d="M37.3759 32.3529L18.6887 45.2695L11.3726 52.6273L8.48426 57.5953L8.46178 57.6334C7.8914 58.4925 8.18072 60.4881 9.19189 62.5236C10.2031 64.5591 11.6346 65.9683 12.6606 66.059L12.6303 66.0668L18.0585 66.7344L28.2394 65.2679L49.9403 57.8805L76.6843 62.8735L76.8667 62.8911C70.1344 61.5577 61.1715 52.4062 54.7653 39.5693C48.3592 26.7324 46.4435 14.126 49.4287 7.96842L49.4247 7.95326L37.5216 32.0402L37.3759 32.3529Z" fill="white"/>
<path fill-rule="evenodd" clip-rule="evenodd" d="M76.9568 63.2393C76.9265 63.2471 76.8948 63.2499 76.8619 63.2476L76.6643 63.234C76.6441 63.2392 76.6276 63.2381 76.6149 63.2306L49.9546 58.2483L28.3598 65.6083C28.3395 65.6135 28.3193 65.6187 28.2991 65.6239L18.1031 67.0943C18.0702 67.0921 18.0423 67.0885 18.0195 67.0836L12.5913 66.4161C12.5482 66.4164 12.5076 66.4053 12.4695 66.3828C11.3133 66.164 9.8852 64.7054 8.87795 62.6851C7.80512 60.5361 7.5226 58.4417 8.1565 57.453L8.16774 57.4339L11.0673 52.4468C11.0823 52.4214 11.1036 52.3997 11.1313 52.3818L18.4475 45.024C18.4524 45.0012 18.4649 44.9872 18.4851 44.9819L37.1724 32.0653C37.1668 32.002 37.179 31.9449 37.209 31.894L49.1121 7.80706C49.1942 7.6241 49.4025 7.55409 49.5855 7.63621C49.6618 7.68119 49.7268 7.74524 49.7655 7.8323C49.789 7.92327 49.8013 8.03332 49.7563 8.10964C46.7189 14.3778 48.8659 26.9406 55.0792 39.4068C61.3116 51.8842 70.0858 61.1815 76.9399 62.5481C77.1262 62.5808 77.2339 62.7471 77.2163 62.9296C77.2061 63.0778 77.0932 63.204 76.9568 63.2393ZM49.8501 57.5312C49.9007 57.5182 49.9488 57.5165 49.9944 57.5263L73.0531 61.8381C66.7608 58.5148 59.6883 50.2334 54.4475 39.7156C49.2453 29.2849 46.8712 18.7218 47.9586 11.7283L37.838 32.2005C37.8106 32.2615 37.7743 32.3087 37.729 32.3419C37.7261 32.4559 37.6738 32.5665 37.5643 32.6433L18.9186 45.5331L11.6553 52.8448L8.77429 57.7786C8.7668 57.7913 8.75931 57.804 8.75182 57.8167C8.32024 58.462 8.45592 60.2385 9.50967 62.3762C10.5668 64.4645 11.9053 65.639 12.6996 65.7087C12.7426 65.7084 12.7832 65.7195 12.8214 65.742L18.048 66.3807L28.1683 64.9299L49.8198 57.5391C49.8299 57.5365 49.84 57.5338 49.8501 57.5312Z" fill="black"/>
<path d="M78.8945 27.6236C86.8174 43.5137 87.8451 59.0669 81.1612 62.3632C74.4924 65.6555 62.6579 55.4669 54.7349 39.5768C46.812 23.6867 45.7843 8.13351 52.4682 4.83723C59.137 1.54486 70.9755 11.7486 78.8945 27.6236Z" fill="white"/>
<path fill-rule="evenodd" clip-rule="evenodd" d="M80.1266 63.1157C76.8978 63.9501 72.7114 62.3308 68.1955 58.4352C63.1596 54.0917 58.2763 47.4605 54.421 39.7387C48.5821 28.033 46.2842 16.0753 48.5654 9.25857C49.3445 6.95452 50.6002 5.36838 52.3062 4.52315C55.6765 2.85959 60.3368 4.37258 65.4339 8.76497C70.4698 13.1085 75.3531 19.7397 79.2083 27.4615C85.0473 39.1672 87.349 51.14 85.064 57.9416C84.2848 60.2457 83.0291 61.8318 81.3232 62.677C80.9398 62.8624 80.541 63.0086 80.1266 63.1157ZM53.6942 4.7629C53.3203 4.85954 52.9606 4.99024 52.615 5.15501C51.0792 5.90775 49.9516 7.36375 49.2394 9.48875C47.01 16.1304 49.2833 27.868 55.0488 39.4147C62.8866 55.1004 74.5348 65.2563 81.0143 62.0452C82.5501 61.2924 83.6778 59.8364 84.39 57.7114C86.6194 51.0698 84.3461 39.3322 78.5805 27.7855C71.1671 12.9283 60.3338 3.04703 53.6942 4.7629Z" fill="black"/>
<path d="M78.0224 58.2895C75.2938 58.9946 71.7892 57.6359 67.9998 54.3613C63.7936 50.7253 59.6937 45.1856 56.4712 38.7236C51.5931 28.9208 49.6716 18.9201 51.5781 13.2192C52.2385 11.2693 53.2987 9.92775 54.7323 9.2176C58.5491 7.34162 64.4408 10.4288 70.1311 17.3043C70.2652 17.4476 70.2403 17.6643 70.0971 17.7984C69.9348 17.9212 69.7181 17.8963 69.5841 17.753C64.1237 11.1415 58.5401 8.12033 55.0451 9.86463C53.7816 10.4823 52.8495 11.6937 52.2481 13.4342C50.3973 18.9751 52.2982 28.7709 57.1142 38.3957C63.6325 51.4786 73.3267 59.9559 78.7169 57.2851C83.5927 54.8766 83.3424 43.9587 78.1274 31.9139C78.0501 31.7398 78.1395 31.5226 78.3136 31.4452C78.4876 31.3679 78.7048 31.4573 78.7821 31.6314C81.351 37.5668 82.8107 43.4654 82.906 48.2769C83.0023 53.2176 81.6206 56.6317 79.0258 57.9169C78.7004 58.0765 78.366 58.2007 78.0224 58.2895Z" fill="black"/>
<path d="M66.0982 33.9872C67.8195 37.4566 68.0517 40.858 66.5917 41.5911C65.1278 42.3091 62.5428 40.0657 60.8063 36.6002C59.0659 33.1196 58.8488 29.7143 60.3128 28.9963C61.7728 28.2631 64.3578 30.5065 66.0982 33.9872Z" fill="white"/>
<path fill-rule="evenodd" clip-rule="evenodd" d="M66.4432 42.0179C64.7605 42.4527 62.2328 40.2431 60.4884 36.7473C59.1802 34.1254 58.6764 31.4251 59.1956 29.8675C59.3886 29.3 59.7043 28.8949 60.1508 28.6825C61.8112 27.849 64.5635 30.1139 66.4121 33.8254C67.7203 36.4473 68.2241 39.1476 67.7049 40.7052C67.5159 41.2878 67.181 41.6816 66.7537 41.9053C66.6477 41.9542 66.5442 41.9918 66.4432 42.0179ZM60.6376 29.2522C60.5769 29.2679 60.5176 29.2886 60.4596 29.3144C60.1923 29.4482 59.9957 29.7093 59.8696 30.0977C59.4134 31.461 59.9123 34.0171 61.1202 36.4384C62.8875 39.9607 65.3212 41.8064 66.4258 41.2622C66.6957 41.1385 66.8974 40.8761 67.0309 40.475C67.4871 39.1116 66.9922 36.5707 65.7804 34.1342C64.1055 30.7822 61.8048 28.9506 60.6376 29.2522Z" fill="black"/>
<path fill-rule="evenodd" clip-rule="evenodd" d="M76.9568 63.2393C76.9265 63.2471 76.8948 63.2499 76.8619 63.2476L76.6643 63.234C76.6441 63.2392 76.6276 63.2381 76.6149 63.2306L49.9546 58.2483L28.3598 65.6083C28.3395 65.6135 28.3193 65.6187 28.2991 65.6239L18.1031 67.0943C18.0702 67.0921 18.0423 67.0885 18.0195 67.0836L12.5913 66.4161C12.5482 66.4164 12.5076 66.4053 12.4695 66.3828C11.3133 66.164 9.8852 64.7054 8.87795 62.6851C7.80512 60.5361 7.5226 58.4417 8.1565 57.453L8.16774 57.4339L11.0673 52.4468C11.0823 52.4214 11.1036 52.3997 11.1313 52.3818L18.4475 45.024C18.4524 45.0012 18.4649 44.9872 18.4851 44.9819L37.0892 32.1191L49.1121 7.80706C49.1942 7.6241 49.4025 7.55409 49.5855 7.63621C49.6618 7.68119 49.7268 7.74524 49.7655 7.8323C49.789 7.92327 49.8013 8.03332 49.7563 8.10964C46.7189 14.3778 48.8659 26.9406 55.0792 39.4068C61.3116 51.8842 70.0858 61.1815 76.9399 62.5481C77.1262 62.5808 77.2339 62.7471 77.2163 62.9296C77.2061 63.0778 77.0932 63.204 76.9568 63.2393ZM49.8501 57.5312C49.9007 57.5182 49.9488 57.5165 49.9944 57.5263L73.0531 61.8381C66.7608 58.5148 59.6883 50.2334 54.4475 39.7156C49.2453 29.2849 46.8712 18.7218 47.9586 11.7283L37.6924 32.5132C37.6624 32.564 37.6197 32.6074 37.5643 32.6433L18.9186 45.5331L11.6553 52.8448L8.77429 57.7786C8.7668 57.7913 8.75931 57.804 8.75182 57.8167C8.32024 58.462 8.45592 60.2385 9.50967 62.3762C10.5668 64.4645 11.9053 65.639 12.6996 65.7087C12.7426 65.7084 12.7832 65.7195 12.8214 65.742L18.048 66.3807L28.1683 64.9299L49.8198 57.5391C49.8299 57.5365 49.84 57.5338 49.8501 57.5312Z" fill="black"/>
<path d="M37.4057 32.2802L49.4247 7.95297L49.4287 7.96814C46.4435 14.1257 48.3592 26.7321 54.7653 39.569C61.1715 52.4059 70.1344 61.5574 76.8667 62.8908L76.6842 62.8732L49.9745 57.8875L49.3622 57.7708C46.2511 57.1838 42.1626 53.0645 39.2681 47.2456C36.3192 41.2791 35.8582 35.3651 37.2562 32.5776L37.4057 32.2802Z" fill="#FF6701"/>
<path fill-rule="evenodd" clip-rule="evenodd" d="M76.9568 63.2398C76.9265 63.2476 76.8948 63.2504 76.8619 63.2482L76.6643 63.2345C76.6441 63.2397 76.6276 63.2386 76.6149 63.2311L49.2929 58.1287C45.9725 57.4825 41.8178 53.1701 38.9541 47.4079C36.1751 41.7857 35.3438 35.6277 36.9397 32.4171L37.0892 32.1196L49.1122 7.80759C49.1942 7.62463 49.4025 7.55462 49.5855 7.63674C49.6618 7.68172 49.7269 7.74578 49.7655 7.83283C49.789 7.9238 49.8013 8.03386 49.7563 8.11018C46.7189 14.3783 48.8659 26.9411 55.0792 39.4073C61.3116 51.8848 70.0859 61.1821 76.9399 62.5487C77.1262 62.5814 77.2339 62.7477 77.2163 62.9301C77.2061 63.0783 77.0932 63.2046 76.9568 63.2398ZM47.9586 11.7288L37.7222 32.4413L37.5727 32.7387C36.3056 35.2821 36.5793 41.0342 39.5859 47.0991C42.3145 52.5888 46.3547 56.8338 49.4354 57.4287L50.0477 57.5454L73.0532 61.8386C66.7608 58.5153 59.6883 50.2339 54.4475 39.7161C49.2453 29.2854 46.8712 18.7223 47.9586 11.7288Z" fill="black"/>
<path d="M17.8482 67.047C17.8078 67.0575 17.7648 67.0578 17.7191 67.048L12.5912 66.4161C12.5482 66.4164 12.5076 66.4054 12.4695 66.3829C11.3133 66.1641 9.88517 64.7054 8.87792 62.6851C7.80509 60.5362 7.52257 58.4418 8.15647 57.4531L8.16771 57.434L11.0673 52.4469C11.1723 52.2903 11.3846 52.2355 11.5523 52.3215C11.724 52.4227 11.7789 52.635 11.6777 52.8067L8.77426 57.7786C8.76677 57.7914 8.75928 57.8041 8.75179 57.8168C8.32021 58.4621 8.45589 60.2386 9.50964 62.3763C10.5668 64.4646 11.9053 65.6391 12.6995 65.7088C12.7426 65.7084 12.7832 65.7195 12.8213 65.742L17.8123 66.3446C17.9986 66.3773 18.1405 66.5509 18.1117 66.7525C18.1015 66.9007 17.9847 67.0117 17.8482 67.047Z" fill="black"/>
<path d="M18.1 66.7073C16.4319 66.5723 14.1265 64.1596 12.4825 60.8643C10.7382 57.3685 10.3754 53.7745 11.4894 52.5161L8.48425 57.5951L8.46178 57.6333C7.8914 58.4924 8.18072 60.488 9.19189 62.5235C10.2031 64.5589 11.6346 65.9682 12.6606 66.0589L12.6303 66.0667L18.1 66.7073Z" fill="#FF6701"/>
<path fill-rule="evenodd" clip-rule="evenodd" d="M18.1901 67.0561C18.1497 67.0665 18.113 67.0706 18.0801 67.0683C18.0344 67.0586 17.9901 67.0539 17.947 67.0542L12.5952 66.4316C12.5495 66.4219 12.5076 66.4057 12.4695 66.3832C11.3133 66.1645 9.88517 64.7058 8.87792 62.6855C7.80508 60.5365 7.52257 58.4422 8.15647 57.4534L8.16771 57.4343L10.8283 52.9619C10.9325 52.6977 11.0687 52.4738 11.2369 52.2902C11.3459 52.1488 11.5508 52.1282 11.7073 52.2333C11.8487 52.3424 11.8996 52.5395 11.7946 52.696L11.4573 53.2684C10.9253 54.6513 11.2448 57.5772 12.8003 60.7175C14.3361 63.782 16.5079 66.116 18.025 66.3547L18.139 66.3576C18.3405 66.3864 18.4823 66.56 18.4496 66.7464C18.4394 66.8946 18.3265 67.0208 18.1901 67.0561ZM12.8213 65.7424L16.0218 66.1122C14.6882 65.082 13.2952 63.2584 12.1685 61.0263C11.0879 58.8471 10.508 56.6031 10.5131 54.8711L8.77426 57.779C8.76677 57.7917 8.75928 57.8044 8.75178 57.8172C8.32021 58.4625 8.45588 60.239 9.50964 62.3766C10.5668 64.4649 11.9053 65.6394 12.6995 65.7092C12.7426 65.7088 12.7832 65.7199 12.8213 65.7424Z" fill="#FF6701"/>
<path d="M27.8677 65.331L28.3 65.2516C25.9566 65.6955 22.3128 62.1083 19.7927 57.0499C17.211 51.878 16.7903 46.7462 18.6887 45.2689L18.4438 45.5101L11.5158 52.4926C10.3827 53.7397 10.7342 57.3529 12.4825 60.8639C14.1843 64.2575 16.6075 66.6882 18.2937 66.7053L27.8677 65.331Z" fill="white"/>
<path fill-rule="evenodd" clip-rule="evenodd" d="M28.3861 65.5849C28.3861 65.5849 28.3811 65.5862 28.371 65.5888C28.3609 65.5914 28.3507 65.594 28.3406 65.5966L27.9387 65.6681C27.9286 65.6708 27.9235 65.6721 27.9235 65.6721L18.3344 67.0503C18.3141 67.0555 18.2977 67.0544 18.285 67.0469C16.4545 67.0347 13.9398 64.5629 12.1685 61.0255C10.3777 57.4123 9.97178 53.6515 11.2594 52.2512L18.0329 45.4219C18.1632 45.2588 18.3089 45.1133 18.4699 44.9855C18.621 44.8817 18.8338 44.8914 18.9526 45.0386C19.0828 45.1667 19.0731 45.3795 18.945 45.5097L18.5608 45.9001C17.219 47.654 17.8527 52.3588 20.1066 56.8876C22.5454 61.7567 26.0899 65.2725 28.2098 64.9026L28.2401 64.8947C28.4259 64.8629 28.6206 64.9905 28.6525 65.1764C28.6843 65.3622 28.568 65.5378 28.3861 65.5849ZM18.2641 66.3406L26.2337 65.203C24.034 64.1378 21.4546 61.1651 19.4748 57.1964C17.5685 53.3866 16.8017 49.6058 17.2912 47.1825L11.7608 52.7524C10.8496 53.7319 10.9864 57.0771 12.8003 60.7167C14.3978 63.8946 16.7334 66.2995 18.2641 66.3406Z" fill="black"/>
<path d="M60.3127 28.997C58.8488 29.715 59.0091 33.1511 60.8063 36.6009C63.8181 42.3733 66.289 41.7347 66.5843 41.6261L66.5883 41.6412L61.2065 45.8464C59.6774 43.6213 58.2186 41.1678 56.9025 38.5156C55.629 35.9656 54.5682 33.4254 53.7246 30.9745L60.3127 28.997Z" fill="black"/>
<path fill-rule="evenodd" clip-rule="evenodd" d="M61.2967 46.195C61.2462 46.2081 61.1981 46.2097 61.1525 46.1999C61.0497 46.1779 60.9734 46.133 60.9196 46.0498C59.3406 43.7568 57.8778 41.288 56.5847 38.6623C55.323 36.1578 54.2622 33.6175 53.399 31.0909C53.3604 31.0039 53.3672 30.905 53.4234 30.8096C53.4683 30.7333 53.5324 30.6683 53.6385 30.6408L60.2076 28.652C60.3743 28.6089 60.5724 28.6871 60.6346 28.8652C60.7119 29.0393 60.6298 29.2222 60.4597 29.3147C60.1823 29.4511 59.9781 29.7249 59.8472 30.1362C59.3876 31.5489 59.8977 34.0859 61.1202 36.4388C64.0587 42.0522 66.3657 41.3428 66.4679 41.3002C66.6308 41.2419 66.8288 41.3201 66.8983 41.4639C66.9869 41.6189 66.9391 41.8092 66.8071 41.9242L61.4253 46.1294C61.38 46.1627 61.3371 46.1846 61.2967 46.195ZM54.1899 31.21C55.0139 33.585 56.0242 35.9927 57.2165 38.3534C58.4361 40.8203 59.803 43.1682 61.2861 45.3405L65.5507 42.0063C64.3906 41.7723 62.5441 40.6968 60.4924 36.7628C59.1695 34.2094 58.6393 31.532 59.1771 29.9212C59.1993 29.84 59.2265 29.7574 59.2587 29.6736L54.1899 31.21Z" fill="black"/>
</g>
<defs>
<clipPath id="clip0_1053_2631">
<rect width="90" height="90" fill="white"/>
</clipPath>
</defs>
</svg>
