<svg width="90" height="90" viewBox="0 0 90 90" fill="none" xmlns="http://www.w3.org/2000/svg">
<path d="M73.7063 33.8492C73.7063 51.82 59.293 66.3902 41.5211 66.3902C23.7345 66.3902 9.32126 51.82 9.32126 33.8492C9.32126 15.8929 23.7345 1.32275 41.5211 1.32275C59.293 1.32275 73.7063 15.8929 73.7063 33.8492Z" fill="white"/>
<path d="M33.0075 3.9321C32.8761 4.13732 33.2703 4.79693 34.0443 4.79693C34.8329 4.79693 35.2272 4.66501 35.5484 5.51518C35.8697 6.38001 35.417 9.26766 35.8697 10.323C36.3224 11.3784 37.1109 12.0381 37.6951 11.4517C38.2792 10.8507 38.2208 9.26767 38.9363 8.8719C39.6519 8.47613 42.2512 6.9077 42.3827 5.58847C42.5141 4.26924 41.6087 3.28714 39.3306 3.0233C37.0379 2.75945 33.9859 2.49561 33.0075 3.9321Z" fill="#FF6701"/>
<path d="M24.5815 33.4533C24.2748 33.6146 24.0996 33.9517 24.1142 34.3035C24.158 35.4029 23.7491 38.1586 22.8729 39.0381C21.7631 40.1521 22.172 42.1749 22.1574 42.9811C22.1136 44.6375 22.2742 45.385 24.0412 46.1619C25.7935 46.9535 26.4799 46.9974 26.6113 48.5805C26.7427 50.1636 26.9472 56.276 27.4729 57.8445C27.9986 59.4275 29.0938 61.9927 29.6926 62.5937C30.2767 63.18 31.6494 63.5172 30.8024 61.2745C29.9408 59.0318 29.4297 57.9764 30.4081 56.7304C31.3865 55.4845 33.0075 52.5822 33.1389 51.4682C33.2703 50.3395 33.8545 49.6799 34.3802 49.548C34.9059 49.416 36.0157 49.0203 36.337 48.6245C36.6582 48.2287 36.0157 47.1147 35.8113 46.1326C35.6214 45.1358 35.6214 44.5495 37.2424 43.758C38.8779 42.9665 38.0893 40.7237 35.8843 40.1374C33.6646 39.5364 32.2919 38.2905 32.5548 37.0446C32.8176 35.784 31.0507 35.9159 30.0138 35.3296C28.977 34.7286 29.0062 33.8051 27.838 33.3654C26.2754 32.7644 25.1656 33.1162 24.5815 33.4533Z" fill="#FF6701"/>
<path d="M64.959 32.0607C64.4041 31.2398 64.4771 29.9206 65.8498 28.1176C66.9304 26.6958 65.3825 25.274 64.667 24.7316C64.5355 24.629 64.594 24.4238 64.7546 24.4091C65.6454 24.3065 67.6898 24.6143 68.5952 29.217C69.7634 35.1829 70.2453 33.1014 70.8587 32.4125C71.4866 31.7235 70.3184 30.419 71.4866 29.0851C72.2022 28.2349 72.5818 27.0036 72.7717 26.0069C70.4498 16.5377 64.0244 8.71027 55.5254 4.54736C55.54 5.58809 55.2918 9.20865 51.0861 7.71352C51.0861 7.71352 48.4867 6.46758 49.1001 11.5246C49.7134 16.5963 51.8454 11.1875 52.2543 10.9823C52.6778 10.7624 53.7731 10.4839 53.2912 13.8846C53.2912 13.8846 53.2181 15.0719 51.0861 14.8667C48.9686 14.6468 48.5452 15.6875 48.5452 16.2446C48.5452 16.8016 48.7642 18.2674 47.596 19.3081C46.4277 20.3488 46.7636 23.0459 48.3407 22.1518C49.9324 21.243 51.0277 18.3993 52.4588 18.1208C53.9045 17.8423 55.2042 19.7185 56.5769 19.2348C57.9495 18.7511 57.3362 16.3911 58.0225 16.3911C58.7089 16.3911 60.1546 17.769 59.9502 18.8097C59.7457 19.8505 57.6137 20.3488 58.1686 21.5948C58.7089 22.8407 59.8772 22.4156 60.2276 23.2511C60.5635 24.0867 58.5044 25.0541 56.8543 24.0134C55.2042 22.9726 54.9413 24.4971 54.1089 23.8081C53.2912 23.1192 53.2181 21.6534 52.0499 22.1518C50.8817 22.6355 50.1953 23.6029 48.6912 24.2919C47.1725 24.9955 45.9458 25.8896 45.9458 26.857C45.9458 27.8391 46.4861 28.8799 46.2233 30.4043C45.9458 31.9288 45.4639 36.0917 50.3997 35.2562C55.3502 34.4206 54.7369 36.9858 54.7369 37.2643C54.7369 37.5428 54.6638 41.1487 55.1457 41.779C55.6276 42.3947 56.7229 44.2123 55.1457 46.5576C53.5686 48.9175 54.1819 54.1945 55.6277 53.5055C57.0588 52.8019 58.5044 50.1048 60.286 48.7123C62.0822 47.3198 64.5501 41.2953 63.5133 39.4191C62.4911 37.5428 64.959 36.0184 65.2949 34.7724C65.6454 33.5265 65.5139 32.8962 64.959 32.0607Z" fill="#FF6701"/>
<path d="M18.2729 11.3489C18.3022 12.5069 18.0977 13.7529 17.426 14.9402C15.4107 18.4874 15.4692 20.2757 15.2793 23.823C15.0895 27.3849 19.5288 33.6586 20.6386 34.3182C21.7485 34.9632 21.9091 33.4094 21.9091 32.1488C21.9091 30.9029 21.4418 29.4078 20.7847 27.9566C20.1421 26.5054 20.1421 25.582 20.332 24.981C20.5364 24.3947 21.3104 24.2041 21.8361 24.7904C22.3618 25.3768 23.6031 25.9045 24.2164 25.538C24.9466 25.0836 24.6691 23.2953 24.9174 22.709C25.1802 22.1227 26.6113 21.7269 27.21 20.4663C27.7942 19.2204 28.7726 18.6927 29.9408 18.0917C31.1091 17.5053 32.1605 17.2415 32.3503 16.8457C32.5548 16.45 32.2919 15.5265 32.6132 14.4711C32.9344 13.4157 33.723 12.1698 33.4017 11.6421C33.0659 11.1144 32.0875 10.2642 30.2621 11.5835C28.4367 12.9027 27.984 12.9027 27.4583 11.9059C26.9472 10.9238 28.057 8.34401 30.3351 8.34401C32.6132 8.34401 33.0659 7.56714 33.1389 6.96616C33.1973 6.37983 32.4818 5.72021 31.7078 5.58829C30.9192 5.45636 30.7878 5.91077 27.5313 7.23C25.3555 8.10949 23.4424 7.90427 22.4056 7.66974C20.9307 8.7691 19.5434 10.0004 18.2729 11.3489Z" fill="#FF6701"/>
<path d="M68.0403 48.6683C67.9819 50.1488 66.6238 51.5706 65.8206 52.0544C65.0028 52.5527 63.7616 53.3149 63.7616 54.5755C63.7616 55.3817 63.7469 56.4078 63.9368 57.214C68.2155 53.0071 69.0625 52.1863 71.5304 45.854C71.399 45.0478 68.0841 47.2025 68.0403 48.6683Z" fill="#FF6701"/>
<path fill-rule="evenodd" clip-rule="evenodd" d="M41.5211 66.7124C23.5885 66.7124 9 51.9663 9 33.8489C9 15.7314 23.5885 1 41.5211 1C59.4537 1 74.0422 15.7314 74.0422 33.8489C74.0422 51.9663 59.4537 66.7124 41.5211 66.7124ZM41.5211 1.64495C23.939 1.64495 9.64254 16.0979 9.64254 33.8489C9.64254 51.6145 23.939 66.0675 41.5211 66.0675C59.0886 66.0675 73.385 51.6145 73.385 33.8489C73.385 16.0979 59.0886 1.64495 41.5211 1.64495Z" fill="black"/>
<path fill-rule="evenodd" clip-rule="evenodd" d="M20.4926 64.7627C19.7771 65.8181 20.0984 67.2693 21.1936 67.9436C26.5411 71.2091 32.7202 73.2226 39.3452 73.5861V80.9549C32.877 81.2692 27.9548 82.9449 27.9548 84.9768C27.9548 87.2195 34.0297 89.0371 41.5503 89.0371C49.0563 89.0371 55.1458 87.2195 55.1458 84.9768C55.1458 82.9468 50.2209 81.2724 43.7699 80.9557V73.5818C64.4675 72.4042 80.891 55.0727 80.891 33.8487C80.891 21.0375 74.9037 9.6335 65.587 2.34841C64.5648 1.55687 63.1045 1.79139 62.3743 2.84678C61.7026 3.82888 61.907 5.16276 62.8416 5.89567C71.1069 12.3599 76.4371 22.474 76.4371 33.8487C76.4371 53.3441 60.8118 69.1455 41.5211 69.1455C34.9351 69.1455 28.7726 67.2986 23.5155 64.1031C22.4933 63.4728 21.1644 63.766 20.4926 64.7627Z" fill="black"/>
</svg>
