<svg width="90" height="90" viewBox="0 0 90 90" fill="none" xmlns="http://www.w3.org/2000/svg">
<path fill-rule="evenodd" clip-rule="evenodd" d="M45.6141 2.99984C44.8646 2.99984 44.1102 3.02449 43.3508 3.07378C36.561 3.53223 30.4369 6.10545 26.1323 10.3202C19.7863 16.5166 15.5853 27.6376 19.5349 35.52C22.8484 42.1452 32.3896 46.848 44.4307 47.8241C51.324 48.3712 58.4688 47.5727 64.5189 45.5762C71.2939 43.3431 76.7079 39.6312 80.1398 34.8693C84.0302 29.4862 85.687 22.5504 85.0361 14.2835C85.0213 14.1209 84.9178 14.0026 84.7699 13.973C84.6219 13.9434 84.474 14.0173 84.4148 14.1652C82.5806 18.0251 80.4504 20.1694 78.0984 20.5391C75.1547 20.9976 72.9654 18.4391 70.1697 15.2152C67.7141 12.3758 64.9183 9.1371 60.7468 6.75614C56.4866 4.33081 51.0725 2.99984 45.6141 2.99984ZM48.5726 47.3213C47.1673 47.3213 45.7916 47.2621 44.475 47.1586C32.6854 46.2121 23.3513 41.6276 20.1266 35.2242C16.3693 27.7116 20.5555 16.6941 26.6057 10.7934C35.6883 1.92027 51.2204 2.09773 60.4214 7.34768C64.4893 9.65471 67.2407 12.849 69.6667 15.6589C72.5956 19.0307 74.9032 21.7074 78.202 21.1898C80.5392 20.8349 82.6397 18.9272 84.4592 15.5554C84.8438 23.1271 83.2019 29.4862 79.6073 34.4848C72.6992 44.0382 59.3859 47.3213 48.5726 47.3213Z" fill="white"/>
<path d="M84.7107 14.2984C85.1397 19.9328 84.7107 27.9778 79.8736 34.677C66.4864 53.2219 27.4193 50.5008 19.8308 35.3721C15.9699 27.682 20.1414 16.635 26.369 10.5568C35.5848 1.56538 51.1021 1.63932 60.5841 7.05194C69.6076 12.1984 72.4182 21.7518 78.1429 20.8645C81.338 20.3765 83.4534 16.9603 84.7107 14.2984Z" fill="#FF6701"/>
<path d="M65.9982 23.8223H33.0996C32.9221 23.8223 32.7742 23.9702 32.7742 24.1477C32.7742 24.3399 32.9221 24.4878 33.0996 24.4878H65.9982C66.1757 24.4878 66.3236 24.3399 66.3236 24.1477C66.3236 23.9702 66.1757 23.8223 65.9982 23.8223Z" fill="white"/>
<path d="M57.8327 29.4878H41.2799C41.0876 29.4878 40.9396 29.6357 40.9396 29.8132C40.9396 30.0054 41.0876 30.1533 41.2799 30.1533H57.8327C58.0102 30.1533 58.1581 30.0054 58.1581 29.8132C58.1581 29.6357 58.0102 29.4878 57.8327 29.4878Z" fill="white"/>
<path d="M11.6305 87.3257C10.7874 86.1426 1.36455 72.404 7.28155 56.7429C11.4382 45.7549 22.0149 36.8374 34.2927 36.3642C36.3636 36.2755 49.4254 35.7726 56.4371 46.1986C61.1559 53.2232 61.6736 63.0428 57.088 70.1857C51.6295 78.6744 41.2156 79.8722 39.6772 80.0349C28.8638 81.1145 22.9025 74.1786 17.0002 77.5356C13.3909 79.5765 12.1335 84.1609 11.6305 87.3257Z" fill="white"/>
<path fill-rule="evenodd" clip-rule="evenodd" d="M11.6306 87.6508C11.5271 87.6508 11.4235 87.6065 11.3644 87.5177C10.2845 86.0093 1.03918 72.3298 6.97098 56.6244C9.07152 51.0934 12.814 46.0209 17.5476 42.3386C22.5475 38.4492 28.3314 36.2605 34.278 36.0238C38.8932 35.8464 50.2983 36.4527 56.7182 46.0209C61.6145 53.3117 61.8956 63.3236 57.3691 70.363C52.1177 78.5263 42.5322 80.0791 39.7068 80.3601C34.3963 80.8924 30.3284 79.5467 26.7338 78.3636C23.0061 77.1361 20.0772 76.1601 17.163 77.8164C14.4856 79.3396 12.7401 82.5488 11.9561 87.3698C11.9413 87.5029 11.8377 87.6213 11.7046 87.6508C11.6849 87.6508 11.6602 87.6508 11.6306 87.6508ZM35.5205 36.6745C35.0768 36.6745 34.6724 36.6795 34.3076 36.6893C22.725 37.1478 11.9856 45.2519 7.59227 56.861C2.31134 70.8658 9.35258 83.2438 11.4383 86.4529C12.3111 81.8685 14.1306 78.7777 16.8376 77.2397C20.0032 75.4354 23.2132 76.5002 26.9409 77.7277C30.4763 78.896 34.4703 80.227 39.6477 79.6946C41.6003 79.5023 51.6 78.1122 56.807 70.008C61.1856 63.1757 60.9193 53.4744 56.1709 46.3906C50.4314 37.8576 40.5648 36.6745 35.5205 36.6745Z" fill="black"/>
<path d="M48.4936 56.2544H17.5772C17.3849 56.2544 17.237 56.1065 17.237 55.929C17.237 55.7368 17.3849 55.5889 17.5772 55.5889H48.4936C48.6859 55.5889 48.8338 55.7368 48.8338 55.929C48.8338 56.1065 48.6859 56.2544 48.4936 56.2544Z" fill="black"/>
<path d="M38.8045 60.292H27.7397C27.5474 60.292 27.3994 60.1293 27.3994 59.9518C27.3994 59.7744 27.5474 59.6265 27.7397 59.6265H38.8045C38.982 59.6265 39.1299 59.7744 39.1299 59.9518C39.1299 60.1293 38.982 60.292 38.8045 60.292Z" fill="black"/>
</svg>
