<svg width="24" height="24" viewBox="0 0 24 24" fill="none" xmlns="http://www.w3.org/2000/svg">
<g id="chat-_2_" clip-path="url(#clip0_590_455)">
<g id="Group">
<path id="Vector" d="M9.02344 2.18437C6.66563 2.43281 4.65469 3.35156 3.02813 4.92188C2.13281 5.78437 1.56094 6.58125 1.00781 7.71094C0.271875 9.21562 -0.0515625 10.7437 0.0140625 12.375C0.09375 14.2266 0.651563 15.9469 1.68281 17.4891L2.04844 18.0328L1.11563 19.3406C0.0984375 20.7656 0 20.925 0 21.1406C0 21.375 0.164062 21.6422 0.375 21.75C0.557813 21.8438 0.642188 21.8438 5.43281 21.8438C8.475 21.8438 10.4859 21.825 10.7859 21.7969C11.8406 21.6891 12.9844 21.3891 13.8234 20.9953L14.2172 20.8125L14.4891 20.9766C15.1078 21.3562 15.9563 21.6516 16.7438 21.7687C17.1562 21.8297 17.7609 21.8438 20.3391 21.8438C23.3578 21.8438 23.4469 21.8391 23.625 21.75C23.9484 21.5859 24.0891 21.1641 23.925 20.8547C23.8875 20.775 23.6156 20.3812 23.325 19.9734L22.7953 19.2328L22.9781 18.9562C23.3813 18.3516 23.7094 17.5359 23.8922 16.6828C24.0094 16.1391 24.0094 14.9016 23.8875 14.3437C23.6156 13.0641 23.1 12.0656 22.2469 11.1656C21.525 10.4156 20.7656 9.90937 19.8188 9.57187L19.3453 9.39844L19.1625 8.86406C18.0188 5.4375 15.0609 2.91562 11.4609 2.29219C10.9172 2.19844 9.49219 2.1375 9.02344 2.18437ZM10.725 3.61406C11.7422 3.72656 12.6047 3.975 13.5234 4.425C15.2813 5.29219 16.5516 6.55781 17.4188 8.32031C18.9609 11.4562 18.4031 15.15 15.9938 17.7703C14.9016 18.9562 13.2469 19.8937 11.625 20.2406C10.7672 20.4281 10.3219 20.4422 6.1125 20.4281L2.07656 20.4141L2.79375 19.4062C3.19219 18.8531 3.54844 18.3141 3.59063 18.2062C3.69375 17.9391 3.62344 17.7234 3.30469 17.325C1.48594 15.0797 0.942188 12.1031 1.83281 9.35156C2.025 8.77031 2.46563 7.875 2.83125 7.32656C4.56094 4.72969 7.65 3.27656 10.725 3.61406ZM20.0719 11.2219C21.5531 12.0609 22.4859 13.5609 22.5797 15.2344C22.6453 16.4391 22.2609 17.6437 21.5016 18.6047C21.3 18.8578 21.2625 18.9375 21.2438 19.1484C21.2203 19.4297 21.2391 19.4766 21.6141 20.0016C21.7688 20.2078 21.8906 20.3953 21.8906 20.4141C21.8906 20.4281 20.7656 20.4375 19.3969 20.4281C16.9734 20.4094 16.8891 20.4047 16.5094 20.3016C16.2984 20.2453 16.0078 20.1469 15.8625 20.0906L15.6047 19.9875L15.9 19.7578C16.2938 19.4531 17.0484 18.7172 17.4141 18.2812C17.8828 17.7188 18.3188 17.0437 18.6656 16.3359C19.3875 14.8594 19.7344 13.2609 19.6781 11.6578C19.6641 11.3062 19.6688 11.0156 19.6828 11.0156C19.7016 11.0156 19.875 11.1094 20.0719 11.2219Z" fill="#707070"/>
<path id="Vector_2" d="M5.2875 8.58281C5.08594 8.68594 4.92188 8.9625 4.92188 9.1875C4.92188 9.42187 5.08594 9.68906 5.29688 9.79688C5.475 9.88594 5.56875 9.89062 7.96875 9.89062C10.3688 9.89062 10.4625 9.88594 10.6406 9.79688C10.8516 9.68906 11.0156 9.42187 11.0156 9.1875C11.0156 8.95312 10.8516 8.68594 10.6406 8.57812C10.4625 8.48906 10.3734 8.48438 7.95938 8.48438C5.56406 8.48906 5.45156 8.49375 5.2875 8.58281Z" fill="#707070"/>
<path id="Vector_3" d="M5.2875 11.3953C5.08594 11.4984 4.92188 11.775 4.92188 12C4.92188 12.2344 5.08594 12.5016 5.29688 12.6094C5.475 12.7031 5.56406 12.7031 9.84375 12.7031C14.1234 12.7031 14.2125 12.7031 14.3906 12.6094C14.6016 12.5016 14.7656 12.2344 14.7656 12C14.7656 11.7656 14.6016 11.4984 14.3906 11.3906C14.2125 11.2969 14.1281 11.2969 9.83438 11.2969C5.57344 11.3016 5.45625 11.3016 5.2875 11.3953Z" fill="#707070"/>
<path id="Vector_4" d="M5.2875 14.2078C5.08594 14.3109 4.92188 14.5875 4.92188 14.8125C4.92188 15.0469 5.08594 15.3141 5.29688 15.4219C5.475 15.5156 5.56406 15.5156 9.84375 15.5156C14.1234 15.5156 14.2125 15.5156 14.3906 15.4219C14.6016 15.3141 14.7656 15.0469 14.7656 14.8125C14.7656 14.5781 14.6016 14.3109 14.3906 14.2031C14.2125 14.1094 14.1281 14.1094 9.83438 14.1094C5.57344 14.1141 5.45625 14.1141 5.2875 14.2078Z" fill="#707070"/>
</g>
</g>
<defs>
<clipPath id="clip0_590_455">
<rect width="24" height="24" fill="white"/>
</clipPath>
</defs>
</svg>
