<svg width="24" height="24" viewBox="0 0 24 24" fill="none" xmlns="http://www.w3.org/2000/svg">
<g id="online-dating-_1_" clip-path="url(#clip0_1445_563)">
<g id="Group">
<path id="Vector" d="M9.43671 0.0160408C5.80722 0.294409 2.53639 2.55883 0.962543 5.88854C-0.723725 9.44844 -0.193755 13.7364 2.30621 16.7877C2.73982 17.3177 3.59633 18.1314 4.13166 18.5275C6.19265 20.0585 8.79432 20.7759 11.2996 20.5136C13.1465 20.3155 15.0523 19.5768 16.428 18.5168C16.6261 18.3616 16.8242 18.2117 16.867 18.1903C16.9152 18.1582 17.7396 18.9451 19.838 21.0382C22.9804 24.1752 22.8412 24.0628 23.3337 23.9664C23.596 23.9182 23.9172 23.597 23.9654 23.3347C24.0617 22.8422 24.1742 22.9814 21.0372 19.8391C18.9548 17.7513 18.1571 16.9162 18.1892 16.868C18.2107 16.8252 18.3445 16.6485 18.4837 16.4719C19.9933 14.5233 20.7695 11.7717 20.5126 9.27178C20.2663 6.91636 19.2974 4.82325 17.6807 3.15304C15.8659 1.27941 13.6283 0.224819 11.0106 0.0106888C10.2665 -0.0481968 10.2558 -0.0481968 9.43671 0.0160408ZM8.44101 6.08661C8.94421 6.19367 9.62407 6.53628 9.98809 6.86818L10.2879 7.1412L10.5877 6.86818C11.3746 6.1455 12.6272 5.84036 13.6818 6.11338C14.351 6.28468 14.7525 6.50952 15.2503 6.99666C15.6036 7.34997 15.7321 7.51592 15.9034 7.87994C16.3638 8.83817 16.3959 9.83387 16.0051 11.0223C15.4805 12.6229 14.0137 14.2396 11.9474 15.5083C11.214 15.958 10.5181 16.2845 10.2879 16.2845C10.0845 16.2845 9.58125 16.0597 8.93351 15.6903C6.06417 14.0255 4.44214 11.9002 4.30831 9.61974C4.27084 8.98806 4.39397 8.39921 4.67769 7.82641C4.92394 7.33927 5.64127 6.62729 6.12306 6.39174C6.86181 6.02772 7.66479 5.92601 8.44101 6.08661Z" fill="#FF6701"/>
</g>
</g>
<defs>
<clipPath id="clip0_1445_563">
<rect width="24" height="24" fill="white"/>
</clipPath>
</defs>
</svg>
