<svg width="32" height="33" viewBox="0 0 32 33" fill="none" xmlns="http://www.w3.org/2000/svg">
<g id="SlidersHorizontal">
<path id="Vector" d="M5 11.0284H9.125C9.3453 11.8888 9.8457 12.6514 10.5473 13.196C11.2489 13.7406 12.1118 14.0362 13 14.0362C13.8882 14.0362 14.7511 13.7406 15.4527 13.196C16.1543 12.6514 16.6547 11.8888 16.875 11.0284H27C27.2652 11.0284 27.5196 10.923 27.7071 10.7355C27.8946 10.5479 28 10.2936 28 10.0284C28 9.76313 27.8946 9.50878 27.7071 9.32124C27.5196 9.13371 27.2652 9.02835 27 9.02835H16.875C16.6547 8.16794 16.1543 7.40531 15.4527 6.86071C14.7511 6.31611 13.8882 6.02051 13 6.02051C12.1118 6.02051 11.2489 6.31611 10.5473 6.86071C9.8457 7.40531 9.3453 8.16794 9.125 9.02835H5C4.73478 9.02835 4.48043 9.13371 4.29289 9.32124C4.10536 9.50878 4 9.76313 4 10.0284C4 10.2936 4.10536 10.5479 4.29289 10.7355C4.48043 10.923 4.73478 11.0284 5 11.0284ZM13 8.02835C13.3956 8.02835 13.7822 8.14565 14.1111 8.36541C14.44 8.58518 14.6964 8.89753 14.8478 9.26298C14.9991 9.62844 15.0387 10.0306 14.9616 10.4185C14.8844 10.8065 14.6939 11.1629 14.4142 11.4426C14.1345 11.7223 13.7781 11.9128 13.3902 11.9899C13.0022 12.0671 12.6001 12.0275 12.2346 11.8761C11.8692 11.7247 11.5568 11.4684 11.3371 11.1395C11.1173 10.8106 11 10.4239 11 10.0284C11 9.49792 11.2107 8.98921 11.5858 8.61414C11.9609 8.23907 12.4696 8.02835 13 8.02835ZM27 21.0284H24.875C24.6547 20.1679 24.1543 19.4053 23.4527 18.8607C22.7511 18.3161 21.8882 18.0205 21 18.0205C20.1118 18.0205 19.2489 18.3161 18.5473 18.8607C17.8457 19.4053 17.3453 20.1679 17.125 21.0284H5C4.73478 21.0284 4.48043 21.1337 4.29289 21.3212C4.10536 21.5088 4 21.7631 4 22.0284C4 22.2936 4.10536 22.5479 4.29289 22.7355C4.48043 22.923 4.73478 23.0284 5 23.0284H17.125C17.3453 23.8888 17.8457 24.6514 18.5473 25.196C19.2489 25.7406 20.1118 26.0362 21 26.0362C21.8882 26.0362 22.7511 25.7406 23.4527 25.196C24.1543 24.6514 24.6547 23.8888 24.875 23.0284H27C27.2652 23.0284 27.5196 22.923 27.7071 22.7355C27.8946 22.5479 28 22.2936 28 22.0284C28 21.7631 27.8946 21.5088 27.7071 21.3212C27.5196 21.1337 27.2652 21.0284 27 21.0284ZM21 24.0284C20.6044 24.0284 20.2178 23.9111 19.8889 23.6913C19.56 23.4715 19.3036 23.1592 19.1522 22.7937C19.0009 22.4283 18.9613 22.0261 19.0384 21.6382C19.1156 21.2502 19.3061 20.8938 19.5858 20.6141C19.8655 20.3344 20.2219 20.144 20.6098 20.0668C20.9978 19.9896 21.3999 20.0292 21.7654 20.1806C22.1308 20.332 22.4432 20.5883 22.6629 20.9172C22.8827 21.2461 23 21.6328 23 22.0284C23 22.5588 22.7893 23.0675 22.4142 23.4426C22.0391 23.8176 21.5304 24.0284 21 24.0284Z" fill="#303030"/>
</g>
</svg>
