<svg width="348" height="348" viewBox="0 0 348 348" fill="none" xmlns="http://www.w3.org/2000/svg">
<g clip-path="url(#clip0_958_2309)">
<path d="M171.782 345.3H162.59V220.229H171.782V345.3Z" fill="black"/>
<path d="M203.284 345.319C203.284 346.517 202.337 347.487 201.18 347.487H134.082C132.926 347.487 131.978 346.517 131.978 345.319V345.129C131.978 343.93 132.926 343.094 134.082 343.094H201.18C202.337 343.094 203.284 343.93 203.284 345.129V345.319Z" fill="black"/>
<path d="M255.977 218.08C255.977 219.392 254.935 220.457 253.627 220.457H81.181C79.8921 220.457 78.8307 219.392 78.8307 218.08V217.985C78.8307 216.673 79.8921 215.627 81.181 215.627H253.627C254.935 215.627 255.977 216.673 255.977 217.985V218.08Z" fill="white"/>
<path fill-rule="evenodd" clip-rule="evenodd" d="M253.627 220.894H81.181C79.6458 220.894 78.3948 219.639 78.3948 218.08V217.985C78.3948 216.445 79.6458 215.189 81.181 215.189H253.627C255.162 215.189 256.413 216.445 256.413 217.985V218.08C256.413 219.639 255.162 220.894 253.627 220.894ZM81.181 216.064C80.1386 216.064 79.2667 216.92 79.2667 217.985V218.08C79.2667 219.145 80.1386 220.001 81.181 220.001H253.627C254.688 220.001 255.541 219.145 255.541 218.08V217.985C255.541 216.92 254.688 216.064 253.627 216.064H81.181Z" fill="black"/>
<path d="M54.0196 346.098H44.6941V271.63L54.0196 272.01V346.098Z" fill="white"/>
<path fill-rule="evenodd" clip-rule="evenodd" d="M54.0196 346.536H44.6941C44.4667 346.536 44.2582 346.346 44.2582 346.099V271.631C44.2582 271.497 44.315 271.383 44.3909 271.307C44.4856 271.231 44.5994 271.174 44.7131 271.193L54.0386 271.573C54.266 271.592 54.4556 271.783 54.4556 272.011V346.099C54.4556 346.346 54.266 346.536 54.0196 346.536ZM45.1301 345.661H53.5837V272.429L45.1301 272.087V345.661Z" fill="black"/>
<path d="M87.815 277.715L31.1608 277.145C20.9255 277.145 12.1497 270.432 10.368 260.22L0.663389 205.016C-0.49282 198.436 4.5111 192.408 11.1072 192.408H48.068L87.815 277.715Z" fill="white"/>
<path fill-rule="evenodd" clip-rule="evenodd" d="M87.815 278.153L31.1608 277.582C20.4516 277.582 11.7137 270.489 9.93202 260.297L0.227449 205.092C-0.341179 201.802 0.549671 198.455 2.67255 195.926C4.77647 193.397 7.84705 191.971 11.1072 191.971H48.068C48.2386 191.971 48.3902 192.066 48.466 192.218L88.2131 277.525C88.2889 277.659 88.2699 277.83 88.1941 277.944C88.0993 278.077 87.9667 278.153 87.815 278.153ZM11.1072 192.845C8.11241 192.845 5.28823 194.177 3.3549 196.478C1.38366 198.836 0.568625 201.916 1.09934 204.94L10.8039 260.144C12.5098 269.9 20.8876 276.708 31.1608 276.708L87.1327 277.278L47.7837 192.845H11.1072Z" fill="black"/>
<path d="M71.4196 334.688H29.3981C22.8778 334.688 17.6085 339.994 17.6085 346.517V346.574H83.2092V346.517C83.2092 339.994 77.9399 334.688 71.4196 334.688Z" fill="white"/>
<path fill-rule="evenodd" clip-rule="evenodd" d="M83.2091 347.011H17.6085C17.3621 347.011 17.1536 346.821 17.1536 346.574V346.517C17.1536 339.766 22.6503 334.251 29.398 334.251H71.4196C78.1673 334.251 83.6451 339.766 83.6451 346.517V346.574C83.6451 346.821 83.4555 347.011 83.2091 347.011ZM18.0444 346.136H82.7732C82.5647 340.032 77.5608 335.126 71.4196 335.126H29.398C23.2568 335.126 18.2529 340.032 18.0444 346.136Z" fill="black"/>
<path d="M15.9974 235.461C15.7889 235.461 15.5993 235.328 15.5614 235.099L10.8608 208.305C10.8229 208.058 10.9745 207.849 11.2209 207.792C11.4483 207.754 11.6758 207.906 11.7137 208.153L16.4144 234.947C16.4712 235.195 16.3006 235.423 16.0732 235.461C16.0479 235.461 16.0226 235.461 15.9974 235.461Z" fill="black"/>
<path d="M282.38 98.3907L263.502 101.015C261.19 101.319 259.256 102.974 258.574 105.237L255.124 116.703L247.467 106.378C246.159 104.609 243.998 103.715 241.837 104.001L224.475 106.416C221.196 106.872 218.163 104.552 217.709 101.262L212.629 64.2753C212.174 60.9664 214.467 57.9238 217.765 57.4674L275.652 49.4615C278.95 49.0051 281.982 51.3061 282.437 54.6149L287.517 91.6018C287.972 94.8917 285.66 97.9343 282.38 98.3907Z" fill="white"/>
<path d="M257.91 117.141C257.778 117.141 257.645 117.065 257.569 116.951L249.912 106.644C248.699 105.009 246.689 104.172 244.68 104.438L227.318 106.853C225.612 107.081 223.925 106.644 222.542 105.598C221.177 104.552 220.286 103.031 220.059 101.319L217.367 81.7896C217.348 81.5423 217.519 81.3141 217.746 81.2951C217.993 81.2571 218.201 81.4282 218.239 81.6564L220.931 101.205C221.12 102.67 221.897 103.982 223.073 104.894C224.267 105.788 225.726 106.188 227.205 105.978L244.548 103.582C246.879 103.259 249.21 104.229 250.613 106.112L257.74 115.734L260.943 105.104C261.682 102.689 263.748 100.92 266.231 100.578L285.11 97.9535C288.142 97.5351 290.284 94.7017 289.867 91.6591L284.788 54.6722C284.579 53.1889 283.821 51.8768 282.627 50.983C281.452 50.0702 279.973 49.6899 278.514 49.8991L240.719 55.1286C240.473 55.1666 240.264 54.9955 240.226 54.7482C240.188 54.501 240.359 54.2918 240.605 54.2538L278.381 49.0243C280.087 48.7961 281.793 49.2335 283.157 50.2794C284.522 51.3253 285.413 52.8466 285.659 54.5581L290.72 91.5259C291.213 95.063 288.749 98.3338 285.223 98.8282L266.364 101.433C264.203 101.738 262.422 103.278 261.777 105.37L258.327 116.818C258.289 116.989 258.157 117.103 257.986 117.122C257.961 117.135 257.936 117.141 257.91 117.141Z" fill="black"/>
<path d="M258.479 69.3716C257.001 68.1355 255.124 67.584 253.191 67.8313C251.75 68.0214 250.48 68.649 249.438 69.6949C248.907 70.2273 248.446 70.8485 248.054 71.5585C247.505 70.969 246.917 70.4936 246.254 70.1132C244.984 69.3526 243.6 69.0673 242.16 69.2575C240.226 69.5047 238.558 70.4935 237.44 72.0719C236.341 73.6313 235.886 75.628 236.151 77.7008C236.416 79.8116 237.459 81.6562 239.411 83.4817C241.155 85.1172 243.562 86.7145 246.348 88.5401C247.315 89.1676 248.395 89.8713 249.514 90.6319C249.817 90.8221 250.177 90.9172 250.537 90.8601C250.878 90.8221 251.22 90.6509 251.447 90.3847C252.357 89.3578 253.21 88.407 253.987 87.5513C256.224 85.0791 258.157 82.9303 259.446 80.8955C260.867 78.6326 261.417 76.5978 261.133 74.468C260.867 72.4142 259.92 70.5886 258.479 69.3716Z" fill="#FF6701"/>
<path d="M50.0961 98.3907L68.9556 101.015C71.2869 101.319 73.2203 102.974 73.8837 105.237L77.3523 116.703L85.0098 106.378C86.3176 104.609 88.4784 103.715 90.6392 104.001L108.001 106.416C111.28 106.872 114.313 104.552 114.768 101.262L119.848 64.2753C120.303 60.9664 117.99 57.9238 114.711 57.4674L56.8059 49.4615C53.5268 49.0051 50.4941 51.3061 50.0392 54.6149L44.9595 91.6018C44.5046 94.8917 46.798 97.9343 50.0961 98.3907Z" fill="white"/>
<path d="M80.5366 115.886C80.5113 115.886 80.486 115.886 80.4608 115.886C80.2902 115.848 80.1575 115.734 80.1196 115.581L76.6699 104.115C76.0255 102.023 74.2438 100.482 72.083 100.197L53.2235 97.5919C49.698 97.0975 47.234 93.8267 47.7078 90.2896L51.4229 63.3434C51.4418 63.0962 51.6693 62.9251 51.9157 62.9631C52.1431 63.0011 52.3137 63.2103 52.2758 63.4575L48.5797 90.4037C48.1627 93.4654 50.3046 96.2988 53.3372 96.7172L72.2157 99.3224C74.6987 99.6647 76.7647 101.452 77.5039 103.867L80.7072 114.498L87.834 104.875C89.2366 102.974 91.5679 102.004 93.8804 102.327L111.242 104.723C112.721 104.932 114.18 104.552 115.374 103.639C116.55 102.745 117.327 101.433 117.516 99.95L122.596 62.9631C123.013 59.9014 120.89 57.087 117.839 56.6687L77.5418 51.0778C77.3144 51.0588 77.1438 50.8306 77.1817 50.5834C77.2006 50.3552 77.4281 50.1841 77.6745 50.2221L117.952 55.7939C121.478 56.2693 123.942 59.5591 123.468 63.0962L118.388 100.064C118.161 101.776 117.27 103.297 115.886 104.343C114.522 105.389 112.835 105.826 111.129 105.598L93.7666 103.202C91.7575 102.917 89.7483 103.753 88.5353 105.389L80.8778 115.715C80.8019 115.829 80.6693 115.886 80.5366 115.886Z" fill="black"/>
<path d="M73.9974 69.3716C75.4758 68.1355 77.3523 67.584 79.2856 67.8313C80.7261 68.0214 81.9771 68.649 83.0385 69.6949C83.5693 70.2273 84.0242 70.8485 84.4032 71.5585C84.9529 70.969 85.5594 70.4936 86.2039 70.1132C87.4928 69.3526 88.8575 69.0673 90.317 69.2575C92.2313 69.5047 93.9183 70.4935 95.0366 72.0719C96.1359 73.6313 96.5908 75.628 96.3255 77.7008C96.0601 79.8116 95.0176 81.6562 93.0653 83.4817C91.3215 85.1172 88.9144 86.7145 86.1091 88.5401C85.1614 89.1676 84.081 89.8713 82.9627 90.6319C82.6595 90.8221 82.2993 90.9172 81.9392 90.8601C81.5791 90.8221 81.2568 90.6509 81.0294 90.3847C80.1196 89.3578 79.2477 88.407 78.4895 87.5513C76.2529 85.0791 74.3006 82.9303 73.0307 80.8955C71.6091 78.6326 71.0594 76.5978 71.3248 74.468C71.5902 72.4142 72.5379 70.5886 73.9974 69.3716Z" fill="#FF6701"/>
<path d="M94.1647 214.562H140.868L146.08 208.876H88.9713L94.1647 214.562Z" fill="white"/>
<path fill-rule="evenodd" clip-rule="evenodd" d="M140.868 214.999H94.1647C94.051 214.999 93.9373 214.942 93.8425 214.866L88.649 209.161C88.5164 209.047 88.4974 208.857 88.5543 208.686C88.6301 208.534 88.7817 208.438 88.9713 208.438H146.08C146.251 208.438 146.422 208.534 146.478 208.686C146.554 208.857 146.516 209.047 146.403 209.161L141.19 214.866C141.114 214.942 141.001 214.999 140.868 214.999ZM94.3732 214.124H140.678L145.095 209.313H89.9569L94.3732 214.124Z" fill="black"/>
<path d="M191.893 214.562H238.596L243.809 208.876H186.68L191.893 214.562Z" fill="white"/>
<path fill-rule="evenodd" clip-rule="evenodd" d="M238.596 214.999H191.893C191.779 214.999 191.646 214.942 191.571 214.866L186.358 209.161C186.244 209.047 186.207 208.857 186.282 208.686C186.358 208.534 186.51 208.438 186.68 208.438H243.809C243.979 208.438 244.131 208.534 244.207 208.686C244.282 208.857 244.244 209.047 244.131 209.161L238.918 214.866C238.842 214.942 238.71 214.999 238.596 214.999ZM192.082 214.124H238.407L242.804 209.313H187.685L192.082 214.124Z" fill="black"/>
<path d="M265.359 325.2C264.431 324.249 259.01 307.362 259.01 307.362L248.32 315.007L260.052 330.81L265.359 325.2Z" fill="white"/>
<path fill-rule="evenodd" clip-rule="evenodd" d="M260.052 331.247C260.04 331.247 260.027 331.247 260.014 331.247C259.882 331.247 259.768 331.171 259.692 331.076L247.978 315.273C247.903 315.178 247.865 315.064 247.884 314.95C247.903 314.836 247.978 314.722 248.073 314.645L258.763 307.001C258.877 306.925 259.01 306.906 259.142 306.944C259.275 306.982 259.389 307.096 259.427 307.229C261.493 313.657 265.018 324.154 265.682 324.895C265.833 325.047 265.833 325.333 265.682 325.504L260.356 331.114C260.28 331.209 260.166 331.247 260.052 331.247ZM248.945 315.102L260.09 330.125L264.81 325.143C263.578 322.823 259.92 311.584 258.782 308.066L248.945 315.102Z" fill="black"/>
<path d="M246.102 346.536L253.21 346.498C257.911 346.479 262.289 344.083 264.848 340.128L271.88 328.946C273.813 325.865 272.733 321.777 269.529 320.065C266.592 318.506 263.521 316.985 262.801 317.042C261.322 317.194 260.735 324.135 260.735 324.135L254.404 324.363C254.404 324.363 251.277 337.427 248.528 338.91C246.519 339.994 245.116 341.573 244.169 343.018C243.183 344.539 244.282 346.555 246.102 346.536Z" fill="white"/>
<path fill-rule="evenodd" clip-rule="evenodd" d="M246.083 346.973C245.078 346.973 244.188 346.459 243.695 345.566C243.221 344.672 243.259 343.626 243.809 342.789C245.022 340.907 246.538 339.48 248.32 338.53C250.424 337.389 253.115 327.842 253.987 324.267C254.025 324.077 254.195 323.944 254.385 323.925L260.337 323.697C260.564 321.339 261.19 316.756 262.744 316.604C263.066 316.585 263.786 316.509 269.719 319.684C271.368 320.559 272.581 322.08 273.055 323.887C273.548 325.713 273.244 327.595 272.24 329.193L265.227 340.355C262.554 344.444 258.081 346.916 253.21 346.935L246.102 346.973C246.089 346.973 246.083 346.973 246.083 346.973ZM254.745 324.8C254.176 327.139 251.409 337.845 248.737 339.29C247.088 340.184 245.685 341.515 244.548 343.265C244.169 343.835 244.15 344.539 244.472 345.147C244.794 345.756 245.382 346.098 246.102 346.098L253.21 346.06C257.778 346.041 261.986 343.721 264.488 339.88L271.501 328.717C272.373 327.329 272.638 325.694 272.202 324.115C271.785 322.518 270.761 321.225 269.321 320.445C264.014 317.631 263.009 317.459 262.839 317.478C262.251 317.536 261.474 320.73 261.171 324.172C261.152 324.381 260.981 324.553 260.754 324.572L254.745 324.8Z" fill="black"/>
<path d="M246.803 344.197C246.595 344.197 246.405 344.045 246.386 343.817C246.348 343.588 246.5 343.36 246.746 343.322L256.47 341.858C258.536 341.535 260.318 340.337 261.398 338.549L269.984 324.135C270.117 323.926 270.382 323.868 270.591 323.983C270.799 324.116 270.856 324.382 270.742 324.591L262.137 338.987C260.943 341.021 258.915 342.371 256.603 342.714L246.879 344.197C246.854 344.197 246.829 344.197 246.803 344.197Z" fill="black"/>
<path d="M228.891 321.967L223.054 328.299C221.044 330.467 219.756 333.206 219.358 336.153L218.694 340.907L197.427 335.716L204.933 332.331C209.615 330.239 213.747 327.063 216.988 323.089L221.329 316.053L228.891 321.967Z" fill="white"/>
<path fill-rule="evenodd" clip-rule="evenodd" d="M218.694 341.344C218.656 341.344 218.625 341.338 218.599 341.325L197.314 336.134C197.143 336.096 197.01 335.925 196.992 335.754C196.973 335.563 197.067 335.373 197.238 335.297L204.744 331.931C209.331 329.878 213.444 326.721 216.647 322.841L220.969 315.824C221.026 315.71 221.139 315.634 221.253 315.615C221.386 315.596 221.499 315.634 221.613 315.71L229.157 321.624C229.252 321.7 229.309 321.815 229.327 321.929C229.327 322.062 229.29 322.176 229.214 322.271L223.376 328.584C221.424 330.714 220.173 333.338 219.793 336.21L219.13 340.964C219.111 341.078 219.035 341.192 218.941 341.268C218.865 341.319 218.783 341.344 218.694 341.344ZM198.773 335.582L218.334 340.356L218.922 336.096C219.339 333.053 220.665 330.258 222.731 327.995L228.247 322.024L221.443 316.699L217.367 323.317C217.355 323.342 217.342 323.361 217.329 323.374C214.05 327.367 209.824 330.619 205.104 332.73L198.773 335.582Z" fill="black"/>
<path d="M220.4 332.52C220.4 332.52 220.988 337.845 219.983 342.542C219.433 345.052 217.178 346.821 214.619 346.821H184.159C181.999 346.821 180.994 344.101 182.662 342.694C188.083 338.13 198.053 331.189 210.297 329.154L213.709 333.946L220.4 332.52Z" fill="white"/>
<path fill-rule="evenodd" clip-rule="evenodd" d="M214.619 347.259H184.16C182.984 347.259 181.961 346.536 181.563 345.433C181.165 344.33 181.487 343.113 182.397 342.353C187.382 338.169 197.636 330.81 210.222 328.718C210.392 328.68 210.563 328.756 210.658 328.889L213.899 333.453L220.305 332.103C220.419 332.065 220.552 332.103 220.646 332.179C220.741 332.236 220.817 332.35 220.836 332.483C220.855 332.692 221.424 337.922 220.4 342.638C219.831 345.319 217.386 347.259 214.619 347.259ZM210.108 329.631C197.826 331.741 187.837 338.93 182.946 343.018C182.207 343.665 182.169 344.52 182.397 345.129C182.605 345.737 183.193 346.384 184.16 346.384H214.619C216.988 346.384 219.054 344.73 219.547 342.467C220.362 338.682 220.116 334.461 220.002 333.054L213.804 334.366C213.633 334.404 213.463 334.347 213.368 334.195L210.108 329.631Z" fill="black"/>
<path d="M217.178 343.055H185.619C185.373 343.055 185.183 342.865 185.183 342.618C185.183 342.371 185.373 342.181 185.619 342.181H217.178C217.424 342.181 217.614 342.371 217.614 342.618C217.614 342.865 217.424 343.055 217.178 343.055Z" fill="black"/>
<path d="M294.587 234.434C294.587 234.434 237.857 227.797 220.988 242.44C204.118 257.102 247.618 320.084 247.618 320.084L261.379 309.853L248.32 265.336L300.766 250.389L294.587 234.434Z" fill="white"/>
<path fill-rule="evenodd" clip-rule="evenodd" d="M247.618 320.521C247.593 320.521 247.568 320.521 247.542 320.521C247.429 320.502 247.315 320.445 247.258 320.331C247.144 320.179 236.265 304.357 227.584 286.957C215.851 263.434 213.539 248.335 220.703 242.117C227.773 235.974 242.387 232.741 264.109 232.513C280.239 232.323 294.492 233.978 294.625 233.997C294.795 234.016 294.928 234.111 294.985 234.263L301.164 250.237C301.202 250.351 301.202 250.484 301.145 250.598C301.088 250.693 300.993 250.788 300.88 250.807L248.869 265.64L261.796 309.739C261.834 309.91 261.777 310.1 261.626 310.214L247.884 320.445C247.808 320.502 247.713 320.521 247.618 320.521ZM266.629 233.388C249.817 233.388 230.01 235.195 221.272 242.782C205.559 256.436 244.169 314.227 247.713 319.456L260.867 309.682L247.903 265.45C247.865 265.336 247.884 265.221 247.941 265.126C247.997 265.012 248.092 264.936 248.206 264.917L300.178 250.103L294.265 234.833C292.369 234.624 280.504 233.388 266.629 233.388Z" fill="black"/>
<path d="M325.994 262.787C317.749 265.412 303.003 268.816 282.399 268.53C276.542 268.454 271.14 271.687 268.487 276.936C262.384 288.935 249.173 310.557 227.659 324.572L217.367 319.019L243.6 259.783C246.007 254.363 250.48 250.16 256.015 248.126L308.007 228.995C308.007 228.995 328.894 220.514 336.684 238.96C339.584 245.825 333.064 260.543 325.994 262.787Z" fill="white"/>
<path fill-rule="evenodd" clip-rule="evenodd" d="M227.66 325.009C227.584 325.009 227.514 324.99 227.451 324.952L217.178 319.399C216.969 319.285 216.875 319.038 216.969 318.829L243.202 259.593C245.628 254.116 250.253 249.78 255.863 247.707L307.855 228.596C308.044 228.501 329.216 220.172 337.082 238.789C338.504 242.174 337.841 247.631 335.339 253.07C332.912 258.357 329.482 262.141 326.127 263.206C317.389 266.001 302.718 269.253 282.399 268.968C282.324 268.968 282.254 268.968 282.191 268.968C276.524 268.968 271.444 272.086 268.866 277.126C262.877 288.916 249.59 310.804 227.887 324.933C227.811 324.984 227.735 325.009 227.66 325.009ZM217.936 318.829L227.641 324.058C249.021 310.043 262.156 288.402 268.089 276.726C270.837 271.326 276.315 268.017 282.399 268.093C302.624 268.359 317.199 265.145 325.861 262.369C328.932 261.399 332.268 257.691 334.543 252.709C336.95 247.479 337.613 242.288 336.286 239.131C328.743 221.294 308.367 229.319 308.158 229.414L256.167 248.544C250.765 250.522 246.348 254.686 243.998 259.954L217.936 318.829Z" fill="black"/>
<path d="M212.591 169.988C212.193 169.151 210.26 161.449 208.023 160.251C205.786 159.034 193.788 151.142 193.978 153.025C194.186 154.927 199.095 160.213 199.095 160.213C199.095 160.213 197.598 169.303 205.767 170.368L207.435 173.449L212.591 169.988Z" fill="white"/>
<path fill-rule="evenodd" clip-rule="evenodd" d="M207.435 173.886C207.41 173.886 207.378 173.886 207.341 173.886C207.227 173.848 207.113 173.772 207.056 173.658L205.483 170.767C203.227 170.425 201.465 169.455 200.29 167.839C198.224 165.062 198.508 161.316 198.641 160.365C197.712 159.357 193.75 154.927 193.542 153.082C193.523 152.797 193.637 152.568 193.845 152.416C194.679 151.903 197.371 153.234 205.407 158.159C206.696 158.958 207.72 159.586 208.231 159.852C210.165 160.898 211.738 165.88 212.572 168.561C212.761 169.151 212.913 169.664 212.989 169.816C213.084 170.007 213.027 170.235 212.837 170.368L207.682 173.81C207.606 173.861 207.524 173.886 207.435 173.886ZM194.452 153.177C194.869 154.755 198.129 158.54 199.418 159.928C199.512 160.023 199.55 160.156 199.531 160.289C199.512 160.327 198.868 164.492 200.991 167.325C202.071 168.77 203.682 169.645 205.824 169.93C205.957 169.949 206.09 170.026 206.146 170.159L207.606 172.821L212.06 169.816C211.984 169.588 211.89 169.265 211.738 168.828C211.056 166.641 209.426 161.506 207.814 160.631C207.284 160.346 206.26 159.719 204.952 158.901C202.185 157.228 195.911 153.367 194.452 153.177Z" fill="black"/>
<path d="M279.916 156.258C279.916 156.258 261.891 152.949 251.239 169.037C240.605 185.125 221.651 188.053 213.197 169.037L205.616 172.193C205.616 172.193 216.78 209.466 240.586 201.783C264.412 194.081 271.899 181.321 271.899 181.321L279.916 156.258Z" fill="black"/>
<path d="M298.643 157.018C298.643 157.018 314.811 158.216 318.886 174.589C322.98 190.982 319.19 241.299 322.677 247.441C326.184 253.584 309.864 260.791 303.306 253.089C296.729 245.388 263.483 231.696 254.916 232.076C246.348 232.456 255.977 200.262 255.977 200.262C255.977 200.262 267.786 159.548 275.993 158.007C284.2 156.448 298.643 157.018 298.643 157.018Z" fill="black"/>
<path d="M275.14 159.662L272.164 182.976L293.905 161.316C293.905 161.316 282.267 158.349 275.14 159.662Z" fill="white"/>
<path fill-rule="evenodd" clip-rule="evenodd" d="M272.164 183.413C272.101 183.413 272.038 183.401 271.975 183.375C271.804 183.28 271.709 183.109 271.728 182.919L274.704 159.624C274.723 159.434 274.875 159.282 275.064 159.243C282.191 157.912 293.525 160.784 293.999 160.898C294.17 160.936 294.284 161.05 294.322 161.202C294.359 161.354 294.322 161.525 294.208 161.64L272.467 183.28C272.392 183.375 272.278 183.413 272.164 183.413ZM275.538 160.042L272.752 181.759L293.033 161.563C290.398 160.955 281.452 159.072 275.538 160.042Z" fill="black"/>
<path d="M271.899 191.818C271.899 191.818 270.629 186.056 268.885 184.022C267.141 181.987 264.62 179.192 265.492 182.158C266.364 185.125 266.156 186.304 265.928 186.342C265.72 186.38 261.227 181.34 259.048 178.659C256.849 175.959 253.399 177.613 255.655 182.976C257.91 188.319 258.934 191.419 263.407 193.568C267.88 195.698 268.222 197.904 268.222 197.904L271.899 191.818Z" fill="white"/>
<path fill-rule="evenodd" clip-rule="evenodd" d="M268.222 198.341C268.196 198.341 268.171 198.341 268.146 198.341C267.956 198.303 267.824 198.151 267.805 197.979C267.786 197.96 267.369 195.945 263.218 193.948C258.915 191.894 257.702 189.004 255.712 184.231L255.257 183.147C253.854 179.838 254.556 177.936 255.693 177.252C256.811 176.567 258.29 177.023 259.389 178.374C261.303 180.732 264.488 184.326 265.701 185.543C265.682 184.991 265.568 183.945 265.075 182.291C264.848 181.53 264.715 180.789 265.227 180.503C265.852 180.161 266.762 180.884 269.207 183.736C271.008 185.828 272.259 191.476 272.316 191.723C272.335 191.837 272.316 191.951 272.259 192.046L268.601 198.132C268.525 198.265 268.373 198.341 268.222 198.341ZM256.811 177.822C256.571 177.822 256.35 177.879 256.148 177.993C255.371 178.469 254.878 180.009 256.053 182.804L256.508 183.907C258.422 188.49 259.578 191.248 263.597 193.168C266.535 194.576 267.786 196.04 268.297 196.934L271.425 191.742C271.197 190.791 270.041 186.037 268.563 184.307C266.952 182.462 266.156 181.701 265.776 181.435C265.795 181.568 265.833 181.758 265.909 182.044C266.573 184.25 266.743 185.923 266.383 186.513C266.269 186.703 266.099 186.76 266.004 186.779C265.72 186.836 265.606 186.855 262.895 183.812C261.379 182.12 259.73 180.199 258.707 178.925C258.119 178.202 257.418 177.822 256.811 177.822Z" fill="black"/>
<path d="M288.882 227.721C288.856 227.721 288.825 227.721 288.787 227.721C278.4 227.569 272.733 211.082 270.761 204.008C270.136 201.726 269.112 199.615 267.729 197.732C267.615 197.58 267.615 197.39 267.71 197.238L271.804 191.096C271.88 190.981 271.993 190.905 272.126 190.905C272.278 190.886 272.41 190.943 272.486 191.058L273.586 192.294C273.611 192.319 273.63 192.344 273.642 192.37C278.4 200.49 283.233 207.126 284.238 206.841C285.982 205.643 288.01 201.003 289.166 195.564C289.356 194.633 289.564 193.549 289.792 192.408C290.929 186.418 292.35 178.963 295.175 177.023C295.364 176.89 295.648 176.928 295.781 177.138C295.914 177.328 295.876 177.613 295.667 177.746C293.146 179.477 291.706 187.045 290.644 192.579C290.417 193.72 290.208 194.804 290.019 195.755C288.806 201.479 286.683 206.214 284.731 207.564C284.579 207.678 284.333 207.773 283.992 207.697C281.338 207.107 273.851 194.461 272.903 192.845L272.221 192.065L268.62 197.466C269.965 199.368 270.989 201.498 271.614 203.76C273.51 210.663 279.007 226.713 288.787 226.846C288.825 226.846 288.856 226.846 288.882 226.846C301.24 226.846 308.632 193.758 308.689 193.435C308.746 193.187 308.992 193.035 309.22 193.092C309.447 193.149 309.599 193.378 309.561 193.625C309.239 195.013 301.922 227.721 288.882 227.721Z" fill="white"/>
<path d="M290.208 139.067L293.203 153.652C293.544 155.155 294.776 156.296 296.293 156.524L298.131 156.79C299.079 156.923 299.382 158.159 298.586 158.73C294.89 161.373 286.247 165.88 275.746 160.251C274.837 159.699 274.988 158.349 275.993 158.007L278.438 157.189C279.878 156.695 280.883 155.402 280.997 153.899L279.841 137.526L290.208 139.067Z" fill="white"/>
<path fill-rule="evenodd" clip-rule="evenodd" d="M285.925 163.37C282.778 163.37 279.272 162.628 275.538 160.632C274.95 160.27 274.628 159.662 274.704 158.996C274.78 158.35 275.216 157.798 275.841 157.589L278.286 156.771C279.556 156.334 280.447 155.212 280.542 153.9L279.405 137.546C279.405 137.412 279.461 137.298 279.556 137.203C279.651 137.108 279.784 137.07 279.916 137.089L290.265 138.63C290.455 138.649 290.588 138.801 290.626 138.972L293.62 153.576C293.924 154.889 295.004 155.877 296.369 156.087L298.188 156.353C298.814 156.448 299.288 156.885 299.439 157.494C299.591 158.102 299.363 158.711 298.833 159.091C296.615 160.67 291.952 163.37 285.925 163.37ZM280.314 138.04L281.433 153.881C281.433 153.893 281.433 153.912 281.433 153.938C281.3 155.611 280.182 157.056 278.571 157.589L276.126 158.426C275.822 158.521 275.614 158.768 275.576 159.091C275.538 159.414 275.69 159.7 275.955 159.871C286.039 165.272 294.303 161.24 298.34 158.369C298.548 158.216 298.643 157.969 298.586 157.703C298.529 157.437 298.321 157.266 298.056 157.228L296.236 156.942C294.511 156.695 293.165 155.44 292.767 153.748L289.829 139.447L280.314 138.04Z" fill="black"/>
<path d="M269.283 123.093C272.448 122.009 269.321 126.44 280.239 119.632C284.598 116.932 283.726 123.093 284.863 122.389C289.033 119.803 290.19 119.157 292.559 119.099C294.132 119.08 298.037 121.077 298.112 123.188C298.302 130.034 294.966 129.159 294.568 135.301C294.284 139.618 293.507 141.12 292.085 142.147C290.644 143.174 288.863 141.368 287.214 142.376C285.053 143.688 286.626 147.567 284.826 149.868C283.688 151.313 280.485 152.739 274.439 151.656C273.472 151.484 272.752 150.648 272.752 149.64C272.752 148.366 272.752 146.749 272.884 145.209C273.529 137.869 275.5 135.701 274.154 134.237C272.107 131.974 267.501 134.883 266.08 132.962C264.582 130.966 264.943 124.595 269.283 123.093Z" fill="black"/>
<path d="M283.669 131.365L283.233 133.324C283.018 134.25 282.873 135.188 282.797 136.139C282.646 137.907 282.267 140.95 282.077 142.642C281.452 148.138 273.851 144.449 273.851 144.449L273.036 143.213L272.126 143.099C271.955 143.08 271.785 143.022 271.633 142.927C271.273 142.661 271.159 142.224 271.292 141.824C272.012 139.676 273.453 134.921 273.358 131.042C273.358 131.042 278.229 128.228 283.669 131.365Z" fill="white"/>
<path fill-rule="evenodd" clip-rule="evenodd" d="M278.59 146.103C276.277 146.103 273.794 144.905 273.661 144.829C273.586 144.803 273.522 144.753 273.472 144.677L272.79 143.612L272.088 143.536C271.823 143.517 271.576 143.421 271.368 143.269C270.875 142.908 270.667 142.261 270.875 141.691C271.52 139.77 273.017 134.921 272.922 131.042C272.922 130.89 272.998 130.737 273.15 130.661C273.358 130.528 278.286 127.752 283.897 130.985C284.067 131.08 284.143 131.27 284.105 131.46L283.65 133.438C283.461 134.332 283.309 135.263 283.233 136.176C283.12 137.469 282.892 139.447 282.703 141.044C282.627 141.653 282.551 142.223 282.513 142.699C282.343 144.087 281.774 145.057 280.769 145.608C280.125 145.97 279.367 146.103 278.59 146.103ZM274.135 144.106C274.799 144.391 278.381 145.932 280.352 144.829C281.092 144.429 281.509 143.688 281.641 142.604C281.698 142.128 281.755 141.558 281.831 140.949C282.02 139.352 282.248 137.374 282.361 136.1C282.437 135.149 282.589 134.179 282.797 133.229L283.177 131.593C278.76 129.197 274.761 130.833 273.794 131.308C273.813 135.111 272.505 139.599 271.709 141.957C271.633 142.185 271.709 142.433 271.899 142.566C271.962 142.616 272.057 142.648 272.183 142.661L273.093 142.775C273.226 142.775 273.339 142.851 273.415 142.965L274.135 144.106Z" fill="black"/>
<path d="M284.029 137.679C284.029 137.679 285.091 132.963 287.138 133.894C289.185 134.826 287.877 139.999 284.029 137.679Z" fill="white"/>
<path d="M209.805 174.076L207.473 173.334C205.464 172.707 204.08 170.862 204.005 168.733L203.625 155.668H203.493C206.09 155.516 208.099 153.329 208.023 150.705L207.208 123.512C207.208 123.112 206.867 122.789 206.469 122.808L197.92 123.055C197.522 123.074 197.219 123.416 197.219 123.816L197.257 124.557L197.427 130.491L198.034 151.009C198.11 153.633 200.271 155.687 202.867 155.687H202.735L203.133 168.771C203.19 170.881 201.901 172.802 199.929 173.563L197.674 174.437C197.541 174.494 197.446 174.628 197.446 174.761C197.465 174.951 197.617 175.103 197.788 175.084L209.71 174.742C209.899 174.723 210.032 174.571 210.032 174.38C210.032 174.247 209.937 174.114 209.805 174.076Z" fill="white"/>
<path fill-rule="evenodd" clip-rule="evenodd" d="M197.788 175.521C197.371 175.521 197.029 175.198 197.01 174.78C197.01 174.457 197.2 174.152 197.503 174.038L199.778 173.163C201.578 172.479 202.735 170.71 202.678 168.771L202.299 156.087C199.702 155.84 197.674 153.71 197.598 151.028L196.783 123.816C196.783 123.512 196.897 123.226 197.105 122.998C197.314 122.77 197.598 122.637 197.92 122.618L206.45 122.371C207.075 122.352 207.625 122.846 207.644 123.493L208.459 150.705C208.535 153.386 206.658 155.63 204.061 156.049L204.44 168.733C204.497 170.653 205.767 172.346 207.606 172.916L209.937 173.658C210.24 173.753 210.449 174.038 210.468 174.38C210.468 174.59 210.392 174.78 210.259 174.932C210.108 175.084 209.918 175.16 209.71 175.179L197.806 175.521C197.806 175.521 197.8 175.521 197.788 175.521ZM203.171 155.973L203.569 168.752C203.625 171.053 202.242 173.163 200.1 173.981L198.394 174.628L209.084 174.304L207.34 173.753C205.161 173.068 203.644 171.053 203.569 168.752L203.19 155.973C203.19 155.973 203.183 155.973 203.171 155.973ZM202.867 155.25C202.981 155.25 203.095 155.288 203.171 155.364C203.246 155.288 203.341 155.231 203.474 155.231C205.843 155.098 207.663 153.12 207.587 150.724L206.772 123.531C206.772 123.359 206.639 123.245 206.488 123.245L197.939 123.512C197.863 123.512 197.788 123.531 197.731 123.588C197.693 123.645 197.655 123.721 197.655 123.797L198.47 150.99C198.546 153.386 200.46 155.25 202.829 155.25C202.842 155.25 202.855 155.25 202.867 155.25Z" fill="black"/>
<path d="M206.81 138.306C204.971 137.394 203.322 137.032 201.901 136.937C200.707 136.842 199.569 136.975 198.47 137.204L198.868 150.8C198.944 153.082 200.858 154.908 203.152 154.832C205.445 154.756 207.246 152.835 207.17 150.553L206.81 138.306Z" fill="white"/>
<path fill-rule="evenodd" clip-rule="evenodd" d="M203.019 155.269C200.555 155.269 198.508 153.291 198.432 150.8L198.034 137.203C198.034 136.994 198.167 136.804 198.375 136.766C199.664 136.5 200.82 136.424 201.939 136.5C203.644 136.614 205.35 137.089 206.999 137.907C207.151 137.983 207.246 138.135 207.246 138.287L207.606 150.534C207.644 151.751 207.208 152.93 206.374 153.824C205.521 154.717 204.384 155.231 203.171 155.269C203.12 155.269 203.069 155.269 203.019 155.269ZM198.925 137.565L199.323 150.781C199.38 152.835 201.105 154.451 203.133 154.394C204.137 154.356 205.047 153.957 205.729 153.215C206.412 152.492 206.772 151.542 206.734 150.553L206.374 138.591C204.895 137.869 203.379 137.469 201.882 137.374C200.953 137.298 199.986 137.374 198.925 137.565Z" fill="#FF6701"/>
<path d="M198.925 137.565L199.323 150.781C199.38 152.835 201.105 154.451 203.133 154.394C204.137 154.356 205.047 153.957 205.729 153.215C206.412 152.492 206.772 151.542 206.734 150.553L206.374 138.591C204.895 137.869 203.379 137.469 201.882 137.374C200.953 137.298 199.986 137.374 198.925 137.565Z" fill="#FF6701"/>
<path d="M206.867 161.735L202.09 159.814V160.365C202.09 161.278 202.45 162.153 203.095 162.781C203.682 163.389 204.346 164.283 204.516 165.462C204.82 167.668 207.454 168.485 207.454 168.485L206.867 161.735Z" fill="white"/>
<path d="M207.208 168.923C207.17 168.923 207.126 168.916 207.075 168.904C206.961 168.866 204.175 167.991 203.834 165.519C203.682 164.435 203.038 163.617 202.526 163.104C201.806 162.381 201.408 161.411 201.408 160.365V159.814C201.408 159.681 201.484 159.548 201.597 159.453C201.711 159.376 201.863 159.357 201.995 159.415L206.772 161.316C206.999 161.411 207.113 161.677 207.018 161.887C206.942 162.115 206.677 162.229 206.45 162.134L202.28 160.46C202.299 161.24 202.602 161.944 203.152 162.476C203.758 163.085 204.516 164.074 204.687 165.405C204.952 167.306 207.322 168.067 207.341 168.067C207.568 168.143 207.701 168.39 207.625 168.618C207.568 168.809 207.397 168.923 207.208 168.923Z" fill="black"/>
<path d="M293.98 346.346H303.306V270.09L293.98 270.489V346.346Z" fill="white"/>
<path fill-rule="evenodd" clip-rule="evenodd" d="M303.306 346.783H293.98C293.734 346.783 293.544 346.593 293.544 346.345V270.489C293.544 270.261 293.734 270.071 293.961 270.052L303.287 269.652C303.401 269.652 303.514 269.69 303.609 269.766C303.685 269.862 303.742 269.976 303.742 270.09V346.345C303.742 346.593 303.533 346.783 303.306 346.783ZM294.416 345.908H302.87V270.546L294.416 270.907V345.908Z" fill="black"/>
<path d="M336.893 192.655H323.909C316.441 192.655 310.035 197.999 308.689 205.377L300.785 248.487C299.78 253.983 295.004 257.977 289.431 257.977H286.531C282.096 257.977 278.002 260.316 275.765 264.138L266.914 276.67C266.743 276.898 266.724 277.202 266.857 277.468C266.99 277.716 267.255 277.868 267.539 277.868L295.061 277.621L303.306 277.525L316.839 277.392C327.074 277.392 335.831 270.68 337.632 260.468L347.337 205.263C348.493 198.683 343.508 192.655 336.893 192.655Z" fill="white"/>
<path fill-rule="evenodd" clip-rule="evenodd" d="M267.52 278.305C267.084 278.305 266.667 278.058 266.459 277.658C266.25 277.259 266.288 276.784 266.554 276.403L275.405 263.891C277.699 259.973 281.963 257.52 286.531 257.52H289.431C294.795 257.52 299.382 253.698 300.349 248.392L308.253 205.282C309.656 197.714 316.233 192.218 323.909 192.218H336.893C340.153 192.218 343.224 193.644 345.327 196.154C347.45 198.702 348.341 202.049 347.773 205.339L338.068 260.544C336.286 270.717 327.548 277.83 316.839 277.83L295.061 278.058L267.539 278.305C267.539 278.305 267.533 278.305 267.52 278.305ZM286.531 258.414C282.267 258.414 278.286 260.696 276.126 264.366L267.255 276.917C267.198 277.012 267.179 277.145 267.236 277.259C267.293 277.373 267.407 277.43 267.539 277.43L303.287 277.088L316.839 276.955C327.112 276.955 335.49 270.147 337.215 260.392L346.901 205.187C347.431 202.163 346.616 199.064 344.645 196.725C342.712 194.405 339.888 193.093 336.893 193.093H323.909C316.65 193.093 310.433 198.284 309.125 205.453L301.221 248.563C300.159 254.268 295.212 258.414 289.431 258.414H286.531Z" fill="black"/>
<path d="M276.58 334.936H318.602C325.122 334.936 330.392 340.241 330.392 346.764V346.821H264.791V346.764C264.791 340.241 270.06 334.936 276.58 334.936Z" fill="white"/>
<path fill-rule="evenodd" clip-rule="evenodd" d="M330.391 347.258H264.791C264.544 347.258 264.355 347.068 264.355 346.821V346.764C264.355 340.013 269.833 334.498 276.58 334.498H318.602C325.35 334.498 330.846 340.013 330.846 346.764V346.821C330.846 347.068 330.638 347.258 330.391 347.258ZM265.227 346.383H329.956C329.747 340.279 324.743 335.373 318.602 335.373H276.58C270.439 335.373 265.435 340.279 265.227 346.383Z" fill="black"/>
<path d="M332.003 235.708C331.977 235.708 331.952 235.708 331.927 235.708C331.699 235.67 331.529 235.442 331.586 235.195L336.286 208.401C336.324 208.154 336.552 208.001 336.779 208.039C337.025 208.078 337.177 208.306 337.139 208.553L332.439 235.347C332.401 235.556 332.211 235.708 332.003 235.708Z" fill="black"/>
<path d="M77.8451 130.719C74.0353 126.992 68.368 126.193 64.1033 127.258C58.7203 128.589 56.0098 132.792 54.0765 135.777C50.7026 141.026 52.3327 142.927 49.6601 145.989C44.9595 151.39 33.5111 147.815 27.9386 151.96C14.5569 161.944 21.8543 178.431 33.7196 186.209C41.6235 191.4 52.3896 188.396 55.3275 187.578C64.217 185.106 78.9445 180.257 80.366 168.657C81.3137 160.86 72.519 154.603 77.2386 148.1C78.4516 146.445 79.4562 145.989 80.3471 143.916C81.7876 140.55 82.1288 134.903 77.8451 130.719Z" fill="black"/>
<path d="M63.9327 131.631C65.9608 130.148 64.6719 125.774 63.383 123.416C62.8902 122.522 60.7294 118.567 57.8673 118.719C54.9294 118.871 52.1242 123.321 53.1667 126.858C54.4745 131.27 61.5634 133.381 63.9327 131.631Z" fill="black"/>
<path d="M130.14 154.584C128.169 154.66 124.7 158.121 122.71 160.137C122.141 160.726 121.686 161.183 121.421 161.411C121.421 161.411 102.315 185.809 100.401 186.36C96.098 181.854 79.3614 162.799 76.0823 163.655C74.5281 168.295 78.9065 187.178 82.6974 190.088C86.4882 193.016 99.3202 206.632 105.594 202.677C111.868 198.721 127.79 164.682 127.79 164.682C135.58 167.287 138.195 158.463 138.195 158.463C138.195 158.463 144.905 155.839 145.91 154.223C146.895 152.606 132.68 154.47 130.14 154.584Z" fill="white"/>
<path fill-rule="evenodd" clip-rule="evenodd" d="M102.959 203.837C97.4817 203.837 90.0327 197.162 85.2751 192.902C84.1189 191.857 83.1144 190.963 82.432 190.449C78.3758 187.312 74.1111 168.2 75.6653 163.522C75.7032 163.37 75.817 163.256 75.9686 163.237C78.4706 162.59 86.1281 170.254 97.6902 182.805C98.8085 184.022 99.7751 185.087 100.476 185.828C102.599 184.288 114.067 170.102 121.08 161.145C121.092 161.12 121.111 161.101 121.137 161.088C121.364 160.879 121.762 160.499 122.255 159.985L122.407 159.833C125.269 156.923 128.188 154.223 130.121 154.147C130.69 154.109 131.903 153.995 133.4 153.843C142.763 152.93 145.777 152.892 146.308 153.729C146.441 153.957 146.422 154.204 146.289 154.451C145.303 156.03 139.807 158.293 138.537 158.787C138.233 159.681 136.888 163.199 133.817 164.796C132.092 165.709 130.14 165.842 128.017 165.215C126.235 169.018 111.868 199.254 105.822 203.038C104.969 203.59 103.983 203.837 102.959 203.837ZM76.4046 164.055C75.1915 168.885 79.2666 186.893 82.9627 189.746C83.664 190.297 84.6307 191.153 85.8438 192.237C90.9804 196.82 100.495 205.358 105.367 202.297C111.451 198.474 127.221 164.834 127.391 164.492C127.486 164.302 127.714 164.188 127.922 164.264C129.95 164.948 131.808 164.872 133.4 164.036C136.546 162.381 137.759 158.369 137.778 158.331C137.816 158.198 137.911 158.102 138.025 158.045C140.546 157.057 144.469 155.269 145.417 154.147C144.014 153.672 136.698 154.394 133.495 154.718C131.959 154.87 130.765 154.984 130.159 155.022C128.301 155.098 124.605 158.844 123.013 160.46L122.88 160.594C122.388 161.088 121.99 161.487 121.743 161.716C118.483 165.88 102.467 186.228 100.514 186.798C100.363 186.836 100.192 186.798 100.078 186.665C99.3771 185.923 98.3536 184.82 97.0457 183.413C91.7006 177.594 79.3804 164.207 76.4046 164.055Z" fill="black"/>
<path d="M90.2033 345.395C86.7157 343.531 86.2608 333.282 86.0333 329.802C85.7869 326.322 81.5791 332.122 80.4039 330.962C79.2288 329.802 81.7686 327.253 83.2092 324.23C84.6686 321.206 88.8007 319.152 88.8007 319.152L89.502 319.609L97.0837 324.591C97.0837 324.591 97.2163 330.809 96.7804 334.689C96.6288 335.944 97.0837 337.446 97.785 338.948C99.2634 342.086 101.841 345.262 102.372 346.574C103.149 348.514 93.7098 347.278 90.2033 345.395Z" fill="white"/>
<path fill-rule="evenodd" clip-rule="evenodd" d="M99.9837 348C96.8941 348 92.0987 346.916 90.0137 345.794C86.5072 343.931 85.9196 334.898 85.6353 330.543L85.5974 329.839C85.5595 329.383 85.4458 329.174 85.3699 329.136C85.0288 328.984 83.9294 329.782 83.266 330.277C82.034 331.171 80.8588 332.045 80.1007 331.285C79.0582 330.258 80.0817 328.641 81.2379 326.778C81.7686 325.941 82.3562 325.009 82.8301 324.039C84.3085 320.921 88.4405 318.848 88.6111 318.753C88.7438 318.696 88.9144 318.696 89.0471 318.791L97.3301 324.23C97.4438 324.306 97.5196 324.439 97.5196 324.591C97.5196 324.648 97.6333 330.885 97.1974 334.746C97.0837 335.772 97.4248 337.123 98.183 338.758C99.017 340.508 100.211 342.314 101.178 343.759C101.936 344.9 102.524 345.813 102.77 346.403C102.922 346.802 102.846 347.182 102.542 347.449C102.107 347.829 101.178 348 99.9837 348ZM85.2941 328.242C85.4458 328.242 85.5911 328.274 85.7301 328.337C86.3745 328.641 86.4503 329.497 86.4693 329.782L86.5072 330.486C86.7347 334.023 87.3412 343.379 90.4118 345.014C93.8425 346.84 101.462 347.639 101.974 346.783C101.974 346.783 101.968 346.77 101.955 346.745C101.746 346.212 101.14 345.3 100.439 344.254C99.4719 342.771 98.2588 340.945 97.4059 339.138C96.553 337.332 96.1928 335.868 96.3445 334.651C96.7235 331.247 96.6667 325.998 96.6477 324.838L88.7817 319.666C87.9288 320.122 84.7824 321.967 83.6072 324.42C83.1333 325.428 82.5268 326.397 81.9771 327.234C81.0105 328.793 80.1765 330.125 80.7072 330.657C80.9346 330.885 82.1667 329.991 82.7543 329.554C83.683 328.889 84.5549 328.242 85.2941 328.242Z" fill="black"/>
<path d="M158.003 347.049C148.924 346.497 146.422 345.299 142.915 341.23C139.409 337.179 142.744 344.957 139.465 345.299C136.224 345.622 137.892 329.306 137.892 328.945C137.892 328.945 143.237 319.855 144.773 325.085C144.792 325.161 144.773 325.18 144.773 325.18C146.08 329.972 153.492 333.585 159.424 338.548C160.233 339.22 161.004 339.918 161.737 340.64C167.859 346.725 167.082 347.6 158.003 347.049Z" fill="white"/>
<path fill-rule="evenodd" clip-rule="evenodd" d="M161.68 347.62C160.675 347.62 159.462 347.582 157.984 347.487C148.658 346.916 146.08 345.566 142.593 341.515C142.043 340.888 141.759 340.66 141.607 340.565C141.55 340.812 141.55 341.325 141.55 341.706C141.531 343.227 141.512 345.528 139.522 345.737C139.105 345.775 138.726 345.623 138.404 345.319C136.982 343.912 136.66 338.549 137.418 329.345C137.437 329.117 137.456 328.984 137.456 328.927C137.456 328.87 137.475 328.774 137.513 328.717C137.873 328.109 141.095 322.746 143.465 323.031C144.261 323.146 144.848 323.792 145.19 324.971C145.202 325.035 145.208 325.098 145.208 325.161C146.137 328.299 150.004 331.056 154.098 333.985C155.975 335.316 157.908 336.704 159.708 338.207C160.542 338.91 161.339 339.614 162.04 340.317C165.509 343.778 166.513 345.3 166.02 346.403C165.641 347.258 164.485 347.62 161.68 347.62ZM141.512 339.633C141.948 339.633 142.441 340.013 143.237 340.945C146.611 344.843 148.961 346.06 158.041 346.612C160.22 346.745 164.788 347.011 165.224 346.06C165.641 345.129 162.571 342.086 161.414 340.945C160.732 340.26 159.974 339.557 159.159 338.891C157.377 337.389 155.444 336.02 153.605 334.708C149.341 331.665 145.303 328.793 144.356 325.294C144.33 325.244 144.324 325.193 144.337 325.142C144.09 324.382 143.768 323.963 143.37 323.906C142.024 323.735 139.579 326.949 138.309 329.079C138.309 329.155 138.303 329.269 138.29 329.421C137.286 341.553 138.461 344.14 139.029 344.691C139.181 344.862 139.333 344.862 139.427 344.862C140.565 344.748 140.659 343.417 140.678 341.706C140.678 340.641 140.697 339.88 141.266 339.671C141.342 339.645 141.424 339.633 141.512 339.633Z" fill="black"/>
<path d="M159.424 338.549C158.287 340.603 155.406 343.417 152.316 341.573C149.189 339.69 143.597 335.811 140.129 332.045C139.465 331.893 138.821 331.209 138.139 329.649C138.044 329.421 137.892 329.174 137.892 328.946C134.386 321.472 128.642 309.492 123.942 304.928C119.09 300.212 110.579 284.352 109.48 273.798C108.399 263.225 107.054 239.968 117.876 246.339C117.876 246.339 122.805 246.795 125.856 257.33C128.851 267.599 144.014 322.518 144.716 325.085C144.728 325.149 144.735 325.181 144.735 325.181C146.061 329.973 153.492 333.586 159.424 338.549Z" fill="white"/>
<path fill-rule="evenodd" clip-rule="evenodd" d="M154.382 342.599C153.599 342.599 152.834 342.378 152.089 341.934C149.265 340.26 143.559 336.362 139.882 332.445C139.086 332.197 138.423 331.38 137.741 329.82C137.715 329.77 137.69 329.719 137.665 329.668C137.57 329.478 137.475 329.288 137.456 329.041C134.518 322.803 128.491 309.948 123.639 305.232C118.654 300.402 110.143 284.409 109.044 273.836C108.096 264.651 107.262 248.753 112.38 245.445C113.896 244.475 115.791 244.627 118.028 245.92C118.805 246.053 123.373 247.232 126.292 257.197C129.325 267.637 144.981 324.42 145.133 324.971C145.158 325.047 145.171 325.085 145.171 325.085C146.042 328.242 149.947 331.037 154.079 333.985C155.956 335.316 157.889 336.685 159.69 338.207C159.86 338.34 159.898 338.568 159.803 338.758C159.064 340.127 157.491 341.915 155.539 342.447C155.147 342.549 154.761 342.599 154.382 342.599ZM114.559 245.692C113.928 245.692 113.359 245.857 112.854 246.186C109.404 248.411 108.342 258.471 109.916 273.76C110.996 284.143 119.355 299.87 124.245 304.605C128.642 308.864 133.817 319.209 138.29 328.755C138.315 328.819 138.328 328.882 138.328 328.946C138.328 329.022 138.385 329.155 138.442 329.269C138.48 329.345 138.511 329.415 138.537 329.478C139.124 330.771 139.674 331.494 140.224 331.608C140.299 331.627 140.394 331.684 140.451 331.741C144.033 335.639 149.739 339.519 152.544 341.192C153.435 341.725 154.363 341.858 155.311 341.611C156.865 341.173 158.135 339.804 158.856 338.644C157.15 337.237 155.33 335.944 153.567 334.689C149.303 331.646 145.284 328.774 144.318 325.294L144.299 325.218C144.147 324.648 128.491 267.884 125.439 257.444C122.52 247.403 117.895 246.776 117.839 246.776C117.775 246.763 117.719 246.744 117.668 246.719C116.505 246.034 115.469 245.692 114.559 245.692Z" fill="black"/>
<path d="M97.0836 324.591C97.0836 324.591 97.2163 330.809 96.7804 334.688C96.6287 335.943 97.0836 337.446 97.785 338.948C96.8183 340.089 94.847 340.488 92.9137 339.671C90.715 338.72 91.0183 334.232 90.9425 330.942C90.9235 329.858 90.8477 328.907 90.6392 328.261C90.0706 326.397 88.649 325.028 88.7438 322.955C88.7817 321.795 89.1608 320.711 89.5019 319.608C89.5525 319.418 89.603 319.228 89.6536 319.038C90.0516 317.65 90.2791 316.223 90.4497 314.797C91.2457 308.122 90.9235 301.353 90.1274 294.678C87.5307 272.296 93.9372 258.851 93.9372 258.851C98.581 245.749 108.589 245.673 115.791 252.271C123.013 258.851 103.547 306.24 101.31 313.257C100.363 316.223 97.0836 324.058 97.0836 324.591Z" fill="white"/>
<path fill-rule="evenodd" clip-rule="evenodd" d="M94.9797 340.546C94.2405 340.546 93.4823 340.374 92.7431 340.07C90.5634 339.138 90.5444 335.506 90.5065 332.292C90.5065 331.836 90.5065 331.38 90.5065 330.942C90.4876 330.106 90.4307 329.06 90.2222 328.375C90.0327 327.729 89.7105 327.12 89.3882 326.531C88.8196 325.466 88.232 324.363 88.3078 322.936C88.3457 321.833 88.668 320.788 88.9902 319.78L89.1039 319.38C89.1545 319.228 89.1987 319.076 89.2366 318.924C89.6536 317.422 89.8621 315.9 90.0137 314.74C90.715 308.902 90.6203 302.551 89.7105 294.735C87.1516 272.904 93.2359 259.327 93.5203 258.68C96.2118 251.092 100.382 248.601 103.395 247.841C107.471 246.814 112.114 248.297 116.095 251.929C121.61 256.969 113.081 282.66 104.002 307.115C102.922 309.986 102.088 312.268 101.727 313.39C101.254 314.892 100.173 317.631 99.2444 320.046C98.4673 322.005 97.5954 324.249 97.5196 324.61C97.5386 325.047 97.6333 330.999 97.1974 334.746C97.0837 335.772 97.4248 337.123 98.183 338.758C98.2588 338.91 98.2399 339.1 98.1261 339.233C97.3869 340.089 96.2497 340.546 94.9797 340.546ZM105.992 248.392C105.183 248.392 104.387 248.494 103.604 248.696C99.5667 249.704 96.3634 253.26 94.3353 258.984C94.3353 259.01 94.329 259.029 94.3163 259.041C94.2595 259.174 88.0046 272.657 90.5634 294.64C91.4922 302.513 91.5869 308.94 90.8856 314.854C90.734 316.033 90.5065 317.612 90.0706 319.152C90.0327 319.317 89.9885 319.475 89.9379 319.628L89.8242 320.027C89.502 321.035 89.2176 321.986 89.1797 322.974C89.1229 324.153 89.6346 325.104 90.1654 326.112C90.4876 326.74 90.8477 327.386 91.0562 328.128C91.2457 328.736 91.3405 329.573 91.3784 330.923C91.3784 331.361 91.3784 331.836 91.3974 332.292C91.4163 335.088 91.4353 338.549 93.0843 339.252C94.6386 339.918 96.3065 339.747 97.2732 338.853C96.515 337.18 96.2118 335.792 96.3444 334.651C96.7614 330.828 96.6477 324.667 96.6477 324.61C96.6477 324.597 96.6477 324.591 96.6477 324.591C96.6477 324.287 97.0268 323.279 98.4294 319.723C99.3582 317.327 100.42 314.607 100.893 313.124C101.254 311.964 102.069 309.815 103.168 306.811C108.608 292.168 121.326 257.9 115.507 252.595C112.512 249.856 109.158 248.392 105.992 248.392Z" fill="black"/>
<path d="M78.6222 163.864C78.6222 163.864 90.5824 184.364 87.2275 193.282C83.8726 202.201 73.8458 214.847 77.9778 227.246C82.0909 239.663 127.221 227.398 124.909 251.054C124.909 251.054 119.507 262.065 108.797 259.479C98.0882 256.873 100.799 278.381 91.966 285.835C83.1144 293.29 61.9994 297.017 61.7719 310.633C61.5634 324.229 48.6556 306.905 56.0856 284.961L58.0569 266.8C58.0569 266.8 16.2248 257.082 39.1026 227.246C39.1026 227.246 46.3242 209.694 46.7222 195.507C47.1203 181.321 48.1438 164.606 63.7432 162.343C76.215 160.555 78.6222 163.864 78.6222 163.864Z" fill="white"/>
<path fill-rule="evenodd" clip-rule="evenodd" d="M59.8007 315.881C59.3458 315.881 58.7392 315.691 58.0569 315.045C54.8157 312.021 50.6458 299.718 55.6686 284.866L57.583 267.142C54.683 266.401 37.1124 261.495 32.7719 249.324C30.4216 242.763 32.4307 235.252 38.7235 227.037C39.1595 225.953 45.9072 209.047 46.2863 195.489C46.4948 188.167 46.8928 180.485 49.1294 174.304C51.7641 167.002 56.5216 162.952 63.6863 161.925C76.2719 160.099 78.8686 163.446 78.9824 163.598C78.995 163.611 79.0013 163.624 79.0013 163.636C79.4941 164.473 91.0183 184.421 87.6255 193.435C86.7726 195.717 85.4837 198.246 84.119 200.927C80.0059 208.933 75.3621 218.023 78.3758 227.113C80.0059 231.981 88.7248 232.894 97.9745 233.845C111.451 235.233 126.728 236.811 125.344 251.093C125.332 251.143 125.319 251.194 125.307 251.245C125.25 251.359 119.62 262.54 108.703 259.897C103.035 258.528 101.367 264.499 99.415 271.421C97.8987 276.765 96.1928 282.85 92.2503 286.178C89.3124 288.631 85.1425 290.666 80.7451 292.796C71.7039 297.188 62.3595 301.733 62.2079 310.633C62.1699 313.504 61.5634 315.273 60.4451 315.748C60.2556 315.824 60.0471 315.881 59.8007 315.881ZM70.415 162.248C68.6144 162.248 66.4536 162.4 63.819 162.78C49.2242 164.891 47.6131 179.477 47.1582 195.527C46.7601 209.618 39.5765 227.246 39.5196 227.417C39.4943 227.455 39.4754 227.487 39.4628 227.512C33.3216 235.499 31.3503 242.744 33.6059 249.039C38.0791 261.59 57.9431 266.325 58.1516 266.382C58.3601 266.42 58.5118 266.629 58.4928 266.857L56.5216 284.999C56.5216 285.037 56.5153 285.069 56.5026 285.094C51.8209 298.919 55.3464 311.337 58.6445 314.398C59.0425 314.76 59.6111 315.159 60.085 314.95C60.3693 314.836 61.2791 314.17 61.336 310.614C61.4876 301.182 71.5144 296.314 80.366 292.016C84.7255 289.886 88.8386 287.889 91.6817 285.493C95.4157 282.356 97.0837 276.422 98.5621 271.174C100.552 264.138 102.429 257.482 108.911 259.041C118.824 261.457 123.961 251.929 124.473 250.921C125.724 237.591 111.565 236.127 97.8798 234.72C88.3647 233.731 79.3425 232.799 77.5608 227.398C74.4144 217.947 79.3614 208.287 83.3229 200.528C84.6876 197.866 85.9765 195.375 86.8105 193.131C89.9948 184.649 78.7739 165.005 78.2621 164.112C78.1105 163.94 76.4425 162.248 70.415 162.248Z" fill="black"/>
<path d="M79.0202 146.217C79.4941 145.856 79.5699 145.152 79.1719 144.715C76.6699 141.938 73.8647 136.366 73.8457 136.576C73.6562 138.877 70.1497 138.135 66.7379 139.903C64.6908 140.949 64.5961 142.566 64.8425 143.707C64.9372 144.068 64.5392 144.372 64.217 144.201C63.3072 143.707 62.1131 143.536 61.5634 145.494C60.9758 147.643 63.9327 150.191 65.7712 150.534C65.6575 151.047 64.4823 156.181 63.0229 162.115C62.7196 163.294 59.7438 164.339 59.7438 164.339C69.581 168.618 74.3954 166.85 75.7601 164.263L76.0823 163.655C76.4046 163.027 76.0823 162.248 75.4 162.038L73.8457 161.563C72.5 161.069 71.9693 159.776 71.9124 158.482L71.9882 153.957C72.7653 154.242 73.7131 154.546 74.4523 154.622C75.9497 154.755 77.2006 153.899 77.6366 152.454C78.2242 150.496 78.3379 148.594 77.9967 147.016L79.0202 146.217Z" fill="white"/>
<path fill-rule="evenodd" clip-rule="evenodd" d="M69.9033 167.363C67.3065 167.363 63.8758 166.622 59.5732 164.739C59.4026 164.663 59.2889 164.492 59.3078 164.321C59.3078 164.131 59.4216 163.979 59.5922 163.921C60.7484 163.522 62.4353 162.647 62.5869 162.001C63.8758 156.79 64.9373 152.245 65.2405 150.857C63.9516 150.439 62.4543 149.26 61.6771 148.005C61.1085 147.092 60.919 146.179 61.1464 145.361C61.4118 144.449 61.8288 143.84 62.4353 143.574C63.0039 143.327 63.6673 143.403 64.4065 143.802C64.1791 142.718 64.1412 140.74 66.5294 139.504C67.951 138.763 69.4105 138.459 70.5856 138.192C72.4431 137.793 73.334 137.546 73.4098 136.538C73.4288 136.348 73.5804 136.177 73.7699 136.139C74.1111 136.062 74.1111 136.081 74.8314 137.337C75.7601 138.991 77.7124 142.452 79.4941 144.411C79.7595 144.715 79.8922 145.114 79.8542 145.533C79.8163 145.932 79.6078 146.312 79.2856 146.559L78.4706 147.187C78.7739 148.803 78.6412 150.667 78.0536 152.588C77.5608 154.223 76.1013 155.212 74.4144 155.06C73.8837 155.003 73.2203 154.851 72.4242 154.565L72.3484 158.502C72.3863 159.262 72.6516 160.651 73.9974 161.145L75.5327 161.62C75.9876 161.754 76.3477 162.096 76.5183 162.514C76.7078 162.952 76.6889 163.446 76.4614 163.864L76.1392 164.454C75.2863 166.127 73.2582 167.363 69.9033 167.363ZM60.8811 164.34C69.5811 167.877 74.1111 166.451 75.3621 164.055L75.6843 163.446C75.7791 163.256 75.798 163.047 75.7222 162.857C75.6275 162.666 75.4758 162.514 75.2863 162.457L73.7131 161.982C72.3673 161.468 71.5523 160.213 71.4765 158.502L71.5523 153.938C71.5523 153.805 71.6281 153.672 71.7418 153.596C71.8745 153.5 72.0261 153.481 72.1588 153.539C73.1255 153.919 73.9216 154.128 74.4902 154.185C75.7791 154.299 76.8405 153.577 77.2196 152.34C77.7882 150.439 77.902 148.632 77.5608 147.111C77.5229 146.94 77.5987 146.769 77.7314 146.674L78.7549 145.875C78.8876 145.761 78.9634 145.609 78.9824 145.457C79.0013 145.285 78.9444 145.133 78.8307 145C77.0111 142.965 75.0209 139.466 74.0543 137.774C74.029 137.711 74.0037 137.653 73.9784 137.603C73.3909 138.478 72.1588 138.744 70.7752 139.048C69.581 139.314 68.2543 139.6 66.9275 140.284C65.5059 141.026 64.9562 142.148 65.2784 143.612C65.3543 143.954 65.2216 144.278 64.9562 144.506C64.6719 144.715 64.3118 144.734 64.0085 144.582C63.5031 144.316 63.0924 144.252 62.7765 144.392C62.4353 144.544 62.1699 144.943 61.9994 145.609C61.7909 146.331 62.1131 147.054 62.4163 147.548C63.2503 148.88 64.8425 149.906 65.8471 150.097C65.9608 150.116 66.0745 150.192 66.1314 150.287C66.1882 150.382 66.2261 150.496 66.1882 150.61C66.0935 151.123 64.9183 156.22 63.4399 162.21C63.2124 163.142 61.8856 163.902 60.8811 164.34Z" fill="black"/>
<path d="M71.9883 154.394C71.9251 154.394 71.8682 154.381 71.8177 154.356L70.6615 153.824C70.453 153.71 70.3582 153.462 70.453 153.234C70.5477 153.006 70.8131 152.911 71.0405 153.025L72.1778 153.557C72.4052 153.652 72.5 153.919 72.3863 154.128C72.3105 154.299 72.1588 154.394 71.9883 154.394Z" fill="black"/>
<path d="M121.345 184.611C118.426 186.741 108.437 187.977 108.437 187.977C108.437 187.977 111.432 184.25 112.001 181.835C112.588 179.42 109.897 182.634 106.239 184.174C102.599 185.714 101.121 190.069 101.121 190.069C94.8471 192.617 83.3229 197.067 81.1052 198.341C78.1105 200.053 70.9647 202.411 70.9647 202.411C70.434 197.048 65.7902 176.586 64.6151 173.696C63.4399 170.786 58.2654 168.58 53.9628 170.9C48.0301 174.114 53.6595 188.833 58.0758 204.274C60.7673 213.706 64.0275 217.719 66.1503 219.411C67.4013 220.419 69.1262 220.571 70.5477 219.849C72.9928 218.613 76.3288 216.217 78.5085 214.6C79.8353 213.592 99.9647 198.797 102.751 196.763L105.158 195.736C105.158 195.736 111.641 195.945 117.763 193.283C123.885 190.62 124.245 182.481 121.345 184.611Z" fill="white"/>
<path fill-rule="evenodd" clip-rule="evenodd" d="M68.6902 220.742C67.6856 220.742 66.681 220.4 65.8849 219.773C63.6104 217.947 60.3503 213.82 57.6398 204.388C56.9954 202.087 56.2941 199.786 55.6307 197.58C51.7451 184.611 48.3902 173.43 53.7732 170.52C55.934 169.341 58.5496 169.17 60.9379 170.045C62.8902 170.748 64.4255 172.041 65.032 173.525C66.1693 176.339 70.5666 195.793 71.3248 201.821C73.0117 201.251 78.4327 199.368 80.8967 197.961C82.5836 196.991 89.5209 194.234 95.6431 191.799C97.5006 191.058 99.2823 190.354 100.78 189.746C101.14 188.795 102.751 185.163 106.087 183.775C107.527 183.166 108.797 182.291 109.821 181.588C111.091 180.732 111.735 180.295 112.228 180.637C112.626 180.903 112.55 181.455 112.437 181.93C112.001 183.717 110.352 186.133 109.423 187.388C112.039 187.007 118.843 185.885 121.08 184.25C121.857 183.698 122.407 183.775 122.748 183.965C123.297 184.25 123.582 185.011 123.544 186.056C123.449 188.186 121.895 191.971 117.933 193.682C112.133 196.211 106.106 196.192 105.234 196.173L102.959 197.143C99.0549 200.015 80.0438 213.973 78.7549 214.942C76.4425 216.692 73.1634 219.012 70.7562 220.248C70.0928 220.571 69.3915 220.742 68.6902 220.742ZM57.8483 170.368C56.5595 170.368 55.3085 170.672 54.1712 171.281C49.4327 173.848 52.6928 184.725 56.4647 197.314C57.147 199.539 57.8294 201.84 58.4928 204.16C61.1274 213.364 64.2549 217.357 66.4157 219.069C67.534 219.963 69.0693 220.115 70.3581 219.468C72.7085 218.27 75.9496 215.969 78.2431 214.239C79.532 213.269 98.6568 199.216 102.486 196.42C102.511 196.395 102.542 196.376 102.58 196.363L104.988 195.317C105.044 195.298 105.101 195.279 105.177 195.298C105.234 195.298 111.641 195.47 117.592 192.883C121.174 191.324 122.577 187.92 122.672 186.018C122.691 185.277 122.52 184.839 122.331 184.725C122.179 184.649 121.914 184.744 121.591 184.973C118.616 187.121 108.892 188.357 108.494 188.415C108.305 188.434 108.134 188.338 108.058 188.186C107.963 188.034 107.982 187.844 108.096 187.692C108.115 187.673 111.034 184.022 111.584 181.721C111.609 181.619 111.628 181.537 111.64 181.474C111.318 181.645 110.769 182.006 110.314 182.31C109.309 182.995 107.944 183.927 106.409 184.573C102.997 186.018 101.557 190.183 101.538 190.221C101.5 190.335 101.405 190.43 101.291 190.487C99.7562 191.096 97.8987 191.837 95.9653 192.617C90.1653 194.918 82.9817 197.771 81.3327 198.721C78.3379 200.433 71.3817 202.734 71.0974 202.829C70.9647 202.867 70.832 202.848 70.7183 202.791C70.6045 202.715 70.5287 202.601 70.5287 202.468C69.998 197.181 65.3921 176.738 64.217 173.848C63.7242 172.631 62.3405 171.471 60.6536 170.862C59.7248 170.539 58.7771 170.368 57.8483 170.368Z" fill="black"/>
<path d="M138.935 171.014L136.622 170.273C134.613 169.626 133.21 167.781 133.154 165.671L132.756 152.587H132.642C135.22 152.454 137.248 150.248 137.172 147.643L136.357 120.431C136.338 120.031 136.016 119.727 135.618 119.727L127.069 119.993C126.671 120.012 126.349 120.336 126.368 120.735L126.387 121.477L126.576 127.41L127.183 147.947C127.259 150.553 129.401 152.625 131.997 152.606H131.884L132.263 165.69C132.339 167.82 131.05 169.74 129.078 170.501L126.804 171.376C126.671 171.433 126.595 171.547 126.595 171.699C126.595 171.87 126.747 172.022 126.937 172.022L138.84 171.661C139.029 171.661 139.181 171.509 139.181 171.319C139.162 171.166 139.067 171.052 138.935 171.014Z" fill="white"/>
<path fill-rule="evenodd" clip-rule="evenodd" d="M126.937 172.46C126.52 172.46 126.178 172.118 126.159 171.699C126.141 171.376 126.349 171.072 126.652 170.958L128.927 170.083C130.727 169.398 131.884 167.63 131.827 165.709L131.448 153.025C128.851 152.759 126.823 150.629 126.747 147.948L125.932 120.754C125.913 120.45 126.027 120.146 126.254 119.918C126.463 119.689 126.747 119.556 127.05 119.556L135.599 119.29C136.243 119.271 136.774 119.784 136.793 120.431L137.608 147.624C137.684 150.306 135.788 152.55 133.21 152.968L133.59 165.652C133.646 167.592 134.916 169.265 136.755 169.855L139.067 170.596C139.39 170.691 139.598 170.977 139.617 171.3C139.617 171.737 139.295 172.08 138.859 172.099L126.956 172.46C126.943 172.46 126.937 172.46 126.937 172.46ZM132.32 152.911L132.699 165.69C132.775 167.991 131.372 170.083 129.23 170.901L127.543 171.566L138.214 171.243L136.49 170.691C134.31 169.988 132.793 167.991 132.718 165.69L132.339 152.911C132.339 152.911 132.332 152.911 132.32 152.911ZM131.997 152.169C132.13 152.169 132.225 152.226 132.301 152.303C132.376 152.207 132.49 152.15 132.604 152.15C134.992 152.017 136.812 150.04 136.736 147.644L135.921 120.45C135.921 120.298 135.769 120.165 135.618 120.165L127.088 120.431C127.012 120.431 126.937 120.469 126.88 120.526C126.823 120.583 126.804 120.64 126.804 120.716L127.619 147.929C127.695 150.306 129.609 152.169 131.978 152.169C131.991 152.169 131.997 152.169 131.997 152.169Z" fill="black"/>
<path d="M135.959 135.226C134.12 134.313 132.471 133.952 131.05 133.856C129.856 133.78 128.718 133.895 127.619 134.123L128.017 147.719C128.093 150.02 130.007 151.827 132.301 151.77C134.575 151.694 136.395 149.773 136.319 147.472L135.959 135.226Z" fill="white"/>
<path fill-rule="evenodd" clip-rule="evenodd" d="M132.168 152.207C129.704 152.207 127.657 150.23 127.581 147.738L127.183 134.142C127.164 133.914 127.316 133.742 127.524 133.685C128.813 133.438 129.969 133.343 131.088 133.419C132.774 133.533 134.48 134.009 136.148 134.845C136.3 134.902 136.395 135.055 136.395 135.226L136.755 147.453C136.793 148.689 136.357 149.849 135.504 150.762C134.67 151.656 133.533 152.169 132.301 152.207C132.263 152.207 132.219 152.207 132.168 152.207ZM128.055 134.484L128.453 147.7C128.51 149.754 130.216 151.39 132.282 151.314C133.267 151.295 134.196 150.876 134.878 150.154C135.561 149.431 135.921 148.48 135.883 147.491L135.523 135.511C134.044 134.807 132.528 134.389 131.031 134.294C130.102 134.237 129.116 134.294 128.055 134.484Z" fill="#FF6701"/>
<path d="M128.055 134.484L128.453 147.7C128.51 149.754 130.216 151.39 132.282 151.314C133.267 151.295 134.196 150.876 134.878 150.154C135.561 149.431 135.921 148.48 135.883 147.491L135.523 135.511C134.044 134.807 132.528 134.389 131.031 134.294C130.102 134.237 129.116 134.294 128.055 134.484Z" fill="#FF6701"/>
<path d="M129.818 157.075L134.935 157.437L134.708 157.931C134.31 158.749 133.608 159.376 132.756 159.68C131.959 159.947 130.974 160.479 130.31 161.449C129.078 163.313 126.349 162.894 126.349 162.894L129.818 157.075Z" fill="white"/>
<path d="M127.24 163.484C126.823 163.484 126.539 163.446 126.501 163.446C126.273 163.408 126.103 163.179 126.141 162.951C126.178 162.704 126.406 162.533 126.633 162.571C126.652 162.571 129.116 162.932 130.178 161.316C130.917 160.213 132.035 159.642 132.831 159.376C133.552 159.129 134.139 158.616 134.48 157.931L130.007 157.627C129.761 157.608 129.571 157.398 129.59 157.151C129.609 156.904 129.818 156.733 130.064 156.752L135.201 157.113C135.333 157.113 135.466 157.208 135.542 157.322C135.618 157.456 135.618 157.608 135.561 157.741L135.314 158.235C134.878 159.167 134.082 159.871 133.116 160.194C132.433 160.441 131.505 160.898 130.898 161.81C129.95 163.256 128.226 163.484 127.24 163.484Z" fill="black"/>
<path d="M171.858 169.873L171.82 169.835C168.143 163.807 168.939 150.362 168.939 150.362L166.172 149.183V149.031L166.001 149.107L165.831 149.031V149.183L163.063 150.362C163.063 150.362 163.878 163.807 160.201 169.835L160.163 169.873C157.567 173.676 156.164 178.221 156.164 182.861V211.025C156.164 213.078 157.794 214.752 159.784 214.752H165.831H166.172H172.218C174.227 214.752 175.858 213.078 175.858 211.025V182.861C175.858 178.221 174.455 173.676 171.858 169.873Z" fill="white"/>
<path fill-rule="evenodd" clip-rule="evenodd" d="M172.218 215.19H159.784C157.548 215.19 155.728 213.326 155.728 211.025V182.862C155.728 178.108 157.131 173.525 159.803 169.626L159.841 169.588C163.386 163.769 162.646 150.534 162.627 150.401C162.627 150.211 162.722 150.04 162.893 149.963L165.433 148.88C165.452 148.803 165.508 148.727 165.603 148.67C165.717 148.594 165.869 148.575 166.001 148.632C166.134 148.575 166.305 148.594 166.418 148.67C166.494 148.727 166.551 148.803 166.589 148.88L169.11 149.963C169.28 150.04 169.394 150.211 169.375 150.401C169.375 150.534 168.617 163.769 172.199 169.607L172.218 169.626C174.891 173.525 176.293 178.108 176.293 182.862V211.025C176.293 213.326 174.474 215.19 172.218 215.19ZM163.518 150.648C163.632 152.759 164.011 164.435 160.561 170.064L160.524 170.121C157.965 173.886 156.6 178.279 156.6 182.862V211.025C156.6 212.832 158.041 214.296 159.784 214.296H172.218C173.981 214.296 175.422 212.832 175.422 211.025V182.862C175.422 178.279 174.057 173.886 171.498 170.14L171.46 170.083C168.01 164.435 168.39 152.759 168.484 150.648L166.001 149.583L163.518 150.648Z" fill="black"/>
<path d="M170.039 142.338C170.039 141.634 169.356 141.235 168.674 141.235H162.665C161.964 141.235 161.282 141.634 161.282 142.338V150.8C161.282 151.504 161.964 151.77 162.665 151.77H168.674C169.356 151.77 170.039 151.504 170.039 150.8V142.338Z" fill="black"/>
<path d="M175.725 199.159H156.031V186H175.725V199.159Z" fill="black"/>
<path d="M85.8438 24.1508C85.7111 24.1508 85.5595 24.0938 85.4837 23.9607C85.351 23.7515 85.4079 23.4852 85.5974 23.3521C85.9386 23.1239 120.227 0.228197 153.093 0C153.34 0 153.529 0.190164 153.548 0.437377C153.548 0.68459 153.34 0.874754 153.112 0.874754C120.492 1.10295 86.4314 23.8466 86.0902 24.0748C86.0144 24.1255 85.9323 24.1508 85.8438 24.1508Z" fill="black"/>
<path d="M68.6144 28.3726C68.4817 28.3726 68.368 28.3156 68.2732 28.2205C68.1216 28.0303 68.1595 27.7451 68.349 27.593C94.1836 6.54182 117.952 1.73067 118.199 1.69264C118.426 1.63559 118.654 1.78772 118.71 2.03494C118.748 2.28215 118.597 2.51034 118.369 2.54838C118.123 2.58641 94.5627 7.37854 68.8987 28.2776C68.8039 28.3536 68.7091 28.3726 68.6144 28.3726Z" fill="black"/>
<path fill-rule="evenodd" clip-rule="evenodd" d="M58.9666 37.2721C58.3222 37.2721 57.6967 37.0439 57.1849 36.6446C56.5784 36.1692 56.1804 35.4846 56.0856 34.7049C55.9908 33.9442 56.1993 33.1646 56.6732 32.556C57.147 31.9475 57.8294 31.5482 58.6065 31.4531C59.3836 31.358 60.1418 31.5672 60.7483 32.0426C61.3738 32.518 61.7529 33.2216 61.8477 33.9823C62.0562 35.5797 60.9189 37.0439 59.3268 37.2341C59.2004 37.2594 59.0804 37.2721 58.9666 37.2721ZM58.9666 32.3088C58.8908 32.3088 58.8087 32.3152 58.7202 32.3279C58.1706 32.3849 57.6967 32.6701 57.3555 33.0885C57.0333 33.5259 56.8817 34.0583 56.9575 34.6098C57.0144 35.1423 57.2987 35.6177 57.7157 35.96C58.1516 36.2833 58.6823 36.4354 59.213 36.3783C60.3313 36.2262 61.1274 35.2183 60.9758 34.0964C60.9189 33.5639 60.6346 33.0695 60.2176 32.7462C59.8575 32.461 59.4215 32.3088 58.9666 32.3088Z" fill="black"/>
<path fill-rule="evenodd" clip-rule="evenodd" d="M330.373 160.099C328.932 160.099 327.681 159.015 327.492 157.551C327.302 155.953 328.42 154.489 330.012 154.28C331.605 154.09 333.064 155.231 333.254 156.828C333.462 158.407 332.325 159.871 330.733 160.08C330.619 160.093 330.499 160.099 330.373 160.099ZM330.373 155.136C330.297 155.136 330.215 155.142 330.126 155.155C329.008 155.307 328.231 156.315 328.363 157.437C328.496 158.54 329.52 159.338 330.638 159.205C331.737 159.072 332.533 158.045 332.401 156.923C332.268 155.896 331.396 155.136 330.373 155.136Z" fill="black"/>
<path d="M313.996 128.665C313.984 128.665 313.977 128.665 313.977 128.665C313.75 128.646 313.541 128.456 313.541 128.209L313.56 126.06C313.56 125.812 313.75 125.603 314.015 125.622C314.243 125.622 314.451 125.812 314.432 126.06V128.228C314.432 128.456 314.224 128.665 313.996 128.665Z" fill="black"/>
<path d="M313.939 136.214C313.939 136.214 313.933 136.214 313.92 136.214C313.693 136.214 313.503 136.005 313.503 135.758V133.609C313.522 133.362 313.712 133.172 313.958 133.172C314.186 133.172 314.394 133.381 314.394 133.609L314.375 135.777C314.375 136.005 314.167 136.214 313.939 136.214Z" fill="black"/>
<path d="M311.286 131.346H309.125C308.879 131.346 308.689 131.156 308.689 130.909C308.689 130.662 308.897 130.472 309.125 130.472H311.286C311.513 130.472 311.722 130.662 311.722 130.909C311.722 131.156 311.513 131.346 311.286 131.346Z" fill="black"/>
<path d="M318.81 131.365H316.65C316.422 131.365 316.214 131.156 316.214 130.909C316.214 130.681 316.422 130.472 316.65 130.472L318.81 130.491C319.057 130.491 319.246 130.681 319.246 130.928C319.246 131.156 319.057 131.365 318.81 131.365Z" fill="black"/>
<path d="M188.841 13.3305C188.727 13.3305 188.614 13.2925 188.519 13.1974C188.348 13.0262 188.367 12.741 188.538 12.5889L190.263 10.8774C190.433 10.7062 190.699 10.7062 190.869 10.8774C191.04 11.0485 191.04 11.3338 190.869 11.5049L189.144 13.1974C189.069 13.2925 188.955 13.3305 188.841 13.3305Z" fill="black"/>
<path d="M182.814 19.3017C182.7 19.3017 182.586 19.2447 182.492 19.1686C182.321 18.9975 182.321 18.7122 182.51 18.5411L184.216 16.8296C184.387 16.6775 184.671 16.6775 184.842 16.8486C185.012 17.0198 185.012 17.286 184.842 17.4571L183.117 19.1686C183.022 19.2447 182.927 19.3017 182.814 19.3017Z" fill="black"/>
<path d="M184.558 13.3114C184.444 13.3114 184.33 13.2734 184.235 13.1783L182.529 11.4668C182.359 11.2957 182.359 11.0104 182.529 10.8393C182.7 10.6682 182.984 10.6682 183.155 10.8393L184.861 12.5698C185.031 12.7409 185.031 13.0072 184.861 13.1783C184.766 13.2734 184.671 13.3114 184.558 13.3114Z" fill="black"/>
<path d="M190.528 19.3207C190.414 19.3207 190.301 19.2827 190.225 19.2066L188.519 17.4761C188.348 17.305 188.348 17.0388 188.519 16.8676C188.69 16.6965 188.955 16.6965 189.125 16.8676L190.831 18.5791C191.002 18.7502 191.002 19.0355 190.831 19.2066C190.756 19.2827 190.642 19.3207 190.528 19.3207Z" fill="black"/>
<path d="M11.9223 131.917C11.8085 131.917 11.6948 131.879 11.6 131.784C11.4294 131.613 11.4294 131.346 11.619 131.175L13.3249 129.464C13.5144 129.293 13.7798 129.293 13.9504 129.464C14.1209 129.635 14.1209 129.92 13.9504 130.091L12.2255 131.803C12.1307 131.879 12.036 131.917 11.9223 131.917Z" fill="black"/>
<path d="M5.89474 137.888C5.78102 137.888 5.66729 137.831 5.57252 137.755C5.40193 137.583 5.40193 137.298 5.57252 137.127L7.29736 135.435C7.46795 135.263 7.75226 135.263 7.92285 135.435C8.09344 135.606 8.09344 135.891 7.92285 136.062L6.19801 137.755C6.10324 137.85 5.98951 137.888 5.89474 137.888Z" fill="black"/>
<path d="M7.63859 131.898C7.52486 131.898 7.41114 131.86 7.31637 131.765L5.61049 130.053C5.4399 129.882 5.4399 129.597 5.61049 129.426C5.78107 129.255 6.06539 129.255 6.23598 129.426L7.94186 131.156C8.11245 131.327 8.11245 131.594 7.94186 131.765C7.84709 131.86 7.73336 131.898 7.63859 131.898Z" fill="black"/>
<path d="M13.6092 137.926C13.4954 137.926 13.3817 137.869 13.3059 137.793L11.5811 136.062C11.4105 135.891 11.4105 135.625 11.5811 135.454C11.7517 135.282 12.036 135.282 12.2066 135.454L13.9124 137.165C14.083 137.336 14.083 137.621 13.9124 137.793C13.8366 137.869 13.7229 137.926 13.6092 137.926Z" fill="black"/>
<path d="M171.801 192.788C171.801 198.817 169.205 203.704 166.001 203.704C162.817 203.704 160.22 198.817 160.22 192.788C160.22 186.76 162.817 181.854 166.001 181.854C169.205 181.854 171.801 186.76 171.801 192.788Z" fill="black"/>
</g>
<defs>
<clipPath id="clip0_958_2309">
<rect width="348" height="348" fill="white"/>
</clipPath>
</defs>
</svg>
