<svg width="24" height="24" viewBox="0 0 24 24" fill="none" xmlns="http://www.w3.org/2000/svg">
<g id="online-dating" clip-path="url(#clip0_1445_1409)">
<g id="Group">
<path id="Vector" d="M8.81835 0.062149C4.11731 0.813187 0.627711 4.39671 0.0487914 9.06387C-0.0530555 9.90074 0.0112689 11.4887 0.182801 12.3041C0.627711 14.4231 1.6033 16.1934 3.14708 17.6901C4.28348 18.7898 5.511 19.5408 7.02263 20.0451C10.2496 21.1234 13.7016 20.5548 16.473 18.5001L16.95 18.1514L19.8232 21.0268C22.3211 23.516 22.7339 23.9076 22.9322 23.9666C23.554 24.149 24.149 23.5535 23.9667 22.9259C23.9078 22.7328 23.5165 22.3197 21.0293 19.8252C18.9602 17.7491 18.1722 16.9229 18.2044 16.8747C18.2258 16.8317 18.3598 16.6547 18.4992 16.4777C19.4533 15.2546 20.1341 13.6667 20.4557 11.891C20.5897 11.1668 20.5897 9.38575 20.4557 8.64544C20.1019 6.6981 19.3783 5.09947 18.199 3.68859C16.6713 1.85928 14.6772 0.662979 12.3294 0.169439C11.7505 0.0460548 11.4985 0.0245991 10.4801 0.0031395C9.62777 -0.00758934 9.16677 0.00850296 8.81835 0.062149ZM11.922 1.85928C15.4009 2.56203 18.0221 5.19603 18.7189 8.69908C18.8744 9.47158 18.8851 11.0166 18.7457 11.7569C17.7005 17.2126 12.1257 20.2812 7.02799 18.2051C4.34244 17.1161 2.41271 14.7181 1.83915 11.7569C1.69442 11.0112 1.70514 9.47158 1.86596 8.69908C2.40735 6.00071 4.0369 3.84416 6.46515 2.61031C7.29601 2.18651 8.42704 1.85391 9.4884 1.73053C9.94403 1.67688 11.4074 1.75198 11.922 1.85928Z" fill="#707070"/>
<path id="Vector_2" d="M6.59154 5.10766C5.92115 5.29684 5.51891 5.54335 5.01477 6.08224C4.49454 6.63832 4.27465 7.04535 4.0923 7.81355C4.00112 8.20338 3.98503 8.39256 4.01185 8.86265C4.11375 10.6742 5.03622 12.4227 6.66663 13.8846C7.73927 14.842 9.55739 16 9.99181 16C10.5978 16 12.8236 14.4751 13.9177 13.3056C15.06 12.096 15.7036 10.8691 15.9289 9.49326C16.1541 8.08872 15.8484 6.98802 14.9688 6.05358C14.4808 5.53762 14.0625 5.28538 13.3921 5.10193C12.3462 4.81529 11.0859 5.14779 10.3029 5.91599L10.0025 6.20836L9.70219 5.91599C8.91917 5.14779 7.63737 4.81529 6.59154 5.10766ZM8.16832 6.93643C8.73146 7.246 9.0747 7.79062 9.12833 8.44416C9.18196 9.10343 9.50376 9.48753 9.99717 9.48753C10.5013 9.48753 10.7856 9.15503 10.866 8.47282C10.9518 7.75622 11.2682 7.25747 11.8367 6.9307C12.0298 6.82177 12.1478 6.79884 12.5769 6.79884C13.0059 6.79884 13.1239 6.82177 13.317 6.9307C13.671 7.13134 13.9552 7.43518 14.1161 7.79062C14.2502 8.07726 14.2663 8.18045 14.2663 8.662C14.2609 10.0837 13.4457 11.4883 11.8689 12.7896C11.3862 13.1909 10.6622 13.6954 10.2278 13.9305L10.0025 14.0508L9.77728 13.9305C8.99425 13.5062 7.91089 12.6635 7.2834 12.0042C6.0874 10.743 5.48673 9.14356 5.79243 8.04286C5.93724 7.52691 6.43601 6.98802 6.91334 6.8275C7.20295 6.73005 7.91089 6.79311 8.16832 6.93643Z" fill="#707070"/>
</g>
</g>
<defs>
<clipPath id="clip0_1445_1409">
<rect width="24" height="24" fill="white"/>
</clipPath>
</defs>
</svg>
