<svg width="25" height="24" viewBox="0 0 25 24" fill="none" xmlns="http://www.w3.org/2000/svg">
<g id="edit 1" clip-path="url(#clip0_29_2771)">
<g id="Layer 2">
<g id="edit">
<path id="Vector" d="M19.9001 7.34001L17.1601 4.60001C16.8024 4.26411 16.3338 4.07137 15.8434 4.05846C15.3529 4.04556 14.8748 4.21338 14.5001 4.53001L5.50005 13.53C5.17682 13.856 4.97556 14.2832 4.93005 14.74L4.50005 18.91C4.48658 19.0565 4.50559 19.2041 4.55571 19.3424C4.60584 19.4807 4.68585 19.6062 4.79005 19.71C4.88349 19.8027 4.99431 19.876 5.11615 19.9258C5.23798 19.9755 5.36845 20.0008 5.50005 20H5.59005L9.76005 19.62C10.2168 19.5745 10.6441 19.3732 10.9701 19.05L19.9701 10.05C20.3194 9.68098 20.5082 9.18852 20.495 8.68055C20.4819 8.17257 20.268 7.69052 19.9001 7.34001ZM16.5001 10.68L13.8201 8.00001L15.7701 6.00001L18.5001 8.73001L16.5001 10.68Z" fill="#FF6701"/>
</g>
</g>
</g>
<defs>
<clipPath id="clip0_29_2771">
<rect width="24" height="24" fill="white" transform="translate(0.5)"/>
</clipPath>
</defs>
</svg>
