<svg width="13" height="13" viewBox="0 0 13 13" fill="none" xmlns="http://www.w3.org/2000/svg">
<path d="M8.63723 1.81913C8.80364 1.6494 9.00204 1.51434 9.22096 1.42174C9.43988 1.32915 9.67499 1.28087 9.91268 1.27969C10.1504 1.2785 10.386 1.32445 10.6058 1.41486C10.8256 1.50527 11.0253 1.63836 11.1934 1.80642C11.3615 1.97449 11.4946 2.17421 11.5851 2.39403C11.6755 2.61386 11.7215 2.84942 11.7203 3.08712C11.7191 3.32482 11.6709 3.55992 11.5783 3.77886C11.4857 3.99779 11.3507 4.1962 11.181 4.36262L10.607 4.93762L8.06275 2.39335L8.63697 1.81887L8.63723 1.81913ZM7.6026 2.85429L2.34348 8.11393C2.14509 8.31229 2.00369 8.56037 1.93411 8.83216L1.30208 11.3022C1.28813 11.3569 1.28866 11.4143 1.30361 11.4688C1.31855 11.5232 1.34741 11.5729 1.38734 11.6128C1.42726 11.6527 1.47689 11.6816 1.53134 11.6965C1.58579 11.7115 1.64319 11.712 1.69791 11.698L4.16848 11.0668C4.44046 10.9973 4.68873 10.8559 4.88723 10.6574L10.1463 5.39752L7.6026 2.85429Z" fill="white"/>
</svg>
