<svg width="26" height="12" viewBox="0 0 26 12" fill="none" xmlns="http://www.w3.org/2000/svg">
<path d="M20.9705 11.59L23.8678 12C24.9915 12 25.9016 11.02 25.9016 9.81006L26 7.73412C26 6.24017 25.4168 4.90221 24.5068 3.92224C19.832 -1.11162 6.52647 -1.49961 1.49325 3.92224C0.58319 4.90221 -0.00185287 6.24017 4.40912e-06 7.73412L0.0984401 9.81006C0.0984401 11.02 1.00851 12 2.13216 12L5.02951 11.59C6.15316 11.59 7.06322 10.61 7.06322 9.40007L7.3381 6.24417C11.296 4.42422 15.0644 4.50822 18.6656 6.24417L18.9405 9.40007C18.9405 10.61 19.8506 11.59 20.9742 11.59H20.9705Z" fill="#F5F5F5"/>
</svg>
