<svg width="32" height="32" viewBox="0 0 32 32" fill="none" xmlns="http://www.w3.org/2000/svg">
<path d="M9.40932 3.22399L10.9653 2.75599C11.8177 2.49896 12.7345 2.56083 13.5446 2.93007C14.3547 3.29931 15.0028 3.95069 15.368 4.76266L16.5707 7.43733C16.8846 8.13573 16.972 8.91489 16.8207 9.66551C16.6693 10.4161 16.2867 11.1005 15.7267 11.6227L13.7333 13.48C13.6751 13.5343 13.6382 13.6076 13.6293 13.6867C13.5707 14.216 13.9293 15.2467 14.7573 16.68C15.3573 17.7213 15.9027 18.4533 16.3653 18.8627C16.6893 19.1493 16.8667 19.2107 16.9427 19.1893L19.6227 18.3693C20.3545 18.1455 21.1381 18.1562 21.8636 18.4001C22.589 18.644 23.22 19.1088 23.668 19.7293L25.3747 22.0973C25.8942 22.8173 26.1349 23.7013 26.052 24.5853C25.9691 25.4693 25.5683 26.2932 24.924 26.904L23.7413 28.024C23.1143 28.6177 22.3443 29.039 21.5061 29.2467C20.668 29.4544 19.7903 29.4416 18.9587 29.2093C15.2867 28.184 11.9947 25.0853 9.04532 19.9773C6.09332 14.8627 5.05598 10.4573 6.01332 6.75999C6.22822 5.92844 6.6537 5.16626 7.24875 4.54692C7.8438 3.92758 8.58702 3.47197 9.40932 3.22399ZM9.98665 5.13999C9.49317 5.2884 9.04623 5.56142 8.68892 5.93274C8.33161 6.30407 8.07598 6.76117 7.94665 7.25999C7.14398 10.3693 8.06265 14.2747 10.7773 18.9773C13.4893 23.6733 16.408 26.42 19.4973 27.284C19.9964 27.4232 20.5229 27.4307 21.0258 27.306C21.5286 27.1812 21.9906 26.9283 22.3667 26.572L23.548 25.452C23.8411 25.1744 24.0234 24.7998 24.0612 24.3979C24.099 23.996 23.9896 23.594 23.7533 23.2667L22.0467 20.9C21.843 20.6176 21.556 20.4061 21.226 20.2951C20.896 20.1842 20.5395 20.1793 20.2067 20.2813L17.52 21.104C15.96 21.568 14.5453 20.3133 13.0253 17.68C12 15.9067 11.5227 14.5333 11.6427 13.4653C11.704 12.9107 11.9627 12.3987 12.3693 12.0173L14.3627 10.16C14.6171 9.92252 14.7909 9.61133 14.8595 9.2701C14.9281 8.92887 14.8882 8.57471 14.7453 8.25732L13.544 5.58266C13.378 5.21358 13.0834 4.9175 12.7151 4.74969C12.3468 4.58187 11.9301 4.55378 11.5427 4.67066L9.98665 5.13999Z" fill="#303030"/>
</svg>
