<svg width="32" height="32" viewBox="0 0 32 32" fill="none" xmlns="http://www.w3.org/2000/svg">
<path d="M6.5 5.5C5.30653 5.5 4.16193 5.97411 3.31802 6.81802C2.47411 7.66193 2 8.80653 2 10V22C2 23.1935 2.47411 24.3381 3.31802 25.182C4.16193 26.0259 5.30653 26.5 6.5 26.5H18.5C19.6935 26.5 20.8381 26.0259 21.682 25.182C22.5259 24.3381 23 23.1935 23 22V20.5L27.2 23.65C28.353 24.515 30 23.692 30 22.25V9.75C30 8.308 28.353 7.485 27.2 8.35L23 11.5V10C23 8.80653 22.5259 7.66193 21.682 6.81802C20.8381 5.97411 19.6935 5.5 18.5 5.5H6.5ZM23 14L28 10.25V21.75L23 18V14ZM21 10V22C21 22.663 20.7366 23.2989 20.2678 23.7678C19.7989 24.2366 19.163 24.5 18.5 24.5H6.5C5.83696 24.5 5.20107 24.2366 4.73223 23.7678C4.26339 23.2989 4 22.663 4 22V10C4 9.33696 4.26339 8.70107 4.73223 8.23223C5.20107 7.76339 5.83696 7.5 6.5 7.5H18.5C19.163 7.5 19.7989 7.76339 20.2678 8.23223C20.7366 8.70107 21 9.33696 21 10Z" fill="#303030"/>
</svg>
