<svg width="20" height="20" viewBox="0 0 20 20" fill="none" xmlns="http://www.w3.org/2000/svg">
<g id="key">
<path id="Vector" d="M17.5 1.66699L15.8333 3.33366M15.8333 3.33366L18.3333 5.83366L15.4167 8.75032L12.9167 6.25033M15.8333 3.33366L12.9167 6.25033M9.49167 9.67532C9.92195 10.0999 10.264 10.6054 10.4981 11.1627C10.7323 11.7199 10.8538 12.318 10.8559 12.9225C10.8579 13.527 10.7403 14.1259 10.5099 14.6847C10.2795 15.2436 9.94088 15.7513 9.51346 16.1788C9.08603 16.6062 8.57827 16.9449 8.01942 17.1753C7.46057 17.4056 6.86167 17.5232 6.25719 17.5212C5.65272 17.5192 5.05462 17.3976 4.49733 17.1635C3.94003 16.9293 3.43456 16.5873 3.01 16.157C2.17511 15.2926 1.71313 14.1348 1.72358 12.9331C1.73402 11.7313 2.21604 10.5818 3.06583 9.73199C3.91562 8.8822 5.06518 8.40018 6.26691 8.38974C7.46865 8.37929 8.62641 8.84127 9.49083 9.67616L9.49167 9.67532ZM9.49167 9.67532L12.9167 6.25033" stroke="#FF6701" stroke-width="1.5" stroke-linecap="round" stroke-linejoin="round"/>
</g>
</svg>
