<svg width="12" height="12" viewBox="0 0 12 12" fill="none" xmlns="http://www.w3.org/2000/svg">
<g clip-path="url(#clip0_428_960)">
<path d="M7.03309 11.9931C6.89283 11.925 6.81625 11.8056 6.75022 11.6688C6.07162 10.2625 5.3899 8.85771 4.70504 7.45434C4.66826 7.38415 4.61065 7.32705 4.54013 7.29091C3.11916 6.59744 1.69692 5.90681 0.273405 5.21902C0.0228183 5.09724 -0.0707854 4.8892 0.056562 4.69525C0.115711 4.61468 0.196643 4.55268 0.289835 4.51655C1.64664 3.96882 3.00492 3.42402 4.36466 2.88216L11.4116 0.0652609C11.713 -0.0553377 11.8403 -0.0142588 11.9999 0.256868V0.444368C11.9809 0.485742 11.96 0.526528 11.9433 0.568781C10.4633 4.26596 8.98409 7.96315 7.5058 11.6603C7.44711 11.807 7.37346 11.9318 7.22059 11.9934L7.03309 11.9931ZM10.1519 1.32817L1.23174 4.89742L4.8362 6.64566L10.1519 1.32817ZM7.10028 10.7677C8.29541 7.78005 9.47881 4.82201 10.6631 1.86104L5.35527 7.16913L7.10028 10.7677Z" fill="#FF6701"/>
</g>
<defs>
<clipPath id="clip0_428_960">
<rect width="12" height="11.9933" fill="white"/>
</clipPath>
</defs>
</svg>
