<svg width="38" height="34" viewBox="0 0 38 34" fill="none" xmlns="http://www.w3.org/2000/svg">
<g id="Layer 2">
<g id="Layer 1">
<path id="Vector" d="M33.0769 23.1332L35.4492 19.805C35.4497 19.8044 35.4503 19.8039 35.451 19.8035C35.4517 19.8032 35.4525 19.803 35.4533 19.803C35.4541 19.803 35.4549 19.8032 35.4556 19.8035C35.4563 19.8039 35.4569 19.8044 35.4574 19.805L38 22.9414V22.9486L33.0769 23.1414C33.0763 23.141 33.0757 23.1403 33.0754 23.1396C33.075 23.1389 33.0748 23.1381 33.0748 23.1373C33.0748 23.1365 33.075 23.1357 33.0754 23.135C33.0757 23.1343 33.0763 23.1337 33.0769 23.1332Z" fill="#FFC288"/>
<path id="Vector_2" d="M25.9078 20.5609L35.4636 19.7988C35.4636 19.7988 35.4708 19.7988 35.4688 19.806L30.756 26.6665H30.7477L25.9047 20.5691C25.9047 20.5691 25.9037 20.5619 25.9078 20.5609Z" fill="#FEA82F"/>
<path id="Vector_3" d="M16.3855 24.5025L30.6819 26.5476C30.6995 26.5503 30.7163 26.5572 30.7307 26.5678C30.745 26.5784 30.7566 26.5923 30.7644 26.6083C30.7722 26.6244 30.7759 26.6421 30.7753 26.66C30.7747 26.6778 30.7697 26.6952 30.7609 26.7107L28.9465 29.8953C28.9333 29.9183 28.9122 29.9357 28.887 29.9442C28.8619 29.9527 28.8345 29.9518 28.8101 29.9415L16.3281 24.7107C15.9342 24.563 15.8542 24.4646 15.8542 24.4646C15.8727 24.4441 16.3065 24.4912 16.3855 24.5025Z" fill="#FEA82F"/>
<path id="Vector_4" d="M6.84518 15.5097L15.8011 24.4471C15.8015 24.4482 15.8023 24.4492 15.8033 24.4498C15.8043 24.4505 15.8055 24.4508 15.8067 24.4508C15.8079 24.4508 15.8091 24.4505 15.8101 24.4498C15.8111 24.4492 15.8119 24.4482 15.8123 24.4471L20.2226 13.48C20.2232 13.4787 20.2235 13.4773 20.2234 13.476C20.2232 13.4746 20.2227 13.4733 20.2218 13.4722C20.2209 13.4711 20.2198 13.4703 20.2185 13.4698C20.2171 13.4694 20.2157 13.4694 20.2144 13.4697L6.84928 15.4974C6.84793 15.4976 6.84666 15.4981 6.84561 15.499C6.84456 15.4998 6.84377 15.501 6.84334 15.5023C6.84291 15.5036 6.84286 15.5049 6.84318 15.5063C6.84351 15.5076 6.8442 15.5088 6.84518 15.5097Z" fill="#FEA82F"/>
<path id="Vector_5" d="M3.04347 10.7959L20.2044 13.4626V13.4718L6.84756 15.4984L3.04245 10.8051C3.04161 10.8046 3.04095 10.8039 3.04052 10.803C3.04009 10.8021 3.03992 10.8012 3.04002 10.8002C3.04013 10.7992 3.04051 10.7983 3.04112 10.7975C3.04173 10.7968 3.04255 10.7962 3.04347 10.7959Z" fill="#FF8600"/>
<path id="Vector_6" d="M0.00216371 10.8656L2.05959 9.25122L20.2318 13.4143L20.3395 13.4389L0.00421499 10.8748C0.00322124 10.8746 0.0023027 10.8742 0.00157459 10.8735C0.000846477 10.8728 0.000341195 10.8719 0.000122118 10.8709C-9.69583e-05 10.8699 -2.00761e-05 10.8689 0.000343119 10.8679C0.000706315 10.867 0.00133965 10.8662 0.00216371 10.8656Z" fill="#FFC288"/>
<path id="Vector_7" d="M30.7652 26.609C30.7663 26.609 30.7673 26.6087 30.7682 26.6081C30.7692 26.6076 30.7699 26.6068 30.7704 26.6059C30.7709 26.6049 30.7712 26.6039 30.7712 26.6028C30.7712 26.6018 30.7709 26.6007 30.7704 26.5998L22.7981 16.6029L20.2801 13.447H20.2709L15.8012 24.4439C15.8012 24.4439 15.8217 24.4552 15.8258 24.4562L30.7652 26.609Z" fill="#FF9825"/>
<path id="Vector_8" d="M29.2452 11.284L22.7837 16.5762C22.7837 16.5762 22.7837 16.5762 22.7837 16.5824L25.9283 20.5342L29.956 20.2039C29.956 20.2039 29.956 20.2039 29.956 20.1988L29.2503 11.287C29.2499 11.286 29.2492 11.2852 29.2483 11.2847C29.2473 11.2841 29.2463 11.2839 29.2452 11.284Z" fill="#FF6701"/>
<path id="Vector_9" d="M16.4984 8.90137L29.246 11.2419V11.2501L22.7763 16.5434H22.7702L20.2727 13.446L18.0635 12.9014L16.4933 8.90137C16.4933 8.90137 16.4953 8.90137 16.4984 8.90137Z" fill="#FF8600"/>
<path id="Vector_10" d="M16.4903 0.552736V8.8922L29.2338 11.2317V11.2235L16.4985 0.548633C16.4977 0.548062 16.4968 0.547714 16.4959 0.547628C16.4949 0.547543 16.494 0.547723 16.4931 0.548149C16.4923 0.548575 16.4916 0.549229 16.4911 0.55004C16.4906 0.55085 16.4903 0.551783 16.4903 0.552736Z" fill="#FEA82F"/>
<path id="Vector_11" d="M13.7017 0.620429L16.4853 0.54248L16.4904 0.547609V2.77119C16.4904 2.77119 16.4904 2.77735 16.4822 2.77119L13.6997 0.62966L13.7017 0.620429Z" fill="#FF8600"/>
<path id="Vector_12" d="M18.0215 25.5271L15.121 31.4071V31.4132L28.8327 29.9681C28.8378 29.9681 28.9219 29.9681 28.8604 29.925L18.0666 25.4358C18.0256 25.523 18.0225 25.524 18.0215 25.5271Z" fill="#FEA82F"/>
<path id="Vector_13" d="M13.8531 33.9146L18.0583 25.4695C18.0606 25.465 18.0614 25.46 18.0606 25.455C18.0599 25.4501 18.0575 25.4455 18.054 25.442C18.0505 25.4384 18.0459 25.4361 18.0409 25.4353C18.036 25.4346 18.0309 25.4354 18.0265 25.4377L4.31266 32.3269C4.30831 32.3291 4.30477 32.3327 4.30251 32.337C4.30026 32.3414 4.29942 32.3463 4.30009 32.3511C4.30077 32.356 4.30293 32.3605 4.30629 32.3641C4.30964 32.3676 4.31402 32.37 4.31881 32.371L13.8285 33.9269C13.8334 33.9279 13.8385 33.9272 13.8429 33.9249C13.8474 33.9227 13.851 33.9191 13.8531 33.9146Z" fill="#FFC288"/>
</g>
</g>
</svg>
