<svg width="17" height="16" viewBox="0 0 17 16" fill="none" xmlns="http://www.w3.org/2000/svg">
<path d="M14.9948 13.4734L11.9051 10.3843C12.8006 9.30913 13.2472 7.93011 13.1519 6.5341C13.0566 5.13809 12.4267 3.83256 11.3934 2.8891C10.36 1.94565 9.00269 1.4369 7.60379 1.46869C6.20489 1.50048 4.8721 2.07037 3.88267 3.0598C2.89324 4.04922 2.32336 5.38202 2.29157 6.78092C2.25977 8.17982 2.76852 9.53713 3.71198 10.5705C4.65544 11.6038 5.96096 12.2337 7.35698 12.329C8.75299 12.4243 10.132 11.9777 11.2072 11.0822L14.2963 14.172C14.3422 14.2178 14.3966 14.2542 14.4565 14.279C14.5165 14.3039 14.5807 14.3166 14.6456 14.3166C14.7104 14.3166 14.7747 14.3039 14.8346 14.279C14.8945 14.2542 14.949 14.2178 14.9948 14.172C15.0407 14.1261 15.0771 14.0717 15.1019 14.0117C15.1267 13.9518 15.1395 13.8876 15.1395 13.8227C15.1395 13.7578 15.1267 13.6936 15.1019 13.6337C15.0771 13.5737 15.0407 13.5193 14.9948 13.4734ZM3.29114 6.9113C3.29114 6.03255 3.55172 5.17354 4.03993 4.44288C4.52814 3.71223 5.22204 3.14276 6.0339 2.80647C6.84576 2.47019 7.73911 2.3822 8.60097 2.55364C9.46284 2.72507 10.2545 3.14823 10.8759 3.7696C11.4973 4.39097 11.9204 5.18265 12.0918 6.04451C12.2633 6.90638 12.1753 7.79972 11.839 8.61158C11.5027 9.42344 10.9333 10.1173 10.2026 10.6056C9.47195 11.0938 8.61293 11.3543 7.73418 11.3543C6.55621 11.353 5.42687 10.8845 4.59392 10.0516C3.76097 9.21862 3.29245 8.08927 3.29114 6.9113Z" fill="#484848"/>
</svg>
