<svg width="13" height="14" viewBox="0 0 13 14" fill="none" xmlns="http://www.w3.org/2000/svg">
<g id="MapPinLine">
<path id="Vector" fill-rule="evenodd" clip-rule="evenodd" d="M7.61336 11.5625C8.03528 11.1858 8.43317 10.783 8.80469 10.3564C10.1986 8.75328 10.9375 7.06328 10.9375 5.46875C10.9375 4.28356 10.4667 3.14692 9.62863 2.30887C8.79058 1.47081 7.65394 1 6.46875 1C5.28356 1 4.14692 1.47081 3.30887 2.30887C2.47081 3.14692 2 4.28356 2 5.46875C2 7.06328 2.73684 8.75328 4.13281 10.3564C4.50433 10.783 4.90222 11.1858 5.32414 11.5625L6.46875 12.6875L7.61336 11.5625ZM7.37155 4.11761C7.10432 3.93905 6.79014 3.84375 6.46875 3.84375C6.03777 3.84375 5.62445 4.01495 5.3197 4.3197C5.01495 4.62445 4.84375 5.03777 4.84375 5.46875C4.84375 5.79014 4.93905 6.10432 5.11761 6.37155C5.29617 6.63878 5.54996 6.84706 5.84689 6.97005C6.14382 7.09305 6.47055 7.12523 6.78577 7.06253C7.10099 6.99983 7.39054 6.84506 7.6178 6.6178C7.84506 6.39054 7.99983 6.10099 8.06253 5.78577C8.12523 5.47055 8.09305 5.14382 7.97005 4.84689C7.84706 4.54996 7.63878 4.29617 7.37155 4.11761Z" fill="#F2F2F2"/>
</g>
</svg>
