<svg width="28" height="28" viewBox="0 0 28 28" fill="none" xmlns="http://www.w3.org/2000/svg">
<g clip-path="url(#clip0_124_562)">
<path d="M5.951 11.0522C6.17648 11.0522 6.39273 11.1418 6.55217 11.3013C6.71161 11.4607 6.80118 11.6769 6.80118 11.9024V13.6028C6.80118 15.4066 7.51775 17.1366 8.79326 18.4121C10.0688 19.6876 11.7987 20.4042 13.6026 20.4042C15.4064 20.4042 17.1364 19.6876 18.4119 18.4121C19.6874 17.1366 20.404 15.4066 20.404 13.6028V11.9024C20.404 11.6769 20.4935 11.4607 20.653 11.3013C20.8124 11.1418 21.0287 11.0522 21.2541 11.0522C21.4796 11.0522 21.6959 11.1418 21.8553 11.3013C22.0147 11.4607 22.1043 11.6769 22.1043 11.9024V13.6028C22.1043 15.7104 21.3215 17.7429 19.9077 19.306C18.4938 20.869 16.5498 21.8512 14.4527 22.062V25.5052H19.5538C19.7793 25.5052 19.9955 25.5948 20.155 25.7542C20.3144 25.9137 20.404 26.1299 20.404 26.3554C20.404 26.5809 20.3144 26.7971 20.155 26.9565C19.9955 27.116 19.7793 27.2056 19.5538 27.2056H7.65135C7.42587 27.2056 7.20963 27.116 7.05019 26.9565C6.89075 26.7971 6.80118 26.5809 6.80118 26.3554C6.80118 26.1299 6.89075 25.9137 7.05019 25.7542C7.20963 25.5948 7.42587 25.5052 7.65135 25.5052H12.7524V22.062C10.6553 21.8512 8.71131 20.869 7.29748 19.306C5.88364 17.7429 5.1008 15.7104 5.10083 13.6028V11.9024C5.10083 11.6769 5.1904 11.4607 5.34984 11.3013C5.50928 11.1418 5.72552 11.0522 5.951 11.0522Z" fill="white"/>
<path d="M17.0033 13.6028C17.0033 14.5047 16.645 15.3697 16.0073 16.0074C15.3695 16.6452 14.5046 17.0035 13.6026 17.0035C12.7007 17.0035 11.8357 16.6452 11.198 16.0074C10.5602 15.3697 10.2019 14.5047 10.2019 13.6028V5.10105C10.2019 4.19912 10.5602 3.33414 11.198 2.69639C11.8357 2.05863 12.7007 1.70035 13.6026 1.70035C14.5046 1.70035 15.3695 2.05863 16.0073 2.69639C16.645 3.33414 17.0033 4.19912 17.0033 5.10105V13.6028ZM13.6026 0C12.2498 0 10.9523 0.53743 9.99565 1.49406C9.03902 2.45069 8.50159 3.74816 8.50159 5.10105V13.6028C8.50159 14.9557 9.03902 16.2531 9.99565 17.2098C10.9523 18.1664 12.2498 18.7038 13.6026 18.7038C14.9555 18.7038 16.253 18.1664 17.2096 17.2098C18.1662 16.2531 18.7037 14.9557 18.7037 13.6028V5.10105C18.7037 3.74816 18.1662 2.45069 17.2096 1.49406C16.253 0.53743 14.9555 0 13.6026 0V0Z" fill="white"/>
</g>
<defs>
<clipPath id="clip0_124_562">
<rect width="27.2056" height="27.2056" fill="white"/>
</clipPath>
</defs>
</svg>
