<svg width="24" height="26" viewBox="0 0 24 26" fill="none" xmlns="http://www.w3.org/2000/svg">
<g id="location">
<g id="Group">
<path id="Vector" d="M10.9921 1.05156C7.73902 1.38906 4.77652 3.41875 3.29527 6.325C2.48433 7.91406 2.09058 9.79844 2.24058 11.3875C2.40933 13.1828 3.22964 15.3438 4.62652 17.6875C6.41714 20.6875 9.01402 23.5984 10.7859 24.5922C11.1796 24.8078 11.7468 25 12.0093 25C13.5187 25 16.1953 22.5625 18.5484 19.0469C20.4234 16.2438 21.5578 13.5391 21.7593 11.3875C21.8531 10.4078 21.7171 9.15625 21.3937 8.04531C20.8781 6.25 19.7625 4.53906 18.3328 3.33438C16.2796 1.60938 13.6125 0.77969 10.9921 1.05156ZM12.8906 1.79688C16.0218 2.125 18.7171 4 20.114 6.82656C20.7984 8.21406 21.1453 9.95313 21.0093 11.3266C20.8734 12.6859 20.3953 14.1578 19.5187 15.9063C17.7234 19.4875 14.6625 23.1344 12.6609 24.0766C12.4125 24.1984 12.2906 24.2266 12.0421 24.2266C11.775 24.2266 11.6859 24.2031 11.339 24.0297C10.0734 23.3969 8.11871 21.4375 6.49683 19.1734C4.38746 16.225 3.09371 13.2438 2.97183 11.0781C2.89683 9.75625 3.24371 8.12969 3.87183 6.85469C4.79058 4.98438 6.24371 3.54531 8.11402 2.64531C9.60933 1.92813 11.2781 1.63281 12.8906 1.79688Z" fill="#707070" stroke="#707070" stroke-width="0.2"/>
<path id="Vector_2" d="M10.9453 3.83584C7.99683 4.31396 5.75152 6.46084 5.09996 9.42334C4.95933 10.0562 4.94996 11.3546 5.08121 12.039C5.35777 13.5296 6.04215 14.7858 7.15308 15.8593C9.30465 17.9358 12.4968 18.4093 15.1875 17.0546C16.2703 16.5108 17.3906 15.4655 18.0093 14.4296C18.4453 13.6983 18.7171 13.0046 18.8953 12.1562C19.0359 11.4905 19.05 10.2483 18.9187 9.55459C18.3843 6.6999 16.2515 4.51553 13.3968 3.90146C12.8109 3.7749 11.5359 3.74209 10.9453 3.83584ZM13.2656 4.63271C14.4843 4.8999 15.5484 5.48115 16.4343 6.3624C18.2203 8.15303 18.7593 10.764 17.8265 13.1124C17.0484 15.0718 15.3468 16.4968 13.2515 16.9468C12.5718 17.0921 11.4281 17.0921 10.7484 16.9468C8.2359 16.4077 6.3609 14.514 5.8359 11.9921C5.79371 11.7858 5.74683 11.3546 5.73277 11.0312C5.60621 8.09678 7.56558 5.47178 10.4531 4.69834C11.1843 4.50615 12.5296 4.47334 13.2656 4.63271Z" fill="#707070" stroke="#707070" stroke-width="0.2"/>
<path id="Vector_3" d="M11.0671 7.32813C10.6687 7.42188 10.4531 7.76406 10.4531 8.29844V8.64063H9.04683C7.88433 8.64063 7.60777 8.65469 7.46714 8.71094C7.23277 8.80938 7.12964 8.90781 7.02652 9.13281C6.94683 9.30156 6.93745 9.46563 6.93745 10.9141C6.93745 11.8188 6.9562 12.5781 6.98433 12.6719C7.03589 12.8641 7.27027 13.1125 7.46714 13.1828C7.54214 13.2109 7.68277 13.2344 7.78589 13.2344H7.9687V13.6328C7.9687 13.9984 7.97808 14.0453 8.08589 14.1484C8.16089 14.2281 8.24995 14.2656 8.35308 14.2656C8.48902 14.2656 8.57808 14.2 9.02339 13.75L9.53902 13.2344H11.2125C12.2765 13.2344 12.9328 13.2156 13.0171 13.1828C13.214 13.1125 13.4484 12.8641 13.5 12.6719C13.5234 12.5828 13.5468 12.3672 13.5468 12.1891V11.875H14.0109H14.475L14.9156 12.3484C15.3796 12.8547 15.5718 12.9813 15.7687 12.9109C15.9703 12.8313 16.0312 12.6859 16.0312 12.2688V11.8844L16.3031 11.8656C16.6359 11.8422 16.8281 11.7203 16.964 11.4391C17.0578 11.2469 17.0625 11.1625 17.0625 9.59688C17.0625 7.98906 17.0625 7.95156 16.9593 7.75C16.8328 7.50625 16.6781 7.38438 16.425 7.32813C16.2 7.27188 11.2875 7.27656 11.0671 7.32813ZM16.3031 9.58281L16.3125 11.1156L15.9187 11.1297C15.5765 11.1484 15.5062 11.1625 15.4031 11.2609C15.3234 11.3359 15.2812 11.425 15.2812 11.5188V11.6594L15.0234 11.4063L14.7609 11.1484L14.1562 11.1344L13.5468 11.1156V10.2297C13.5468 9.10938 13.4859 8.92656 13.0546 8.72969C12.8953 8.65469 12.7406 8.64063 12.0375 8.64063H11.2031V8.36875C11.2031 8.21875 11.2171 8.07813 11.2359 8.06406C11.25 8.04531 12.3984 8.03594 13.7765 8.04063L16.289 8.05469L16.3031 9.58281ZM12.7875 10.9469L12.7968 12.4844H11.0343H9.27652L8.99527 12.7516L8.7187 13.0141V12.8734C8.7187 12.7938 8.67652 12.6813 8.62964 12.6203C8.54995 12.5219 8.4937 12.5078 8.11402 12.4938L7.68745 12.475V10.9656C7.68745 10.1313 7.70152 9.4375 7.72027 9.42344C7.73433 9.40469 8.88277 9.39531 10.2609 9.4L12.7734 9.41406L12.7875 10.9469Z" fill="#707070" stroke="#707070" stroke-width="0.2"/>
</g>
</g>
</svg>
