<svg width="24" height="24" viewBox="0 0 24 24" fill="none" xmlns="http://www.w3.org/2000/svg">
<g id="location-_1_">
<g id="Group">
<path id="Vector" d="M10.8281 0.0750618C7.90776 0.426624 5.27807 2.13288 3.72182 4.68756C2.64838 6.45006 2.14682 8.74225 2.41401 10.636C2.79838 13.3454 4.73901 17.0813 7.45776 20.3485C8.07651 21.0938 9.60463 22.6266 10.139 23.0391C11.0203 23.7141 11.7234 24.0422 12.1921 23.986C12.6562 23.9297 13.4437 23.4751 14.2406 22.8094C14.7749 22.3594 15.9374 21.1641 16.5046 20.4844C19.2093 17.2407 21.1921 13.3922 21.5859 10.6313C21.8156 9.01412 21.464 7.03131 20.6671 5.40944C18.8484 1.72038 14.9109 -0.417126 10.8281 0.0750618ZM13.5937 2.4985C16.514 3.19694 18.6656 5.43287 19.2187 8.35319C19.3734 9.15006 19.3593 10.2938 19.1906 11.1329C18.7546 13.2844 17.3109 15.1782 15.3328 16.1907C13.2234 17.2688 10.7765 17.2688 8.66713 16.1907C6.03276 14.8454 4.45307 12.0329 4.68745 9.11256C4.77182 8.09069 5.00151 7.26569 5.46088 6.35163C6.52495 4.24225 8.5687 2.76569 10.9546 2.39069C11.1046 2.36725 11.6484 2.35787 12.164 2.36725C12.9656 2.38131 13.1718 2.40006 13.5937 2.4985Z" fill="#FF6701"/>
<path id="Vector_2" d="M11.4609 2.93898C11.0343 2.97179 10.3546 3.11242 9.90932 3.25773C7.56557 4.02179 5.84994 5.98585 5.36244 8.46085C5.24525 9.04679 5.24525 10.2749 5.35775 10.8515C5.92025 13.7015 8.039 15.7968 10.8749 16.3171C11.4515 16.4249 12.7593 16.3968 13.3593 16.2702C14.9812 15.9234 16.3968 15.0187 17.3906 13.6968C17.9953 12.8905 18.3937 12.0046 18.614 10.9687C18.764 10.2702 18.764 9.04679 18.6187 8.35773C18.0562 5.73273 16.1671 3.75929 13.5984 3.1171C12.9234 2.94835 12.1359 2.88273 11.4609 2.93898ZM16.9031 6.18742C16.9874 6.24367 17.0999 6.37492 17.1515 6.48742C17.2453 6.67492 17.2499 6.76398 17.2499 8.40929C17.2499 10.3312 17.2499 10.3405 16.9312 10.5843C16.8046 10.678 16.7015 10.7109 16.4765 10.7249L16.1812 10.7437L16.1624 11.2124C16.1531 11.6109 16.1343 11.6905 16.0593 11.7468C15.8531 11.8921 15.7499 11.8359 15.1874 11.2734L14.6484 10.7343H14.1046H13.5562L13.5374 11.1702C13.5187 11.6624 13.4343 11.8593 13.1718 12.0327C13.0171 12.1405 13.0078 12.1405 11.2078 12.1405H9.39838L8.90619 12.6374C8.44682 13.0968 8.23588 13.2655 8.10932 13.2655C8.08119 13.2655 8.00619 13.214 7.94525 13.1484C7.83744 13.0452 7.82807 12.9984 7.82807 12.5859V12.1405H7.5515C7.2515 12.1405 7.04994 12.0374 6.87182 11.7984C6.77807 11.6671 6.77338 11.6202 6.77338 9.82023C6.77338 8.0296 6.77807 7.97335 6.87182 7.84679C6.92338 7.77648 7.0265 7.67335 7.09682 7.62179C7.21869 7.52804 7.29369 7.52335 8.83588 7.50929L10.4437 7.49523L10.4624 7.06398C10.4812 6.57179 10.5656 6.37492 10.8281 6.20148L10.9828 6.09367H13.8656C16.6828 6.09367 16.7484 6.09367 16.9031 6.18742Z" fill="#FF6701"/>
<path id="Vector_3" d="M11.1187 6.71211C11.0859 6.74492 11.0624 6.91367 11.0624 7.1293V7.49492L12.0609 7.50898C13.0171 7.52305 13.0593 7.52773 13.2093 7.63086C13.4999 7.8418 13.5234 7.92617 13.5374 9.0793L13.5562 10.1246H14.2124H14.8687L15.2156 10.4621L15.5624 10.7949V10.5605C15.5624 10.2137 15.6515 10.1527 16.1859 10.1246L16.6171 10.1012L16.6312 8.41836C16.6406 7.10117 16.6265 6.72617 16.5843 6.69336C16.5515 6.67461 15.3187 6.65586 13.8515 6.65586C11.8312 6.65586 11.1609 6.66992 11.1187 6.71211Z" fill="#FF6701"/>
<path id="Vector_4" d="M7.39213 8.14199C7.37338 8.15605 7.35931 8.91074 7.35931 9.82012C7.35931 11.0389 7.37338 11.4795 7.41556 11.5217C7.45306 11.5592 7.6265 11.5779 7.87963 11.5779C8.24994 11.5779 8.29681 11.5873 8.36244 11.6811C8.40463 11.742 8.43744 11.8826 8.43744 12.0186V12.2529L8.77963 11.9154L9.11713 11.5779H10.9499C12.3374 11.5779 12.7968 11.5639 12.8578 11.517C12.9328 11.4654 12.9374 11.3201 12.9281 9.79668L12.914 8.13262L10.1671 8.11856C8.65775 8.11387 7.40619 8.12324 7.39213 8.14199Z" fill="#FF6701"/>
</g>
</g>
</svg>
