<svg width="151" height="143" viewBox="0 0 151 143" fill="none" xmlns="http://www.w3.org/2000/svg">
<path d="M124.359 20.0729C116.705 2.63095 95.3853 -3.99987 79.1886 6.02381L28.4141 37.4467C21.46 41.7504 16.4646 48.6029 14.4952 56.5404L2.90227 103.264C-2.86818 126.522 18.5471 147.382 41.645 141.004L127.859 117.196C146.261 112.114 155.877 91.8934 148.205 74.4116L124.359 20.0729Z" fill="#FFEADC"/>
<path d="M31.8836 30.6886C19.2105 34.1287 11.6219 46.5994 14.3285 59.5001C14.8344 61.9032 17.1869 68.8341 18.6287 72.1984C23.5613 83.7838 29.9358 93.1684 38.8398 102.098C47.7691 111.002 57.1537 117.376 68.7391 122.309C72.1034 123.751 79.0343 126.103 81.4374 126.609C89.7343 128.354 97.9806 125.926 103.874 120.032C107.062 116.87 109.338 112.848 110.35 108.624C110.957 106.069 110.907 104.374 110.122 102.629C109.161 100.453 108.074 99.5934 100.358 95.015C96.3111 92.5866 92.4156 90.3353 91.6821 89.9812C88.8743 88.5393 85.3582 88.5393 82.2974 89.9306C79.8691 91.0436 78.9078 92.0554 75.3918 97.3421C73.5705 100.074 71.9769 102.427 71.8504 102.553C71.5975 102.831 67.1454 100.681 63.7811 98.6575C55.7878 93.8514 49.0339 87.3757 43.7977 79.5088C41.4199 75.9422 38.0304 69.3906 38.3845 69.0871C38.511 68.9606 40.8634 67.367 43.6207 65.5204C49.1351 61.8526 50.2481 60.7143 51.4117 57.7294C52.1452 55.8323 52.1958 52.3415 51.5381 50.4696C50.8046 48.4207 42.1029 33.9264 40.8129 32.5857C38.5869 30.2585 35.7032 29.6514 31.8836 30.6886Z" fill="#FF6701"/>
<path d="M91.836 23.0252C83.5783 23.701 76.2288 28.4106 72.1528 35.6545C68.7314 41.7369 68.0873 49.1815 70.3893 55.8446C71.6142 59.3716 73.4305 62.2966 76.0915 65.021C83.5361 72.6557 95.0145 74.662 104.613 70.0052C109.798 67.4814 114.096 63.0463 116.387 57.8615C120.168 49.3188 118.943 39.6567 113.156 32.286C111.794 30.5542 109.091 28.1044 107.2 26.9006C105.099 25.5595 102.491 24.4085 100.178 23.8066C98.4253 23.3419 97.2531 23.1519 95.4791 23.0146C93.8952 22.8984 93.3777 22.8984 91.836 23.0252ZM94.9934 32.3071C95.2046 32.4549 95.5108 32.7612 95.6692 32.9829L95.9543 33.3948L95.986 40.0579L96.0071 46.7105L99.27 49.9946C102.829 53.5637 102.829 53.5743 102.744 54.6936C102.691 55.4117 102.396 55.9186 101.773 56.3621C101.403 56.6155 101.255 56.6472 100.548 56.6472C99.8403 56.6472 99.6819 56.6155 99.3228 56.3621C99.0905 56.2037 97.3059 54.4613 95.3524 52.5078C92.4168 49.5616 91.7832 48.8647 91.6882 48.5162C91.5931 48.21 91.572 46.0769 91.5931 40.7337L91.6248 33.3842L91.9416 32.9301C92.4168 32.2543 93.0398 31.9692 93.9057 32.0114C94.4337 32.0431 94.6977 32.117 94.9934 32.3071Z" fill="#FF6701"/>
</svg>
