<svg width="187" height="166" viewBox="0 0 187 166" fill="none" xmlns="http://www.w3.org/2000/svg">
<path d="M27.8656 72.6513C31.1996 67.5863 35.883 63.5541 41.3873 61.0099L103.894 32.1179C137.75 16.4688 176.888 39.0945 180.222 76.2431C183.386 111.493 152.306 140.181 117.422 134.211L49.5475 122.594C26.4242 118.637 14.9674 92.2467 27.8656 72.6513Z" fill="#FFEADC"/>
<g clip-path="url(#clip0_1153_1713)">
<path d="M45.3048 55.2796C43.1279 55.9049 41.0436 57.1323 39.3993 58.7765C37.6393 60.5366 36.5509 62.4587 35.9256 64.9367C35.4856 66.6736 35.4624 67.6231 35.4624 97.8912C35.4624 127.812 35.4856 129.109 35.9024 129.873C36.5045 131.054 37.8477 131.772 39.2141 131.656C40.2099 131.564 41.1131 130.985 50.4459 124.315C56.0271 120.332 61.1683 116.789 61.8631 116.464L63.1368 115.862L86.5269 115.746C112.464 115.607 110.565 115.723 113.854 114.079C115.799 113.083 118.486 110.327 119.481 108.243C120.94 105.232 120.917 105.881 120.917 80.5455C120.917 54.8396 121.033 56.507 119.319 55.3722L118.532 54.8396L82.6131 54.8627C49.3112 54.8627 46.6016 54.9091 45.3048 55.2796ZM102.321 74.2001C104.544 75.8443 104.567 78.7391 102.344 80.0823C101.603 80.5223 101.117 80.5455 80.4825 80.5455H59.3851L58.5977 80.0129C57.1851 79.0634 56.6061 77.118 57.324 75.7285C57.764 74.8717 58.6672 74.0843 59.4546 73.8295C59.8251 73.7137 69.4822 73.6443 80.8993 73.6674C101.58 73.7137 101.673 73.7137 102.321 74.2001ZM102.321 90.411C104.544 92.0553 104.567 94.9501 102.344 96.2933C101.603 96.7333 101.117 96.7564 80.4825 96.7564H59.3851L58.5977 96.2238C57.1851 95.2743 56.6061 93.329 57.324 91.9395C57.764 91.0826 58.6672 90.2952 59.4546 90.0405C59.8251 89.9247 69.4822 89.8552 80.8993 89.8784C101.58 89.9247 101.673 89.9247 102.321 90.411Z" fill="#FF6701"/>
<path d="M127.865 92.773C127.865 101.712 127.795 104.283 127.517 105.904C126.267 113.083 121.056 119.127 114.039 121.559C110.82 122.671 110.125 122.694 88.6806 122.694H68.5327L68.6253 127.256C68.718 131.193 68.8106 132.073 69.2275 133.393C69.9222 135.431 71.7749 138.187 73.3728 139.484C74.9013 140.734 77.4719 142.008 79.1856 142.355C80.0193 142.541 87.3837 142.61 102.506 142.61C125.734 142.61 126.035 142.633 128.119 143.675C128.698 143.953 133.446 147.242 138.657 150.97C143.867 154.699 148.453 157.918 148.823 158.173C150.421 159.145 152.76 158.45 153.64 156.737C154.011 155.972 154.034 154.097 153.988 124.199L153.918 92.4719L153.293 90.7582C151.834 86.7981 148.661 83.6486 144.794 82.3517C143.358 81.8654 142.756 81.819 135.577 81.7496L127.865 81.6801V92.773Z" fill="#FF6701"/>
</g>
<defs>
<clipPath id="clip0_1153_1713">
<rect width="118.571" height="118.571" fill="white" transform="translate(35.4624 47.4287)"/>
</clipPath>
</defs>
</svg>
