<svg width="126" height="121" viewBox="0 0 126 121" fill="none" xmlns="http://www.w3.org/2000/svg">
<path d="M91.3873 30.702C86.6027 29.2758 82.4391 26.2774 79.5698 22.1918L73.8232 14.0092C58.848 -7.31421 26.0283 -2.75728 17.4289 21.8394L2.15134 65.5377C-8.04469 94.7014 24.9166 119.952 50.4198 102.514L97.5714 70.275C112.984 59.7371 109.28 36.0353 91.3873 30.702Z" fill="#FFEADC"/>
<path d="M64.2007 9.54964C61.746 10.036 59.0596 11.4023 57.1375 13.1392C55.5627 14.5981 53.7564 17.3076 53.0385 19.2761C52.529 20.7351 52.5058 20.7351 50.9311 21.4298C46.971 23.1898 42.5015 26.5014 40.0467 29.4889C37.4067 32.731 35.3919 36.7605 34.3498 40.8132C33.4466 44.4027 33.1456 46.9965 32.9372 53.7587C32.4972 68.0473 31.4319 71.4284 25.0634 79.3485C22.2612 82.8222 21.937 83.5169 21.937 86.1801C21.937 88.0791 22.0065 88.4265 22.7012 89.816C23.6276 91.6918 25.2486 93.2434 27.1013 93.9845L28.4213 94.5171H66.285H104.149L105.469 93.9845C107.321 93.2434 108.942 91.6918 109.869 89.816C110.563 88.4265 110.633 88.0791 110.633 86.1801C110.633 83.5169 110.309 82.8222 107.507 79.3485C104.89 76.0832 103.871 74.6242 102.829 72.5168C100.698 68.2788 99.6328 62.0724 99.6328 53.7355C99.6328 37.4784 94.2369 27.5436 82.3104 21.7772L80.0641 20.6887L79.5083 19.2992C78.6514 17.0992 77.4472 15.2466 75.803 13.5792C73.1861 10.9391 70.384 9.66544 66.8639 9.52649C65.7292 9.48017 64.5249 9.50333 64.2007 9.54964Z" fill="#FF6701"/>
<path d="M50.1206 102.321C49.6806 102.761 49.7733 103.155 50.8385 104.776C54.5902 110.543 61.6534 113.831 68.4619 112.974C73.9041 112.279 78.8137 109.269 81.7316 104.776C82.7969 103.155 82.8895 102.761 82.4495 102.321C82.0558 101.928 50.5143 101.928 50.1206 102.321Z" fill="#FF6701"/>
</svg>
