<svg width="21" height="22" viewBox="0 0 21 22" fill="none" xmlns="http://www.w3.org/2000/svg">
<path id="Vector" d="M20.6604 16.0713C20.0821 15.0601 19.2226 12.1989 19.2226 8.4619C19.2226 6.21767 18.3445 4.06535 16.7814 2.47843C15.2184 0.891519 13.0984 0 10.8878 0C8.67733 0 6.55735 0.891519 4.99428 2.47843C3.4312 4.06535 2.55308 6.21767 2.55308 8.4619C2.55308 12.2 1.69251 15.0601 1.11429 16.0713C0.966626 16.3283 0.888345 16.6204 0.887339 16.918C0.886333 17.2156 0.962636 17.5082 1.10855 17.7663C1.25447 18.0244 1.46485 18.2389 1.71846 18.3881C1.97207 18.5373 2.25995 18.616 2.55308 18.6162H6.80485C6.99715 19.5715 7.50854 20.43 8.25253 21.0466C8.99652 21.6632 9.92745 22 10.8878 22C11.8482 22 12.7792 21.6632 13.5232 21.0466C14.2672 20.43 14.7786 19.5715 14.9708 18.6162H19.2226C19.5157 18.6158 19.8034 18.537 20.0569 18.3877C20.3103 18.2384 20.5206 18.0239 20.6664 17.7658C20.8122 17.5078 20.8884 17.2152 20.8873 16.9177C20.8863 16.6202 20.808 16.3283 20.6604 16.0713ZM10.8878 20.3086C10.3709 20.3084 9.86672 20.1456 9.44468 19.8425C9.02264 19.5394 8.70351 19.111 8.53119 18.6162H13.2445C13.0722 19.111 12.7531 19.5394 12.331 19.8425C11.909 20.1456 11.4048 20.3084 10.8878 20.3086ZM2.55308 16.9238C3.3553 15.5234 4.22003 12.2782 4.22003 8.4619C4.22003 6.66651 4.92253 4.94466 6.17299 3.67513C7.42345 2.4056 9.11943 1.69238 10.8878 1.69238C12.6563 1.69238 14.3523 2.4056 15.6027 3.67513C16.8532 4.94466 17.5557 6.66651 17.5557 8.4619C17.5557 12.275 18.4183 15.5202 19.2226 16.9238H2.55308Z" fill="#303030"/>
</svg>
