<svg width="90" height="91" viewBox="0 0 90 91" fill="none" xmlns="http://www.w3.org/2000/svg">
<g id="Add User">
<g id="Iconly/Bold/Add-User">
<g id="Add-User">
<path id="Vector" d="M35.6279 56.87C50.7613 56.87 63.537 59.3933 63.537 69.1386C63.537 78.8839 50.6794 81.3231 35.6279 81.3231C20.4944 81.3231 7.71875 78.796 7.71875 69.0545C7.71875 59.3091 20.5727 56.87 35.6279 56.87ZM70.9756 28.5314C72.8222 28.5314 74.3209 30.0754 74.3209 31.969V36.4044H78.7978C80.6406 36.4044 82.1431 37.9483 82.1431 39.842C82.1431 41.7356 80.6406 43.2795 78.7978 43.2795H74.3209V47.7189C74.3209 49.6125 72.8222 51.1564 70.9756 51.1564C69.1328 51.1564 67.6303 49.6125 67.6303 47.7189V43.2795H63.1611C61.3145 43.2795 59.8158 41.7356 59.8158 39.842C59.8158 37.9483 61.3145 36.4044 63.1611 36.4044H67.6303V31.969C67.6303 30.0754 69.1328 28.5314 70.9756 28.5314ZM35.6279 9.67725C45.8782 9.67725 54.0949 18.1112 54.0949 28.6326C54.0949 39.154 45.8782 47.588 35.6279 47.588C25.3775 47.588 17.1608 39.154 17.1608 28.6326C17.1608 18.1112 25.3775 9.67725 35.6279 9.67725Z" fill="#FF6701"/>
</g>
</g>
</g>
</svg>
