<svg width="21" height="21" viewBox="0 0 21 21" fill="none" xmlns="http://www.w3.org/2000/svg">
<g id="Layer_1" clip-path="url(#clip0_29_2431)">
<path id="Vector" d="M12.1778 20.6182C11.9439 20.5047 11.8162 20.3055 11.7061 20.0775C10.5744 17.7323 9.43758 15.3896 8.2955 13.0494C8.23417 12.9323 8.13811 12.8371 8.0205 12.7768C5.65088 11.6204 3.27915 10.4687 0.905293 9.32174C0.487413 9.11867 0.331319 8.77175 0.543684 8.44831C0.642321 8.31395 0.777283 8.21056 0.932692 8.15031C3.19531 7.23691 5.46037 6.32841 7.72789 5.4248L19.4794 0.727318C19.9819 0.526207 20.1943 0.594711 20.4605 1.04684V1.35952C20.4287 1.42851 20.394 1.49653 20.3661 1.56699C17.8979 7.73243 15.4313 13.8979 12.9661 20.0633C12.8682 20.308 12.7454 20.5159 12.4904 20.6187L12.1778 20.6182ZM17.3788 2.83335L2.50341 8.78545L8.51423 11.7008L17.3788 2.83335ZM12.2898 18.5748C14.2828 13.5925 16.2563 8.65969 18.2312 3.72196L9.37983 12.5738L12.2898 18.5748Z" fill="white"/>
</g>
<defs>
<clipPath id="clip0_29_2431">
<rect width="20.0113" height="20" fill="white" transform="translate(0.449219 0.618164)"/>
</clipPath>
</defs>
</svg>
