<svg width="32" height="32" viewBox="0 0 32 32" fill="none" xmlns="http://www.w3.org/2000/svg">
<path d="M20.2496 18.8582C19.7494 18.858 19.2542 18.9535 18.7935 19.1388C18.3327 19.3242 17.9157 19.5958 17.5671 19.9375L13.2463 17.2923C13.5862 16.4622 13.5862 15.5407 13.2463 14.7105L17.5671 12.0654C18.2161 12.6986 19.0889 13.0798 20.0161 13.1349C20.9434 13.19 21.8592 12.9153 22.5858 12.3639C23.3125 11.8125 23.7983 11.0237 23.9491 10.1505C24.0999 9.27726 23.9049 8.38183 23.402 7.63778C22.899 6.89373 22.1239 6.35407 21.2269 6.12342C20.3299 5.89278 19.375 5.98758 18.5472 6.38946C17.7195 6.79134 17.0779 7.47165 16.7468 8.2985C16.4158 9.12536 16.4188 10.0398 16.7554 10.8647L12.4347 13.5098C11.9143 13.001 11.2466 12.6516 10.5167 12.5062C9.78678 12.3607 9.02794 12.4259 8.33715 12.6934C7.64636 12.9609 7.05501 13.4185 6.63869 14.0078C6.22237 14.597 6 15.2912 6 16.0014C6 16.7117 6.22237 17.4058 6.63869 17.9951C7.05501 18.5843 7.64636 19.042 8.33715 19.3094C9.02794 19.5769 9.78678 19.6421 10.5167 19.4967C11.2466 19.3513 11.9143 19.0018 12.4347 18.493L16.7554 21.1382C16.466 21.8493 16.4231 22.63 16.6332 23.3659C16.8433 24.1018 17.2952 24.7544 17.9228 25.228C18.5504 25.7016 19.3207 25.9714 20.1209 25.9979C20.9212 26.0243 21.7093 25.806 22.3698 25.375C23.0304 24.9439 23.5287 24.3228 23.7918 23.6025C24.0549 22.8822 24.069 22.1005 23.832 21.3721C23.595 20.6436 23.1193 20.0065 22.4747 19.5541C21.83 19.1018 21.0503 18.8579 20.2496 18.8582ZM20.2496 7.43123C20.6944 7.43123 21.1294 7.55689 21.4993 7.79231C21.8692 8.02774 22.1575 8.36236 22.3278 8.75386C22.498 9.14536 22.5426 9.57615 22.4558 9.99177C22.369 10.4074 22.1547 10.7891 21.8401 11.0888C21.5256 11.3884 21.1247 11.5925 20.6884 11.6752C20.252 11.7578 19.7998 11.7154 19.3887 11.5532C18.9777 11.3911 18.6264 11.1165 18.3792 10.7641C18.132 10.4118 18.0001 9.99753 18.0001 9.57378C18.0001 9.00554 18.2371 8.46057 18.659 8.05877C19.0808 7.65696 19.653 7.43123 20.2496 7.43123ZM9.75221 18.144C9.30731 18.144 8.87241 18.0183 8.50249 17.7829C8.13257 17.5475 7.84426 17.2128 7.674 16.8213C7.50375 16.4298 7.4592 15.9991 7.546 15.5834C7.63279 15.1678 7.84703 14.7861 8.16162 14.4864C8.47621 14.1868 8.87702 13.9827 9.31336 13.9C9.74971 13.8174 10.202 13.8598 10.613 14.022C11.0241 14.1841 11.3754 14.4588 11.6225 14.8111C11.8697 15.1634 12.0016 15.5777 12.0016 16.0014C12.0016 16.5697 11.7646 17.1146 11.3428 17.5164C10.9209 17.9182 10.3488 18.144 9.75221 18.144ZM20.2496 24.5716C19.8047 24.5716 19.3698 24.446 18.9998 24.2105C18.6299 23.9751 18.3416 23.6405 18.1713 23.249C18.0011 22.8575 17.9565 22.4267 18.0433 22.0111C18.1301 21.5955 18.3444 21.2137 18.659 20.9141C18.9736 20.6144 19.3744 20.4104 19.8107 20.3277C20.2471 20.245 20.6993 20.2875 21.1104 20.4496C21.5214 20.6118 21.8727 20.8864 22.1199 21.2387C22.3671 21.5911 22.499 22.0053 22.499 22.4291C22.499 22.9973 22.262 23.5423 21.8401 23.9441C21.4183 24.3459 20.8461 24.5716 20.2496 24.5716Z" fill="#303030"/>
</svg>
