<svg width="344" height="347" viewBox="0 0 344 347" fill="none" xmlns="http://www.w3.org/2000/svg">
<g clip-path="url(#clip0_769_6199)">
<path d="M245.09 332.84H234.45L208.784 321.649L89.8868 332.84C83.1963 332.84 78.4525 327.434 79.303 320.779L117.518 18.7719C118.368 12.0989 124.473 6.69238 131.163 6.69238L278.58 4.97214C295.495 4.97214 297.801 12.0989 296.951 18.7719L258.736 320.779C257.885 327.434 251.781 332.84 245.09 332.84Z" fill="white"/>
<path fill-rule="evenodd" clip-rule="evenodd" d="M245.09 333.256H234.45C234.399 333.256 234.342 333.25 234.279 333.237L208.708 322.065L89.9244 333.256C89.9244 333.256 89.9181 333.256 89.9055 333.256C86.5225 333.256 83.5552 331.97 81.4763 329.607C79.3784 327.226 78.4523 324.069 78.887 320.723L117.102 18.7153C117.971 11.8721 124.284 6.27655 131.163 6.27655L278.58 4.5563C286.669 4.5563 292.226 6.21984 295.098 9.4902C297.139 11.7965 297.877 14.84 297.366 18.8287L259.151 320.817C258.282 327.679 251.969 333.256 245.09 333.256ZM234.544 332.424H245.09C251.573 332.424 257.507 327.169 258.32 320.723L296.535 18.7153C297.007 14.9912 296.346 12.1556 294.475 10.0384C291.753 6.95709 286.423 5.38807 278.58 5.38807L131.163 7.10832C124.681 7.10832 118.746 12.3636 117.934 18.8287L79.7186 320.817C79.3217 323.936 80.1722 326.866 82.1 329.059C84.0088 331.233 86.7871 332.424 89.8866 332.424L208.746 321.233C208.822 321.22 208.891 321.227 208.954 321.252L234.544 332.424Z" fill="black"/>
<path d="M235.754 332.84H80.5501C73.8596 332.84 69.1158 327.433 69.9663 320.741L108.181 17.77C109.013 11.078 115.136 5.67154 121.808 5.67154H277.03C283.721 5.67154 288.464 11.078 287.614 17.77L249.399 320.741C248.549 327.433 242.444 332.84 235.754 332.84Z" fill="white"/>
<path d="M78.8118 321.157L115.288 31.8723C115.496 30.3411 116.894 29.0746 118.444 29.0746H274.498C276.048 29.0746 277.125 30.3411 276.936 31.8723L240.441 321.157C240.252 322.689 238.835 323.955 237.304 323.955H81.2499C79.7001 323.955 78.6039 322.689 78.8118 321.157Z" fill="white"/>
<path fill-rule="evenodd" clip-rule="evenodd" d="M237.303 324.371H81.2496C80.3802 324.371 79.6053 324.031 79.0761 323.407C78.528 322.783 78.2823 321.97 78.3957 321.101L114.891 31.8344C115.099 30.0764 116.705 28.6586 118.444 28.6586H274.498C275.367 28.6586 276.142 28.9989 276.671 29.6227C277.219 30.2276 277.465 31.0594 277.352 31.929L240.857 321.195C240.63 322.953 239.042 324.371 237.303 324.371ZM79.2084 321.195C79.1328 321.838 79.3029 322.424 79.6998 322.859C80.0778 323.294 80.6259 323.539 81.2496 323.539H237.303C238.645 323.539 239.855 322.443 240.025 321.101L276.52 31.8344C276.596 31.1917 276.445 30.6057 276.048 30.1709C275.67 29.7361 275.122 29.4904 274.498 29.4904H118.444C117.102 29.4904 115.874 30.5868 115.704 31.929L79.2084 321.195Z" fill="black"/>
<path fill-rule="evenodd" clip-rule="evenodd" d="M197.482 21.4941C196.159 21.4941 194.968 20.9647 194.137 20.0385C193.305 19.0744 192.927 17.8267 193.097 16.4845C193.438 13.7813 195.913 11.5695 198.635 11.5695C199.958 11.5695 201.13 12.0989 201.961 13.044C202.812 13.9892 203.171 15.2369 203.001 16.5791C202.661 19.2823 200.185 21.4941 197.482 21.4941ZM198.635 12.4202C196.329 12.4202 194.213 14.2917 193.929 16.5791C193.797 17.6755 194.08 18.7152 194.761 19.4713C195.441 20.2275 196.405 20.6623 197.482 20.6623C199.788 20.6623 201.886 18.7908 202.169 16.4845C202.32 15.3881 202.018 14.3484 201.338 13.5923C200.676 12.8361 199.712 12.4202 198.635 12.4202Z" fill="black"/>
<path d="M184.932 333.256H80.55C77.2048 333.256 74.2187 331.97 72.1397 329.607C70.0419 327.225 69.1158 324.05 69.5505 320.685L70.0419 316.791C70.0608 316.564 70.2687 316.394 70.4955 316.431C70.7223 316.45 70.8924 316.658 70.8546 316.885L70.3632 320.779C69.9852 323.917 70.8357 326.866 72.7634 329.059C74.6912 331.233 77.4505 332.424 80.55 332.424H184.932C185.159 332.424 185.348 332.613 185.348 332.84C185.348 333.086 185.159 333.256 184.932 333.256Z" fill="black"/>
<path d="M235.754 333.256H226.871C226.644 333.256 226.455 333.086 226.455 332.84C226.455 332.613 226.644 332.424 226.871 332.424H235.754C242.236 332.424 248.171 327.169 248.983 320.685L261.552 221.043C261.589 220.816 261.778 220.665 262.024 220.684C262.251 220.721 262.402 220.929 262.383 221.156L249.815 320.779C248.946 327.66 242.633 333.256 235.754 333.256Z" fill="black"/>
<path d="M94.4981 126.675C94.4729 126.675 94.454 126.669 94.4414 126.656C94.2146 126.637 94.0445 126.429 94.0823 126.202L107.766 17.7323C108.635 10.8513 114.929 5.23685 121.808 5.23685H277.03C280.376 5.23685 283.362 6.54121 285.422 8.90419C287.538 11.2861 288.446 14.4619 288.03 17.8268L277.824 98.376C277.805 98.6028 277.597 98.7729 277.37 98.7351C277.125 98.7162 276.974 98.5083 276.993 98.2814L287.198 17.7323C287.595 14.5942 286.745 11.6452 284.798 9.4524C282.889 7.27846 280.13 6.08752 277.03 6.08752H121.808C115.344 6.08752 109.41 11.3428 108.597 17.8268L94.9139 126.297C94.8761 126.505 94.706 126.675 94.4981 126.675Z" fill="black"/>
<path d="M167.167 233.009C149.269 233.009 134.036 224.672 125.38 210.135C123.906 207.659 124.907 204.067 127.648 202.101C130.388 200.154 133.79 200.589 135.283 203.065C142.276 214.823 154.599 221.553 169.076 221.553C190.735 221.553 211.978 206.43 220.766 184.785C222.013 181.723 225.34 179.851 228.175 180.608C231.029 181.364 232.333 184.464 231.085 187.526C225.907 200.286 216.778 211.837 205.363 220.06C193.607 228.529 180.397 233.009 167.167 233.009Z" fill="black"/>
<path d="M242.274 194.861L229.611 173.159L205.779 189.965L242.274 194.861Z" fill="black"/>
<path d="M127.44 165.9C126.999 165.9 126.564 165.844 126.136 165.73C123.282 164.974 121.978 161.874 123.225 158.811C128.404 146.051 137.532 134.501 148.948 126.278C160.703 117.809 173.914 113.329 187.144 113.329C206.195 113.329 222.448 123.008 230.575 139.208C231.898 141.798 230.67 145.371 227.835 147.167C225.019 148.962 221.673 148.301 220.369 145.711C213.773 132.592 200.638 124.785 185.235 124.785C163.576 124.785 142.333 139.889 133.545 161.552C132.486 164.161 129.935 165.9 127.44 165.9Z" fill="black"/>
<path d="M112.037 151.458L124.7 173.159L148.532 156.373L112.037 151.458Z" fill="black"/>
<path d="M196.575 187.999L179.603 188.075C178.053 188.075 165.429 187.98 163.992 187.961L158.001 187.923C155.809 187.904 154.164 186.146 154.316 183.972L156.092 159.568C156.243 157.394 158.152 155.636 160.345 155.636L198.919 155.711C201.111 155.73 202.755 157.488 202.604 159.662L200.827 184.067C200.676 186.241 198.767 187.999 196.575 187.999Z" fill="black"/>
<path d="M172.213 187.923L176.39 195.258L182.211 187.923H172.213Z" fill="black"/>
<path d="M177.562 167.035C176.787 166.108 175.634 165.579 174.349 165.56C173.404 165.541 172.497 165.844 171.665 166.43C171.25 166.72 170.872 167.079 170.531 167.507C170.254 167.079 169.933 166.713 169.568 166.411C168.83 165.806 167.98 165.485 167.016 165.485C165.731 165.466 164.521 165.957 163.576 166.883C162.65 167.791 162.083 169.038 161.97 170.4C161.857 171.798 162.272 173.084 163.293 174.445C164.2 175.655 165.542 176.902 167.111 178.339C167.64 178.831 168.245 179.379 168.868 179.984C169.038 180.135 169.246 180.23 169.492 180.23C169.719 180.23 169.964 180.154 170.153 180.003C170.872 179.417 171.571 178.868 172.176 178.396C173.971 176.997 175.521 175.787 176.617 174.596C177.846 173.254 178.488 171.987 178.602 170.589C178.715 169.227 178.337 167.961 177.562 167.035Z" fill="white"/>
<path d="M191.528 180.267H188.145L188.901 169.568L185.5 170.532L185.689 167.98L192.228 165.787H192.549L191.528 180.267Z" fill="white"/>
<path fill-rule="evenodd" clip-rule="evenodd" d="M133.771 282.026C128.045 282.026 123.358 277.357 123.358 271.61C123.358 265.883 128.045 261.194 133.771 261.194C139.517 261.194 144.185 265.883 144.185 271.61C144.185 277.357 139.517 282.026 133.771 282.026ZM133.771 262.045C128.498 262.045 124.189 266.336 124.189 271.61C124.189 276.904 128.498 281.195 133.771 281.195C139.063 281.195 143.353 276.904 143.353 271.61C143.353 266.336 139.063 262.045 133.771 262.045Z" fill="black"/>
<path fill-rule="evenodd" clip-rule="evenodd" d="M164.049 282.31C158.303 282.31 153.635 277.641 153.635 271.894C153.635 266.147 158.303 261.478 164.049 261.478C169.794 261.478 174.463 266.147 174.463 271.894C174.463 277.641 169.794 282.31 164.049 282.31ZM164.049 262.31C158.776 262.31 154.467 266.62 154.467 271.894C154.467 277.187 158.776 281.478 164.049 281.478C169.341 281.478 173.631 277.187 173.631 271.894C173.631 266.62 169.341 262.31 164.049 262.31Z" fill="black"/>
<path fill-rule="evenodd" clip-rule="evenodd" d="M193.494 282.178C187.749 282.178 183.08 277.509 183.08 271.762C183.08 266.015 187.749 261.346 193.494 261.346C199.239 261.346 203.908 266.015 203.908 271.762C203.908 277.509 199.239 282.178 193.494 282.178ZM193.494 262.178C188.202 262.178 183.912 266.469 183.912 271.762C183.912 277.036 188.202 281.346 193.494 281.346C198.767 281.346 203.076 277.036 203.076 271.762C203.076 266.469 198.767 262.178 193.494 262.178Z" fill="black"/>
<path d="M147.531 94.0658C147.417 94.0658 147.304 94.028 147.228 93.9335C147.058 93.7633 147.077 93.4987 147.228 93.3474L175.294 67.0144C175.464 66.8443 175.729 66.8632 175.88 67.0333C176.031 67.1846 176.031 67.4492 175.861 67.6193L147.814 93.9524C147.72 94.028 147.625 94.0658 147.531 94.0658Z" fill="black"/>
<path d="M180.189 63.3849C180.094 63.3849 179.981 63.3471 179.886 63.2526C179.735 63.0824 179.735 62.8178 179.905 62.6666L196.348 47.241C196.518 47.0709 196.783 47.0898 196.934 47.2599C197.104 47.4301 197.085 47.6758 196.915 47.846L180.491 63.2715C180.397 63.3471 180.302 63.3849 180.189 63.3849Z" fill="black"/>
<path d="M211.335 87.6574C211.222 87.6574 211.109 87.6196 211.033 87.5251C210.863 87.3549 210.882 87.0903 211.052 86.939L244.353 55.6721C244.523 55.502 244.788 55.5209 244.939 55.691C245.09 55.8612 245.09 56.1258 244.92 56.2771L211.619 87.544C211.543 87.6196 211.43 87.6574 211.335 87.6574Z" fill="black"/>
<path d="M235.905 118.49C235.792 118.49 235.678 118.452 235.603 118.357C235.451 118.187 235.451 117.941 235.621 117.771L243.144 110.701C243.314 110.55 243.578 110.55 243.748 110.72C243.9 110.89 243.881 111.155 243.729 111.306L236.188 118.376C236.113 118.452 236.018 118.49 235.905 118.49Z" fill="black"/>
<path d="M246.338 108.716C246.224 108.716 246.111 108.66 246.035 108.584C245.865 108.414 245.884 108.149 246.054 107.998L254.767 99.8126C254.918 99.6424 255.183 99.6613 255.353 99.8315C255.504 100.002 255.504 100.266 255.334 100.417L246.621 108.603C246.527 108.678 246.432 108.716 246.338 108.716Z" fill="black"/>
<path d="M158.038 67.4681C157.925 67.4681 157.812 67.4303 157.736 67.3358C157.566 67.1657 157.585 66.901 157.755 66.7498L180.623 45.2561C180.793 45.1049 181.058 45.1238 181.209 45.275C181.379 45.4452 181.36 45.7098 181.19 45.88L158.322 67.3547C158.246 67.4303 158.133 67.4681 158.038 67.4681Z" fill="black"/>
<path d="M123.774 80.3228C123.66 80.3228 123.547 80.2661 123.471 80.1905C123.32 80.0203 123.32 79.7557 123.49 79.6045L138.005 65.9748C138.175 65.8047 138.44 65.8236 138.591 65.9937C138.761 66.1449 138.742 66.4096 138.572 66.5797L124.057 80.2094C123.982 80.285 123.887 80.3228 123.774 80.3228Z" fill="black"/>
<path d="M141.313 63.8576C141.199 63.8576 141.086 63.8198 141.01 63.7253C140.84 63.5551 140.859 63.2905 141.029 63.1393L166.052 39.6418C166.222 39.4906 166.487 39.4906 166.638 39.6607C166.789 39.8308 166.789 40.0955 166.619 40.2467L141.596 63.7442C141.52 63.8198 141.407 63.8576 141.313 63.8576Z" fill="black"/>
<path d="M65.0716 318.7L62.0288 338.681L54.658 334.919L56.7558 314.995L65.0716 318.7Z" fill="white"/>
<path fill-rule="evenodd" clip-rule="evenodd" d="M62.0287 339.097C61.9657 339.097 61.9027 339.078 61.8397 339.04L54.4688 335.297C54.3176 335.222 54.2231 335.052 54.242 334.882L56.3399 314.938C56.3588 314.806 56.4344 314.692 56.5478 314.636C56.6612 314.56 56.8124 314.56 56.9258 314.617L65.2416 318.322C65.4117 318.397 65.5062 318.568 65.4873 318.757L62.4444 338.738C62.4255 338.87 62.331 338.984 62.2177 339.04C62.1547 339.078 62.0917 339.097 62.0287 339.097ZM55.0925 334.693L61.7074 338.039L64.6179 318.946L57.1148 315.6L55.0925 334.693Z" fill="black"/>
<path d="M63.9186 331.12C64.7691 333.048 65.5628 336.678 66.3755 341.441C66.7535 343.691 64.9958 345.732 62.6901 345.732H35.5503C33.6981 345.732 32.8098 343.464 34.2084 342.216C39.5948 337.453 47.8728 332.159 54.998 329.059L57.7195 332.897C57.7195 332.897 63.6918 330.572 63.9186 331.12Z" fill="white"/>
<path fill-rule="evenodd" clip-rule="evenodd" d="M62.6899 346.148H35.5501C34.5295 346.148 33.6224 345.524 33.2633 344.579C32.9042 343.615 33.1499 342.594 33.9247 341.914C39.4245 337.037 47.8348 331.725 54.8277 328.681C55.0167 328.587 55.2246 328.643 55.338 328.813L57.8705 332.386C63.9184 330.061 64.1452 330.59 64.3153 330.95C65.0902 332.745 65.884 336.054 66.7911 341.366C66.9801 342.538 66.6588 343.747 65.884 344.674C65.0902 345.6 63.9184 346.148 62.6899 346.148ZM54.8655 329.57C47.986 332.613 39.8403 337.793 34.4728 342.538C33.868 343.067 33.8492 343.785 34.0381 344.277C34.2271 344.787 34.7374 345.316 35.5501 345.316H62.6899C63.6727 345.316 64.6177 344.882 65.2414 344.126C65.8651 343.388 66.1296 342.443 65.9596 341.498C65.1091 336.432 64.3531 333.218 63.616 331.46C62.8978 331.479 60.1763 332.386 57.8705 333.294C57.7004 333.35 57.4925 333.294 57.3791 333.142L54.8655 329.57Z" fill="black"/>
<path d="M62.3875 343.067H38.1393C37.8936 343.067 37.7235 342.878 37.7235 342.651C37.7235 342.405 37.8936 342.216 38.1393 342.216H62.3875C62.6143 342.216 62.8033 342.405 62.8033 342.651C62.8033 342.878 62.6143 343.067 62.3875 343.067Z" fill="black"/>
<path d="M51.653 338.076C51.5018 338.076 51.3695 338.001 51.2939 337.868L48.4968 333.142C48.3834 332.953 48.44 332.689 48.6479 332.575C48.8369 332.462 49.1015 332.538 49.2149 332.727L51.9932 337.453C52.1255 337.642 52.0499 337.906 51.8609 338.02C51.7853 338.058 51.716 338.076 51.653 338.076Z" fill="black"/>
<path d="M47.5702 338.757C47.419 338.757 47.2678 338.681 47.1922 338.549L45.3968 335.316C45.2834 335.127 45.359 334.863 45.548 334.749C45.7559 334.636 46.0016 334.711 46.115 334.919L47.9293 338.152C48.0427 338.341 47.9671 338.606 47.7592 338.719C47.6962 338.757 47.6332 338.769 47.5702 338.757Z" fill="black"/>
<path d="M71.0436 278.378C72.9714 277.546 76.619 276.771 81.3628 275.996C83.6119 275.618 85.653 277.395 85.6341 279.701L85.4829 306.847C85.4829 308.719 83.1961 309.569 81.9676 308.171C77.2238 302.764 71.9886 294.446 68.9269 287.301L72.7824 284.597C72.7824 284.597 70.4955 278.624 71.0436 278.378Z" fill="white"/>
<path fill-rule="evenodd" clip-rule="evenodd" d="M83.4609 309.286C82.7805 309.286 82.1379 309.002 81.6654 308.454C76.8271 302.915 71.5542 294.484 68.5491 287.471C68.4546 287.282 68.5302 287.074 68.6814 286.96L72.2723 284.446C69.9855 278.378 70.5147 278.151 70.8738 278C72.6692 277.225 75.9956 276.45 81.2874 275.58C82.4781 275.391 83.6877 275.732 84.5949 276.507C85.5399 277.301 86.069 278.473 86.0501 279.72L85.8989 306.847C85.8989 307.868 85.2753 308.775 84.3114 309.135C84.0342 309.235 83.7507 309.286 83.4609 309.286ZM69.4374 287.452C72.4424 294.333 77.5831 302.518 82.2891 307.906C82.8183 308.511 83.5365 308.53 84.0279 308.36C84.5193 308.171 85.0674 307.66 85.0674 306.847L85.2186 279.701C85.2375 278.718 84.8028 277.773 84.0468 277.13C83.3286 276.526 82.3647 276.242 81.4386 276.412C76.3547 277.244 73.1417 277.962 71.3652 278.699C71.403 279.418 72.2912 282.14 73.1795 284.446C73.2362 284.616 73.1795 284.824 73.0283 284.938L69.4374 287.452Z" fill="black"/>
<path d="M82.4212 304.673C82.4086 304.673 82.4023 304.673 82.4023 304.673C82.1756 304.673 81.9866 304.484 82.0055 304.238L82.1378 279.985C82.1378 279.758 82.3456 279.569 82.5535 279.569C82.7803 279.569 82.9693 279.758 82.9693 279.985L82.837 304.257C82.837 304.484 82.648 304.673 82.4212 304.673Z" fill="black"/>
<path d="M72.7826 293.879C72.6314 293.879 72.4991 293.804 72.4235 293.671C72.2912 293.482 72.3668 293.218 72.5558 293.104L77.2996 290.344C77.5075 290.231 77.7532 290.306 77.8666 290.495C77.98 290.703 77.9233 290.949 77.7154 291.062L72.9905 293.822C72.9149 293.86 72.8456 293.879 72.7826 293.879Z" fill="black"/>
<path d="M74.9369 296.998C74.7857 296.998 74.6345 296.923 74.5589 296.771C74.4644 296.582 74.5211 296.318 74.729 296.223L77.9798 294.427C78.1688 294.314 78.4334 294.39 78.5468 294.598C78.6413 294.787 78.5846 295.051 78.3767 295.165L75.1259 296.942C75.0629 296.979 74.9999 296.998 74.9369 296.998Z" fill="black"/>
<path d="M48.5346 191.08C48.5346 191.08 26.252 221.156 19.2402 240.93C17.8983 244.691 18.9378 248.869 21.8673 251.591C30.0319 259.153 47.4762 275.127 58.6837 284.049L62.0289 275.561C62.0289 275.561 57.9844 255.882 42.808 247.017L61.632 218.925L65.7899 197.073L48.5346 191.08Z" fill="#FF6701"/>
<path d="M69.7209 196.279C76.3735 197.489 80.8905 203.727 79.9266 210.419C77.8288 225.05 74.5214 248.85 73.8788 256.865C72.9527 268.756 75.3529 281.97 75.8065 291.667C76.279 301.384 65.2606 323.936 65.2606 323.936L54.6579 323.218L52.6923 212.763L49.8385 192.517L69.7209 196.279Z" fill="#FF6701"/>
<path d="M53.3915 283.104C53.1648 283.104 52.9758 282.915 52.9758 282.688L52.6923 265.202C52.6923 264.975 52.8813 264.786 53.1081 264.786C53.3159 264.786 53.5238 264.956 53.5238 265.202L53.8073 282.669C53.8073 282.896 53.6372 283.085 53.3915 283.104Z" fill="white"/>
<path d="M52.5224 234.861C52.2956 234.861 52.1255 234.672 52.1066 234.446L52.0688 226.487C52.0499 223.387 50.5379 220.457 48.0243 218.642L47.4762 218.264C47.2872 218.113 47.2494 217.867 47.3817 217.678C47.514 217.489 47.7786 217.451 47.9676 217.583L48.5156 217.98C51.2372 219.927 52.8814 223.122 52.9003 226.468L52.957 234.427C52.957 234.672 52.7681 234.843 52.5413 234.861C52.5413 234.861 52.535 234.861 52.5224 234.861Z" fill="white"/>
<path d="M50.2163 113.839C54.1285 109.586 59.9685 108.697 64.3532 109.888C69.8908 111.401 72.6879 116.202 74.6723 119.605C78.1499 125.579 76.4678 127.753 79.2082 131.231C84.0654 137.393 91.682 133.537 97.5976 138.036C106.632 144.898 107.86 168.188 95.632 177.054C87.4863 182.971 76.4111 179.549 73.4061 178.623C64.2398 175.787 52.8622 167.904 51.2369 157.224C49.8761 148.395 55.6972 141.042 50.8211 133.632C49.5926 131.741 48.5531 131.231 47.6459 128.887C46.1529 125.049 45.8127 118.603 50.2163 113.839Z" fill="black"/>
<path d="M62.0474 114.879C59.9496 113.197 61.2725 108.206 62.6144 105.522C63.1058 104.501 65.3548 99.9828 68.2843 100.172C71.3082 100.342 74.1998 105.427 73.1226 109.435C71.7807 114.463 64.4855 116.864 62.0474 114.879Z" fill="black"/>
<path d="M23.9081 156.486L16.1404 156.524L6.72839 139.983L14.3827 139.927L23.9081 156.486Z" fill="black"/>
<path d="M53.6372 146.467C48.6288 146.599 43.2803 158.792 31.3357 166.656C30.1073 167.469 28.7087 167.961 27.5747 167.035C23.7192 163.896 15.8381 157.091 14.5718 152.762C14.3261 151.893 13.8725 146.675 12.1148 144.501C10.9998 143.14 10.0359 144.747 10.0359 144.747C10.0359 144.747 4.8196 151.836 10.5084 156.259C11.3589 156.921 12.0392 157.791 12.5306 158.755C14.6474 163.121 21.4323 174.615 24.4752 178.169C28.463 182.838 29.9372 182.668 33.925 180.551L52.2009 169.776C52.2009 169.776 57.0203 146.373 53.6372 146.467Z" fill="white"/>
<path fill-rule="evenodd" clip-rule="evenodd" d="M29.8429 182.384C28.0853 182.384 26.5544 181.231 24.1541 178.452C21.0168 174.785 14.1752 163.121 12.1529 158.944C11.6993 158.017 11.0378 157.205 10.2629 156.6C4.30957 151.968 9.63926 144.577 9.69596 144.501C9.73376 144.426 10.2629 143.594 11.0945 143.537C11.567 143.518 12.0206 143.745 12.4364 144.237C13.8728 146.014 14.4587 149.624 14.7799 151.552C14.8555 152.044 14.9311 152.479 14.9689 152.649C16.2352 156.921 24.3809 163.897 27.8207 166.694C28.6333 167.356 29.7106 167.224 31.1092 166.297C37.1193 162.327 41.4662 157.261 44.9437 153.197C48.4401 149.095 50.9727 146.127 53.6186 146.051C53.9777 146.032 54.2801 146.184 54.5258 146.467C56.7748 149.17 53.0516 167.753 52.6169 169.851C52.5791 169.965 52.5224 170.078 52.409 170.135L34.152 180.91C32.3755 181.836 31.0714 182.384 29.8429 182.384ZM11.1701 144.369C11.1701 144.369 11.1638 144.369 11.1512 144.369C10.811 144.388 10.4708 144.823 10.3763 144.955C10.1684 145.276 5.46245 151.817 10.7732 155.938C11.6615 156.619 12.3986 157.545 12.89 158.585C14.9122 162.724 21.6972 174.275 24.7967 177.904C28.7467 182.536 30.013 182.158 33.7362 180.173L51.8232 169.511C53.4863 161.382 55.3952 148.811 53.8832 147.015C53.7887 146.902 53.7131 146.883 53.6564 146.883C51.3696 146.94 48.8181 149.945 45.5674 153.745C42.0521 157.847 37.6863 162.97 31.5628 166.997C29.8429 168.131 28.4066 168.244 27.3104 167.356C22.9446 163.802 15.4603 157.223 14.1752 152.876C14.1185 152.668 14.0429 152.252 13.9673 151.685C13.6649 149.832 13.0979 146.373 11.7938 144.766C11.5796 144.501 11.3717 144.369 11.1701 144.369Z" fill="black"/>
<path d="M82.5725 145.919C82.5725 145.919 68.9648 138.471 53.1837 144.804C52.1631 145.22 51.5205 146.259 51.615 147.356C51.7473 148.849 51.5583 151.155 49.8196 153.575C43.1102 162.951 47.1358 166.864 45.964 171.534C43.6205 181.004 41.3336 186.959 36.4197 199.511C34.5865 204.256 42.1085 204.256 48.4966 203.235C54.9035 202.215 70.628 202.233 77.2051 205.844C83.801 209.474 84.4814 200.608 83.7254 194.691C82.9883 188.774 82.5725 145.919 82.5725 145.919Z" fill="white"/>
<path fill-rule="evenodd" clip-rule="evenodd" d="M79.9644 207.111C79.0824 207.111 78.0996 206.815 77.0161 206.222C70.5335 202.649 54.828 202.649 48.5722 203.651C44.8112 204.256 38.2341 204.899 36.2875 202.46C35.626 201.666 35.5504 200.627 36.0418 199.36C40.8045 187.148 43.2047 181.004 45.5672 171.439C45.9073 170.021 45.775 168.698 45.605 167.167C45.2459 163.915 44.8112 159.87 49.4794 153.329C51.1425 151.023 51.3315 148.83 51.1992 147.394C51.0858 146.108 51.8229 144.898 53.0325 144.426C68.7948 138.074 82.6292 145.484 82.7615 145.56C82.8938 145.617 82.9883 145.768 82.9883 145.919C82.9883 146.335 83.423 188.812 84.1412 194.634C84.7271 199.247 84.4247 204.786 81.8355 206.544C81.2811 206.922 80.6574 207.111 79.9644 207.111ZM57.7952 202.233C64.8069 202.233 73.0094 203.065 77.413 205.485C79.0572 206.392 80.3991 206.525 81.363 205.863C83.6498 204.313 83.8388 198.906 83.3285 194.748C82.6104 189.039 82.1946 150.04 82.1568 146.165C80.3613 145.276 67.6797 139.435 53.3349 145.201C52.4844 145.541 51.9552 146.392 52.0308 147.318C52.182 148.887 51.9741 151.307 50.1598 153.821C45.6616 160.097 46.0774 163.802 46.4365 167.072C46.6066 168.623 46.7578 170.078 46.3798 171.628C43.9985 181.269 41.5982 187.413 36.8166 199.663C36.4387 200.646 36.4764 201.383 36.93 201.95C38.1396 203.462 42.4487 203.784 48.4399 202.82C50.7078 202.46 54.0909 202.233 57.7952 202.233Z" fill="black"/>
<path d="M78.7172 181.269L63.6731 172.309C61.821 171.193 59.5719 170.986 57.5497 171.742L50.5001 174.369C49.3661 174.785 49.5929 176.43 50.8025 176.543C51.2183 176.581 51.7097 176.562 52.2578 176.411C53.8831 175.995 56.0944 176.033 57.6631 177.337C58.5325 178.037 59.553 177.98 60.309 177.772C61.0272 177.583 61.7832 177.867 62.2179 178.471C65.2418 182.63 76.1658 196.733 85.9747 197.073C95.3111 197.394 92.2871 166.694 89.2254 152.233C88.6206 149.416 85.5022 147.053 82.8184 146.032L79.3598 144.709L81.1364 179.833C81.1931 181.099 79.8134 181.931 78.7172 181.269Z" fill="white"/>
<path fill-rule="evenodd" clip-rule="evenodd" d="M86.1068 197.489C86.0564 197.489 86.006 197.489 85.9556 197.489C75.9955 197.129 65.0149 183.027 61.8964 178.717C61.5373 178.245 60.9703 178.037 60.4223 178.188C59.2505 178.49 58.211 178.301 57.4172 177.659C55.5651 176.146 53.0892 176.638 52.371 176.808C51.804 176.959 51.256 177.016 50.7646 176.959C50.0275 176.902 49.4605 176.354 49.366 175.617C49.2715 174.899 49.6684 174.237 50.3488 173.972L57.4172 171.345C59.5529 170.551 61.9153 170.778 63.8809 171.95L78.9439 180.91C79.3218 181.137 79.7754 181.137 80.1534 180.91C80.5314 180.683 80.7393 180.286 80.7204 179.851L78.9439 144.728C78.9439 144.596 79.0005 144.463 79.1139 144.369C79.2273 144.293 79.3785 144.274 79.5108 144.331L82.9506 145.635C85.7288 146.694 88.9984 149.17 89.6221 152.138C92.0413 163.462 95.1786 189.039 89.4898 195.806C88.5637 196.921 87.4298 197.489 86.1068 197.489ZM60.7624 177.299C61.4617 177.299 62.1232 177.64 62.5579 178.226C65.6385 182.46 76.4113 196.317 85.9745 196.657C87.1085 196.695 88.0535 196.241 88.8472 195.277C93.7989 189.36 91.7578 166.146 88.8094 152.327C88.2424 149.662 85.2185 147.393 82.6671 146.41L79.8132 145.333L81.552 179.814C81.5898 180.57 81.2118 181.25 80.5692 181.628C79.9266 182.025 79.1517 182.025 78.5092 181.628L63.4651 172.668C61.7074 171.609 59.6096 171.42 57.7007 172.139L50.6512 174.747C50.2543 174.899 50.1598 175.239 50.1787 175.503C50.2165 175.787 50.4055 176.089 50.8402 176.127C51.2371 176.165 51.6906 176.127 52.1631 176.014C52.9758 175.806 55.7919 175.258 57.9275 177.016C58.5323 177.488 59.2883 177.621 60.1955 177.375C60.3845 177.325 60.5734 177.299 60.7624 177.299Z" fill="black"/>
<path d="M58.4187 135.541C57.4926 135.994 56.3586 135.843 55.6404 135.106C54.771 134.255 54.0718 133.348 53.5237 132.422L52.4464 132.441C52.1062 132.441 51.8227 132.176 51.8038 131.836L51.6148 127.658C49.1579 123.65 51.1045 121.495 51.1045 121.495C52.3141 119.359 56.5098 118.187 59.3825 122.176C60.3842 123.556 61.9529 122.535 62.8034 121.779C63.1436 121.476 63.427 121.117 63.6538 120.701C64.2208 119.643 65.6572 117.45 66.8101 119.51C69.2481 123.953 65.7139 127.431 65.7139 127.431L68.3031 138.414C68.889 140.947 70.7034 143.027 73.1414 143.953L75.6173 144.917C75.6173 144.917 71.7429 157.583 60.7811 157.337C52.4275 157.167 56.0373 145.862 56.0373 145.862L57.1335 145.39C60.0062 144.123 61.5749 140.985 60.8756 137.923L60.1574 134.671L58.4187 135.541Z" fill="white"/>
<path fill-rule="evenodd" clip-rule="evenodd" d="M61.0837 157.772C60.9829 157.772 60.8821 157.765 60.7813 157.753C58.6646 157.715 57.077 156.978 56.0753 155.579C53.6373 152.157 55.5461 145.995 55.6406 145.749C55.6784 145.635 55.754 145.541 55.8674 145.484L56.9636 144.993C59.6474 143.821 61.1215 140.872 60.4789 138.017L59.8553 135.276L58.6079 135.919C57.5117 136.467 56.1887 136.259 55.3382 135.408C54.5634 134.633 53.883 133.783 53.2971 132.838L52.4466 132.856C51.8985 132.856 51.4071 132.422 51.3882 131.855L51.2181 127.79C48.8368 123.839 50.4811 121.571 50.7645 121.249C51.4638 120.04 52.9569 119.208 54.5445 119.132C55.6784 119.057 57.8708 119.359 59.723 121.93C59.9497 122.232 60.1954 122.403 60.4978 122.44C61.027 122.497 61.7452 122.157 62.5201 121.476C62.8099 121.224 63.0619 120.903 63.2761 120.512C63.8431 119.473 64.7124 118.244 65.733 118.244C66.2811 118.244 66.7725 118.603 67.1694 119.321C69.4184 123.405 66.867 126.75 66.1677 127.563L68.7003 138.32C69.2672 140.72 70.9871 142.686 73.274 143.575L75.7498 144.52C75.9577 144.596 76.0711 144.823 76.0144 145.03C75.9766 145.163 71.9888 157.772 61.0837 157.772ZM56.3777 146.165C56.0942 147.186 54.7713 152.308 56.7557 155.087C57.5873 156.278 58.9481 156.883 60.8002 156.921C60.8884 156.934 60.9829 156.94 61.0837 156.94C70.3634 156.94 74.3512 147.186 75.0883 145.163L72.9905 144.35C70.4201 143.367 68.5113 141.193 67.8876 138.509L65.3172 127.526C65.2794 127.393 65.3172 127.242 65.4306 127.147C65.5629 127.015 68.7003 123.82 66.4323 119.718C66.2811 119.435 66.0165 119.076 65.733 119.076C65.2794 119.076 64.6179 119.775 64.0132 120.909C63.7486 121.382 63.4273 121.779 63.0682 122.1C62.3878 122.686 61.3861 123.367 60.4033 123.253C59.8553 123.197 59.4017 122.913 59.0426 122.422C57.8519 120.739 56.2643 119.869 54.5823 119.964C53.2593 120.021 52.0308 120.701 51.4638 121.703C51.4512 121.728 51.4323 121.754 51.4071 121.779C51.3315 121.854 49.7251 123.764 51.9741 127.431C52.0119 127.494 52.0308 127.563 52.0308 127.639L52.2198 131.817C52.2198 131.93 52.3332 132.025 52.4466 132.025L53.505 132.006C53.6562 132.006 53.7885 132.081 53.8641 132.195C54.45 133.159 55.1492 134.047 55.9241 134.822C56.5289 135.408 57.455 135.56 58.2299 135.163L59.9686 134.293C60.082 134.236 60.2143 134.236 60.3277 134.293C60.4411 134.35 60.5356 134.444 60.5545 134.577L61.2916 137.828C62.0287 141.08 60.3466 144.426 57.3038 145.768L56.3777 146.165Z" fill="black"/>
<path d="M59.0045 136.41C58.8533 136.41 58.7021 136.316 58.6265 136.165C58.532 135.957 58.6076 135.711 58.8155 135.616C61.6694 134.236 62.0285 130.512 62.0285 130.475C62.0474 130.248 62.2552 130.078 62.482 130.096C62.7088 130.115 62.8789 130.323 62.86 130.55C62.8411 130.72 62.4442 134.766 59.1935 136.354C59.1305 136.391 59.0675 136.41 59.0045 136.41Z" fill="black"/>
<path d="M92.457 35.2183C97.1252 58.5456 82.0244 81.249 58.7023 85.9183C35.3991 90.6064 12.7007 75.5023 8.0136 52.175C3.3454 28.8477 18.4462 6.16309 41.7494 1.47494C65.0715 -3.21321 87.7699 11.8909 92.457 35.2183Z" fill="white"/>
<path fill-rule="evenodd" clip-rule="evenodd" d="M50.1406 87.2038C41.6547 87.2038 33.3578 84.7085 26.1382 79.9069C16.4805 73.4607 9.90341 63.6496 7.61656 52.2506C5.32971 40.8705 7.61656 29.2636 14.0424 19.6037C20.4683 9.92497 30.2961 3.34644 41.6736 1.05908C65.1847 -3.64797 88.1477 11.6263 92.8537 35.1427C95.1406 46.5228 92.8537 58.1297 86.4279 67.7896C79.9831 77.4683 70.1742 84.0469 58.7967 86.3342C55.905 86.9202 53.0134 87.2038 50.1406 87.2038ZM50.254 1.04017C47.4758 1.04017 44.6598 1.32373 41.8437 1.87194C30.6741 4.1215 21.0542 10.5866 14.7417 20.0574C8.42924 29.5471 6.18019 40.9272 8.42924 52.0994C10.6594 63.2715 17.1231 72.8936 26.6107 79.2075C36.0793 85.5213 47.4569 87.752 58.6266 85.5213C69.7962 83.2718 79.4161 76.8067 85.7286 67.3359C92.041 57.8462 94.2901 46.4661 92.041 35.2939C87.9776 15.0668 70.1364 1.04017 50.254 1.04017Z" fill="black"/>
<path d="M88.2422 36.0878C92.4757 57.1089 78.8491 77.5817 57.8328 81.7973C36.7975 86.0128 16.3292 72.4021 12.1146 51.3621C7.90003 30.3411 21.5077 9.86825 42.543 5.6527C63.5593 1.41824 84.0276 15.0479 88.2422 36.0878Z" fill="white"/>
<path fill-rule="evenodd" clip-rule="evenodd" d="M50.1031 82.9882C42.4488 82.9882 34.9645 80.7386 28.4442 76.3907C19.7126 70.5872 13.7781 61.7214 11.6991 51.4566C9.63907 41.1729 11.6991 30.7002 17.5202 21.9666C23.3224 13.252 32.1863 7.29726 42.4488 5.23674C52.7301 3.17623 63.2005 5.23674 71.9321 11.0402C80.6448 16.8626 86.5982 25.7096 88.6583 35.9933C90.7183 46.2769 88.6583 56.7497 82.8561 65.4643C77.035 74.1979 68.19 80.1526 57.9086 82.2131C55.3005 82.7235 52.6923 82.9882 50.1031 82.9882ZM50.2543 5.29345C47.7217 5.29345 45.1703 5.5392 42.6189 6.04961C32.5643 8.07232 23.8894 13.8947 18.2006 22.4392C12.5307 30.9837 10.5085 41.2296 12.5307 51.2865C14.5341 61.3433 20.3551 70.0201 28.8978 75.7102C37.4404 81.3813 47.6839 83.404 57.7385 81.3813C67.7931 79.3775 76.468 73.5551 82.1568 65.0106C87.8456 56.4661 89.8678 46.2202 87.8456 36.1634C85.8233 26.1066 80.0023 17.4297 71.4596 11.7397C65.0905 7.4863 57.7574 5.29345 50.2543 5.29345Z" fill="black"/>
<path d="M84.5568 58.4321C84.5064 58.4321 84.456 58.4195 84.4056 58.3943C84.1977 58.3187 84.0843 58.073 84.1788 57.865C84.9537 56.0313 85.5585 54.1221 86.031 52.1939C86.0688 51.9859 86.2956 51.8347 86.5224 51.8914C86.7492 51.9481 86.8815 52.175 86.8248 52.4018C86.3712 54.3678 85.7286 56.3149 84.9537 58.1864C84.8781 58.3376 84.7269 58.4321 84.5568 58.4321Z" fill="black"/>
<path d="M87.392 42.2694C87.1652 42.2694 86.9762 42.0993 86.9762 41.8724C86.8817 40.0765 86.6549 38.2429 86.2958 36.4659C83.5364 22.7228 72.9905 11.5885 59.4206 8.07239C59.2127 8.01568 59.0804 7.78884 59.1371 7.56199C59.1938 7.33514 59.4206 7.20282 59.6285 7.25953C66.3756 9.01758 72.4991 12.5904 77.3374 17.6188C82.308 22.7796 85.691 29.2258 87.1085 36.2958C87.4676 38.1295 87.7132 39.982 87.8077 41.8346C87.8077 42.0615 87.6376 42.2694 87.4109 42.2694C87.3983 42.2694 87.392 42.2694 87.392 42.2694Z" fill="black"/>
<path d="M34.0762 10.6055C33.925 10.6055 33.7738 10.511 33.6982 10.3598C33.6037 10.1518 33.6982 9.90607 33.9061 9.81155C36.7221 8.45048 39.7272 7.44858 42.8267 6.82475C45.5672 6.25764 48.3643 6.01189 51.1236 6.0875C51.3693 6.0875 51.5394 6.27654 51.5394 6.50339C51.5394 6.73023 51.3315 6.93817 51.1047 6.91927C48.4021 6.86256 45.6806 7.0894 42.9968 7.63761C39.954 8.24254 37.0245 9.22554 34.2652 10.5488C34.2022 10.5866 34.1392 10.6055 34.0762 10.6055Z" fill="black"/>
<path d="M13.9102 36.1256C13.8724 36.1256 13.8409 36.1193 13.8157 36.1067C13.5889 36.0689 13.4377 35.842 13.4944 35.6152C14.4583 31.2295 16.197 27.0707 18.654 23.2899C18.7674 23.082 19.032 23.0253 19.221 23.1576C19.4099 23.2899 19.4666 23.5357 19.3533 23.7247C16.953 27.4487 15.252 31.4942 14.3071 35.7853C14.2693 35.9933 14.0992 36.1256 13.9102 36.1256Z" fill="black"/>
<path d="M36.93 78.8672C36.8796 78.8672 36.8292 78.8546 36.7788 78.8294C33.2635 77.4872 29.975 75.6158 27.0077 73.2906C26.8376 73.1583 26.7998 72.8936 26.951 72.7046C27.0833 72.5344 27.3479 72.4966 27.5369 72.629C30.4286 74.9163 33.6415 76.7311 37.0812 78.0543C37.2891 78.13 37.4025 78.3757 37.3269 78.6026C37.2513 78.7538 37.1001 78.8672 36.93 78.8672Z" fill="black"/>
<path d="M78.5656 26.4279C71.5161 14.8588 57.7572 8.35587 43.6959 11.1725C43.6833 11.1725 43.6707 11.1725 43.6581 11.1725L50.1028 43.0822L78.5656 26.4279Z" fill="white"/>
<path fill-rule="evenodd" clip-rule="evenodd" d="M50.103 43.4981C50.0526 43.4981 49.9959 43.4855 49.9329 43.4603C49.8195 43.4036 49.725 43.2902 49.7061 43.1578L43.2613 11.2671C43.2046 11.0403 43.3558 10.8134 43.5826 10.7756L43.6204 10.7567C57.4171 7.99674 71.5918 14.1972 78.9249 26.2011C78.9816 26.2956 79.0005 26.4091 78.9627 26.5225C78.9438 26.6359 78.8682 26.7304 78.7737 26.7871L50.3109 43.4414C50.2479 43.4792 50.1786 43.4981 50.103 43.4981ZM44.1496 11.5129L50.4054 42.4206L77.9799 26.2767C70.8547 14.9155 57.3415 9.01755 44.1496 11.5129Z" fill="black"/>
<path d="M45.6615 10.6244C45.8883 11.7208 45.1701 12.7983 44.074 13.0063C42.9778 13.2331 41.9194 12.5148 41.6926 11.4183C41.4658 10.3219 42.184 9.2633 43.2802 9.03646C44.3764 8.82851 45.4347 9.52795 45.6615 10.6244Z" fill="white"/>
<path fill-rule="evenodd" clip-rule="evenodd" d="M43.6771 13.4599C42.5431 13.4599 41.5225 12.6659 41.2769 11.5128C41.1635 10.8701 41.2769 10.2084 41.6359 9.67914C42.0139 9.13093 42.562 8.75286 43.2046 8.63943C43.8283 8.50711 44.4898 8.63943 45.019 8.99861C45.5671 9.35778 45.9451 9.90599 46.0773 10.5487C46.3419 11.872 45.4726 13.1574 44.1496 13.4221C43.9984 13.4473 43.8409 13.4599 43.6771 13.4599ZM43.6771 9.41449C43.5763 9.41449 43.4692 9.42709 43.3558 9.4523C42.94 9.52791 42.5809 9.77366 42.3352 10.1328C42.1084 10.492 42.0139 10.9268 42.1084 11.3427C42.2785 12.2123 43.129 12.7794 43.9984 12.6092C44.4142 12.5147 44.7733 12.269 45.019 11.9098C45.2458 11.5506 45.3403 11.1347 45.2458 10.6999C45.1702 10.2841 44.9245 9.92489 44.5654 9.67914C44.3008 9.50901 43.9984 9.41449 43.6771 9.41449Z" fill="black"/>
<path d="M58.7777 75.9748C59.0045 77.0712 58.2864 78.1299 57.1902 78.3567C56.094 78.5835 55.0356 77.8652 54.8088 76.7688C54.582 75.6724 55.3002 74.6137 56.3964 74.3869C57.4926 74.1601 58.5509 74.8784 58.7777 75.9748Z" fill="white"/>
<path fill-rule="evenodd" clip-rule="evenodd" d="M56.7935 78.8104C55.6595 78.8104 54.639 78.0165 54.3933 76.8444C54.1287 75.5401 54.9981 74.2357 56.321 73.971C57.6251 73.7064 58.9292 74.576 59.1938 75.8992C59.4584 77.2036 58.589 78.508 57.266 78.7726C57.1022 78.7978 56.9447 78.8104 56.7935 78.8104ZM56.7935 74.765C56.6927 74.765 56.5856 74.7776 56.4722 74.8028C55.6028 74.9729 55.0359 75.8236 55.2249 76.6932C55.395 77.5628 56.2454 78.1299 57.1148 77.9408C57.9842 77.7707 58.5512 76.92 58.3622 76.0505C58.211 75.2943 57.5495 74.765 56.7935 74.765Z" fill="black"/>
<path d="M17.1612 48.2808C18.2574 48.054 19.3347 48.7723 19.5615 49.8687C19.7694 50.9463 19.0701 52.0238 17.9739 52.2506C16.8777 52.4586 15.8005 51.7591 15.5926 50.6627C15.3658 49.5663 16.0839 48.4888 17.1612 48.2808Z" fill="white"/>
<path fill-rule="evenodd" clip-rule="evenodd" d="M17.577 52.7043C16.4241 52.7043 15.4036 51.8914 15.1768 50.7383C14.9122 49.415 15.7626 48.1295 17.0856 47.8649C18.4086 47.6002 19.6938 48.4509 19.9584 49.7742C20.0907 50.4169 19.9584 51.0596 19.5993 51.6078C19.2402 52.156 18.6921 52.5152 18.0495 52.6475C17.8857 52.6854 17.7282 52.7043 17.577 52.7043ZM17.2557 48.6777C16.3863 48.8479 15.8193 49.6986 15.9894 50.5681C16.1595 51.4377 17.01 52.0048 17.8794 51.8347C18.3141 51.7402 18.6732 51.5133 18.9 51.1541C19.1457 50.795 19.2213 50.3602 19.1457 49.9443C18.9756 49.0747 18.1251 48.5076 17.2557 48.6777Z" fill="black"/>
<path d="M82.4972 35.1615C83.5933 34.9347 84.6706 35.653 84.8785 36.7494C85.1053 37.8458 84.3871 38.9045 83.2909 39.1313C82.1948 39.3392 81.1364 38.6398 80.9096 37.5434C80.7017 36.447 81.401 35.3694 82.4972 35.1615Z" fill="white"/>
<path fill-rule="evenodd" clip-rule="evenodd" d="M82.8937 39.585C82.4212 39.585 81.9487 39.4338 81.5519 39.1692C81.0038 38.81 80.6258 38.2618 80.5124 37.619C80.3801 36.9763 80.5124 36.3336 80.8715 35.7854C81.2306 35.2372 81.7787 34.878 82.4212 34.7457C83.0638 34.6133 83.7064 34.7457 84.2545 35.1048C84.8026 35.464 85.1617 36.0122 85.294 36.655C85.4263 37.2977 85.294 37.9404 84.9349 38.4886C84.5758 39.0368 84.0277 39.396 83.3851 39.5283C83.2213 39.5661 83.0575 39.585 82.8937 39.585ZM82.8937 35.5396C82.7929 35.5396 82.6921 35.5459 82.5913 35.5585C82.1566 35.653 81.7976 35.8988 81.5708 36.2391C81.3251 36.5982 81.2306 37.033 81.3251 37.4489C81.4007 37.8837 81.6464 38.2429 82.0054 38.4697C82.3645 38.7155 82.7992 38.7911 83.215 38.7155C83.6308 38.6398 84.0088 38.3941 84.2356 38.0349C84.4813 37.6758 84.5569 37.241 84.4813 36.8251C84.3868 36.4092 84.1411 36.0311 83.782 35.8043C83.5174 35.6152 83.215 35.5396 82.8937 35.5396Z" fill="black"/>
<path d="M29.0299 17.9779C29.4268 18.4127 29.389 19.0933 28.9354 19.4902C28.4818 19.8872 27.8015 19.8494 27.4046 19.3957C27.0266 18.942 27.0644 18.2615 27.518 17.8834C27.9527 17.4864 28.633 17.5242 29.0299 17.9779Z" fill="white"/>
<path fill-rule="evenodd" clip-rule="evenodd" d="M28.2174 20.1708C28.1922 20.1708 28.1607 20.1708 28.1229 20.1708C27.726 20.1519 27.3669 19.9628 27.1023 19.6604C26.8377 19.3768 26.7054 18.9798 26.7243 18.5828C26.7621 18.1859 26.9322 17.8267 27.2346 17.562C27.537 17.2974 27.915 17.1651 28.3119 17.184C28.7088 17.2218 29.0868 17.3919 29.3514 17.6944C29.616 17.9968 29.7293 18.3749 29.7104 18.7719C29.6915 19.1689 29.5026 19.5469 29.2002 19.8116C28.9356 20.0384 28.5954 20.1708 28.2174 20.1708ZM28.2174 18.0157C28.0662 18.0157 27.915 18.0724 27.7827 18.1859C27.5181 18.4316 27.4803 18.8475 27.726 19.1122C27.8394 19.2445 28.0095 19.339 28.1796 19.339C28.3497 19.3579 28.5198 19.3012 28.6521 19.1878C28.9356 18.942 28.9545 18.5261 28.7088 18.2426C28.5954 18.0913 28.4064 18.0157 28.2174 18.0157Z" fill="black"/>
<path d="M24.513 64.9161C24.9666 64.5191 25.647 64.557 26.025 65.0106C26.4219 65.4454 26.3841 66.126 25.9305 66.523C25.4958 66.9199 24.8154 66.8821 24.4185 66.4284C24.0216 65.9747 24.0594 65.2942 24.513 64.9161Z" fill="white"/>
<path fill-rule="evenodd" clip-rule="evenodd" d="M25.2312 67.2035C24.8154 67.2035 24.3997 67.0334 24.0973 66.6931C23.8327 66.4095 23.7004 66.0126 23.7382 65.6156C23.7571 65.2186 23.9461 64.8594 24.2296 64.5948C24.8532 64.0466 25.7982 64.1033 26.3463 64.7271C26.8944 65.3509 26.8377 66.2961 26.214 66.8443C25.9305 67.0901 25.5714 67.2035 25.2312 67.2035ZM25.2312 65.0485C25.0611 65.0485 24.9099 65.1052 24.7965 65.2186C24.6642 65.332 24.5697 65.5022 24.5697 65.6723C24.5508 65.8424 24.6075 66.0126 24.7209 66.1449C24.9666 66.4284 25.3824 66.4474 25.6659 66.2205C25.9305 65.9748 25.9683 65.5589 25.7226 65.2753C25.5903 65.1241 25.4013 65.0485 25.2312 65.0485Z" fill="black"/>
<path d="M74.5402 20.8703C74.9749 20.4733 75.6553 20.53 76.0522 20.9648C76.449 21.4185 76.4112 22.099 75.9577 22.496C75.5041 22.8741 74.8237 22.8362 74.4268 22.4015C74.0488 21.9478 74.0866 21.2672 74.5402 20.8703Z" fill="white"/>
<path fill-rule="evenodd" clip-rule="evenodd" d="M75.2397 23.1766C74.8239 23.1766 74.4271 23.0064 74.1247 22.6662C73.5766 22.0423 73.6333 21.0971 74.257 20.5678C74.5593 20.3032 74.9373 20.1709 75.3342 20.1898C75.7311 20.2087 76.1091 20.3977 76.3737 20.7002C76.9029 21.3051 76.8462 22.2503 76.2225 22.7985C75.939 23.0442 75.5988 23.1766 75.2397 23.1766ZM75.2397 21.0215C75.0885 21.0215 74.9373 21.0782 74.805 21.1917C74.5404 21.4185 74.5026 21.8533 74.7483 22.118C74.994 22.3826 75.4098 22.4204 75.6744 22.1747C75.9579 21.9289 75.9768 21.513 75.7311 21.2484C75.6177 21.1161 75.4665 21.0404 75.2775 21.0215C75.2649 21.0215 75.2523 21.0215 75.2397 21.0215Z" fill="black"/>
<path d="M19.0134 32.0235C19.5804 32.2126 19.8827 32.8175 19.6938 33.3846C19.5048 33.9517 18.8811 34.2542 18.3141 34.0652C17.766 33.8761 17.4636 33.2712 17.6526 32.7041C17.8416 32.137 18.4464 31.8345 19.0134 32.0235Z" fill="white"/>
<path fill-rule="evenodd" clip-rule="evenodd" d="M18.6728 34.5378C18.509 34.5378 18.3452 34.5126 18.1815 34.4621C17.4066 34.1975 16.9908 33.3468 17.2554 32.5718C17.3877 32.1937 17.6523 31.8723 18.0114 31.7022C18.3516 31.5321 18.7673 31.4942 19.1453 31.6266C19.5233 31.7589 19.8257 32.0235 19.9958 32.3827C20.1848 32.7419 20.2037 33.1389 20.0903 33.517C19.8635 34.1408 19.2965 34.5378 18.6728 34.5378ZM18.6728 32.3827C18.572 32.3827 18.4712 32.4079 18.3704 32.4583C18.2193 32.534 18.1059 32.6663 18.0492 32.8364C17.9925 33.0065 17.9925 33.1767 18.0681 33.3279C18.1437 33.498 18.2949 33.6115 18.446 33.6682C18.6161 33.7249 18.8051 33.706 18.9563 33.6304C19.1264 33.5548 19.2398 33.4224 19.2965 33.2523C19.3532 33.0822 19.3343 32.912 19.2587 32.7419C19.1831 32.5907 19.0508 32.4772 18.8807 32.4205C18.8051 32.3953 18.7358 32.3827 18.6728 32.3827Z" fill="black"/>
<path d="M82.138 53.3282C82.705 53.5172 83.0074 54.141 82.8184 54.7081C82.6294 55.2564 82.0246 55.5588 81.4576 55.3698C80.8906 55.1807 80.5882 54.5758 80.7772 54.0087C80.9662 53.4416 81.5899 53.1391 82.138 53.3282Z" fill="white"/>
<path fill-rule="evenodd" clip-rule="evenodd" d="M81.7978 55.8423C81.6466 55.8423 81.4891 55.8171 81.3253 55.7667C80.5504 55.502 80.1157 54.6514 80.3803 53.8763C80.6449 53.1013 81.4954 52.6665 82.2892 52.9311C82.6483 53.0635 82.9696 53.3281 83.1397 53.6873C83.3098 54.0465 83.3476 54.4623 83.2153 54.8404C83.0074 55.4453 82.4215 55.8423 81.7978 55.8423ZM81.7978 53.6873C81.5332 53.6873 81.2686 53.8763 81.1741 54.141C81.1174 54.3111 81.1363 54.4812 81.2119 54.6514C81.2875 54.8026 81.4198 54.916 81.5899 54.9727C81.76 55.0295 81.9301 55.0295 82.1002 54.9538C82.2514 54.8593 82.3648 54.727 82.4215 54.5569C82.4782 54.4056 82.4782 54.2166 82.4026 54.0654C82.3081 53.8952 82.1758 53.7818 82.0057 53.7251C81.9427 53.6999 81.8734 53.6873 81.7978 53.6873Z" fill="black"/>
<path d="M38.5552 74.9352C38.7441 74.3681 39.3678 74.0656 39.9159 74.2547C40.4829 74.4437 40.7853 75.0486 40.5963 75.6158C40.4073 76.1829 39.8025 76.4853 39.2355 76.2963C38.6685 76.1073 38.3662 75.4834 38.5552 74.9352Z" fill="white"/>
<path fill-rule="evenodd" clip-rule="evenodd" d="M39.5762 76.7689C39.425 76.7689 39.2675 76.7437 39.1037 76.6933C38.3289 76.4286 37.8942 75.578 38.1588 74.8029C38.4234 74.0089 39.2738 73.5931 40.0676 73.8577C40.4456 73.99 40.748 74.2547 40.9181 74.6139C41.0882 74.973 41.126 75.37 40.9937 75.7481C40.7858 76.3719 40.1999 76.7689 39.5762 76.7689ZM38.9526 75.0676C38.8959 75.2377 38.9148 75.4078 38.9904 75.5591C39.066 75.7292 39.1982 75.8426 39.3683 75.8993C39.5384 75.956 39.7085 75.9371 39.8786 75.8615C40.0298 75.7859 40.1432 75.6536 40.1999 75.4834C40.2566 75.3133 40.2566 75.1432 40.181 74.973C40.0865 74.8218 39.9542 74.7084 39.7841 74.6517C39.4439 74.5382 39.066 74.7084 38.9526 75.0676Z" fill="black"/>
<path d="M59.8742 11.7776C60.0632 11.2105 60.6679 10.908 61.2349 11.097C61.8019 11.2861 62.1043 11.9099 61.9153 12.477C61.7263 13.0252 61.1026 13.3277 60.5356 13.1386C59.9876 12.9496 59.6852 12.3447 59.8742 11.7776Z" fill="white"/>
<path fill-rule="evenodd" clip-rule="evenodd" d="M60.8949 13.6112C60.7311 13.6112 60.5673 13.586 60.4035 13.5356C59.6286 13.271 59.2128 12.4203 59.4774 11.6452C59.742 10.8702 60.5925 10.4543 61.3674 10.7C62.1423 10.9647 62.5581 11.8154 62.3124 12.6093C62.0856 13.2332 61.5186 13.6112 60.8949 13.6112ZM60.8949 11.4562C60.7941 11.4562 60.6933 11.4814 60.5925 11.5318C60.4413 11.6074 60.309 11.7398 60.2712 11.9099C60.2145 12.08 60.2145 12.2502 60.2901 12.4203C60.3657 12.5715 60.5169 12.6849 60.6681 12.7417C60.8382 12.7984 61.0272 12.7984 61.1784 12.7228C61.3296 12.6282 61.4619 12.4959 61.5186 12.3258C61.5753 12.1745 61.5564 11.9855 61.4808 11.8343C61.4052 11.6641 61.2729 11.5507 61.1028 11.494C61.0272 11.4688 60.9579 11.4562 60.8949 11.4562Z" fill="black"/>
<path d="M71.3274 68.8671C71.5164 68.3 72.1212 67.9975 72.6881 68.1866C73.2551 68.3756 73.5575 68.9805 73.3685 69.5476C73.1795 70.1148 72.5558 70.4172 72.0078 70.2282C71.4408 70.0391 71.1384 69.4342 71.3274 68.8671Z" fill="white"/>
<path fill-rule="evenodd" clip-rule="evenodd" d="M72.3476 70.7007C72.1838 70.7007 72.0263 70.6755 71.8751 70.625C71.0813 70.3604 70.6655 69.5097 70.9301 68.7347C71.1947 67.9407 72.0452 67.5248 72.8201 67.7895C73.595 68.0541 74.0297 68.9048 73.7651 69.6799C73.6328 70.0579 73.3682 70.3604 73.0091 70.5494C72.8012 70.644 72.5744 70.7007 72.3476 70.7007ZM71.7239 68.9993C71.6672 69.1694 71.6672 69.3396 71.7617 69.4908C71.8373 69.661 71.9696 69.7744 72.1397 69.8311C72.2909 69.8878 72.4799 69.8689 72.6311 69.7933C72.8012 69.7177 72.9146 69.5853 72.9713 69.4152C73.0847 69.0749 72.8957 68.6969 72.5555 68.5834C72.2153 68.47 71.8373 68.659 71.7239 68.9993Z" fill="black"/>
<path d="M63.0115 45.9934C52.7112 46.2392 49.8195 45.2372 49.7817 43.8951C49.7439 42.5718 52.5978 41.4187 62.8792 41.1729C70.25 41.0028 79.4541 42.0047 84.0845 42.5907C84.8027 42.6852 84.8216 43.4225 84.1223 43.5359C79.5108 44.3677 70.3634 45.8044 63.0115 45.9934Z" fill="white"/>
<path fill-rule="evenodd" clip-rule="evenodd" d="M60.0062 46.4472C50.7643 46.4472 49.4036 45.1807 49.3658 43.9141C49.328 42.5152 50.9155 41.0407 62.879 40.7572C70.2309 40.587 79.3594 41.57 84.141 42.1749C84.7647 42.2506 85.0482 42.6664 85.0482 43.0445C85.0671 43.4226 84.8025 43.8574 84.1788 43.9519C79.435 44.8026 70.3632 46.2204 63.0113 46.4094C61.9277 46.4346 60.926 46.4472 60.0062 46.4472ZM64.6744 41.57C64.0696 41.57 63.4774 41.5763 62.8979 41.5889C51.388 41.8725 50.1784 43.2903 50.1973 43.8952C50.2162 44.4812 51.5014 45.8423 62.9924 45.5776C70.2876 45.3886 79.3027 43.9708 84.0465 43.139C84.1599 43.1201 84.2166 43.0634 84.2166 43.0634C84.2166 43.0634 84.1599 43.0256 84.0465 43.0067C79.6618 42.4585 71.6106 41.57 64.6744 41.57Z" fill="black"/>
<path d="M54.7332 33.8005C54.1095 40.3223 52.5786 42.0047 50.8965 41.8346C49.2145 41.6833 48.0238 39.7362 48.6475 33.2144C49.1011 28.5452 51.1989 22.893 52.3707 20.0385C52.5408 19.6037 53.4858 19.6982 53.5614 20.1519C54.1851 23.1765 55.1678 29.1312 54.7332 33.8005Z" fill="white"/>
<path fill-rule="evenodd" clip-rule="evenodd" d="M51.1047 42.2693C51.0291 42.2693 50.9472 42.263 50.859 42.2504C49.744 42.1559 48.9502 41.3998 48.5155 40.0387C48.0241 38.5453 47.9296 36.2957 48.232 33.1766C48.6856 28.4884 50.7834 22.8362 51.9741 19.8872C52.1442 19.5091 52.5411 19.3012 53.0325 19.3579C53.5239 19.3957 53.9019 19.6793 53.9775 20.0762C54.6012 23.1954 55.6028 29.1501 55.1492 33.8382C54.6012 39.5094 53.2782 42.2693 51.1047 42.2693ZM52.9191 20.1708C52.8246 20.1708 52.749 20.2086 52.749 20.2086C51.5583 23.1009 49.4983 28.6775 49.0636 33.2522C48.7801 36.2201 48.8557 38.413 49.3093 39.774C49.744 41.154 50.4433 41.3808 50.9346 41.4187C52.6734 41.5888 53.8074 39.0179 54.3177 33.7437C54.7524 29.169 53.7885 23.3277 53.1648 20.2464C53.1648 20.2464 53.0892 20.1897 52.9569 20.1708C52.9443 20.1708 52.9317 20.1708 52.9191 20.1708Z" fill="black"/>
<path d="M54.7525 42.5341C55.2061 44.8592 53.713 47.1088 51.3884 47.5814C49.0637 48.054 46.7958 46.5417 46.3422 44.2165C45.8697 41.8913 47.3817 39.6229 49.7063 39.1692C52.0121 38.6966 54.28 40.2089 54.7525 42.5341Z" fill="white"/>
<path fill-rule="evenodd" clip-rule="evenodd" d="M50.5377 48.0729C49.6116 48.0729 48.7233 47.8082 47.9295 47.2978C46.8901 46.5984 46.1719 45.5397 45.9262 44.2921C45.4159 41.759 47.0791 39.2637 49.6116 38.7533C50.8401 38.5075 52.1064 38.7533 53.1458 39.4527C54.2042 40.1522 54.9035 41.2108 55.1492 42.4395C55.6595 44.9915 54.0152 47.4679 51.4638 47.9783C51.1488 48.0414 50.8401 48.0729 50.5377 48.0729ZM50.5566 39.4905C50.292 39.4905 50.0337 39.5157 49.7817 39.5661C47.6839 40.0009 46.3231 42.0425 46.7389 44.1409C46.9468 45.1428 47.5327 46.0312 48.402 46.5984C49.2525 47.1655 50.292 47.3734 51.3126 47.1655C53.3915 46.7496 54.7523 44.708 54.3365 42.6097C54.1286 41.5889 53.5427 40.7193 52.6922 40.1522C52.0497 39.7174 51.3126 39.4905 50.5566 39.4905Z" fill="black"/>
<path d="M61.5749 85.6725C61.3859 85.6725 61.2158 85.5402 61.178 85.3512C61.1024 85.1432 61.2347 84.8975 61.4615 84.8408C83.007 78.9806 96.4446 57.2223 92.041 35.2939C87.4106 12.2501 64.9012 -2.74059 41.8437 1.87194C30.6741 4.12149 21.0542 10.5866 14.7417 20.0574C8.42924 29.5471 6.18019 40.9272 8.42924 52.0994C10.546 62.6666 16.5183 71.9484 25.2499 78.2622C25.4389 78.3946 25.4767 78.6592 25.3444 78.8483C25.2121 79.0373 24.9475 79.0751 24.7585 78.9428C15.8568 72.5155 9.77111 63.0258 7.61656 52.2506C5.32971 40.8705 7.61656 29.2636 14.0424 19.6037C20.4683 9.92496 30.2961 3.34644 41.6736 1.05908C65.1847 -3.64797 88.1477 11.6263 92.8537 35.1427C97.3518 57.487 83.6496 79.68 61.6883 85.6536C61.6505 85.6662 61.6127 85.6725 61.5749 85.6725Z" fill="black"/>
<path d="M289.674 315.845L292.925 337.112L300.768 333.124L298.519 311.895L289.674 315.845Z" fill="white"/>
<path fill-rule="evenodd" clip-rule="evenodd" d="M292.925 337.528C292.849 337.528 292.786 337.515 292.736 337.49C292.603 337.434 292.528 337.32 292.509 337.188L289.258 315.902C289.239 315.732 289.334 315.543 289.504 315.467L298.349 311.516C298.481 311.46 298.614 311.479 298.727 311.535C298.84 311.611 298.935 311.724 298.935 311.857L301.184 333.086C301.203 333.256 301.108 333.426 300.957 333.502L293.114 337.49C293.051 337.515 292.988 337.528 292.925 337.528ZM290.128 316.091L293.246 336.488L300.315 332.878L298.179 312.518L290.128 316.091Z" fill="black"/>
<path d="M290.902 329.078C289.995 331.12 289.145 334.995 288.294 340.042C287.879 342.443 289.75 344.636 292.225 344.636H321.104C323.089 344.636 324.015 342.197 322.54 340.893C316.795 335.808 307.988 330.175 300.39 326.866L297.498 330.968C297.498 330.968 291.148 328.492 290.902 329.078Z" fill="white"/>
<path fill-rule="evenodd" clip-rule="evenodd" d="M321.104 345.052H292.225C290.902 345.052 289.674 344.466 288.842 343.483C288.011 342.5 287.671 341.233 287.879 339.986C288.842 334.333 289.674 330.817 290.506 328.908C290.676 328.53 290.921 327.982 297.347 330.458L300.05 326.64C300.163 326.469 300.39 326.413 300.56 326.488C308.007 329.74 316.965 335.411 322.824 340.591C323.637 341.309 323.901 342.368 323.523 343.388C323.126 344.39 322.181 345.052 321.104 345.052ZM291.205 329.399C290.411 331.29 289.617 334.711 288.691 340.118C288.521 341.12 288.805 342.16 289.466 342.935C290.146 343.747 291.148 344.22 292.225 344.22H321.104C321.992 344.22 322.54 343.634 322.729 343.086C322.937 342.557 322.918 341.781 322.257 341.214C316.549 336.148 307.855 330.628 300.541 327.396L297.839 331.214C297.725 331.365 297.517 331.422 297.347 331.365C294.871 330.401 291.942 329.418 291.205 329.399Z" fill="black"/>
<path d="M320.556 342.575H290.147C289.901 342.575 289.731 342.386 289.731 342.16C289.731 341.914 289.901 341.725 290.147 341.725H320.556C320.783 341.725 320.972 341.914 320.972 342.16C320.972 342.386 320.783 342.575 320.556 342.575Z" fill="black"/>
<path d="M303.962 336.451C303.899 336.451 303.83 336.432 303.755 336.394C303.566 336.281 303.49 336.016 303.603 335.827L306.571 330.798C306.703 330.609 306.949 330.534 307.156 330.647C307.345 330.761 307.402 331.025 307.289 331.214L304.322 336.243C304.246 336.375 304.114 336.451 303.962 336.451Z" fill="black"/>
<path d="M308.309 337.188C308.246 337.188 308.183 337.169 308.12 337.131C307.912 337.018 307.836 336.772 307.95 336.564L309.878 333.124C309.991 332.916 310.237 332.859 310.445 332.972C310.634 333.067 310.709 333.332 310.596 333.539L308.687 336.98C308.611 337.112 308.46 337.188 308.309 337.188Z" fill="black"/>
<path d="M309.122 178.849C309.122 178.849 330.989 211.988 338.473 233.047C339.891 237.054 338.794 241.516 335.676 244.389C326.982 252.442 308.404 269.474 296.478 278.964L292.925 269.909C292.925 269.909 297.215 248.964 313.374 239.531L293.341 209.644L288.918 186.373L309.122 178.849Z" fill="#FF6701"/>
<path d="M271.19 187.829C271.19 187.829 277.654 237.357 278.656 250.022C279.638 262.669 278.731 276.752 278.24 287.074C277.748 297.414 289.466 321.441 289.466 321.441L300.768 319.437L302.866 203.065L305.909 181.515L271.19 187.829Z" fill="#FF6701"/>
<path d="M301.543 277.244C301.298 277.244 301.128 277.055 301.128 276.828L301.184 258.888C301.184 258.661 301.373 258.472 301.6 258.472C301.827 258.472 302.016 258.661 302.016 258.907L301.959 276.828C301.959 277.055 301.77 277.244 301.543 277.244Z" fill="white"/>
<path d="M302.696 221.837C302.469 221.837 302.28 221.667 302.28 221.421V212.177C302.28 212.045 302.356 211.912 302.469 211.837L307.912 208.207C308.101 208.075 308.366 208.131 308.498 208.32C308.631 208.51 308.574 208.774 308.385 208.906L303.112 212.404V221.421C303.112 221.667 302.923 221.837 302.696 221.837Z" fill="white"/>
<path d="M275.651 214.351C275.537 214.351 275.424 214.313 275.348 214.2C275.197 214.03 275.216 213.765 275.386 213.614C275.443 213.576 281.358 208.434 283.343 195.863C283.381 195.636 283.589 195.485 283.815 195.523C284.042 195.561 284.212 195.768 284.174 195.995C282.133 208.907 276.18 214.048 275.934 214.256C275.84 214.313 275.745 214.351 275.651 214.351Z" fill="white"/>
<path d="M329.609 146.448C329.609 146.448 331.669 144.69 333.314 143.802C334.958 142.913 340.023 135.352 340.023 135.352C340.023 135.352 339.872 147.28 334.637 149.114L329.609 146.448Z" fill="white"/>
<path fill-rule="evenodd" clip-rule="evenodd" d="M334.636 149.53C334.56 149.53 334.497 149.511 334.447 149.473L329.42 146.807C329.287 146.751 329.212 146.618 329.193 146.486C329.193 146.354 329.231 146.203 329.344 146.127C329.439 146.051 331.461 144.331 333.105 143.443C334.39 142.743 338.284 137.204 339.663 135.125C339.777 134.955 339.966 134.898 340.136 134.955C340.325 135.011 340.438 135.163 340.438 135.352C340.419 135.862 340.211 147.601 334.768 149.492C334.731 149.517 334.686 149.53 334.636 149.53ZM330.365 146.373L334.655 148.641C338.359 147.167 339.304 139.945 339.531 136.807C337.981 139.057 334.825 143.461 333.502 144.18C332.406 144.785 331.064 145.806 330.365 146.373Z" fill="black"/>
<path d="M324.506 147.923H330.459L341.705 131.647H335.921L324.506 147.923Z" fill="black"/>
<path fill-rule="evenodd" clip-rule="evenodd" d="M330.46 148.339H324.506C324.355 148.339 324.223 148.263 324.147 148.112C324.072 147.98 324.09 147.809 324.166 147.696L335.581 131.42C335.657 131.306 335.77 131.231 335.922 131.231H341.705C341.856 131.231 342.007 131.325 342.083 131.458C342.14 131.59 342.14 131.76 342.045 131.892L330.8 148.169C330.724 148.282 330.592 148.339 330.46 148.339ZM325.319 147.507H330.233L340.911 132.063H336.129L325.319 147.507Z" fill="black"/>
<path d="M325.81 147.923H331.745L343.009 131.647H337.207L325.81 147.923Z" fill="white"/>
<path fill-rule="evenodd" clip-rule="evenodd" d="M331.745 148.339H325.81C325.659 148.339 325.508 148.263 325.451 148.112C325.376 147.98 325.376 147.809 325.47 147.696L336.867 131.42C336.942 131.306 337.075 131.231 337.207 131.231H343.009C343.16 131.231 343.311 131.325 343.368 131.458C343.444 131.59 343.444 131.76 343.349 131.892L332.085 148.169C332.009 148.282 331.896 148.339 331.745 148.339ZM326.604 147.507H331.537L342.215 132.063H337.434L326.604 147.507Z" fill="black"/>
<path d="M329.609 146.448C329.609 146.448 322.22 158.263 315.321 157.015C310.445 156.146 307.913 150.872 303.736 144.974C299.54 139.057 294.475 135.938 294.475 135.938C294.475 135.938 285.403 132.875 274.328 133.348C263.442 133.821 253.86 140.645 250.061 150.853C247.094 158.792 244.939 170.399 246.829 186.392C250.439 216.903 275.934 212.933 275.934 212.933L280.073 206.43C280.073 206.43 268.677 205.674 266.012 189.946C265.029 184.218 267.222 175.674 267.222 175.674L269.055 188.793C269.301 190.626 270.794 192.044 272.646 192.214C274.725 192.422 277.881 192.385 282.285 191.572C291.319 189.889 300.22 184.199 305.985 183.538C309.84 183.103 310.766 180.778 310.558 177.677C312.808 178.188 315.019 178.282 317.06 177.791C331.443 174.18 334.07 149.454 334.07 149.454L329.609 146.448Z" fill="white"/>
<path fill-rule="evenodd" clip-rule="evenodd" d="M273.175 213.5C269.546 213.5 263.007 212.801 257.299 208.472C251.27 203.897 247.604 196.487 246.413 186.449C244.807 172.838 245.903 160.815 249.664 150.721C253.519 140.399 263.196 133.405 274.309 132.932C285.346 132.459 294.513 135.503 294.607 135.541C294.632 135.553 294.658 135.566 294.683 135.579C294.891 135.711 299.88 138.811 304.076 144.728C304.851 145.843 305.588 146.94 306.287 147.979C309.254 152.422 311.598 155.938 315.397 156.6C315.712 156.663 316.033 156.694 316.361 156.694C322.635 156.694 329.193 146.335 329.269 146.221C329.326 146.127 329.42 146.051 329.534 146.032C329.647 146.013 329.76 146.032 329.855 146.089L334.315 149.114C334.429 149.208 334.504 149.359 334.485 149.511C334.391 150.531 331.669 174.558 317.154 178.188C315.34 178.641 313.28 178.641 310.993 178.188C311.069 181.685 309.443 183.575 306.022 183.953C303.339 184.256 299.975 185.693 296.081 187.318C291.886 189.095 287.123 191.099 282.36 191.988C278.656 192.668 275.367 192.895 272.608 192.63C270.548 192.441 268.923 190.891 268.639 188.85L267.127 178.037C266.56 180.929 265.766 186.071 266.409 189.889C268.998 205.069 279.658 205.976 280.111 206.014C280.262 206.014 280.395 206.109 280.451 206.241C280.527 206.373 280.508 206.525 280.432 206.657L276.293 213.16C276.237 213.254 276.123 213.33 276.01 213.349C275.972 213.349 274.895 213.5 273.175 213.5ZM276.671 133.726C275.903 133.713 275.128 133.726 274.347 133.764C263.555 134.236 254.181 141.004 250.458 151.004C246.734 160.985 245.657 172.876 247.245 186.354C248.417 196.146 251.97 203.368 257.81 207.81C265.332 213.519 274.309 212.706 275.689 212.536L279.393 206.751C276.86 206.279 267.921 203.67 265.596 190.022C264.614 184.256 266.73 175.919 266.825 175.56C266.881 175.371 267.07 175.239 267.259 175.258C267.448 175.258 267.619 175.409 267.637 175.617L269.452 188.736C269.697 190.381 271.02 191.647 272.684 191.799C274.536 191.969 277.673 192.006 282.209 191.156C286.877 190.286 291.602 188.301 295.76 186.562C299.71 184.899 303.131 183.443 305.928 183.141C309.122 182.762 310.369 181.156 310.143 177.715C310.143 177.583 310.18 177.451 310.294 177.356C310.388 177.28 310.521 177.243 310.653 177.28C313.015 177.791 315.132 177.829 316.946 177.375C330.138 174.086 333.314 152.252 333.635 149.662L329.741 147.015C328.381 149.057 321.728 158.603 315.245 157.431C311.106 156.694 308.687 153.046 305.607 148.452C304.907 147.393 304.17 146.316 303.395 145.201C299.502 139.719 294.777 136.618 294.286 136.316C293.643 136.108 286.083 133.726 276.671 133.726Z" fill="black"/>
<path d="M268.148 174.483C268.11 174.483 268.072 174.476 268.034 174.464C267.807 174.388 267.694 174.161 267.751 173.935L272.287 159.643C272.343 159.416 272.589 159.303 272.797 159.36C273.024 159.435 273.156 159.662 273.08 159.889L268.545 174.18C268.488 174.369 268.337 174.483 268.148 174.483Z" fill="black"/>
<path d="M310.388 174.615C310.18 174.615 309.991 174.445 309.973 174.237C309.235 166.6 301.298 149.019 301.222 148.83C301.128 148.622 301.222 148.377 301.43 148.282C301.638 148.188 301.884 148.282 301.978 148.49C302.299 149.227 310.048 166.392 310.804 174.142C310.823 174.369 310.653 174.577 310.426 174.596C310.414 174.609 310.401 174.615 310.388 174.615Z" fill="black"/>
<path d="M281.698 118.679L271.549 133.877C271.549 133.877 280.035 137.526 285.233 138.301C290.43 139.095 284.08 133.594 284.08 133.594L288.2 124.255L281.698 118.679Z" fill="white"/>
<path fill-rule="evenodd" clip-rule="evenodd" d="M286.14 138.811C285.8 138.811 285.478 138.773 285.176 138.717C279.979 137.942 271.738 134.407 271.379 134.255C271.266 134.199 271.19 134.104 271.153 133.991C271.115 133.877 271.134 133.745 271.209 133.632L281.358 118.452C281.415 118.357 281.528 118.282 281.642 118.282C281.755 118.263 281.869 118.301 281.963 118.376L288.465 123.934C288.597 124.047 288.654 124.255 288.578 124.425L284.59 133.48C285.686 134.463 288.181 136.883 287.614 138.131C287.368 138.66 286.764 138.811 286.14 138.811ZM272.173 133.688C274.006 134.444 280.905 137.223 285.289 137.904C286.688 138.112 286.839 137.79 286.839 137.79C287.085 137.261 285.441 135.314 283.815 133.915C283.683 133.783 283.626 133.594 283.702 133.424L287.69 124.369L281.774 119.302L272.173 133.688Z" fill="black"/>
<path d="M301.317 111.457C298.501 108.962 294.985 111.325 291.697 108.263C290.185 106.864 290.09 105.597 288.238 104.803C287.029 104.255 284.836 103.839 283.324 104.917C281.396 106.278 282.701 108.546 281 113.461C279.809 116.92 278.278 118.395 279.072 119.643C279.847 120.928 281.831 120.077 282.795 121.401C284.061 123.121 281.567 125.635 282.228 128.017C282.644 129.51 284.666 131.665 289.75 132.781C290.563 132.951 291.413 132.516 291.734 131.741C292.15 130.739 292.679 129.492 293.076 128.244C294.947 122.308 294.135 119.964 295.666 119.246C298.009 118.149 300.636 121.911 302.394 120.871C304.208 119.794 304.227 114.009 301.317 111.457Z" fill="black"/>
<path d="M289.145 113.953L290.185 114.369C290.185 114.369 287.217 121.193 286.726 123.272C286.254 125.352 292.566 127.337 292.566 127.337L293.606 126.618L294.38 126.845C294.607 126.921 294.872 126.864 295.08 126.732C295.288 126.58 295.401 126.354 295.42 126.108C295.552 124.199 295.987 120.021 297.329 117.015C297.329 117.015 294.437 113.253 289.145 113.953Z" fill="white"/>
<path fill-rule="evenodd" clip-rule="evenodd" d="M288.748 113.896C288.843 113.82 288.975 113.669 289.183 113.575C289.277 113.537 289.391 113.518 289.485 113.499C289.523 113.48 289.58 113.48 289.618 113.48H289.693C289.882 113.461 290.09 113.442 290.279 113.442C290.676 113.423 291.073 113.442 291.47 113.48C292.264 113.575 293.038 113.764 293.776 114.047C294.532 114.331 295.231 114.69 295.873 115.144C296.535 115.616 297.121 116.108 297.65 116.769C297.744 116.883 297.763 117.053 297.707 117.185C296.932 118.905 296.478 120.777 296.138 122.648C295.974 123.594 295.855 124.545 295.779 125.503L295.741 125.862C295.722 125.994 295.722 126.089 295.703 126.259C295.647 126.58 295.42 126.864 295.136 127.034C295.004 127.11 294.834 127.166 294.683 127.185C294.595 127.198 294.506 127.198 294.418 127.185C294.343 127.185 294.248 127.166 294.21 127.148C294.034 127.122 293.864 127.091 293.7 127.053C293.398 127.28 293.095 127.469 292.812 127.677C292.698 127.752 292.566 127.771 292.453 127.734C291.054 127.28 289.731 126.751 288.446 126.013C287.803 125.635 287.161 125.238 286.65 124.558C286.537 124.388 286.424 124.199 286.348 123.972C286.272 123.745 286.235 123.48 286.291 123.234C286.386 122.837 286.499 122.497 286.594 122.157C287.066 120.777 287.595 119.454 288.125 118.13C288.616 116.939 289.126 115.749 289.637 114.577C289.523 114.514 289.416 114.444 289.315 114.369C289.088 114.198 288.899 114.028 288.748 113.896ZM293.7 127.053C293.738 127.028 293.782 126.996 293.832 126.959L293.492 127.015C293.555 127.028 293.624 127.04 293.7 127.053ZM289.637 114.577C289.775 114.652 289.907 114.715 290.033 114.766L289.844 114.312C289.996 114.293 290.147 114.293 290.298 114.293C290.399 114.293 290.506 114.293 290.619 114.293C290.6 114.142 290.487 114.028 290.355 113.972C290.241 113.915 290.147 113.915 290.033 113.934C289.92 113.972 289.75 114.009 289.561 113.991C289.655 114.066 289.693 114.18 289.693 114.255C289.674 114.293 289.674 114.312 289.674 114.312H289.75C289.712 114.4 289.674 114.488 289.637 114.577ZM289.807 114.198C289.781 114.236 289.763 114.274 289.75 114.312C289.788 114.312 289.819 114.312 289.844 114.312L289.807 114.198ZM290.6 114.52V114.539C290.033 115.843 289.485 117.147 288.956 118.471C288.427 119.775 287.898 121.098 287.444 122.422C287.331 122.762 287.217 123.102 287.161 123.405C287.104 123.594 287.199 123.82 287.369 124.066C287.709 124.539 288.295 124.936 288.881 125.276C290.015 125.919 291.262 126.448 292.509 126.864C292.812 126.675 293.095 126.467 293.379 126.278L293.416 126.259C293.511 126.202 293.624 126.202 293.719 126.221C293.946 126.316 294.172 126.41 294.399 126.505L294.532 126.543C294.569 126.555 294.607 126.562 294.645 126.562C294.721 126.58 294.796 126.562 294.872 126.524C295.004 126.448 295.099 126.297 295.136 126.146L295.193 125.465C295.269 124.495 295.369 123.524 295.495 122.554C295.779 120.72 296.157 118.868 296.856 117.091C296.44 116.637 295.93 116.202 295.401 115.843C294.815 115.427 294.172 115.087 293.492 114.841C292.812 114.577 292.112 114.425 291.394 114.35C291.142 114.324 290.884 114.306 290.619 114.293C290.632 114.369 290.626 114.444 290.6 114.52ZM292.509 126.864C292.459 126.902 292.402 126.94 292.339 126.977L292.698 126.94C292.635 126.914 292.572 126.889 292.509 126.864ZM296.856 117.091C296.907 117.154 296.957 117.217 297.007 117.28L296.951 116.845C296.913 116.933 296.881 117.015 296.856 117.091Z" fill="black"/>
<path d="M286.82 118.773C286.82 118.773 287.52 114.728 285.611 114.803C283.721 114.86 283.059 119.321 286.82 118.773Z" fill="white"/>
<path d="M25.4957 128.414L15.3277 128.452C14.4016 128.452 6.84179 128.395 5.97241 128.395L2.38149 128.357C1.07742 128.357 0.0757395 127.299 0.170237 125.994L1.22861 111.382C1.32311 110.077 2.47599 109.019 3.78006 109.019L26.8943 109.076C28.1983 109.076 29.1811 110.134 29.0866 111.438L28.0282 126.051C27.9337 127.356 26.7998 128.414 25.4957 128.414Z" fill="black"/>
<path d="M10.9053 128.339L13.4 132.724L16.8775 128.339H10.9053Z" fill="black"/>
<path d="M14.0992 115.862C13.6267 115.295 12.9464 114.973 12.1715 114.973C11.6045 114.955 11.0564 115.144 10.565 115.484C10.3256 115.66 10.0988 115.881 9.88463 116.145C9.72084 115.881 9.52554 115.654 9.29874 115.465C8.86405 115.106 8.35377 114.917 7.78678 114.917C7.01189 114.917 6.29371 115.2 5.72672 115.767C5.17863 116.297 4.81954 117.053 4.76284 117.866C4.68725 118.698 4.95184 119.473 5.55663 120.285C6.08581 121.023 6.8985 121.76 7.82458 122.63C8.14587 122.913 8.50496 123.253 8.88295 123.613C8.99635 123.707 9.12865 123.745 9.26095 123.764C9.41214 123.764 9.54444 123.707 9.65784 123.613C10.0925 123.272 10.5083 122.951 10.8674 122.667C11.9447 121.817 12.8708 121.098 13.5323 120.38C14.2693 119.586 14.6473 118.811 14.7229 117.979C14.7796 117.166 14.5717 116.41 14.0992 115.862Z" fill="white"/>
<path d="M22.472 123.783H20.4308L20.8844 117.374L18.8622 117.941L18.9567 116.429L22.8878 115.106H23.0768L22.472 123.783Z" fill="white"/>
<path d="M48.8177 103.404L38.6497 103.461C37.7237 103.442 30.1638 103.385 29.2944 103.385L25.7035 103.367C24.3994 103.348 23.4167 102.289 23.5112 100.985L24.5695 86.372C24.664 85.0677 25.798 84.028 27.1021 84.028L50.2163 84.0658C51.5204 84.0847 52.522 85.1433 52.4275 86.4476L51.3692 101.06C51.2747 102.365 50.1218 103.404 48.8177 103.404Z" fill="black"/>
<path d="M34.2272 103.329L36.7219 107.733L40.2183 103.329H34.2272Z" fill="black"/>
<path d="M37.4212 90.8521C36.9676 90.285 36.2684 89.9825 35.5124 89.9636C34.9265 89.9636 34.3973 90.1338 33.9059 90.4929C33.6539 90.6694 33.4208 90.8836 33.2066 91.1357C33.0428 90.871 32.8538 90.6505 32.6396 90.474C32.2049 90.1149 31.6947 89.9258 31.1088 89.9258C30.3528 89.9069 29.6157 90.2094 29.0487 90.7576C28.5006 91.3058 28.1604 92.0431 28.0848 92.8559C28.0281 93.7066 28.2738 94.4627 28.8786 95.2945C29.4267 96.0129 30.2205 96.769 31.1655 97.6197C31.4868 97.9221 31.8458 98.2435 32.2238 98.6027C32.3183 98.6972 32.4506 98.7539 32.5829 98.7539C32.7341 98.7539 32.8664 98.6972 32.9798 98.6216C33.4145 98.2624 33.8303 97.941 34.2083 97.6575C35.2667 96.8257 36.1928 96.0885 36.8542 95.3701C37.5913 94.5762 37.9693 93.82 38.0449 92.9693C38.1205 92.1565 37.8937 91.4003 37.4212 90.8521Z" fill="white"/>
<path d="M45.7939 98.7729H43.7716L44.2063 92.3645L42.1841 92.9505L42.2975 91.4193L46.2097 90.1149H46.3987L45.7939 98.7729Z" fill="white"/>
<path d="M339.172 119.662L329.023 119.699C328.078 119.699 320.537 119.643 319.668 119.643L316.077 119.605C314.773 119.605 313.771 118.546 313.866 117.242L314.924 102.629C315.018 101.325 316.171 100.266 317.475 100.266L340.59 100.323C341.894 100.323 342.876 101.382 342.782 102.686L341.724 117.299C341.629 118.603 340.495 119.662 339.172 119.662Z" fill="black"/>
<path d="M324.582 119.586L327.095 123.972L330.573 119.586H324.582Z" fill="black"/>
<path d="M327.794 107.109C327.322 106.542 326.642 106.221 325.867 106.221C325.3 106.221 324.752 106.391 324.26 106.731C324.008 106.908 323.781 107.128 323.58 107.393C323.416 107.128 323.221 106.908 322.994 106.731C322.559 106.353 322.049 106.183 321.482 106.164C320.707 106.164 319.97 106.467 319.422 107.015C318.855 107.544 318.515 108.3 318.458 109.113C318.382 109.945 318.628 110.72 319.252 111.533C319.781 112.27 320.594 113.007 321.52 113.877C321.841 114.16 322.2 114.501 322.578 114.86C322.673 114.954 322.805 115.011 322.956 115.011C323.088 115.011 323.24 114.954 323.353 114.86C323.788 114.52 324.204 114.198 324.563 113.915C325.64 113.064 326.566 112.346 327.227 111.627C327.965 110.833 328.343 110.058 328.418 109.227C328.475 108.414 328.248 107.658 327.794 107.109Z" fill="white"/>
<path d="M336.148 115.03H334.126L334.58 108.622L332.557 109.189L332.652 107.677L336.583 106.353H336.772L336.148 115.03Z" fill="white"/>
<path d="M322.522 93.4042L312.354 93.4609C311.428 93.442 303.868 93.3853 302.999 93.3853L299.408 93.3664C298.104 93.3475 297.121 92.2889 297.215 90.9845L298.274 76.3718C298.368 75.0675 299.502 74.0278 300.806 74.0278L323.92 74.0656C325.224 74.0845 326.207 75.1431 326.113 76.4475L325.073 91.0601C324.979 92.3645 323.826 93.4042 322.522 93.4042Z" fill="black"/>
<path d="M307.931 93.3286L310.426 97.7332L313.922 93.3286H307.931Z" fill="black"/>
<path d="M311.125 80.852C310.653 80.2849 309.972 79.9825 309.216 79.9636C308.63 79.9636 308.101 80.1337 307.591 80.4929C307.352 80.6693 307.125 80.8836 306.911 81.1356C306.747 80.871 306.558 80.6504 306.344 80.474C305.909 80.1148 305.399 79.9258 304.813 79.9258C304.038 79.9069 303.32 80.2093 302.753 80.7575C302.205 81.3057 301.864 82.043 301.789 82.8559C301.713 83.7065 301.978 84.4627 302.583 85.2944C303.131 86.0128 303.924 86.7689 304.869 87.6196C305.191 87.9221 305.55 88.2434 305.909 88.6026C306.022 88.6971 306.155 88.7538 306.287 88.7538C306.438 88.7538 306.57 88.6971 306.684 88.6215C307.119 88.2623 307.534 87.941 307.893 87.6574C308.971 86.8257 309.897 86.0884 310.558 85.3701C311.295 84.5761 311.673 83.8199 311.749 82.9693C311.806 82.1564 311.598 81.4003 311.125 80.852Z" fill="white"/>
<path d="M319.498 88.7728H317.476L317.91 82.3644L315.888 82.9504L316.002 81.4192L319.914 80.1149H320.103L319.498 88.7728Z" fill="white"/>
<path d="M310.029 64.6515L299.861 64.7082C298.916 64.6893 291.375 64.6326 290.506 64.6326L286.915 64.6137C285.611 64.5948 284.609 63.5362 284.703 62.2318L285.762 47.6192C285.856 46.3148 287.009 45.2751 288.313 45.2751L311.427 45.3129C312.732 45.3318 313.714 46.3904 313.62 47.6948L312.561 62.3074C312.467 63.6118 311.333 64.6515 310.029 64.6515Z" fill="black"/>
<path d="M295.42 64.5759L297.933 68.9805L301.411 64.5759H295.42Z" fill="black"/>
<path d="M298.632 52.0994C298.16 51.5322 297.48 51.2298 296.705 51.2109C296.138 51.2109 295.59 51.381 295.098 51.7402C294.846 51.9166 294.619 52.1309 294.418 52.3829C294.254 52.1309 294.059 51.9103 293.832 51.7213C293.397 51.3621 292.887 51.1731 292.32 51.1731C291.545 51.1542 290.808 51.4566 290.26 52.0048C289.693 52.5531 289.353 53.2903 289.296 54.1032C289.22 54.9538 289.466 55.71 290.09 56.5418C290.619 57.2601 291.432 58.0163 292.358 58.8669C292.679 59.1694 293.038 59.4908 293.416 59.8499C293.511 59.9444 293.643 60.0012 293.794 60.0012C293.926 60.0012 294.078 59.9634 294.191 59.8688C294.626 59.5097 295.042 59.1883 295.401 58.9047C296.478 58.073 297.404 57.3357 298.066 56.6174C298.803 55.8234 299.181 55.0673 299.256 54.2166C299.313 53.4037 299.105 52.6665 298.632 52.0994Z" fill="white"/>
<path d="M306.986 60.0201H304.964L305.418 53.6117L303.395 54.1978L303.49 52.6665L307.421 51.3622H307.61L306.986 60.0201Z" fill="white"/>
<path d="M276.274 44.2354L266.106 44.2921C265.18 44.2732 257.62 44.2165 256.751 44.2165L253.179 44.1976C251.856 44.1787 250.873 43.1201 250.968 41.8157L252.026 27.2031C252.121 25.8987 253.255 24.859 254.578 24.859L277.673 24.8968C278.996 24.9157 279.979 25.9743 279.884 27.2787L278.826 41.8913C278.731 43.1957 277.578 44.2354 276.274 44.2354Z" fill="black"/>
<path d="M261.684 44.1597L264.179 48.5643L267.675 44.1597H261.684Z" fill="black"/>
<path d="M264.897 31.6832C264.424 31.1161 263.744 30.8136 262.969 30.7947C262.383 30.7947 261.854 30.9649 261.363 31.324C261.111 31.5005 260.877 31.7147 260.663 31.9668C260.499 31.7021 260.31 31.4816 260.096 31.3051C259.662 30.9459 259.151 30.7569 258.565 30.7569C257.809 30.738 257.072 31.0405 256.505 31.5887C255.957 32.1369 255.617 32.8741 255.541 33.687C255.485 34.5377 255.731 35.2938 256.335 36.1256C256.883 36.8439 257.696 37.6001 258.622 38.4508C258.943 38.7532 259.303 39.0746 259.681 39.4338C259.775 39.5283 259.907 39.585 260.059 39.585C260.191 39.585 260.323 39.5283 260.436 39.4527C260.871 39.0935 261.287 38.7721 261.665 38.4886C262.723 37.6568 263.649 36.9196 264.311 36.2012C265.067 35.4072 265.445 34.6511 265.502 33.8004C265.577 32.9876 265.35 32.2314 264.897 31.6832Z" fill="white"/>
<path d="M273.251 39.6039H271.228L271.682 33.1955L269.641 33.7816L269.754 32.2503L273.666 30.946H273.855L273.251 39.6039Z" fill="white"/>
<path fill-rule="evenodd" clip-rule="evenodd" d="M221.466 309.664C210.957 330.08 204.532 332.084 204.532 332.084C204.532 332.084 206.081 327.585 207.82 321.46L197.992 320.571L192.606 311.762C191.207 309.456 190.451 306.828 190.395 304.125C190.3 299.532 188.146 295.24 184.536 292.443L181.209 289.853C180.132 289.002 181.02 287.282 182.325 287.679L187.73 289.305C191.415 290.42 194.647 292.556 197.104 295.429L195.327 289.853C190.036 273.217 193.986 254.994 205.684 242.121L210.844 236.449C211.676 235.523 213.15 236.468 212.696 237.64L209.011 246.809C204.739 257.489 205.117 269.512 210.088 279.89C211.203 282.253 212.091 284.692 212.753 287.187C213.755 279.399 216.703 270.136 218.744 264.446C219.122 263.369 220.672 263.52 220.842 264.673C222.429 275.807 230.348 292.443 221.466 309.664ZM208.104 320.401C208.116 320.364 208.129 320.326 208.141 320.288L208.066 320.269L208.104 320.401Z" fill="white"/>
<path fill-rule="evenodd" clip-rule="evenodd" d="M204.531 332.5C204.437 332.5 204.324 332.462 204.248 332.367C204.135 332.254 204.097 332.103 204.153 331.951C204.153 331.914 205.628 327.622 207.272 321.819L197.954 320.987C197.822 320.968 197.709 320.893 197.633 320.779L192.266 311.97C190.81 309.607 190.035 306.904 189.979 304.144C189.884 299.645 187.805 295.505 184.29 292.764L180.964 290.174C180.208 289.588 180.189 288.718 180.51 288.095C180.812 287.49 181.55 286.998 182.457 287.263L187.862 288.907C190.98 289.853 193.815 291.535 196.159 293.804L194.93 289.985C189.601 273.255 193.589 254.805 205.363 241.837L210.523 236.166C211.033 235.599 211.827 235.504 212.469 235.901C212.998 236.241 213.414 236.96 213.074 237.792L209.408 246.96C205.174 257.527 205.571 269.455 210.466 279.72C211.297 281.478 212.035 283.312 212.62 285.202C213.773 278.019 216.325 269.985 218.347 264.314C218.574 263.633 219.216 263.236 219.916 263.312C220.615 263.368 221.144 263.898 221.258 264.597C221.617 267.111 222.297 269.947 223.034 272.934C225.586 283.388 228.78 296.412 221.843 309.853C211.373 330.193 204.928 332.405 204.664 332.481C204.626 332.493 204.582 332.5 204.531 332.5ZM198.238 320.174L207.858 321.044C207.971 321.044 208.085 321.12 208.16 321.214C208.236 321.327 208.255 321.441 208.217 321.573C206.969 325.978 205.817 329.57 205.268 331.233C207.329 329.929 212.998 325.203 221.106 309.475C227.891 296.299 224.754 283.463 222.221 273.142C221.484 270.117 220.785 267.263 220.426 264.729C220.369 264.333 220.086 264.162 219.821 264.143C219.575 264.106 219.254 264.219 219.122 264.578C216.948 270.741 214.132 279.663 213.169 287.244C213.15 287.433 212.98 287.584 212.772 287.603C212.583 287.622 212.394 287.49 212.356 287.301C211.694 284.786 210.806 282.367 209.71 280.079C204.72 269.607 204.324 257.433 208.633 246.657L212.299 237.47C212.469 237.073 212.242 236.752 212.016 236.601C211.789 236.468 211.43 236.412 211.146 236.733L205.987 242.404C194.42 255.145 190.489 273.274 195.724 289.72L197.501 295.297C197.557 295.486 197.482 295.694 197.312 295.788C197.142 295.883 196.915 295.845 196.801 295.694C194.345 292.858 191.169 290.779 187.616 289.701L182.211 288.076C181.739 287.924 181.398 288.189 181.247 288.473C181.096 288.756 181.077 289.21 181.474 289.531L184.8 292.102C188.523 294.994 190.716 299.38 190.81 304.125C190.867 306.734 191.604 309.305 192.965 311.535L198.238 320.174ZM208.122 320.817C207.952 320.817 207.801 320.704 207.725 320.552L207.688 320.42C207.631 320.288 207.65 320.118 207.744 320.004C207.839 319.891 207.99 319.834 208.141 319.853L208.236 319.872C208.349 319.891 208.444 319.966 208.5 320.061C208.557 320.155 208.576 320.288 208.557 320.401L208.519 320.515C208.481 320.685 208.311 320.798 208.141 320.817C208.129 320.817 208.122 320.817 208.122 320.817Z" fill="black"/>
<path d="M207.386 312.424C207.373 312.424 207.354 312.418 207.329 312.405C207.102 312.386 206.932 312.197 206.97 311.951C208.16 299.04 205.571 290.722 203.284 283.388C202.226 279.985 201.224 276.771 200.62 273.312C197.822 256.979 207.404 242.82 207.499 242.669C207.631 242.48 207.896 242.442 208.085 242.555C208.274 242.688 208.312 242.952 208.198 243.141C208.085 243.274 198.692 257.187 201.451 273.18C202.037 276.582 203.02 279.758 204.078 283.142C206.403 290.552 209.011 298.964 207.782 312.046C207.764 312.254 207.593 312.424 207.386 312.424Z" fill="black"/>
<path d="M217.95 303.766C217.925 303.766 217.9 303.766 217.875 303.766C217.648 303.728 217.497 303.501 217.535 303.274C219.689 290.514 218.933 270.854 218.933 270.646C218.933 270.42 219.103 270.231 219.33 270.231C219.557 270.212 219.765 270.401 219.765 270.628C219.765 270.817 220.521 290.571 218.347 303.426C218.309 303.615 218.139 303.766 217.95 303.766Z" fill="black"/>
<path d="M199.013 314.352C198.767 314.352 198.597 314.163 198.578 313.936C198.427 298.095 185.783 291.138 185.67 291.081C185.462 290.968 185.387 290.722 185.481 290.514C185.594 290.306 185.859 290.231 186.048 290.344C186.18 290.401 199.259 297.603 199.429 313.936C199.429 314.163 199.24 314.352 199.013 314.352Z" fill="black"/>
<path d="M207.461 345.071H205.874C198.011 345.071 191.642 338.7 191.642 330.836V316.62H221.693V330.836C221.693 338.7 215.323 345.071 207.461 345.071Z" fill="black"/>
<path d="M218.744 322.065H194.59C194.364 322.065 194.175 321.876 194.175 321.649C194.175 321.403 194.364 321.233 194.59 321.233H218.744C218.99 321.233 219.16 321.403 219.16 321.649C219.16 321.876 218.99 322.065 218.744 322.065Z" fill="white"/>
</g>
<defs>
<clipPath id="clip0_769_6199">
<rect width="343.406" height="345.94" fill="white" transform="translate(0 0.208374)"/>
</clipPath>
</defs>
</svg>
