<svg width="349" height="347" viewBox="0 0 349 347" fill="none" xmlns="http://www.w3.org/2000/svg">
<g clip-path="url(#clip0_769_4987)">
<path d="M209.715 138.692C209.62 138.692 209.507 138.654 209.413 138.578C209.262 138.408 209.262 138.143 209.431 137.973L210.791 136.629C210.961 136.458 211.225 136.458 211.395 136.629C211.546 136.799 211.546 137.064 211.395 137.234L210.017 138.578C209.941 138.654 209.828 138.692 209.715 138.692Z" fill="black"/>
<path d="M203.163 145.166C203.05 145.166 202.936 145.128 202.861 145.033C202.71 144.863 202.71 144.598 202.861 144.446L204.239 143.083C204.409 142.932 204.673 142.932 204.825 143.102C204.994 143.254 204.994 143.519 204.825 143.689L203.465 145.033C203.371 145.128 203.276 145.166 203.163 145.166Z" fill="black"/>
<path d="M204.579 138.635C204.466 138.635 204.353 138.597 204.277 138.503L202.936 137.121C202.767 136.95 202.767 136.685 202.936 136.515C203.106 136.364 203.371 136.364 203.541 136.534L204.881 137.916C205.051 138.086 205.032 138.351 204.881 138.522C204.787 138.597 204.692 138.635 204.579 138.635Z" fill="black"/>
<path d="M211.017 145.26C210.904 145.26 210.81 145.222 210.715 145.128L209.375 143.746C209.205 143.576 209.224 143.311 209.375 143.159C209.545 142.989 209.809 142.989 209.979 143.159L211.319 144.541C211.489 144.711 211.489 144.976 211.319 145.147C211.225 145.222 211.131 145.26 211.017 145.26Z" fill="black"/>
<path d="M247.421 310.017C247.194 310.017 247.005 309.828 247.005 309.601C247.005 309.373 247.194 309.184 247.421 309.165H249.347C249.573 309.165 249.762 309.354 249.762 309.582C249.762 309.809 249.592 309.998 249.347 309.998L247.44 310.017C247.427 310.017 247.421 310.017 247.421 310.017Z" fill="black"/>
<path d="M238.226 310.074C237.999 310.074 237.81 309.885 237.81 309.657C237.81 309.43 237.999 309.222 238.226 309.222H240.151C240.378 309.222 240.567 309.411 240.567 309.638C240.567 309.866 240.378 310.055 240.151 310.055L238.226 310.074Z" fill="black"/>
<path d="M243.777 306.383C243.55 306.383 243.361 306.193 243.361 305.947V304.017C243.361 303.789 243.55 303.6 243.777 303.6C244.022 303.6 244.211 303.789 244.211 304.017V305.947C244.211 306.193 244.022 306.383 243.777 306.383Z" fill="black"/>
<path d="M243.796 315.639C243.569 315.639 243.38 315.45 243.38 315.204V313.273C243.38 313.046 243.569 312.856 243.796 312.856C244.022 312.856 244.211 313.046 244.211 313.273V315.204C244.211 315.45 244.022 315.639 243.796 315.639Z" fill="black"/>
<path d="M273.817 134.83C273.817 134.83 278.141 134.244 279.481 124.514C280.841 114.804 281.105 106.248 289.998 103.598C298.891 100.948 309.861 105.226 309.597 114.652C309.333 124.079 310.73 132.143 316.356 136.307C323.626 141.721 326.477 138.654 339.958 151.829C356.932 168.391 352.004 218.799 302.932 204.943L273.817 134.83Z" fill="black"/>
<path d="M285.939 126.502C285.939 126.502 287.393 128.111 290.451 127.543L285.939 126.502Z" fill="white"/>
<path d="M289.186 128.092C286.845 128.092 285.674 126.842 285.617 126.786C285.466 126.615 285.485 126.35 285.655 126.18C285.825 126.029 286.089 126.047 286.24 126.218C286.297 126.275 287.619 127.637 290.375 127.126C290.602 127.089 290.829 127.24 290.866 127.467C290.904 127.694 290.753 127.921 290.527 127.959C290.054 128.054 289.601 128.092 289.186 128.092Z" fill="black"/>
<path d="M287.053 317.873C287.053 317.873 284.504 325.69 281.955 328.094C279.406 330.479 269.266 335.174 269.134 340.284C268.964 346.228 272.401 347.326 281.615 345.168C288.261 343.635 293.755 339.546 295.719 337.218C297.456 335.174 296.474 333.413 296.059 331.009C295.549 328.056 295.436 325.028 295.436 322.037V317.115L287.053 317.873Z" fill="white"/>
<path fill-rule="evenodd" clip-rule="evenodd" d="M274.685 346.607C272.741 346.607 271.381 346.209 270.418 345.433C269.191 344.411 268.643 342.783 268.7 340.265C268.813 336.347 274.27 332.788 278.254 330.195C279.727 329.249 280.992 328.416 281.671 327.772C284.107 325.482 286.637 317.816 286.656 317.74C286.713 317.57 286.845 317.456 287.015 317.437L295.398 316.699C295.511 316.699 295.644 316.737 295.719 316.812C295.813 316.888 295.851 317.002 295.851 317.115V322.037C295.851 324.706 295.927 327.867 296.474 330.933C296.55 331.407 296.663 331.861 296.758 332.296C297.173 334.038 297.551 335.685 296.04 337.502C294.114 339.773 288.506 343.994 281.709 345.584C278.783 346.266 276.479 346.607 274.685 346.607ZM287.374 318.251C286.883 319.671 284.598 326.182 282.238 328.397C281.52 329.078 280.217 329.93 278.707 330.896C274.893 333.394 269.644 336.82 269.55 340.303C269.493 342.518 269.927 343.938 270.947 344.77C272.571 346.095 275.818 346.095 281.52 344.77C288.129 343.218 293.529 339.149 295.398 336.953C296.644 335.476 296.342 334.227 295.946 332.486C295.832 332.031 295.738 331.577 295.644 331.085C295.096 327.943 295.02 324.744 295.02 322.037V317.589L287.374 318.251Z" fill="black"/>
<path d="M269.493 343.162C269.266 343.162 269.077 342.991 269.077 342.783C269.059 342.537 269.228 342.348 269.455 342.329L272.74 342.083C281.01 341.477 288.752 337.918 294.529 332.031C295.304 331.236 295.738 330.744 295.738 330.725C295.889 330.555 296.153 330.536 296.342 330.687C296.512 330.839 296.531 331.104 296.38 331.274C296.361 331.293 295.927 331.804 295.134 332.618C289.205 338.656 281.275 342.31 272.797 342.934L269.512 343.162C269.512 343.162 269.505 343.162 269.493 343.162Z" fill="black"/>
<path d="M289.242 330.574C289.23 330.574 289.211 330.574 289.186 330.574C288.997 330.536 284.598 329.779 282.823 327.469C282.672 327.28 282.71 327.015 282.898 326.864C283.087 326.731 283.351 326.769 283.484 326.939C285.051 329.003 289.28 329.722 289.318 329.741C289.545 329.779 289.696 329.987 289.658 330.214C289.639 330.422 289.45 330.574 289.242 330.574Z" fill="black"/>
<path d="M285.353 333.224C285.328 333.224 285.303 333.224 285.277 333.224C285.089 333.186 280.878 332.258 279.537 329.968C279.424 329.779 279.481 329.514 279.689 329.4C279.877 329.268 280.142 329.343 280.255 329.552C281.426 331.52 285.41 332.372 285.447 332.391C285.674 332.429 285.825 332.656 285.768 332.883C285.731 333.091 285.561 333.224 285.353 333.224Z" fill="black"/>
<path d="M281.161 335.722C281.124 335.722 281.079 335.716 281.029 335.703C280.878 335.647 277.423 334.341 276.328 332.05C276.233 331.842 276.328 331.596 276.535 331.482C276.743 331.388 276.989 331.482 277.102 331.691C278.027 333.659 281.293 334.89 281.312 334.908C281.539 334.984 281.652 335.23 281.558 335.457C281.501 335.628 281.35 335.722 281.161 335.722Z" fill="black"/>
<path d="M306.708 298.603C307.01 298.603 311.447 298.168 314.015 297.903C314.997 297.808 315.884 298.527 315.998 299.53L316.508 304.187C316.678 305.834 317.017 307.443 317.471 309.033C318.32 311.929 319.547 316.888 318.868 319.16C318.15 321.583 315.885 324.952 314.374 326.883C313.694 327.772 312.524 328.113 311.466 327.753C309.559 327.129 306.519 325.898 304.726 324.1C301.988 321.355 304.952 316.074 304.952 316.074L306.708 298.603Z" fill="white"/>
<path fill-rule="evenodd" clip-rule="evenodd" d="M312.297 328.321C311.976 328.321 311.636 328.264 311.334 328.17C309.162 327.432 306.217 326.201 304.442 324.403C301.666 321.62 304.159 316.661 304.536 315.961L306.292 298.565C306.311 298.338 306.481 298.186 306.708 298.186C306.934 298.186 309.653 297.921 313.958 297.486C315.185 297.373 316.281 298.262 316.413 299.474L316.923 304.13C317.092 305.72 317.413 307.329 317.867 308.919C318.886 312.402 319.962 317.021 319.283 319.273C318.565 321.677 316.375 325.009 314.713 327.148C314.128 327.905 313.222 328.321 312.297 328.321ZM307.085 299L305.367 316.112C305.367 316.175 305.348 316.232 305.311 316.282C305.292 316.339 302.554 321.318 305.027 323.797C306.783 325.577 309.899 326.788 311.598 327.356C312.485 327.659 313.467 327.356 314.053 326.618C315.79 324.384 317.829 321.185 318.471 319.027C319.113 316.85 317.867 311.91 317.074 309.146C316.583 307.518 316.262 305.872 316.092 304.225L315.582 299.568C315.506 298.811 314.808 298.243 314.053 298.319C310.314 298.698 307.973 298.925 307.085 299Z" fill="black"/>
<path d="M310.258 327.545C310.182 327.545 310.088 327.526 310.012 327.47C309.824 327.337 309.786 327.072 309.918 326.883C315.148 319.519 314.789 317.627 314.034 313.462C313.864 312.554 313.675 311.512 313.524 310.301C313.109 307.14 311.9 298.414 311.882 298.338C311.844 298.111 312.014 297.884 312.24 297.865C312.467 297.827 312.675 297.978 312.712 298.224C312.731 298.3 313.94 307.026 314.355 310.206C314.506 311.38 314.695 312.402 314.865 313.311C315.639 317.57 316.035 319.709 310.598 327.375C310.522 327.488 310.39 327.545 310.258 327.545Z" fill="black"/>
<path d="M310.994 314.219C310.982 314.219 310.963 314.219 310.938 314.219L305.934 313.481C305.707 313.443 305.556 313.235 305.594 313.008C305.613 312.781 305.821 312.61 306.066 312.648L311.051 313.386C311.296 313.424 311.447 313.632 311.41 313.86C311.391 314.068 311.202 314.219 310.994 314.219Z" fill="black"/>
<path d="M310.484 317.835C310.459 317.835 310.44 317.835 310.428 317.835L305.424 317.096C305.198 317.059 305.046 316.85 305.065 316.604C305.103 316.377 305.311 316.207 305.556 316.264L310.541 316.983C310.768 317.021 310.937 317.248 310.9 317.475C310.862 317.683 310.692 317.835 310.484 317.835Z" fill="black"/>
<path d="M305.046 319.444C302.139 321.469 295.983 324.062 285.617 320.939L290.376 215.619L309.88 211.89C309.88 211.89 312.429 238.068 309.672 264.417C307.142 288.476 307.029 308.976 307.085 315.487C307.085 317.059 306.349 318.554 305.046 319.444Z" fill="#FF6701"/>
<path d="M309.012 208.804L262.299 211.454L263.885 262.638C264.074 268.62 265.925 274.431 269.21 279.409C274.497 287.416 282.937 299.171 289.602 303.771C300.119 311.02 309.012 208.804 309.012 208.804Z" fill="#FF6701"/>
<path d="M285.806 302.029C285.794 302.029 285.787 302.029 285.787 302.029C285.542 302.029 285.372 301.821 285.372 301.594L286.92 268.411C286.939 268.184 287.128 267.995 287.355 268.014C287.6 268.014 287.77 268.222 287.77 268.449L286.222 301.632C286.203 301.859 286.014 302.029 285.806 302.029Z" fill="white"/>
<path d="M232.353 124.931C232.674 124.874 232.882 124.609 232.882 124.287C232.844 122.659 232.504 117.776 229.767 115.523C226.443 112.797 223.63 106.551 221.629 107.157C219.627 107.762 224.046 113.214 223.536 113.801C223.045 114.406 221.969 112.343 220.873 110.337C219.759 108.311 220.741 107.857 219.136 108.008C216.946 108.179 215.473 108.519 218.4 115.069C221.176 121.296 226.689 121.107 227.406 125.253C227.482 125.593 227.822 125.82 228.162 125.764L232.353 124.931Z" fill="white"/>
<path fill-rule="evenodd" clip-rule="evenodd" d="M228.048 126.199C227.822 126.199 227.614 126.123 227.444 126.01C227.199 125.839 227.048 125.593 227.01 125.309C226.689 123.511 225.348 122.602 223.668 121.448C221.818 120.179 219.514 118.608 218.004 115.239C216.418 111.661 216.002 109.674 216.625 108.614C217.135 107.743 218.23 107.649 219.118 107.573C220.194 107.478 220.496 107.668 220.666 108.519C220.741 108.898 220.836 109.39 221.232 110.128L221.497 110.583C221.912 111.34 222.46 112.362 222.894 112.987C222.705 112.608 222.46 112.173 222.271 111.813C221.157 109.825 220.402 108.33 220.779 107.402C220.911 107.081 221.157 106.872 221.516 106.759C222.951 106.324 224.386 108.273 226.198 110.734C227.369 112.305 228.672 114.084 230.031 115.201C232.863 117.511 233.26 122.318 233.297 124.287C233.316 124.798 232.958 125.252 232.448 125.347L228.256 126.18C228.181 126.193 228.111 126.199 228.048 126.199ZM219.571 108.406C219.495 108.406 219.363 108.406 219.174 108.425C218.306 108.5 217.626 108.576 217.343 109.049C216.909 109.806 217.362 111.718 218.778 114.898C220.175 118.041 222.29 119.479 224.14 120.747C225.915 121.959 227.444 123.019 227.822 125.177C227.841 125.252 227.897 125.29 227.916 125.309C227.973 125.347 228.03 125.347 228.086 125.347L232.278 124.533C232.391 124.514 232.467 124.42 232.467 124.306C232.429 122.867 232.127 118.003 229.502 115.845C228.067 114.671 226.708 112.835 225.518 111.226C224.102 109.295 222.63 107.308 221.742 107.573C221.629 107.611 221.591 107.668 221.553 107.724C221.308 108.349 222.327 110.185 222.988 111.396C223.876 112.987 224.216 113.649 223.857 114.084C223.706 114.274 223.498 114.368 223.272 114.33C222.573 114.274 221.931 113.138 220.76 110.999L220.496 110.526C220.024 109.674 219.911 109.087 219.835 108.69C219.816 108.595 219.797 108.463 219.778 108.406C219.741 108.406 219.684 108.406 219.571 108.406Z" fill="black"/>
<path d="M331.084 221.865C331.386 221.828 331.669 221.979 331.801 222.263C332.33 223.512 333.859 226.654 336.219 227.828C337.9 228.661 339.41 229.172 341.468 231.122C343.507 233.071 347.038 238.125 346.264 239.356C345.358 240.832 342.431 239.337 340.184 237.955C337.937 236.592 335.709 233.298 333.538 232.958C331.348 232.636 335.974 237.898 335.313 238.731C334.652 239.564 332.292 238.334 330.781 235.835C330.177 234.851 326.628 226.181 325.551 223.55C325.4 223.172 325.627 222.736 326.042 222.66L331.084 221.865Z" fill="white"/>
<path fill-rule="evenodd" clip-rule="evenodd" d="M345.018 240.397C343.602 240.397 341.676 239.356 339.977 238.314C339.033 237.747 338.108 236.876 337.22 236.024C335.955 234.813 334.652 233.563 333.463 233.374C333.412 233.374 333.375 233.374 333.35 233.374C333.368 233.79 334.105 235.021 334.539 235.759C335.54 237.444 336.087 238.428 335.634 238.996C335.464 239.204 335.143 239.45 334.577 239.412C333.293 239.318 331.556 237.917 330.423 236.062C329.838 235.078 326.552 227.09 325.155 223.72C325.042 223.417 325.061 223.077 325.212 222.793C325.382 222.509 325.646 222.301 325.967 222.263L331.027 221.449C331.518 221.373 331.99 221.638 332.179 222.092C332.708 223.342 334.18 226.351 336.408 227.449C336.673 227.576 336.937 227.702 337.201 227.828C338.561 228.471 339.996 229.134 341.752 230.819C343.376 232.352 347.662 237.898 346.623 239.583C346.264 240.17 345.698 240.397 345.018 240.397ZM333.35 232.522C333.425 232.522 333.507 232.529 333.595 232.541C335.03 232.768 336.446 234.112 337.806 235.399C338.655 236.232 339.543 237.084 340.411 237.595C343.508 239.507 345.358 240.018 345.906 239.147C346.415 238.333 343.583 233.715 341.185 231.443C339.505 229.853 338.202 229.229 336.843 228.585C336.578 228.459 336.308 228.333 336.031 228.206C333.557 226.976 331.971 223.758 331.405 222.414C331.367 222.32 331.254 222.263 331.159 222.282L326.099 223.096C326.024 223.096 325.967 223.171 325.948 223.19C325.929 223.228 325.91 223.304 325.929 223.399C328.157 228.812 330.687 234.869 331.14 235.627C332.217 237.387 333.765 238.504 334.633 238.561C334.785 238.573 334.892 238.554 334.954 238.504C334.973 238.144 334.256 236.933 333.822 236.194C332.802 234.472 332.236 233.469 332.651 232.863C332.764 232.693 332.953 232.522 333.35 232.522Z" fill="black"/>
<path d="M284.976 134.149C280.822 133.203 277.744 132.294 273.477 132.521C268.605 132.786 266.113 132.313 262.073 134.338C254.501 138.124 251.499 148.478 247.062 146.661C242.625 144.844 233.562 121.088 233.562 121.088L225.594 124.439C225.594 124.439 235.695 168.41 243.758 171.041C251.82 173.673 261.619 161.104 261.619 161.104C261.619 161.104 261.978 192.98 256.71 214.086C256.71 214.086 265.018 214.048 270.418 216.281C299.212 228.244 311.353 214.086 311.353 214.086C311.183 205.889 309.389 200.268 303.498 191.144C300.269 186.147 299.344 178.064 305.726 170.776C305.726 170.776 321.228 218.837 324.117 224.497C324.324 224.875 333.878 222.755 333.897 222.528C335.445 205.303 323.644 173.161 321.945 165.363C321.416 162.997 320.718 160.668 319.793 158.435C316.885 151.469 310.39 140.055 298.268 137.159L284.976 134.149Z" fill="white"/>
<path fill-rule="evenodd" clip-rule="evenodd" d="M324.362 224.951C323.89 224.951 323.833 224.837 323.758 224.686C321.039 219.367 307.576 177.875 305.556 171.628C299.741 178.764 300.949 186.431 303.838 190.917C309.653 199.927 311.579 205.568 311.768 214.086C311.787 214.18 311.749 214.275 311.674 214.37C311.541 214.502 308.483 218.023 301.799 220.067C295.681 221.96 285.24 222.888 270.248 216.679C264.999 214.483 256.804 214.502 256.71 214.502C256.578 214.502 256.465 214.445 256.389 214.351C256.295 214.237 256.276 214.105 256.314 213.991C260.921 195.441 261.204 168.202 261.204 162.277C259.014 164.833 252.462 171.836 246.118 171.836C245.268 171.836 244.437 171.704 243.625 171.439C235.431 168.751 225.613 126.331 225.197 124.533C225.14 124.325 225.254 124.136 225.443 124.041L233.392 120.71C233.486 120.653 233.618 120.653 233.713 120.71C233.826 120.747 233.901 120.823 233.939 120.937C236.45 127.505 243.72 144.844 247.213 146.282C249.29 147.115 251.14 144.768 253.481 141.796C255.728 138.976 258.258 135.777 261.884 133.96C265.112 132.332 267.397 132.275 270.569 132.199C271.456 132.18 272.382 132.161 273.458 132.105C277.196 131.896 280.104 132.578 283.465 133.354C283.981 133.48 284.516 133.606 285.07 133.733L298.362 136.742C310.767 139.714 317.357 151.507 320.189 158.283C321.076 160.422 321.794 162.713 322.341 165.268C322.757 167.085 323.701 170.265 324.928 174.278C328.874 187.377 335.502 209.316 334.312 222.566C334.274 222.887 334.274 222.963 331.839 223.55C330.498 223.872 328.912 224.213 327.553 224.478C325.759 224.818 324.834 224.951 324.362 224.951ZM305.726 170.36C305.751 170.36 305.776 170.36 305.801 170.36C305.952 170.398 306.066 170.511 306.122 170.644C306.273 171.136 321.341 217.777 324.4 224.118C325.627 224.099 332.216 222.679 333.5 222.244C334.577 209.126 328.025 187.491 324.116 174.524C322.889 170.492 321.926 167.293 321.53 165.457C320.982 162.94 320.283 160.706 319.415 158.605C316.639 151.98 310.22 140.452 298.173 137.556L284.881 134.547C284.327 134.42 283.786 134.3 283.257 134.187C279.84 133.373 277.121 132.748 273.496 132.938C272.419 132.994 271.437 133.032 270.588 133.051C267.416 133.127 265.32 133.165 262.261 134.698C258.787 136.439 256.332 139.563 254.142 142.326C251.688 145.45 249.554 148.137 246.911 147.058C242.625 145.317 234.581 124.912 233.316 121.637L226.085 124.685C227.066 128.811 236.507 168.221 243.89 170.644C251.574 173.161 261.185 160.971 261.279 160.858C261.393 160.706 261.581 160.649 261.751 160.706C261.921 160.763 262.035 160.933 262.035 161.104C262.035 161.426 262.337 192.753 257.258 213.669C259.202 213.707 265.886 213.953 270.569 215.903C285.296 221.998 295.511 221.108 301.497 219.291C307.293 217.512 310.352 214.54 310.937 213.934C310.729 205.681 308.822 200.173 303.139 191.371C300.005 186.506 298.721 178.14 305.405 170.511C305.48 170.417 305.594 170.36 305.726 170.36Z" fill="black"/>
<path d="M279.84 213.631C279.689 213.631 279.538 213.537 279.462 213.385L268.058 190.084C267.964 189.876 268.058 189.629 268.266 189.535C268.473 189.421 268.719 189.516 268.813 189.724L280.218 213.026C280.331 213.234 280.236 213.48 280.029 213.593C279.966 213.619 279.903 213.631 279.84 213.631Z" fill="black"/>
<path d="M269.87 205.927C269.7 205.927 269.549 205.833 269.474 205.681L266.358 198.091C266.264 197.882 266.377 197.636 266.585 197.542C266.793 197.447 267.038 197.561 267.133 197.769L270.248 205.359C270.342 205.568 270.248 205.814 270.021 205.908C269.971 205.921 269.921 205.927 269.87 205.927Z" fill="black"/>
<path d="M229.634 120.558H219.986C219.306 120.558 218.74 120.028 218.702 119.347L217.777 101.667C217.739 100.929 218.324 100.323 219.061 100.323H230.465C231.201 100.323 231.768 100.929 231.749 101.667L230.918 119.347C230.88 120.028 230.314 120.558 229.634 120.558Z" fill="black"/>
<path d="M229.483 118.135C229.37 118.135 229.238 118.078 229.143 117.965C229.011 117.776 229.049 117.511 229.238 117.378C235.544 112.778 237.432 106.608 235.959 104.374C234.996 102.897 232.712 103.106 229.71 104.904C229.502 105.017 229.257 104.961 229.124 104.752C229.011 104.563 229.068 104.298 229.275 104.185C234.166 101.251 236.073 103.011 236.658 103.901C238.584 106.816 236.016 113.479 229.747 118.059C229.672 118.116 229.578 118.135 229.483 118.135Z" fill="black"/>
<path d="M218.778 117.189C214.435 110.772 215.228 107.743 217.702 105.85C217.853 105.737 218.041 105.737 218.192 105.85C222.988 109.182 224.178 112.949 220.723 117.265C220.213 117.908 219.231 117.851 218.778 117.189Z" fill="white"/>
<path fill-rule="evenodd" clip-rule="evenodd" d="M219.797 118.135C219.772 118.135 219.747 118.135 219.722 118.135C219.193 118.116 218.721 117.851 218.419 117.416C214.53 111.662 214.227 107.989 217.437 105.51C217.739 105.301 218.136 105.283 218.438 105.491C221.195 107.422 222.762 109.504 223.064 111.662C223.328 113.554 222.649 115.523 221.044 117.53C220.742 117.927 220.288 118.135 219.797 118.135ZM217.966 106.191C216.078 107.63 214.511 110.147 219.118 116.943C219.269 117.151 219.495 117.283 219.76 117.302C220.024 117.302 220.232 117.208 220.402 117C221.856 115.182 222.46 113.422 222.233 111.775C221.95 109.863 220.515 107.989 217.966 106.191Z" fill="black"/>
<path d="M286.146 126.71C283.182 124.666 286.562 112.362 289.922 110.545C293.302 108.746 300.364 110.715 300.364 110.715C297.739 119.366 302.479 121.523 303.12 121.523C303.781 121.523 305.877 121.637 304.574 124.438C303.253 127.24 300.288 125.726 300.288 125.726C299.703 126.256 298.589 126.842 297.211 127.354C295.587 132.218 297.362 136.042 298.91 138.2C299.684 139.298 299.155 140.85 297.834 141.153C295.757 141.664 292.566 141.948 288.525 140.888C285.466 140.074 283.408 138.957 282.049 137.916C280.935 137.064 281.105 135.304 282.389 134.717C285.806 133.146 288.11 128.073 286.146 126.71Z" fill="white"/>
<path fill-rule="evenodd" clip-rule="evenodd" d="M293.868 142.023C292.301 142.023 290.47 141.834 288.431 141.304C285.731 140.585 283.503 139.563 281.784 138.257C281.142 137.764 280.803 136.969 280.897 136.155C280.991 135.341 281.482 134.66 282.2 134.338C284.541 133.259 286.278 130.515 286.448 128.622C286.486 128.111 286.429 127.41 285.901 127.051C284.919 126.369 284.484 124.779 284.598 122.451C284.843 118.003 287.184 111.548 289.733 110.185C293.208 108.311 300.194 110.223 300.477 110.318C300.59 110.336 300.685 110.412 300.741 110.507C300.798 110.62 300.817 110.734 300.779 110.848C299.344 115.542 300.175 118.154 301.119 119.517C301.912 120.672 302.913 121.088 303.139 121.088C304.348 121.088 304.914 121.561 305.159 121.959C305.556 122.583 305.48 123.473 304.952 124.628C304.517 125.517 303.913 126.123 303.101 126.388C301.987 126.767 300.855 126.407 300.364 126.218C299.722 126.71 298.721 127.221 297.55 127.675C296.115 132.18 297.682 135.739 299.25 137.954C299.703 138.597 299.816 139.411 299.552 140.149C299.268 140.85 298.683 141.399 297.947 141.569C296.889 141.815 295.53 142.023 293.868 142.023ZM286.391 126.369C287.052 126.823 287.373 127.656 287.279 128.697C287.09 130.817 285.24 133.865 282.559 135.095C282.105 135.304 281.803 135.739 281.747 136.25C281.671 136.78 281.898 137.272 282.294 137.594C283.918 138.824 286.052 139.79 288.638 140.471C292.66 141.531 295.813 141.209 297.739 140.755C298.211 140.642 298.589 140.301 298.759 139.847C298.929 139.373 298.853 138.862 298.57 138.446C296.852 136.042 295.152 132.142 296.814 127.221C296.852 127.088 296.946 126.994 297.059 126.956C298.362 126.483 299.457 125.896 300.005 125.404C300.137 125.29 300.326 125.271 300.477 125.347C300.496 125.347 301.723 125.972 302.837 125.593C303.404 125.385 303.857 124.95 304.178 124.268C304.593 123.416 304.669 122.773 304.442 122.413C304.253 122.091 303.8 121.94 303.12 121.94C302.724 121.94 301.515 121.486 300.515 120.142C299.438 118.665 298.457 115.902 299.854 111.018C298.306 110.639 292.868 109.466 290.13 110.923C288.11 112.021 285.693 117.965 285.447 122.489C285.334 124.495 285.674 125.858 286.391 126.369Z" fill="black"/>
<path d="M203.937 44.0098C203.39 36.8547 203.937 26.6899 210.055 18.1909C226.972 -5.29985 276.328 -1.85479 285.92 17.3201C290.791 27.0496 285.523 41.0569 277.669 48.761C266.019 60.1562 246.401 60.0426 234.431 53.1903C223.026 46.6788 219.477 34.5643 212.245 35.7001C208.204 36.3247 205.523 40.6405 203.937 44.0098Z" fill="white"/>
<path fill-rule="evenodd" clip-rule="evenodd" d="M253.35 58.3389C246.458 58.3389 239.604 56.6542 234.223 53.5688C228.955 50.5402 225.424 46.4516 222.309 42.8362C218.797 38.7665 216.002 35.5296 212.302 36.1164C209.318 36.5707 206.637 39.2965 204.334 44.1801C204.239 44.3505 204.05 44.4451 203.862 44.4262C203.673 44.3883 203.541 44.2369 203.522 44.0476C202.71 33.561 204.806 24.778 209.715 17.9447C214.057 11.9064 220.893 7.21206 229.465 4.37273C237.112 1.83626 246.118 0.83303 254.841 1.5334C270.059 2.76377 282.106 8.72637 286.297 17.1308C291.301 27.1063 285.976 41.1894 277.952 49.0638C272.514 54.3828 264.792 57.6385 256.201 58.2443C255.244 58.3074 254.294 58.3389 253.35 58.3389ZM213.189 35.1889C216.833 35.1889 219.571 38.369 222.951 42.2872C226.009 45.8459 229.502 49.8966 234.638 52.8306C246.25 59.4746 265.906 59.6829 277.367 48.458C285.013 40.9622 290.3 27.0116 285.542 17.5094C281.483 9.36995 269.682 3.57772 254.784 2.3852C240.472 1.23054 220.251 4.73238 210.395 18.4369C205.844 24.7591 203.786 32.8228 204.258 42.4197C206.543 38.1418 209.205 35.7379 212.169 35.2836C212.522 35.2205 212.862 35.1889 213.189 35.1889Z" fill="black"/>
<path d="M269.153 24.6265H227.596C227.35 24.6265 227.161 24.4373 227.161 24.2101C227.161 23.964 227.35 23.7747 227.596 23.7747H269.153C269.38 23.7747 269.569 23.964 269.569 24.2101C269.569 24.4373 269.38 24.6265 269.153 24.6265Z" fill="black"/>
<path d="M258.089 31.9521H237.187C236.961 31.9521 236.772 31.7628 236.772 31.5167C236.772 31.2896 236.961 31.1003 237.187 31.1003H258.089C258.334 31.1003 258.523 31.2896 258.523 31.5167C258.523 31.7628 258.334 31.9521 258.089 31.9521Z" fill="black"/>
<path d="M312.939 89.5905C313.996 88.0951 325.91 70.6805 318.433 50.8431C313.165 36.8925 299.816 25.6109 284.296 25.0052C281.671 24.8916 265.169 24.248 256.314 37.4793C250.347 46.3759 249.686 58.8121 255.502 67.8601C262.394 78.6117 275.554 80.145 277.499 80.3532C291.169 81.7161 298.702 72.9331 306.16 77.1731C310.711 79.7664 312.297 85.5586 312.939 89.5905Z" fill="white"/>
<path fill-rule="evenodd" clip-rule="evenodd" d="M312.939 90.007C312.901 90.007 312.87 90.0007 312.844 89.988C312.675 89.9502 312.542 89.8177 312.523 89.6473C311.542 83.5522 309.333 79.4636 305.953 77.5518C302.271 75.4507 298.551 76.681 293.85 78.2332C289.318 79.7286 284.164 81.4322 277.461 80.7697C273.892 80.41 261.771 78.4225 255.143 68.0873C249.422 59.1719 249.762 46.4895 255.974 37.2333C264.074 25.1378 278.48 24.3427 284.315 24.5888C291.83 24.8728 299.137 27.6364 305.462 32.5957C311.428 37.2522 316.186 43.688 318.811 50.6917C326.326 70.586 314.638 87.9248 313.279 89.8366C313.203 89.9313 313.071 90.007 312.939 90.007ZM301.686 75.5832C303.272 75.5832 304.82 75.9239 306.368 76.8136C309.786 78.7632 312.07 82.6815 313.165 88.4927C315.828 84.404 324.721 68.7309 318.037 50.9946C312.486 36.2679 298.929 25.9896 284.277 25.4217C278.594 25.2135 264.546 25.9517 256.654 37.7065C250.649 46.6788 250.31 59.0015 255.842 67.6331C262.431 77.9114 275.082 79.6718 277.536 79.9179C284.069 80.5804 289.13 78.9147 293.586 77.4382C296.493 76.4728 299.137 75.5832 301.686 75.5832Z" fill="black"/>
<path d="M305.216 50.2184H266.132C265.905 50.2184 265.716 50.0291 265.716 49.802C265.716 49.5559 265.905 49.3666 266.132 49.3666H305.216C305.443 49.3666 305.632 49.5559 305.632 49.802C305.632 50.0291 305.443 50.2184 305.216 50.2184Z" fill="black"/>
<path d="M292.585 55.3292H278.612C278.367 55.3292 278.178 55.1399 278.178 54.8938C278.178 54.6667 278.367 54.4774 278.612 54.4774H292.585C292.811 54.4774 293 54.6667 293 54.8938C293 55.1399 292.811 55.3292 292.585 55.3292Z" fill="black"/>
<path d="M26.0752 329.476H174.784C181.11 329.476 186.226 324.271 186.226 317.835L171.744 11.9633C171.744 5.5275 166.609 0.303131 160.284 0.303131H11.5743C5.24909 0.303131 0.113373 5.5275 0.113373 11.9633L14.6142 317.835C14.6142 324.271 19.7499 329.476 26.0752 329.476Z" fill="black"/>
<path d="M36.1578 329.552H184.867C191.192 329.552 196.309 324.346 196.309 317.948L181.808 12.6258C181.808 6.22781 176.691 1.02237 170.366 1.02237H21.657C15.3318 1.02237 10.196 6.22781 10.196 12.6258L24.6969 317.948C24.6969 324.346 29.8326 329.552 36.1578 329.552Z" fill="white"/>
<path d="M170.026 329.571H139.382C139.155 329.571 138.967 329.381 138.967 329.154C138.967 328.908 139.155 328.719 139.382 328.719H170.026C170.253 328.719 170.442 328.908 170.442 329.154C170.442 329.381 170.253 329.571 170.026 329.571Z" fill="black"/>
<path d="M123.333 329.571H36.1578C29.606 329.571 24.2815 324.176 24.2815 317.551L18.7493 214.199C18.7493 213.972 18.9192 213.764 19.1458 213.764C19.3912 213.745 19.58 213.934 19.5989 214.161L25.1123 317.532C25.1123 323.722 30.0592 328.719 36.1578 328.719H123.333C123.578 328.719 123.767 328.908 123.767 329.154C123.767 329.381 123.578 329.571 123.333 329.571Z" fill="black"/>
<path d="M14.9727 116.772C14.7461 116.772 14.5573 116.602 14.5573 116.375L9.78033 12.2471C9.78033 5.6031 15.1049 0.208374 21.6567 0.208374H170.366C176.918 0.208374 182.242 5.6031 182.242 12.2282L183.356 39.9968C183.375 40.2429 183.186 40.4322 182.96 40.4511C182.714 40.4511 182.525 40.2618 182.525 40.0347L181.393 12.2471C181.393 6.07632 176.446 1.06017 170.366 1.06017H21.6567C15.5769 1.06017 10.6111 6.07632 10.6111 12.2282L15.3881 116.337C15.407 116.564 15.2182 116.753 14.9916 116.772C14.979 116.772 14.9727 116.772 14.9727 116.772Z" fill="black"/>
<path d="M43.0492 320.825H178.844C184.621 320.825 189.304 316.074 189.304 310.225L174.992 21.0869C174.992 15.2379 170.309 10.5056 164.532 10.5056H28.7372C22.9595 10.5056 18.2769 15.2379 18.2769 21.0869L32.589 310.225C32.589 316.074 37.2715 320.825 43.0492 320.825Z" fill="white"/>
<path fill-rule="evenodd" clip-rule="evenodd" d="M178.844 321.242H43.0495C37.0452 321.242 32.1738 316.301 32.1738 310.225L17.8618 21.1058C17.8618 15.0107 22.7332 10.0703 28.7374 10.0703H164.532C170.536 10.0703 175.426 15.0107 175.426 21.0869L189.738 310.206C189.738 316.301 184.848 321.242 178.844 321.242ZM28.7374 10.9221C23.2052 10.9221 18.6926 15.4839 18.6926 21.0869L33.0046 310.206C33.0046 315.828 37.5173 320.39 43.0495 320.39H178.844C184.395 320.39 188.889 315.828 188.889 310.225L174.577 21.1058C174.577 15.4839 170.083 10.9221 164.532 10.9221H28.7374Z" fill="black"/>
<path d="M28.1898 102.879C27.9633 102.879 27.7745 102.708 27.7745 102.481L26.4716 75.0531C26.4716 74.826 26.6416 74.6178 26.8682 74.6178C27.0947 74.5799 27.3024 74.7881 27.3213 75.0153L28.6052 102.443C28.6241 102.67 28.4353 102.86 28.2087 102.879C28.2087 102.879 28.2024 102.879 28.1898 102.879Z" fill="black"/>
<path d="M171.574 77.6084C171.348 77.6084 171.178 77.4191 171.159 77.192L168.742 26.1787C168.742 20.7461 164.607 16.3357 159.509 16.3357H34.2316C29.1525 16.3357 24.9986 20.7461 24.9986 26.1598L26.8301 64.8882C26.849 65.1343 26.6601 65.3236 26.4336 65.3425C26.207 65.3425 25.9993 65.1722 25.9993 64.945L24.1678 26.1787C24.1678 20.2729 28.6804 15.5028 34.2316 15.5028H159.509C165.079 15.5028 169.592 20.2729 169.592 26.1598L172.008 77.1541C172.008 77.3813 171.839 77.5895 171.593 77.5895C171.593 77.6021 171.587 77.6084 171.574 77.6084Z" fill="black"/>
<path d="M182.299 261.881C182.091 261.881 181.903 261.692 181.884 261.464L179.845 218.477C179.845 218.231 180.015 218.042 180.26 218.023C180.468 218.023 180.675 218.193 180.694 218.42L182.733 261.427C182.733 261.673 182.564 261.862 182.318 261.881C182.318 261.881 182.312 261.881 182.299 261.881Z" fill="white"/>
<path d="M160.548 316.188H79.7926C79.566 316.188 79.3772 315.999 79.3772 315.753C79.3772 315.525 79.566 315.336 79.7926 315.336H160.548C160.774 315.336 160.963 315.525 160.963 315.753C160.963 315.999 160.774 316.188 160.548 316.188Z" fill="black"/>
<path d="M69.6908 316.188H47.4486C41.8787 316.188 37.366 311.399 37.366 305.531L35.6101 268.203C35.5912 267.976 35.78 267.787 36.0066 267.768C36.2331 267.749 36.4408 267.938 36.4408 268.165L38.2157 305.493C38.2157 310.926 42.3507 315.336 47.4486 315.336H69.6908C69.9174 315.336 70.1062 315.525 70.1062 315.752C70.1062 315.999 69.9174 316.188 69.6908 316.188Z" fill="black"/>
<path d="M121.18 1.04126L118.31 5.83026C116.573 8.72638 113.647 10.4678 110.531 10.4678H81.6052C78.5653 10.4678 75.6953 8.80209 73.9393 6.00062L70.8428 1.04126H121.18Z" fill="black"/>
<path d="M189.53 182.967C189.304 182.967 189.115 182.796 189.115 182.569L187 140.831C187 140.604 187.17 140.396 187.416 140.377C187.642 140.377 187.831 140.547 187.85 140.793L189.946 182.531C189.965 182.758 189.776 182.967 189.549 182.967C189.549 182.967 189.543 182.967 189.53 182.967Z" fill="black"/>
<path d="M175.011 147.986C175.011 189.44 141.497 223.039 100.147 223.039C58.7966 223.039 25.2823 189.44 25.2823 147.986C25.2823 106.551 58.7966 72.952 100.147 72.952C141.497 72.952 175.011 106.551 175.011 147.986Z" fill="white"/>
<path fill-rule="evenodd" clip-rule="evenodd" d="M100.146 223.455C58.6452 223.455 24.8665 189.611 24.8665 147.986C24.8665 106.38 58.6452 72.5166 100.146 72.5166C141.647 72.5166 175.426 106.38 175.426 147.986C175.426 189.611 141.647 223.455 100.146 223.455ZM100.146 73.3684C59.0984 73.3684 25.7162 106.835 25.7162 147.986C25.7162 189.137 59.0984 222.622 100.146 222.622C141.194 222.622 174.576 189.137 174.576 147.986C174.576 106.835 141.194 73.3684 100.146 73.3684Z" fill="black"/>
<path d="M141.761 200.192L72.221 204.129C72.221 204.129 72.1832 210.243 72.0322 217.209C81.926 222.055 92.9716 223.039 104.716 223.039C118.877 223.039 131.999 216.149 143.29 209.297L141.761 200.192Z" fill="#FF6701"/>
<path d="M200.784 65.3426C200.614 63.9229 201.426 62.3518 201.709 60.9321C202.313 57.8278 202.842 54.6856 202.766 51.5434C202.672 48.7419 202.559 46.2433 201.407 43.7069C200.633 41.9843 199.387 39.8075 197.008 40.0347C195.271 40.205 193.666 41.3029 192.703 42.7415C191.381 44.6912 191.079 47.1708 191.154 49.537C191.211 51.657 191.985 54.2502 191.532 56.3324C191.041 58.5471 189.776 58.3578 188.662 56.6353C185.868 52.3006 181.223 51.4866 182.866 53.0199C184.489 54.5531 187.435 60.686 188.53 62.3707C188.926 62.9764 190.154 63.7147 191.551 64.415C191.551 68.428 191.06 74.5798 188.228 81.2996C184.848 89.2876 179.542 94.7769 175.162 98.3166C178.731 104.601 186.547 114.879 199.953 116.602C201.841 112.816 203.333 108.822 204.371 104.734C206.222 97.4459 206.637 89.8176 205.636 82.3785C205.127 78.6117 204.258 74.9016 203.031 71.3051C202.408 69.488 201.539 67.7465 200.916 65.9293C200.853 65.7401 200.809 65.5445 200.784 65.3426Z" fill="white"/>
<path fill-rule="evenodd" clip-rule="evenodd" d="M199.953 117.018C199.928 117.018 199.909 117.018 199.897 117.018C186.227 115.277 178.296 104.677 174.785 98.5249C174.69 98.3356 174.728 98.1085 174.898 97.976C180.751 93.2627 185.094 87.603 187.832 81.1293C190.003 75.9996 191.098 70.4723 191.117 64.6801C189.512 63.8472 188.549 63.1658 188.171 62.5979C187.831 62.049 187.284 61.0458 186.661 59.8911C185.377 57.5439 183.64 54.326 182.564 53.3228C182.431 53.1903 181.978 52.7739 182.129 52.3196C182.167 52.2249 182.28 51.9599 182.696 51.9031C183.791 51.7517 186.925 53.1714 189.021 56.4082C189.606 57.3168 190.116 57.5818 190.38 57.5439C190.683 57.4871 190.947 56.995 191.117 56.2378C191.4 54.9885 191.192 53.4742 190.985 52.0167C190.871 51.1838 190.758 50.332 190.72 49.537C190.645 46.5652 191.173 44.2559 192.363 42.4955C193.439 40.8865 195.195 39.7887 196.97 39.6183C199.576 39.3722 200.916 41.5869 201.804 43.5366C202.937 46.0541 203.088 48.5338 203.182 51.5246C203.258 54.5532 202.823 57.5061 202.125 61.0079C202.011 61.519 201.86 62.0301 201.69 62.5412C201.407 63.4687 201.105 64.434 201.199 65.2858C201.225 65.4625 201.262 65.6329 201.313 65.7969C201.615 66.6676 201.974 67.5384 202.332 68.3712C202.71 69.2798 203.106 70.2073 203.427 71.1727C204.655 74.7881 205.542 78.536 206.052 82.3218C207.053 89.7798 206.618 97.5596 204.787 104.828C203.73 108.974 202.238 112.987 200.331 116.791C200.255 116.924 200.104 117.018 199.953 117.018ZM175.691 98.4113C179.184 104.431 186.812 114.349 199.708 116.148C201.52 112.475 202.955 108.595 203.956 104.62C205.788 97.4649 206.222 89.7798 205.221 82.4354C204.711 78.6875 203.843 74.9963 202.634 71.4377C202.332 70.5102 201.936 69.6016 201.558 68.712C201.199 67.8602 200.822 66.9705 200.52 66.0809C200.444 65.8537 200.394 65.6202 200.369 65.3805C200.237 64.3583 200.576 63.3172 200.897 62.2951C201.048 61.784 201.199 61.3108 201.294 60.8376C201.974 57.3925 202.427 54.4964 202.332 51.5624C202.257 48.5527 202.106 46.2623 201.03 43.8773C200.255 42.1926 199.123 40.2619 197.046 40.4701C195.516 40.6026 193.987 41.568 193.062 42.9687C191.967 44.5777 191.494 46.7166 191.57 49.5181C191.589 50.2563 191.702 51.0513 191.815 51.9031C192.023 53.4364 192.25 55.0075 191.948 56.4271C191.627 57.8657 191.004 58.2822 190.532 58.3579C189.814 58.4904 189.021 57.9604 188.304 56.8625C186.566 54.1557 184.187 53.001 183.206 52.7739C184.357 53.9096 186.038 56.995 187.397 59.4747C188.02 60.6293 188.549 61.6136 188.889 62.1247C189.059 62.3897 189.663 62.9954 191.74 64.0365C191.872 64.1123 191.967 64.2637 191.967 64.4151C191.985 70.4156 190.853 76.151 188.606 81.4511C185.868 87.9626 181.525 93.6602 175.691 98.4113Z" fill="black"/>
<path d="M175.162 98.3166C172.33 100.569 169.894 102.027 168.61 102.803C147.293 115.485 134.303 100.929 99.3721 101.875C86.6084 102.216 77.8475 100.399 55.0766 110.299C55.0766 110.299 13.5755 123.643 13.5755 166.252C13.5755 178.196 21.4112 188.323 30.6631 191.541C38.952 181.187 41.5954 175.262 48.0528 172.707C48.015 172.234 43.5212 169.148 43.5779 168.637C44.6919 157.81 48.336 154.725 52.5276 152.718C54.4346 151.81 56.7004 152.926 56.9081 155.027C57.8899 164.34 56.5305 171.723 58.6074 193.813C59.7969 206.646 61.0809 208.539 62.3081 209.789C70.446 218.079 84.286 206.987 116.667 206.495C132.018 206.249 142.157 208.558 145.027 203.22C147.104 199.397 143.649 194.854 141.119 188.172C138.003 179.919 135.851 167.199 141.27 148.308C162.813 150.712 183.979 141.001 196.101 123.151C197.536 121.031 198.82 118.854 199.953 116.602C186.547 114.879 178.73 104.601 175.162 98.3166Z" fill="white"/>
<path fill-rule="evenodd" clip-rule="evenodd" d="M70.3707 213.291C66.991 213.291 64.3098 212.439 62.0252 210.092C60.6091 208.653 59.3629 206.457 58.1734 193.851C56.9461 180.733 56.9272 172.878 56.9083 166.574C56.9083 162.258 56.8895 158.851 56.493 155.084C56.4174 154.27 55.9643 153.57 55.2468 153.173C54.4915 152.737 53.5286 152.718 52.6978 153.116C48.9404 154.895 45.1642 157.583 43.9935 168.581C44.239 168.921 45.4096 169.849 46.2026 170.492C47.9775 171.912 48.4495 172.31 48.4684 172.669C48.4873 172.859 48.3929 173.029 48.2041 173.105C43.6159 174.922 41.0103 178.462 36.7053 184.311C35.0816 186.506 33.2501 188.986 31.0032 191.806C30.8899 191.958 30.7011 192.015 30.5312 191.939C20.4674 188.437 13.1415 177.629 13.1415 166.252C13.1415 144.068 24.508 129.928 34.0431 121.978C44.3712 113.365 54.8314 109.939 54.9447 109.901C74.2225 101.516 83.6443 101.516 93.6325 101.497C95.4828 101.497 97.3899 101.497 99.3724 101.44C113.703 101.061 124.164 103.238 133.378 105.15C146.462 107.876 155.922 109.844 168.384 102.443C169.686 101.667 172.084 100.229 174.898 97.976C174.992 97.9003 175.105 97.8624 175.237 97.9003C175.351 97.9192 175.464 97.9949 175.521 98.0896C178.957 104.128 186.698 114.482 200.01 116.186C200.142 116.205 200.255 116.28 200.312 116.394C200.387 116.526 200.387 116.659 200.331 116.791C199.179 119.082 197.876 121.296 196.46 123.379C184.244 141.342 163.248 151.053 141.572 148.781C137.343 163.716 137.324 176.909 141.515 188.021C142.195 189.8 142.913 191.39 143.611 192.923C145.518 197.106 147.029 200.438 145.405 203.429C143.177 207.555 137.059 207.366 127.808 207.082C124.503 206.968 120.765 206.855 116.668 206.912C102.261 207.139 91.329 209.505 83.3422 211.227C78.0743 212.382 73.8638 213.291 70.3707 213.291ZM53.944 151.98C54.5293 151.98 55.1335 152.131 55.6622 152.434C56.6062 152.964 57.2104 153.892 57.3426 154.99C57.7391 158.794 57.7391 162.221 57.758 166.574C57.7769 172.859 57.7958 180.695 59.023 193.775C60.1748 206.079 61.3832 208.237 62.6105 209.505C66.9532 213.915 73.0519 212.59 83.1722 210.413C91.1968 208.672 102.167 206.287 116.649 206.079C120.765 206.003 124.522 206.117 127.827 206.23C136.776 206.514 142.686 206.703 144.669 203.031C146.085 200.4 144.65 197.258 142.837 193.264C142.176 191.787 141.421 190.122 140.741 188.323C136.436 176.966 136.474 163.451 140.874 148.194C140.93 148.005 141.119 147.872 141.327 147.891C162.814 150.276 183.659 140.717 195.761 122.905C197.045 121.012 198.235 119.006 199.311 116.943C186.302 115.012 178.598 105.055 175.03 98.9414C172.349 101.061 170.064 102.424 168.818 103.163C156.073 110.753 146.481 108.747 133.208 105.983C124.031 104.071 113.628 101.913 99.3913 102.292C97.3899 102.349 95.4828 102.349 93.6325 102.349C83.7387 102.349 74.3924 102.349 55.2279 110.696C55.0957 110.734 44.7677 114.122 34.5718 122.64C25.1689 130.477 13.9911 144.409 13.9911 166.252C13.9911 177.174 20.9206 187.547 30.5312 191.049C32.6836 188.342 34.4585 185.938 36.0256 183.818C40.255 178.064 42.8795 174.486 47.3733 172.537C46.9768 172.177 46.2593 171.609 45.6928 171.155C43.4837 169.395 43.1061 169.016 43.1628 168.6C44.3523 157.072 48.525 154.176 52.3391 152.34C52.8489 152.113 53.3964 151.98 53.944 151.98Z" fill="black"/>
<path d="M86.0422 170.076C85.9667 170.076 85.8975 170.057 85.8345 170.019C77.3191 164.776 73.3918 156.504 75.5442 152.605C76.1862 151.431 78.4142 149.027 84.9282 152.283C85.1359 152.396 85.2303 152.643 85.1171 152.851C85.0226 153.059 84.7583 153.135 84.5506 153.04C80.4345 150.977 77.4135 150.977 76.2806 153.021C74.5624 156.107 77.6212 163.962 86.2688 169.3C86.4576 169.432 86.5332 169.679 86.401 169.887C86.3255 170.019 86.1933 170.076 86.0422 170.076Z" fill="black"/>
<path d="M86.1367 173.351L98.5984 172.385C99.4858 172.329 100.147 171.571 100.128 170.701L99.5613 147.797C99.5424 146.85 98.7306 146.112 97.7865 146.188L83.0591 147.324C82.1339 147.399 81.4353 148.232 81.5486 149.179L84.3619 171.912C84.4752 172.783 85.2493 173.408 86.1367 173.351Z" fill="black"/>
<path d="M95.6339 159.987C95.5584 159.823 95.464 159.665 95.3507 159.514C93.1038 156.561 88.2325 159.608 85.6835 160.422C83.6821 161.066 81.6807 161.709 79.6792 162.353L72.0512 171.401C67.9162 172.499 55.3412 176.739 46.146 170.738C43.2006 168.808 39.2355 169.622 37.1397 172.461C34.0054 176.701 31.0599 182.228 29.1529 190.86C43.918 195.308 65.0273 189.876 74.5058 181.414C78.8107 181.566 82.2093 177.382 84.7961 174.467C86.2499 172.84 87.6283 170.89 89.4786 169.678C91.178 168.581 93.236 167.899 94.5199 166.252C95.3318 165.192 95.7095 163.829 95.8794 162.504C95.9738 161.653 95.9738 160.744 95.6339 159.987Z" fill="white"/>
<path fill-rule="evenodd" clip-rule="evenodd" d="M41.01 192.904C36.8561 192.904 32.7777 192.393 29.0392 191.276C28.8316 191.201 28.6994 190.992 28.7371 190.784C30.3798 183.326 32.9477 177.42 36.7995 172.215C39.0652 169.148 43.2757 168.353 46.3723 170.379C54.6989 175.811 65.99 172.65 70.8236 171.306C71.1886 171.193 71.5159 171.098 71.8054 171.022L79.3579 162.088C79.4083 162.025 79.4712 161.981 79.5467 161.955L85.551 160.025C86.0608 159.873 86.6839 159.608 87.3447 159.324C90.0259 158.189 93.7077 156.636 95.6902 159.249C95.8161 159.425 95.9231 159.615 96.0112 159.817C96.3322 160.536 96.4266 161.407 96.2944 162.561C96.0868 164.227 95.6147 165.514 94.8595 166.517C93.9154 167.729 92.5937 168.429 91.3098 169.13C90.7811 169.413 90.2147 169.716 89.7049 170.038C88.3643 170.928 87.2503 172.234 86.1741 173.521C85.8153 173.937 85.4566 174.354 85.1167 174.751L84.5692 175.357C82.0202 178.253 78.8481 181.831 74.7509 181.831C74.7257 181.831 74.6942 181.831 74.6565 181.831C67.6138 188.021 53.9248 192.904 41.01 192.904ZM29.6434 190.576C44.8051 194.93 65.2347 189.118 74.2222 181.093C74.2977 181.017 74.411 180.979 74.5243 180.979C78.3383 181.13 81.4537 177.629 83.9461 174.808L84.4748 174.202C84.8335 173.805 85.1734 173.389 85.5321 172.972C86.6461 171.647 87.7979 170.284 89.2517 169.338C89.7804 168.978 90.3657 168.675 90.9133 168.372C92.1783 167.71 93.349 167.066 94.1797 165.987C94.8595 165.117 95.2749 163.962 95.4448 162.448C95.577 161.463 95.5014 160.725 95.256 160.157C95.1805 160.018 95.0986 159.886 95.0105 159.76C93.4245 157.678 90.2335 159.022 87.6657 160.1C86.986 160.384 86.344 160.668 85.8153 160.839L79.9244 162.713L72.3718 171.666C72.3089 171.729 72.2397 171.773 72.1641 171.799C71.8369 171.887 71.4655 171.988 71.0501 172.101C66.1221 173.483 54.5668 176.72 45.9191 171.079C43.1813 169.3 39.4806 170 37.4792 172.707C33.7596 177.742 31.2672 183.421 29.6434 190.576Z" fill="black"/>
<path d="M93.255 82.1326C90.7249 83.4197 88.7991 83.609 87.4207 83.5333C82.4361 83.2494 79.2451 79.2175 78.6031 78.4036C75.2989 74.2392 73.7129 67.4059 76.5073 63.393C78.5276 60.5158 81.0577 61.5948 83.3801 58.3579C86.0235 54.7046 83.3235 51.695 85.7592 48.496C88.5536 44.7859 94.7278 45.0699 95.8229 45.1266C99.6369 45.297 100.09 47.1899 103.678 47.0952C107.359 47.0006 107.85 45.1456 111.211 45.1266C113.892 45.1077 117.801 46.2624 119.538 49.3667C121.747 53.2661 119.5 58.3958 116.894 61.1026C113.76 64.3584 111.551 62.6169 107.171 65.248C99.5803 69.8477 101.393 78.025 93.255 82.1326Z" fill="black"/>
<path d="M107.397 99.4714L105.339 86.6376C105.792 86.5998 109.587 85.9373 110.003 85.7101C113.514 83.9687 112.551 75.1478 112.551 75.1478L114.496 72.8006L108.681 59.7587C102.507 64.9262 100.298 59.8533 94.1989 62.3898C88.0813 64.9452 91.4044 71.7596 91.4044 71.7596C91.4044 71.7596 86.4009 69.5449 87.4771 74.3907C88.2701 78.0439 90.9324 78.2711 92.6884 78.1386L89.4219 100.115C89.4219 100.115 83.04 101.932 79.2826 102.992C78.7162 103.144 78.7351 103.958 79.3015 104.09C85.1547 105.548 99.8255 109.731 116.403 103.598C117.083 103.352 117.045 102.349 116.347 102.14L107.397 99.4714Z" fill="white"/>
<path fill-rule="evenodd" clip-rule="evenodd" d="M98.013 107.251C90.0451 107.251 83.5877 105.623 79.9814 104.696L79.1884 104.506C78.7541 104.393 78.452 104.014 78.4331 103.56C78.4331 103.087 78.7352 102.708 79.1695 102.576C82.4737 101.648 87.8171 100.134 89.0444 99.7931L92.1976 78.5738C89.4031 78.6496 87.6661 77.2677 87.0619 74.4852C86.722 72.9709 86.9297 71.9109 87.6472 71.3052C88.478 70.6237 89.7808 70.813 90.6682 71.0591C90.2339 69.8287 89.6864 67.5383 90.4794 65.4372C91.0647 63.904 92.2542 62.7493 94.0291 62.0111C96.7857 60.8754 98.8249 61.2161 100.619 61.5189C102.998 61.9164 105.056 62.2572 108.417 59.4368C108.511 59.361 108.643 59.3232 108.775 59.361C108.908 59.38 109.002 59.4746 109.059 59.5882L114.874 72.6302C114.95 72.7816 114.912 72.952 114.817 73.0845L112.986 75.2802C113.099 76.6052 113.684 84.3471 110.191 86.0886C109.738 86.3157 106.925 86.8079 105.83 86.9972L107.775 99.1306L116.46 101.724C116.97 101.875 117.291 102.311 117.31 102.841C117.329 103.371 117.026 103.825 116.536 103.995C109.946 106.437 103.602 107.251 98.013 107.251ZM92.6885 77.7031C92.8018 77.7031 92.9151 77.7599 92.9906 77.8356C93.085 77.9303 93.1228 78.0628 93.1039 78.1953L89.8374 100.172C89.8185 100.342 89.7052 100.475 89.5353 100.512C89.5353 100.512 83.1534 102.348 79.3961 103.39C79.3016 103.427 79.2828 103.484 79.2828 103.541C79.2828 103.598 79.3016 103.655 79.3961 103.674L80.1891 103.882C86.2689 105.415 100.505 109.03 116.252 103.2C116.46 103.125 116.479 102.935 116.479 102.879C116.479 102.803 116.441 102.613 116.215 102.538L107.284 99.8688C107.114 99.831 107.001 99.6985 106.982 99.5281L104.924 86.7133C104.905 86.5997 104.942 86.4861 104.999 86.3915C105.075 86.2968 105.188 86.24 105.301 86.2211C105.83 86.1643 109.436 85.5207 109.833 85.3314C112.476 84.0064 112.382 77.5706 112.117 75.1856C112.117 75.072 112.155 74.9584 112.212 74.8638L114.005 72.7438L108.511 60.44C105.094 63.109 102.847 62.7493 100.486 62.3518C98.7116 62.0489 96.8801 61.7461 94.35 62.7872C92.8018 63.4308 91.7633 64.4151 91.2724 65.7401C90.2528 68.409 91.7633 71.5323 91.7822 71.5702C91.8577 71.7216 91.82 71.9109 91.7067 72.0434C91.5745 72.1759 91.3857 72.2137 91.2346 72.138C90.6304 71.873 88.9311 71.343 88.1759 71.9677C87.6094 72.422 87.7038 73.5009 87.8738 74.2959C88.4402 76.8513 89.9696 77.9303 92.6507 77.7031C92.6633 77.7031 92.6759 77.7031 92.6885 77.7031Z" fill="black"/>
<path d="M103.961 87.1676C98.7493 87.1676 96.3325 83.1169 96.2947 83.079C96.1815 82.8897 96.257 82.6247 96.4458 82.5111C96.6535 82.3786 96.899 82.4543 97.0311 82.6436C97.1255 82.8329 99.6556 86.9973 105.282 86.2212C105.509 86.2023 105.717 86.3537 105.754 86.5808C105.792 86.808 105.622 87.0351 105.396 87.0541C104.892 87.1298 104.414 87.1676 103.961 87.1676Z" fill="black"/>
<path fill-rule="evenodd" clip-rule="evenodd" d="M83.6066 255.104C78.6219 255.104 74.5625 251.035 74.5625 246.038C74.5625 241.04 78.6219 236.99 83.6066 236.99C88.5913 236.99 92.6508 241.04 92.6508 246.038C92.6508 251.035 88.5913 255.104 83.6066 255.104ZM83.6066 237.822C79.094 237.822 75.4121 241.514 75.4121 246.038C75.4121 250.58 79.094 254.272 83.6066 254.272C88.1192 254.272 91.8011 250.58 91.8011 246.038C91.8011 241.514 88.1192 237.822 83.6066 237.822Z" fill="black"/>
<path fill-rule="evenodd" clip-rule="evenodd" d="M107.907 255.104C102.922 255.104 98.8813 251.035 98.8813 246.038C98.8813 241.04 102.922 236.99 107.907 236.99C112.891 236.99 116.951 241.04 116.951 246.038C116.951 251.035 112.891 255.104 107.907 255.104ZM107.907 237.822C103.394 237.822 99.712 241.514 99.712 246.038C99.712 250.58 103.394 254.272 107.907 254.272C112.438 254.272 116.101 250.58 116.101 246.038C116.101 241.514 112.438 237.822 107.907 237.822Z" fill="black"/>
<path fill-rule="evenodd" clip-rule="evenodd" d="M132.66 254.215C127.675 254.215 123.616 250.164 123.616 245.167C123.616 240.17 127.675 236.1 132.66 236.1C137.645 236.1 141.704 240.17 141.704 245.167C141.704 250.164 137.645 254.215 132.66 254.215ZM132.66 236.933C128.128 236.933 124.465 240.624 124.465 245.167C124.465 249.691 128.128 253.382 132.66 253.382C137.172 253.382 140.854 249.691 140.854 245.167C140.854 240.624 137.172 236.933 132.66 236.933Z" fill="black"/>
<path d="M193.08 319.406C193.08 319.406 202.71 316.396 218.476 285.731C231.787 259.837 219.93 234.813 217.532 218.08C217.286 216.376 214.945 216.13 214.379 217.758C210.395 229.001 203.975 249.445 205.013 262.032C206.505 280.166 193.08 319.406 193.08 319.406Z" fill="white"/>
<path fill-rule="evenodd" clip-rule="evenodd" d="M193.08 319.822C192.967 319.822 192.872 319.784 192.778 319.709C192.684 319.595 192.646 319.425 192.684 319.273C192.816 318.876 206.052 279.92 204.579 262.07C203.54 249.369 210.017 228.774 213.982 217.606C214.303 216.698 215.152 216.149 216.115 216.244C217.059 216.338 217.796 217.058 217.947 218.023C218.475 221.809 219.514 226.068 220.628 230.573C224.442 246.246 229.219 265.761 218.853 285.921C203.182 316.396 193.609 319.69 193.212 319.803C193.174 319.816 193.13 319.822 193.08 319.822ZM215.889 217.076C215.473 217.076 214.982 217.304 214.775 217.89C210.828 228.983 204.39 249.464 205.428 261.995C206.788 278.444 195.837 312.459 193.798 318.592C196.46 317.059 205.277 310.49 218.098 285.523C228.313 265.667 223.592 246.322 219.797 230.762C218.702 226.238 217.664 221.96 217.116 218.136C217.003 217.436 216.455 217.133 216.021 217.095C215.983 217.083 215.939 217.076 215.889 217.076Z" fill="black"/>
<path d="M203.522 302.635L206.939 275.472C208.431 263.679 206.505 251.697 201.407 240.984C193.968 225.367 193.382 207.309 199.802 191.257L205.296 177.458C205.995 175.717 203.786 174.297 202.521 175.679L194.798 184.216C177.258 203.561 171.329 230.951 179.278 255.937L193.533 300.723L203.522 302.635Z" fill="white"/>
<path fill-rule="evenodd" clip-rule="evenodd" d="M203.522 303.07C203.497 303.07 203.471 303.064 203.446 303.051L193.458 301.139C193.307 301.102 193.175 300.988 193.137 300.837L178.882 256.07C170.895 230.989 176.88 203.353 194.478 183.932L202.219 175.395C203.031 174.505 204.126 174.581 204.862 175.035C205.599 175.509 206.146 176.474 205.693 177.61L200.18 191.409C193.836 207.328 194.421 225.329 201.785 240.794C206.939 251.603 208.865 263.622 207.373 275.529L203.937 302.692C203.918 302.805 203.862 302.919 203.767 302.976C203.692 303.032 203.616 303.07 203.522 303.07ZM193.854 300.344L203.163 302.143L206.524 275.415C208.015 263.679 206.108 251.83 201.029 241.154C193.552 225.481 192.967 207.233 199.406 191.087L204.919 177.307C205.202 176.569 204.825 176.001 204.409 175.755C204.013 175.49 203.352 175.395 202.842 175.963L195.101 184.5C177.711 203.694 171.801 231.027 179.675 255.824L193.854 300.344Z" fill="black"/>
<path d="M199.103 303.524L187.208 273.087C183.828 264.417 176.71 257.792 167.892 255.123L159.773 252.663C157.81 252.057 156.488 254.669 158.112 255.937L163.097 259.818C168.497 264.039 171.725 270.494 171.876 277.403C171.952 281.453 173.104 285.41 175.199 288.855L183.262 302.105L199.103 303.524Z" fill="white"/>
<path fill-rule="evenodd" clip-rule="evenodd" d="M199.104 303.96C199.091 303.96 199.078 303.96 199.066 303.96L183.224 302.521C183.092 302.521 182.979 302.446 182.903 302.332L174.841 289.082C172.707 285.561 171.537 281.529 171.442 277.403C171.31 270.607 168.176 264.323 162.851 260.159L157.867 256.278C156.828 255.464 156.791 254.234 157.225 253.401C157.659 252.549 158.66 251.887 159.906 252.265L168.006 254.726C177.012 257.452 184.15 264.096 187.605 272.935L199.5 303.373C199.538 303.506 199.519 303.676 199.443 303.79C199.349 303.884 199.236 303.96 199.104 303.96ZM183.508 301.707L198.462 303.051L186.812 273.238C183.451 264.645 176.522 258.19 167.761 255.521L159.661 253.06C158.83 252.814 158.226 253.287 157.98 253.779C157.716 254.272 157.678 255.067 158.377 255.616L163.361 259.496C168.893 263.812 172.141 270.323 172.292 277.384C172.368 281.359 173.501 285.258 175.559 288.646L183.508 301.707Z" fill="black"/>
<path d="M197.348 289.65C197.335 289.65 197.322 289.65 197.31 289.65C197.064 289.631 196.894 289.422 196.913 289.176C198.726 269.736 194.836 257.206 191.4 246.17C189.814 241.059 188.303 236.232 187.416 231.065C183.224 206.59 197.555 185.371 197.706 185.143C197.82 184.954 198.084 184.916 198.273 185.049C198.48 185.181 198.518 185.427 198.386 185.636C198.254 185.844 184.112 206.798 188.247 230.913C189.134 236.043 190.626 240.832 192.212 245.905C195.667 257.035 199.594 269.642 197.763 289.271C197.744 289.479 197.555 289.65 197.348 289.65Z" fill="black"/>
<path d="M213.189 276.645C213.164 276.645 213.138 276.645 213.113 276.645C212.887 276.608 212.717 276.38 212.773 276.153C216.002 256.941 214.888 227.374 214.869 227.09C214.869 226.844 215.039 226.654 215.266 226.635C215.511 226.635 215.7 226.825 215.719 227.052C215.719 227.355 216.852 256.997 213.585 276.286C213.566 276.494 213.378 276.645 213.189 276.645Z" fill="black"/>
<path d="M184.791 292.546C184.546 292.546 184.357 292.375 184.357 292.129C184.13 268.203 165.06 257.698 164.872 257.603C164.664 257.49 164.588 257.224 164.702 257.016C164.815 256.827 165.06 256.751 165.268 256.846C165.476 256.959 184.98 267.711 185.207 292.129C185.207 292.356 185.018 292.546 184.791 292.546Z" fill="black"/>
<path d="M187.359 247.798C187.246 247.798 187.114 247.741 187.038 247.627C181.884 240.983 179.58 232.011 179.561 231.916C179.505 231.689 179.637 231.462 179.863 231.405C180.09 231.349 180.316 231.481 180.373 231.708C180.411 231.803 182.658 240.605 187.699 247.116C187.831 247.287 187.812 247.552 187.623 247.703C187.548 247.76 187.454 247.798 187.359 247.798Z" fill="black"/>
<path d="M197.366 338.921H195.195C183.356 338.921 173.746 329.287 173.746 317.418V296.161H218.815V317.418C218.815 329.287 209.205 338.921 197.366 338.921Z" fill="white"/>
<path fill-rule="evenodd" clip-rule="evenodd" d="M197.366 339.338H195.195C183.149 339.338 173.331 329.495 173.331 317.418V296.161C173.331 295.934 173.519 295.745 173.746 295.745H218.816C219.042 295.745 219.231 295.934 219.231 296.161V317.418C219.231 329.495 209.432 339.338 197.366 339.338ZM174.18 296.596V317.418C174.18 329.041 183.602 338.486 195.195 338.486H197.366C208.96 338.486 218.4 329.041 218.4 317.418V296.596H174.18Z" fill="black"/>
<path d="M214.398 304.13H178.164C177.938 304.13 177.749 303.941 177.749 303.714C177.749 303.487 177.938 303.297 178.164 303.297H214.398C214.624 303.297 214.813 303.487 214.813 303.714C214.813 303.941 214.624 304.13 214.398 304.13Z" fill="black"/>
</g>
<defs>
<clipPath id="clip0_769_4987">
<rect width="348.927" height="346.398" fill="white" transform="translate(0 0.208374)"/>
</clipPath>
</defs>
</svg>
