<svg width="40" height="40" viewBox="0 0 40 40" fill="none" xmlns="http://www.w3.org/2000/svg">
<g clip-path="url(#clip0_124_507)">
<path d="M26.6667 11.6667H25L23.3333 10H16.6667L15 11.6667H13.3333C11.5 11.6667 10 13.1667 10 15V25C10 26.8333 11.5 28.3333 13.3333 28.3333H26.6667C28.5 28.3333 30 26.8333 30 25V15C30 13.1667 28.5 11.6667 26.6667 11.6667ZM26.6667 25H13.3333V15H16.3833L18.05 13.3333H21.95L23.6167 15H26.6667V25Z" fill="white" stroke="#FF6701"/>
<path d="M20 23.3332C21.841 23.3332 23.3334 21.8408 23.3334 19.9998C23.3334 18.1589 21.841 16.6665 20 16.6665C18.1591 16.6665 16.6667 18.1589 16.6667 19.9998C16.6667 21.8408 18.1591 23.3332 20 23.3332Z" fill="white" stroke="#FF6701"/>
<path d="M14.2833 0.866768L21.75 8.33343L24.1 5.98343L21.5333 3.41677C29.5 4.1001 35.8833 10.4001 36.6667 18.3334H40C38.9333 5.5001 26.3167 -2.78323 14.2833 0.866768ZM15.9 34.0168L18.4667 36.5834C10.5 35.9001 4.11667 29.6001 3.33333 21.6668H0C1.06667 34.5001 13.6833 42.7834 25.7167 39.1334L18.25 31.6668L15.9 34.0168Z" fill="white" stroke="#FF6701"/>
</g>
<defs>
<clipPath id="clip0_124_507">
<rect width="40" height="40" fill="white"/>
</clipPath>
</defs>
</svg>
