<svg width="20" height="20" viewBox="0 0 20 20" fill="none" xmlns="http://www.w3.org/2000/svg">
<path d="M3.33333 17.5V15.8333C3.33333 14.9493 3.68452 14.1014 4.30964 13.4763C4.93476 12.8512 5.78261 12.5 6.66666 12.5H9.99999" stroke="#FF6701" stroke-width="1.5" stroke-linecap="round" stroke-linejoin="round"/>
<path d="M10 9.16667C11.841 9.16667 13.3333 7.67428 13.3333 5.83333C13.3333 3.99238 11.841 2.5 10 2.5C8.15906 2.5 6.66667 3.99238 6.66667 5.83333C6.66667 7.67428 8.15906 9.16667 10 9.16667Z" stroke="#FF6701" stroke-width="1.5" stroke-linecap="round" stroke-linejoin="round"/>
<path d="M16.3333 14H11.6667C11.2985 14 11 14.2985 11 14.6667V17C11 17.3682 11.2985 17.6667 11.6667 17.6667H16.3333C16.7015 17.6667 17 17.3682 17 17V14.6667C17 14.2985 16.7015 14 16.3333 14Z" stroke="#FF6701" stroke-width="1.5" stroke-linecap="round" stroke-linejoin="round"/>
<path d="M12.3333 14V12.6667C12.3333 12.2246 12.5089 11.8007 12.8215 11.4882C13.1341 11.1756 13.558 11 14 11C14.442 11 14.866 11.1756 15.1785 11.4882C15.4911 11.8007 15.6667 12.2246 15.6667 12.6667V14" stroke="#FF6701" stroke-width="1.5" stroke-linecap="round" stroke-linejoin="round"/>
</svg>
