<svg width="32" height="33" viewBox="0 0 32 33" fill="none" xmlns="http://www.w3.org/2000/svg">
<g id="search (3) 1">
<path id="Vector" d="M25.9995 24.8188L20.8964 19.7157C22.287 18.0149 22.9708 15.8446 22.8062 13.6538C22.6416 11.4631 21.6412 9.41935 20.012 7.94544C18.3829 6.47153 16.2495 5.68019 14.0532 5.7351C11.8569 5.79001 9.76578 6.68698 8.2123 8.24047C6.65881 9.79395 5.76184 11.8851 5.70693 14.0814C5.65201 16.2777 6.44335 18.411 7.91726 20.0402C9.39118 21.6694 11.4349 22.6697 13.6257 22.8343C15.8165 22.9989 17.9867 22.3152 19.6875 20.9246L24.7906 26.0276C24.9518 26.1834 25.1678 26.2696 25.392 26.2676C25.6161 26.2657 25.8305 26.1757 25.9891 26.0172C26.1476 25.8587 26.2375 25.6443 26.2394 25.4201C26.2414 25.196 26.1552 24.98 25.9995 24.8188ZM14.2809 21.1486C12.9282 21.1486 11.6059 20.7474 10.4811 19.9959C9.35639 19.2444 8.47976 18.1762 7.9621 16.9264C7.44444 15.6767 7.30899 14.3015 7.5729 12.9748C7.8368 11.6481 8.48819 10.4294 9.44471 9.47288C10.4012 8.51636 11.6199 7.86497 12.9466 7.60107C14.2733 7.33717 15.6485 7.47261 16.8983 7.99027C18.148 8.50793 19.2162 9.38456 19.9677 10.5093C20.7193 11.634 21.1204 12.9564 21.1204 14.3091C21.1183 16.1224 20.3971 17.8609 19.1149 19.1431C17.8327 20.4253 16.0942 21.1465 14.2809 21.1486Z" fill="#303030"/>
</g>
</svg>
