<svg width="241" height="236" viewBox="0 0 241 236" fill="none" xmlns="http://www.w3.org/2000/svg">
<path d="M12.2773 212.727H16.0273L10.1328 230H6.72266L0.886719 212.727H4.74219L8.49219 225.84L12.2773 212.727ZM21.6289 219.641C20.8555 219.641 20.2539 219.883 19.8242 220.367C19.4023 220.852 19.1367 221.508 19.0273 222.336H24.2188C24.1641 221.453 23.8945 220.785 23.4102 220.332C22.9336 219.871 22.3398 219.641 21.6289 219.641ZM21.6289 216.887C22.6914 216.887 23.6484 217.086 24.5 217.484C25.3516 217.883 26.0547 218.512 26.6094 219.371C27.1094 220.129 27.4336 221.008 27.582 222.008C27.668 222.594 27.7031 223.438 27.6875 224.539H18.9453C18.9922 225.82 19.3945 226.719 20.1523 227.234C20.6133 227.555 21.168 227.715 21.8164 227.715C22.5039 227.715 23.0625 227.52 23.4922 227.129C23.7266 226.918 23.9336 226.625 24.1133 226.25H27.5234C27.4375 227.008 27.043 227.777 26.3398 228.559C25.2461 229.801 23.7148 230.422 21.7461 230.422C20.1211 230.422 18.6875 229.898 17.4453 228.852C16.2031 227.805 15.582 226.102 15.582 223.742C15.582 221.531 16.1406 219.836 17.2578 218.656C18.3828 217.477 19.8398 216.887 21.6289 216.887ZM36.8867 216.922C36.9492 216.922 37 216.926 37.0391 216.934C37.0859 216.934 37.1836 216.938 37.332 216.945V220.367C37.1211 220.344 36.9336 220.328 36.7695 220.32C36.6055 220.312 36.4727 220.309 36.3711 220.309C35.0273 220.309 34.125 220.746 33.6641 221.621C33.4062 222.113 33.2773 222.871 33.2773 223.895V230H29.9141V217.227H33.1016V219.453C33.6172 218.602 34.0664 218.02 34.4492 217.707C35.0742 217.184 35.8867 216.922 36.8867 216.922ZM42.7344 215.703H39.3477V212.621H42.7344V215.703ZM39.3477 217.227H42.7344V230H39.3477V217.227ZM54.1133 212.621H57.3828V215.668H54.1133V212.621ZM54.1133 217.285H57.4414V230H54.1133V217.285ZM50.7734 212.551C50.9766 212.551 51.1836 212.559 51.3945 212.574C51.6055 212.59 51.8242 212.605 52.0508 212.621V215.34C51.8945 215.332 51.7422 215.328 51.5938 215.328C51.4453 215.32 51.2656 215.316 51.0547 215.316C50.5312 215.316 50.2109 215.461 50.0938 215.75C49.9766 216.039 49.9258 216.492 49.9414 217.109V217.344H52.1328V219.699H49.9414V230H46.6133V219.699H44.75V217.344H46.5781V216.523C46.5781 215.164 46.8789 214.152 47.4805 213.488C48.0195 212.863 49.1172 212.551 50.7734 212.551ZM65.6914 219.641C64.918 219.641 64.3164 219.883 63.8867 220.367C63.4648 220.852 63.1992 221.508 63.0898 222.336H68.2812C68.2266 221.453 67.957 220.785 67.4727 220.332C66.9961 219.871 66.4023 219.641 65.6914 219.641ZM65.6914 216.887C66.7539 216.887 67.7109 217.086 68.5625 217.484C69.4141 217.883 70.1172 218.512 70.6719 219.371C71.1719 220.129 71.4961 221.008 71.6445 222.008C71.7305 222.594 71.7656 223.438 71.75 224.539H63.0078C63.0547 225.82 63.457 226.719 64.2148 227.234C64.6758 227.555 65.2305 227.715 65.8789 227.715C66.5664 227.715 67.125 227.52 67.5547 227.129C67.7891 226.918 67.9961 226.625 68.1758 226.25H71.5859C71.5 227.008 71.1055 227.777 70.4023 228.559C69.3086 229.801 67.7773 230.422 65.8086 230.422C64.1836 230.422 62.75 229.898 61.5078 228.852C60.2656 227.805 59.6445 226.102 59.6445 223.742C59.6445 221.531 60.2031 219.836 61.3203 218.656C62.4453 217.477 63.9023 216.887 65.6914 216.887ZM78.7227 216.922C79.4961 216.922 80.1836 217.094 80.7852 217.438C81.3867 217.773 81.875 218.242 82.25 218.844V212.75H85.6367V230H82.3906V228.23C81.9141 228.988 81.3711 229.539 80.7617 229.883C80.1523 230.227 79.3945 230.398 78.4883 230.398C76.9961 230.398 75.7383 229.797 74.7148 228.594C73.6992 227.383 73.1914 225.832 73.1914 223.941C73.1914 221.762 73.6914 220.047 74.6914 218.797C75.6992 217.547 77.043 216.922 78.7227 216.922ZM79.4492 227.586C80.3945 227.586 81.1133 227.234 81.6055 226.531C82.0977 225.828 82.3438 224.918 82.3438 223.801C82.3438 222.238 81.9492 221.121 81.1602 220.449C80.6758 220.043 80.1133 219.84 79.4727 219.84C78.4961 219.84 77.7773 220.211 77.3164 220.953C76.8633 221.688 76.6367 222.602 76.6367 223.695C76.6367 224.875 76.8672 225.82 77.3281 226.531C77.7969 227.234 78.5039 227.586 79.4492 227.586ZM98.2461 224.668C98.3555 225.457 98.5703 226.047 98.8906 226.438C99.4766 227.148 100.48 227.504 101.902 227.504C102.754 227.504 103.445 227.41 103.977 227.223C104.984 226.863 105.488 226.195 105.488 225.219C105.488 224.648 105.238 224.207 104.738 223.895C104.238 223.59 103.453 223.32 102.383 223.086L100.555 222.676C98.7578 222.27 97.5156 221.828 96.8281 221.352C95.6641 220.555 95.082 219.309 95.082 217.613C95.082 216.066 95.6445 214.781 96.7695 213.758C97.8945 212.734 99.5469 212.223 101.727 212.223C103.547 212.223 105.098 212.707 106.379 213.676C107.668 214.637 108.344 216.035 108.406 217.871H104.938C104.875 216.832 104.422 216.094 103.578 215.656C103.016 215.367 102.316 215.223 101.48 215.223C100.551 215.223 99.8086 215.41 99.2539 215.785C98.6992 216.16 98.4219 216.684 98.4219 217.355C98.4219 217.973 98.6953 218.434 99.2422 218.738C99.5938 218.941 100.344 219.18 101.492 219.453L104.469 220.168C105.773 220.48 106.758 220.898 107.422 221.422C108.453 222.234 108.969 223.41 108.969 224.949C108.969 226.527 108.363 227.84 107.152 228.887C105.949 229.926 104.246 230.445 102.043 230.445C99.793 230.445 98.0234 229.934 96.7344 228.91C95.4453 227.879 94.8008 226.465 94.8008 224.668H98.2461ZM114.699 217.227V224.926C114.699 225.652 114.785 226.199 114.957 226.566C115.262 227.215 115.859 227.539 116.75 227.539C117.891 227.539 118.672 227.078 119.094 226.156C119.312 225.656 119.422 224.996 119.422 224.176V217.227H122.809V230H119.562V228.195C119.531 228.234 119.453 228.352 119.328 228.547C119.203 228.742 119.055 228.914 118.883 229.062C118.359 229.531 117.852 229.852 117.359 230.023C116.875 230.195 116.305 230.281 115.648 230.281C113.758 230.281 112.484 229.602 111.828 228.242C111.461 227.492 111.277 226.387 111.277 224.926V217.227H114.699ZM133.672 221.809C133.609 221.332 133.449 220.902 133.191 220.52C132.816 220.004 132.234 219.746 131.445 219.746C130.32 219.746 129.551 220.305 129.137 221.422C128.918 222.016 128.809 222.805 128.809 223.789C128.809 224.727 128.918 225.48 129.137 226.051C129.535 227.113 130.285 227.645 131.387 227.645C132.168 227.645 132.723 227.434 133.051 227.012C133.379 226.59 133.578 226.043 133.648 225.371H137.059C136.98 226.387 136.613 227.348 135.957 228.254C134.91 229.715 133.359 230.445 131.305 230.445C129.25 230.445 127.738 229.836 126.77 228.617C125.801 227.398 125.316 225.816 125.316 223.871C125.316 221.676 125.852 219.969 126.922 218.75C127.992 217.531 129.469 216.922 131.352 216.922C132.953 216.922 134.262 217.281 135.277 218C136.301 218.719 136.906 219.988 137.094 221.809H133.672ZM147.031 221.809C146.969 221.332 146.809 220.902 146.551 220.52C146.176 220.004 145.594 219.746 144.805 219.746C143.68 219.746 142.91 220.305 142.496 221.422C142.277 222.016 142.168 222.805 142.168 223.789C142.168 224.727 142.277 225.48 142.496 226.051C142.895 227.113 143.645 227.645 144.746 227.645C145.527 227.645 146.082 227.434 146.41 227.012C146.738 226.59 146.938 226.043 147.008 225.371H150.418C150.34 226.387 149.973 227.348 149.316 228.254C148.27 229.715 146.719 230.445 144.664 230.445C142.609 230.445 141.098 229.836 140.129 228.617C139.16 227.398 138.676 225.816 138.676 223.871C138.676 221.676 139.211 219.969 140.281 218.75C141.352 217.531 142.828 216.922 144.711 216.922C146.312 216.922 147.621 217.281 148.637 218C149.66 218.719 150.266 219.988 150.453 221.809H147.031ZM157.801 219.641C157.027 219.641 156.426 219.883 155.996 220.367C155.574 220.852 155.309 221.508 155.199 222.336H160.391C160.336 221.453 160.066 220.785 159.582 220.332C159.105 219.871 158.512 219.641 157.801 219.641ZM157.801 216.887C158.863 216.887 159.82 217.086 160.672 217.484C161.523 217.883 162.227 218.512 162.781 219.371C163.281 220.129 163.605 221.008 163.754 222.008C163.84 222.594 163.875 223.438 163.859 224.539H155.117C155.164 225.82 155.566 226.719 156.324 227.234C156.785 227.555 157.34 227.715 157.988 227.715C158.676 227.715 159.234 227.52 159.664 227.129C159.898 226.918 160.105 226.625 160.285 226.25H163.695C163.609 227.008 163.215 227.777 162.512 228.559C161.418 229.801 159.887 230.422 157.918 230.422C156.293 230.422 154.859 229.898 153.617 228.852C152.375 227.805 151.754 226.102 151.754 223.742C151.754 221.531 152.312 219.836 153.43 218.656C154.555 217.477 156.012 216.887 157.801 216.887ZM168.723 225.922C168.793 226.516 168.945 226.938 169.18 227.188C169.594 227.633 170.359 227.855 171.477 227.855C172.133 227.855 172.652 227.758 173.035 227.562C173.426 227.367 173.621 227.074 173.621 226.684C173.621 226.309 173.465 226.023 173.152 225.828C172.84 225.633 171.68 225.297 169.672 224.82C168.227 224.461 167.207 224.012 166.613 223.473C166.02 222.941 165.723 222.176 165.723 221.176C165.723 219.996 166.184 218.984 167.105 218.141C168.035 217.289 169.34 216.863 171.02 216.863C172.613 216.863 173.91 217.184 174.91 217.824C175.918 218.457 176.496 219.555 176.645 221.117H173.305C173.258 220.688 173.137 220.348 172.941 220.098C172.574 219.645 171.949 219.418 171.066 219.418C170.34 219.418 169.82 219.531 169.508 219.758C169.203 219.984 169.051 220.25 169.051 220.555C169.051 220.938 169.215 221.215 169.543 221.387C169.871 221.566 171.031 221.875 173.023 222.312C174.352 222.625 175.348 223.098 176.012 223.73C176.668 224.371 176.996 225.172 176.996 226.133C176.996 227.398 176.523 228.434 175.578 229.238C174.641 230.035 173.188 230.434 171.219 230.434C169.211 230.434 167.727 230.012 166.766 229.168C165.812 228.316 165.336 227.234 165.336 225.922H168.723ZM182.082 225.922C182.152 226.516 182.305 226.938 182.539 227.188C182.953 227.633 183.719 227.855 184.836 227.855C185.492 227.855 186.012 227.758 186.395 227.562C186.785 227.367 186.98 227.074 186.98 226.684C186.98 226.309 186.824 226.023 186.512 225.828C186.199 225.633 185.039 225.297 183.031 224.82C181.586 224.461 180.566 224.012 179.973 223.473C179.379 222.941 179.082 222.176 179.082 221.176C179.082 219.996 179.543 218.984 180.465 218.141C181.395 217.289 182.699 216.863 184.379 216.863C185.973 216.863 187.27 217.184 188.27 217.824C189.277 218.457 189.855 219.555 190.004 221.117H186.664C186.617 220.688 186.496 220.348 186.301 220.098C185.934 219.645 185.309 219.418 184.426 219.418C183.699 219.418 183.18 219.531 182.867 219.758C182.562 219.984 182.41 220.25 182.41 220.555C182.41 220.938 182.574 221.215 182.902 221.387C183.23 221.566 184.391 221.875 186.383 222.312C187.711 222.625 188.707 223.098 189.371 223.73C190.027 224.371 190.355 225.172 190.355 226.133C190.355 227.398 189.883 228.434 188.938 229.238C188 230.035 186.547 230.434 184.578 230.434C182.57 230.434 181.086 230.012 180.125 229.168C179.172 228.316 178.695 227.234 178.695 225.922H182.082ZM197.551 212.551C197.762 212.551 197.953 212.559 198.125 212.574C198.297 212.582 198.531 212.598 198.828 212.621V215.34C198.641 215.316 198.324 215.301 197.879 215.293C197.441 215.277 197.137 215.375 196.965 215.586C196.801 215.789 196.719 216.016 196.719 216.266C196.719 216.516 196.719 216.875 196.719 217.344H198.91V219.699H196.719V230H193.391V219.699H191.527V217.344H193.355V216.523C193.355 215.156 193.586 214.215 194.047 213.699C194.531 212.934 195.699 212.551 197.551 212.551ZM204.16 217.227V224.926C204.16 225.652 204.246 226.199 204.418 226.566C204.723 227.215 205.32 227.539 206.211 227.539C207.352 227.539 208.133 227.078 208.555 226.156C208.773 225.656 208.883 224.996 208.883 224.176V217.227H212.27V230H209.023V228.195C208.992 228.234 208.914 228.352 208.789 228.547C208.664 228.742 208.516 228.914 208.344 229.062C207.82 229.531 207.312 229.852 206.82 230.023C206.336 230.195 205.766 230.281 205.109 230.281C203.219 230.281 201.945 229.602 201.289 228.242C200.922 227.492 200.738 226.387 200.738 224.926V217.227H204.16ZM218.914 230H215.574V212.727H218.914V230ZM225.594 230H222.254V212.727H225.594V230ZM229.379 232.449L229.801 232.473C230.129 232.488 230.441 232.477 230.738 232.438C231.035 232.398 231.285 232.309 231.488 232.168C231.684 232.035 231.863 231.758 232.027 231.336C232.199 230.914 232.27 230.656 232.238 230.562L227.551 217.227H231.266L234.055 226.648L236.691 217.227H240.242L235.859 229.789C235.016 232.211 234.348 233.711 233.855 234.289C233.363 234.875 232.379 235.168 230.902 235.168C230.605 235.168 230.367 235.164 230.188 235.156C230.008 235.156 229.738 235.145 229.379 235.121V232.449Z" fill="#303030"/>
<rect opacity="0.1" x="29" width="182" height="182" rx="91" fill="#FF6701"/>
<rect opacity="0.1" x="42" y="13" width="156" height="156" rx="78" fill="#FF6701"/>
<rect x="59" y="30" width="122" height="122" rx="61" fill="#FF6701"/>
<path fill-rule="evenodd" clip-rule="evenodd" d="M150.748 68.2689C152.417 69.9607 152.417 72.7036 150.748 74.3954L111.933 113.731C110.263 115.423 107.557 115.423 105.887 113.731L89.2521 96.873C87.5826 95.1812 87.5826 92.4382 89.2521 90.7464C90.9215 89.0546 93.6281 89.0546 95.2976 90.7464L108.91 104.541L144.702 68.2689C146.372 66.577 149.079 66.577 150.748 68.2689Z" fill="white"/>
</svg>
