<svg width="33" height="33" viewBox="0 0 33 33" fill="none" xmlns="http://www.w3.org/2000/svg">
<g clip-path="url(#clip0_124_568)">
<path d="M30.9328 8.91764C30.0451 8.48482 28.9984 8.57574 28.2052 9.15838C28.154 9.19551 28.1054 9.23777 28.0607 9.28131L25.7533 11.5517C25.4762 8.26713 22.6789 5.66895 19.2407 5.66895H7.42125C3.80054 5.66767 0.854858 8.53988 0.854858 12.0703V19.7534C0.854858 23.2839 3.80054 26.1561 7.42125 26.1561H19.2407C22.6933 26.1561 25.5024 23.5348 25.7572 20.2311L28.0633 22.4771C28.108 22.5194 28.154 22.5578 28.2039 22.5949C28.6661 22.933 29.2125 23.1046 29.764 23.1046C30.162 23.1046 30.5599 23.0162 30.9328 22.8344C31.8219 22.4016 32.3735 21.5295 32.3735 20.5627V11.1919C32.3735 10.2225 31.8219 9.35174 30.9328 8.91892V8.91764ZM19.2407 24.1572H7.42125C5.24908 24.1572 3.21876 21.8714 3.21876 19.7534V12.0703C3.21876 9.9523 5.24908 7.66655 7.42125 7.66655H13.331H19.2407C21.4129 7.66655 23.9173 9.9523 23.9173 12.0703V19.7534C23.9173 21.8714 21.4129 24.1572 19.2407 24.1572ZM25.6758 16.7005V14.1183L30.4036 10.1784V21.4283L25.643 17.5585L25.6758 16.7005Z" fill="white"/>
</g>
<defs>
<clipPath id="clip0_124_568">
<rect width="32.3066" height="32.3066" fill="white" transform="translate(0.0664062 0.15332)"/>
</clipPath>
</defs>
</svg>
